G75*
%MOIN*%
%OFA0B0*%
%FSLAX24Y24*%
%IPPOS*%
%LPD*%
%AMOC8*
5,1,8,0,0,1.08239X$1,22.5*
%
%ADD10C,0.0600*%
%ADD11OC8,0.0520*%
%ADD12C,0.0515*%
%ADD13R,0.0515X0.0515*%
%ADD14C,0.0760*%
%ADD15R,0.1500X0.1500*%
%ADD16C,0.0397*%
%ADD17C,0.0660*%
%ADD18C,0.0551*%
%ADD19C,0.0705*%
%ADD20OC8,0.0760*%
%ADD21C,0.0560*%
%ADD22C,0.0240*%
%ADD23C,0.0160*%
%ADD24C,0.0472*%
%ADD25C,0.0356*%
%ADD26C,0.0320*%
D10*
X013350Y001270D02*
X013350Y001870D01*
X014350Y001870D02*
X014350Y001270D01*
X015350Y001270D02*
X015350Y001870D01*
X016350Y001870D02*
X016350Y001270D01*
X017350Y001270D02*
X017350Y001870D01*
X018350Y001870D02*
X018350Y001270D01*
X020400Y001220D02*
X020400Y001820D01*
X021400Y001820D02*
X021400Y001220D01*
X022400Y001220D02*
X022400Y001820D01*
X023400Y001820D02*
X023400Y001220D01*
X024400Y001220D02*
X024400Y001820D01*
X025400Y001820D02*
X025400Y001220D01*
X008790Y014340D02*
X008790Y014940D01*
X007010Y014940D02*
X007010Y014340D01*
X007010Y016900D02*
X007010Y017500D01*
X008790Y017500D02*
X008790Y016900D01*
X009800Y020220D02*
X009800Y020820D01*
X010800Y020820D02*
X010800Y020220D01*
X011800Y020220D02*
X011800Y020820D01*
X012800Y020820D02*
X012800Y020220D01*
X013800Y020220D02*
X013800Y020820D01*
X014800Y020820D02*
X014800Y020220D01*
X015800Y020220D02*
X015800Y020820D01*
X016800Y020820D02*
X016800Y020220D01*
X018350Y020220D02*
X018350Y020820D01*
X019350Y020820D02*
X019350Y020220D01*
X020350Y020220D02*
X020350Y020820D01*
X021350Y020820D02*
X021350Y020220D01*
X022350Y020220D02*
X022350Y020820D01*
X023350Y020820D02*
X023350Y020220D01*
X024350Y020220D02*
X024350Y020820D01*
X025350Y020820D02*
X025350Y020220D01*
D11*
X023350Y018270D03*
X019350Y018270D03*
X017500Y017120D03*
X017000Y017870D03*
X016500Y017120D03*
X013800Y016670D03*
X013800Y017720D03*
X013800Y018820D03*
X009800Y018820D03*
X009800Y017720D03*
X009800Y016670D03*
X011650Y012720D03*
X011650Y011520D03*
X011650Y010320D03*
X011650Y009120D03*
X007650Y009120D03*
X007650Y010320D03*
X007650Y011520D03*
X007650Y012720D03*
X004800Y007170D03*
X004800Y005170D03*
D12*
X006700Y020320D03*
X007450Y020320D03*
X008950Y020320D03*
D13*
X008200Y020320D03*
D14*
X008516Y006270D03*
X009500Y006270D03*
X010484Y006270D03*
D15*
X011272Y003514D03*
X007728Y003514D03*
D16*
X005498Y002670D02*
X005102Y002670D01*
X005102Y001920D02*
X005498Y001920D01*
X005498Y001170D02*
X005102Y001170D01*
D17*
X017250Y011370D03*
X019250Y012670D03*
X021250Y012670D03*
X021250Y011370D03*
X021250Y015670D03*
X021250Y016670D03*
X019250Y016670D03*
X019250Y015670D03*
D18*
X005400Y010020D03*
X004400Y010020D03*
D19*
X023440Y012251D02*
X024145Y012251D01*
X024145Y014220D02*
X023440Y014220D01*
X023440Y016189D02*
X024145Y016189D01*
D20*
X015400Y014904D03*
X015400Y012936D03*
D21*
X025720Y010320D02*
X026280Y010320D01*
X026280Y009320D02*
X025720Y009320D01*
X025720Y008320D02*
X026280Y008320D01*
D22*
X004850Y001170D02*
X004400Y001620D01*
X004400Y004770D01*
X004800Y005170D01*
X005950Y006320D01*
X008300Y006320D01*
X008350Y006270D01*
X008516Y006270D01*
X009500Y006270D02*
X009500Y007320D01*
X009900Y007720D01*
X018400Y007720D01*
X022400Y003720D01*
X022400Y001520D01*
X023400Y001520D02*
X023400Y003520D01*
X023100Y003820D01*
X024400Y003820D02*
X018500Y009720D01*
X008300Y009720D01*
X007650Y009120D01*
X007500Y008970D01*
X007500Y007720D01*
X006950Y007170D01*
X004800Y007170D01*
X004100Y005320D02*
X004250Y005170D01*
X004800Y005170D01*
X004100Y005320D02*
X004100Y009720D01*
X004400Y010020D01*
X004400Y014320D01*
X004800Y014720D01*
X006930Y014720D01*
X007010Y014640D01*
X007010Y017200D01*
X007900Y015920D02*
X007900Y019120D01*
X006700Y020320D01*
X008950Y020320D02*
X009100Y020170D01*
X009100Y019220D01*
X009500Y018820D01*
X009800Y018820D01*
X008790Y017200D02*
X008790Y014640D01*
X009020Y014870D01*
X011050Y014870D01*
X012400Y016220D01*
X012400Y019120D01*
X012800Y019520D01*
X012800Y020520D01*
X013800Y020520D02*
X013800Y018820D01*
X014800Y018720D02*
X014800Y020520D01*
X015800Y020520D02*
X015800Y018670D01*
X013800Y016670D01*
X013800Y017720D02*
X014800Y018720D01*
X016500Y017120D02*
X016600Y017020D01*
X016600Y013320D01*
X016216Y012936D01*
X015400Y012936D01*
X017250Y011370D02*
X017250Y015420D01*
X017500Y015670D01*
X019250Y015670D01*
X017500Y015670D02*
X017500Y017120D01*
X017000Y017870D02*
X017450Y018270D01*
X019350Y018270D01*
X020400Y018320D02*
X021100Y017620D01*
X025300Y017620D01*
X026800Y016120D01*
X026800Y009620D01*
X026500Y009320D01*
X026000Y009320D01*
X026000Y010320D02*
X024700Y010320D01*
X024500Y010120D01*
X024500Y007320D01*
X026000Y005820D01*
X026000Y004720D01*
X025400Y003820D02*
X019000Y010220D01*
X012800Y010220D01*
X012100Y010920D01*
X008250Y010920D01*
X007650Y010320D01*
X007600Y010320D01*
X007300Y010020D01*
X005400Y010020D01*
X007650Y011520D02*
X008250Y012120D01*
X012600Y012120D01*
X015384Y014904D01*
X015400Y014904D01*
X011050Y014870D02*
X008900Y012720D01*
X007650Y012720D01*
X011434Y007220D02*
X012900Y007220D01*
X012900Y005220D01*
X013000Y005120D01*
X013800Y003820D02*
X016900Y003820D01*
X017900Y002820D02*
X017350Y002270D01*
X017350Y001570D01*
X017900Y002820D02*
X017900Y005520D01*
X016200Y007220D01*
X012900Y007220D01*
X011434Y007220D02*
X010484Y006270D01*
X013800Y003820D02*
X011900Y001920D01*
X006900Y001920D01*
X006200Y002620D01*
X005350Y002620D01*
X005300Y002670D01*
X005300Y001170D02*
X004850Y001170D01*
X024400Y001520D02*
X024400Y003820D01*
X025400Y003820D02*
X025400Y001520D01*
X023350Y018270D02*
X023350Y020520D01*
X020400Y020470D02*
X020400Y018320D01*
D23*
X020400Y020470D02*
X020350Y020520D01*
D24*
X026000Y004720D03*
X023100Y003820D03*
X016900Y003820D03*
D25*
X013000Y005120D03*
X007900Y015920D03*
D26*
X019250Y016670D02*
X019850Y016670D01*
X020200Y016320D01*
X020200Y015220D01*
X020700Y014720D01*
X022324Y014720D01*
X023792Y016189D01*
X024300Y017120D02*
X025200Y016220D01*
X025200Y012720D01*
X024731Y012251D01*
X023792Y012251D01*
X022260Y012700D02*
X023792Y014220D01*
X022260Y012700D02*
X021250Y012670D01*
X019250Y012670D01*
X021250Y016670D02*
X021700Y017120D01*
X024300Y017120D01*
M02*
