G75*
%MOIN*%
%OFA0B0*%
%FSLAX24Y24*%
%IPPOS*%
%LPD*%
%AMOC8*
5,1,8,0,0,1.08239X$1,22.5*
%
%ADD10C,0.0000*%
%ADD11C,0.0120*%
%ADD12C,0.0030*%
%ADD13C,0.0050*%
%ADD14C,0.0070*%
%ADD15C,0.0060*%
%ADD16C,0.0020*%
%ADD17R,0.0340X0.0240*%
%ADD18C,0.0016*%
%ADD19C,0.0160*%
%ADD20C,0.0005*%
%ADD21C,0.0040*%
%ADD22C,0.0080*%
%ADD23R,0.0200X0.1000*%
%ADD24R,0.0750X0.0300*%
D10*
X002900Y000320D02*
X002900Y021920D01*
X027500Y021820D01*
X027500Y000220D01*
X002900Y000320D01*
D11*
X023626Y010540D02*
X023628Y010569D01*
X023634Y010598D01*
X023643Y010626D01*
X023656Y010652D01*
X023672Y010676D01*
X023692Y010698D01*
X023714Y010718D01*
X023738Y010734D01*
X023764Y010747D01*
X023792Y010756D01*
X023821Y010762D01*
X023850Y010764D01*
X023879Y010762D01*
X023908Y010756D01*
X023936Y010747D01*
X023962Y010734D01*
X023986Y010718D01*
X024008Y010698D01*
X024028Y010676D01*
X024044Y010652D01*
X024057Y010626D01*
X024066Y010598D01*
X024072Y010569D01*
X024074Y010540D01*
X024072Y010511D01*
X024066Y010482D01*
X024057Y010454D01*
X024044Y010428D01*
X024028Y010404D01*
X024008Y010382D01*
X023986Y010362D01*
X023962Y010346D01*
X023936Y010333D01*
X023908Y010324D01*
X023879Y010318D01*
X023850Y010316D01*
X023821Y010318D01*
X023792Y010324D01*
X023764Y010333D01*
X023738Y010346D01*
X023714Y010362D01*
X023692Y010382D01*
X023672Y010404D01*
X023656Y010428D01*
X023643Y010454D01*
X023634Y010482D01*
X023628Y010511D01*
X023626Y010540D01*
D12*
X023478Y000773D02*
X023540Y000712D01*
X023540Y000650D01*
X023478Y000588D01*
X023540Y000526D01*
X023540Y000465D01*
X023478Y000403D01*
X023354Y000403D01*
X023293Y000465D01*
X023416Y000588D02*
X023478Y000588D01*
X023478Y000773D02*
X023354Y000773D01*
X023293Y000712D01*
X022540Y000712D02*
X022478Y000773D01*
X022354Y000773D01*
X022293Y000712D01*
X022540Y000712D02*
X022540Y000650D01*
X022293Y000403D01*
X022540Y000403D01*
X021540Y000403D02*
X021293Y000403D01*
X021416Y000403D02*
X021416Y000773D01*
X021293Y000650D01*
X020540Y000712D02*
X020540Y000465D01*
X020478Y000403D01*
X020354Y000403D01*
X020293Y000465D01*
X020540Y000712D01*
X020478Y000773D01*
X020354Y000773D01*
X020293Y000712D01*
X020293Y000465D01*
X018762Y000439D02*
X018762Y000624D01*
X018700Y000686D01*
X018515Y000686D01*
X018515Y000439D01*
X018393Y000439D02*
X018269Y000439D01*
X018331Y000439D02*
X018331Y000686D01*
X018269Y000686D01*
X018331Y000809D02*
X018331Y000871D01*
X018148Y000809D02*
X018148Y000562D01*
X018024Y000439D01*
X017901Y000562D01*
X017901Y000809D01*
X017340Y000823D02*
X017340Y000453D01*
X017154Y000453D01*
X017093Y000515D01*
X017093Y000638D01*
X017154Y000700D01*
X017340Y000700D01*
X016971Y000638D02*
X016971Y000453D01*
X016971Y000638D02*
X016910Y000700D01*
X016724Y000700D01*
X016724Y000453D01*
X016603Y000515D02*
X016541Y000453D01*
X016418Y000453D01*
X016356Y000515D01*
X016356Y000762D01*
X016418Y000823D01*
X016541Y000823D01*
X016603Y000762D01*
X016603Y000638D02*
X016480Y000638D01*
X016603Y000638D02*
X016603Y000515D01*
X015612Y000686D02*
X015488Y000439D01*
X015365Y000686D01*
X015243Y000624D02*
X015243Y000501D01*
X015182Y000439D01*
X015058Y000439D01*
X014996Y000501D01*
X014996Y000624D02*
X015120Y000686D01*
X015182Y000686D01*
X015243Y000624D01*
X015243Y000809D02*
X014996Y000809D01*
X014996Y000624D01*
X014612Y000686D02*
X014488Y000439D01*
X014365Y000686D01*
X014243Y000686D02*
X014182Y000624D01*
X014243Y000562D01*
X014243Y000501D01*
X014182Y000439D01*
X014058Y000439D01*
X013996Y000501D01*
X014120Y000624D02*
X014182Y000624D01*
X014243Y000686D02*
X014243Y000748D01*
X014182Y000809D01*
X014058Y000809D01*
X013996Y000748D01*
X013698Y000787D02*
X013451Y000787D01*
X013574Y000787D02*
X013574Y000417D01*
X013329Y000479D02*
X013329Y000540D01*
X013268Y000602D01*
X013144Y000602D01*
X013082Y000664D01*
X013082Y000726D01*
X013144Y000787D01*
X013268Y000787D01*
X013329Y000726D01*
X013329Y000479D02*
X013268Y000417D01*
X013144Y000417D01*
X013082Y000479D01*
X012961Y000417D02*
X012837Y000540D01*
X012899Y000540D02*
X012714Y000540D01*
X012714Y000417D02*
X012714Y000787D01*
X012899Y000787D01*
X012961Y000726D01*
X012961Y000602D01*
X012899Y000540D01*
X024293Y000588D02*
X024540Y000588D01*
X024478Y000403D02*
X024478Y000773D01*
X024293Y000588D01*
X025243Y000588D02*
X025366Y000650D01*
X025428Y000650D01*
X025490Y000588D01*
X025490Y000465D01*
X025428Y000403D01*
X025304Y000403D01*
X025243Y000465D01*
X025243Y000588D02*
X025243Y000773D01*
X025490Y000773D01*
X025430Y021249D02*
X025306Y021249D01*
X025245Y021311D01*
X025492Y021558D01*
X025492Y021311D01*
X025430Y021249D01*
X025245Y021311D02*
X025245Y021558D01*
X025306Y021619D01*
X025430Y021619D01*
X025492Y021558D01*
X024512Y021249D02*
X024265Y021249D01*
X024388Y021249D02*
X024388Y021619D01*
X024265Y021496D01*
X023482Y021486D02*
X023482Y021548D01*
X023420Y021609D01*
X023296Y021609D01*
X023235Y021548D01*
X023482Y021486D02*
X023235Y021239D01*
X023482Y021239D01*
X022402Y021281D02*
X022340Y021219D01*
X022216Y021219D01*
X022155Y021281D01*
X022278Y021404D02*
X022340Y021404D01*
X022402Y021342D01*
X022402Y021281D01*
X022340Y021404D02*
X022402Y021466D01*
X022402Y021528D01*
X022340Y021589D01*
X022216Y021589D01*
X022155Y021528D01*
X021452Y021414D02*
X021205Y021414D01*
X021390Y021599D01*
X021390Y021229D01*
X020512Y021301D02*
X020450Y021239D01*
X020326Y021239D01*
X020265Y021301D01*
X020265Y021424D02*
X020388Y021486D01*
X020450Y021486D01*
X020512Y021424D01*
X020512Y021301D01*
X020265Y021424D02*
X020265Y021609D01*
X020512Y021609D01*
X019462Y021609D02*
X019338Y021548D01*
X019215Y021424D01*
X019400Y021424D01*
X019462Y021362D01*
X019462Y021301D01*
X019400Y021239D01*
X019276Y021239D01*
X019215Y021301D01*
X019215Y021424D01*
X018512Y021548D02*
X018265Y021301D01*
X018265Y021239D01*
X018512Y021548D02*
X018512Y021609D01*
X018265Y021609D01*
X016912Y021548D02*
X016912Y021486D01*
X016850Y021424D01*
X016726Y021424D01*
X016665Y021486D01*
X016665Y021548D01*
X016726Y021609D01*
X016850Y021609D01*
X016912Y021548D01*
X016850Y021424D02*
X016912Y021362D01*
X016912Y021301D01*
X016850Y021239D01*
X016726Y021239D01*
X016665Y021301D01*
X016665Y021362D01*
X016726Y021424D01*
X015922Y021424D02*
X015736Y021424D01*
X015675Y021486D01*
X015675Y021548D01*
X015736Y021609D01*
X015860Y021609D01*
X015922Y021548D01*
X015922Y021301D01*
X015860Y021239D01*
X015736Y021239D01*
X015675Y021301D01*
X015102Y021301D02*
X015040Y021239D01*
X014916Y021239D01*
X014855Y021301D01*
X015102Y021548D01*
X015102Y021301D01*
X015102Y021548D02*
X015040Y021609D01*
X014916Y021609D01*
X014855Y021548D01*
X014855Y021301D01*
X014733Y021239D02*
X014486Y021239D01*
X014610Y021239D02*
X014610Y021609D01*
X014486Y021486D01*
X014132Y021239D02*
X013885Y021239D01*
X013763Y021239D02*
X013516Y021239D01*
X013640Y021239D02*
X013640Y021609D01*
X013516Y021486D01*
X013885Y021486D02*
X014008Y021609D01*
X014008Y021239D01*
X013062Y021239D02*
X012815Y021239D01*
X013062Y021486D01*
X013062Y021548D01*
X013000Y021609D01*
X012876Y021609D01*
X012815Y021548D01*
X012570Y021609D02*
X012570Y021239D01*
X012693Y021239D02*
X012446Y021239D01*
X012446Y021486D02*
X012570Y021609D01*
X012082Y021548D02*
X012082Y021486D01*
X012020Y021424D01*
X012082Y021362D01*
X012082Y021301D01*
X012020Y021239D01*
X011896Y021239D01*
X011835Y021301D01*
X011713Y021239D02*
X011466Y021239D01*
X011590Y021239D02*
X011590Y021609D01*
X011466Y021486D01*
X011262Y021486D02*
X011076Y021486D01*
X011015Y021424D01*
X011015Y021301D01*
X011076Y021239D01*
X011262Y021239D01*
X011262Y021609D01*
X010893Y021424D02*
X010893Y021239D01*
X010893Y021424D02*
X010832Y021486D01*
X010646Y021486D01*
X010646Y021239D01*
X010525Y021239D02*
X010340Y021239D01*
X010278Y021301D01*
X010278Y021424D01*
X010340Y021486D01*
X010525Y021486D01*
X010525Y021177D01*
X010463Y021116D01*
X010401Y021116D01*
X010047Y021452D02*
X009923Y021452D01*
X009802Y021452D02*
X009802Y021390D01*
X009555Y021390D01*
X009555Y021329D02*
X009555Y021452D01*
X009617Y021514D01*
X009740Y021514D01*
X009802Y021452D01*
X009740Y021267D02*
X009617Y021267D01*
X009555Y021329D01*
X009434Y021267D02*
X009310Y021390D01*
X009372Y021390D02*
X009187Y021390D01*
X009187Y021267D02*
X009187Y021637D01*
X009372Y021637D01*
X009434Y021576D01*
X009434Y021452D01*
X009372Y021390D01*
X009065Y021452D02*
X008818Y021452D01*
X008818Y021514D02*
X008942Y021637D01*
X009065Y021514D01*
X009065Y021267D01*
X008818Y021267D02*
X008818Y021514D01*
X009985Y021576D02*
X009985Y021267D01*
X009985Y021576D02*
X010047Y021637D01*
X011835Y021548D02*
X011896Y021609D01*
X012020Y021609D01*
X012082Y021548D01*
X012020Y021424D02*
X011958Y021424D01*
D13*
X014225Y019195D02*
X014450Y019195D01*
X014525Y019120D01*
X014525Y018970D01*
X014450Y018895D01*
X014225Y018895D01*
X014225Y018745D02*
X014225Y019195D01*
X014375Y018895D02*
X014525Y018745D01*
X014685Y018745D02*
X014986Y018745D01*
X014836Y018745D02*
X014836Y019195D01*
X014685Y019045D01*
X014760Y018095D02*
X014685Y018020D01*
X014760Y018095D02*
X014911Y018095D01*
X014986Y018020D01*
X014986Y017945D01*
X014685Y017645D01*
X014986Y017645D01*
X014525Y017645D02*
X014375Y017795D01*
X014450Y017795D02*
X014225Y017795D01*
X014225Y017645D02*
X014225Y018095D01*
X014450Y018095D01*
X014525Y018020D01*
X014525Y017870D01*
X014450Y017795D01*
X014450Y017045D02*
X014525Y016970D01*
X014525Y016820D01*
X014450Y016745D01*
X014225Y016745D01*
X014225Y016595D02*
X014225Y017045D01*
X014450Y017045D01*
X014685Y016970D02*
X014760Y017045D01*
X014911Y017045D01*
X014986Y016970D01*
X014986Y016895D01*
X014911Y016820D01*
X014986Y016745D01*
X014986Y016670D01*
X014911Y016595D01*
X014760Y016595D01*
X014685Y016670D01*
X014525Y016595D02*
X014375Y016745D01*
X014836Y016820D02*
X014911Y016820D01*
X015955Y017020D02*
X016113Y017020D01*
X016175Y016470D02*
X017825Y016470D01*
X017786Y016345D02*
X017635Y016195D01*
X017786Y016345D02*
X017786Y015895D01*
X017936Y015895D02*
X017635Y015895D01*
X017325Y015895D02*
X017325Y016345D01*
X017175Y016345D02*
X017475Y016345D01*
X017113Y017020D02*
X016887Y017020D01*
X016175Y016470D02*
X016140Y016518D01*
X016107Y016568D01*
X016076Y016620D01*
X016049Y016674D01*
X016025Y016729D01*
X016005Y016786D01*
X015987Y016843D01*
X015973Y016901D01*
X015962Y016960D01*
X015955Y017020D01*
X017310Y018123D02*
X017370Y018103D01*
X017429Y018079D01*
X017486Y018051D01*
X017541Y018020D01*
X017595Y017985D01*
X017646Y017948D01*
X017695Y017907D01*
X017741Y017863D01*
X017785Y017817D01*
X017826Y017768D01*
X017864Y017717D01*
X017898Y017664D01*
X017930Y017608D01*
X017957Y017551D01*
X017982Y017492D01*
X018002Y017432D01*
X018020Y017371D01*
X018033Y017309D01*
X018042Y017246D01*
X018048Y017183D01*
X018050Y017119D01*
X018048Y017055D01*
X018042Y016992D01*
X018033Y016929D01*
X018019Y016867D01*
X018002Y016806D01*
X017981Y016746D01*
X017957Y016687D01*
X017929Y016630D01*
X017897Y016574D01*
X017862Y016521D01*
X017825Y016470D01*
X017887Y017020D02*
X018045Y017020D01*
X018750Y017170D02*
X021750Y017170D01*
X021750Y012170D01*
X018750Y012170D01*
X018750Y017170D01*
X018740Y017995D02*
X018815Y018070D01*
X018815Y018370D01*
X018740Y018445D01*
X018590Y018445D01*
X018515Y018370D01*
X018515Y018295D01*
X018590Y018220D01*
X018815Y018220D01*
X018740Y017995D02*
X018590Y017995D01*
X018515Y018070D01*
X018354Y017995D02*
X018204Y018145D01*
X018279Y018145D02*
X018054Y018145D01*
X018054Y017995D02*
X018054Y018445D01*
X018279Y018445D01*
X018354Y018370D01*
X018354Y018220D01*
X018279Y018145D01*
X016690Y018123D02*
X016631Y018103D01*
X016574Y018080D01*
X016517Y018053D01*
X016463Y018022D01*
X016410Y017989D01*
X016360Y017952D01*
X016311Y017913D01*
X016266Y017870D01*
X016222Y017825D01*
X016182Y017778D01*
X016144Y017728D01*
X016109Y017676D01*
X016078Y017622D01*
X016050Y017567D01*
X016025Y017510D01*
X016004Y017451D01*
X015986Y017391D01*
X015971Y017330D01*
X015961Y017269D01*
X015954Y017207D01*
X015950Y017145D01*
X015951Y017082D01*
X015955Y017020D01*
X015925Y015836D02*
X015624Y015836D01*
X015464Y015836D02*
X015164Y015836D01*
X015164Y015386D01*
X015464Y015386D01*
X015624Y015386D02*
X015624Y015461D01*
X015925Y015761D01*
X015925Y015836D01*
X016085Y015761D02*
X016085Y015461D01*
X016160Y015386D01*
X016310Y015386D01*
X016385Y015461D01*
X016385Y015761D01*
X016310Y015836D01*
X016160Y015836D01*
X016085Y015761D01*
X015925Y015386D02*
X015624Y015386D01*
X015314Y015611D02*
X015164Y015611D01*
X015007Y015386D02*
X014857Y015386D01*
X014932Y015386D02*
X014932Y015836D01*
X014857Y015836D02*
X015007Y015836D01*
X014697Y015761D02*
X014697Y015611D01*
X014622Y015536D01*
X014397Y015536D01*
X014397Y015386D02*
X014397Y015836D01*
X014622Y015836D01*
X014697Y015761D01*
X018175Y015635D02*
X018250Y015635D01*
X018400Y015485D01*
X018625Y015485D01*
X018400Y015485D02*
X018250Y015335D01*
X018175Y015335D01*
X018325Y015174D02*
X018625Y015174D01*
X018400Y015174D02*
X018400Y014874D01*
X018325Y014874D02*
X018175Y015024D01*
X018325Y015174D01*
X018325Y014874D02*
X018625Y014874D01*
X018625Y014714D02*
X018625Y014414D01*
X018175Y014414D01*
X018175Y014254D02*
X018175Y013953D01*
X018625Y013953D01*
X018625Y014254D01*
X018400Y014104D02*
X018400Y013953D01*
X018400Y013793D02*
X018475Y013718D01*
X018475Y013493D01*
X018625Y013493D02*
X018175Y013493D01*
X018175Y013718D01*
X018250Y013793D01*
X018400Y013793D01*
X018475Y013643D02*
X018625Y013793D01*
X017965Y012295D02*
X017965Y011845D01*
X017815Y011845D02*
X018115Y011845D01*
X017815Y012145D02*
X017965Y012295D01*
X017654Y012220D02*
X017579Y012295D01*
X017354Y012295D01*
X017354Y011845D01*
X017579Y011845D01*
X017654Y011920D01*
X017654Y012220D01*
X024875Y010012D02*
X024950Y010087D01*
X025250Y010087D01*
X025325Y010012D01*
X025325Y009862D01*
X025250Y009787D01*
X024950Y009787D01*
X024875Y009862D01*
X024875Y010012D01*
X024875Y009626D02*
X025175Y009626D01*
X025325Y009476D01*
X025175Y009326D01*
X024875Y009326D01*
X024950Y009166D02*
X024875Y009091D01*
X024875Y008866D01*
X025325Y008866D01*
X025175Y008866D02*
X025175Y009091D01*
X025100Y009166D01*
X024950Y009166D01*
X025175Y009016D02*
X025325Y009166D01*
X025325Y008706D02*
X025325Y008405D01*
X024875Y008405D01*
X024875Y008706D01*
X025100Y008556D02*
X025100Y008405D01*
X025175Y008245D02*
X025250Y008245D01*
X025325Y008170D01*
X025325Y008020D01*
X025250Y007945D01*
X025100Y008020D02*
X025100Y008170D01*
X025175Y008245D01*
X024950Y008245D02*
X024875Y008170D01*
X024875Y008020D01*
X024950Y007945D01*
X025025Y007945D01*
X025100Y008020D01*
X026685Y008458D02*
X027025Y008458D01*
X027025Y008345D02*
X027025Y008572D01*
X026798Y008345D02*
X026685Y008458D01*
X026741Y009345D02*
X026685Y009402D01*
X026685Y009515D01*
X026741Y009572D01*
X026798Y009572D01*
X027025Y009345D01*
X027025Y009572D01*
X026968Y010345D02*
X027025Y010402D01*
X027025Y010515D01*
X026968Y010572D01*
X026912Y010572D01*
X026855Y010515D01*
X026855Y010458D01*
X026855Y010515D02*
X026798Y010572D01*
X026741Y010572D01*
X026685Y010515D01*
X026685Y010402D01*
X026741Y010345D01*
X026475Y011645D02*
X026025Y011645D01*
X026475Y011945D01*
X026025Y011945D01*
X026100Y012105D02*
X026400Y012105D01*
X026475Y012180D01*
X026475Y012331D01*
X026400Y012406D01*
X026100Y012406D01*
X026025Y012331D01*
X026025Y012180D01*
X026100Y012105D01*
X026100Y013345D02*
X026400Y013345D01*
X026475Y013420D01*
X026475Y013570D01*
X026400Y013645D01*
X026400Y013805D02*
X026100Y013805D01*
X026025Y013880D01*
X026025Y014031D01*
X026100Y014106D01*
X026400Y014106D01*
X026475Y014031D01*
X026475Y013880D01*
X026400Y013805D01*
X026100Y013645D02*
X026025Y013570D01*
X026025Y013420D01*
X026100Y013345D01*
X026025Y014266D02*
X026175Y014416D01*
X026025Y014566D01*
X026475Y014566D01*
X026475Y014266D02*
X026025Y014266D01*
X025825Y015745D02*
X026275Y016045D01*
X025825Y016045D01*
X025900Y016205D02*
X025825Y016280D01*
X025825Y016431D01*
X025900Y016506D01*
X026200Y016506D02*
X026275Y016431D01*
X026275Y016280D01*
X026200Y016205D01*
X025900Y016205D01*
X025825Y015745D02*
X026275Y015745D01*
X025647Y017307D02*
X025347Y017307D01*
X025497Y017307D02*
X025497Y017758D01*
X025347Y017607D01*
X025187Y017758D02*
X024886Y017307D01*
X025187Y017307D02*
X024886Y017758D01*
X007968Y006567D02*
X007668Y006567D01*
X007818Y006567D02*
X007818Y006117D01*
X007508Y006192D02*
X007508Y006492D01*
X007433Y006567D01*
X007283Y006567D01*
X007207Y006492D01*
X007207Y006192D01*
X007283Y006117D01*
X007433Y006117D01*
X007508Y006192D01*
X007047Y006342D02*
X006972Y006267D01*
X006747Y006267D01*
X006747Y006117D02*
X006747Y006567D01*
X006972Y006567D01*
X007047Y006492D01*
X007047Y006342D01*
X005775Y006376D02*
X005325Y006376D01*
X005325Y006601D01*
X005400Y006676D01*
X005550Y006676D01*
X005625Y006601D01*
X005625Y006376D01*
X005625Y006526D02*
X005775Y006676D01*
X005775Y006837D02*
X005325Y006837D01*
X005475Y006987D01*
X005325Y007137D01*
X005775Y007137D01*
X005775Y006216D02*
X005775Y005916D01*
X005325Y005916D01*
X005325Y006216D01*
X005550Y006066D02*
X005550Y005916D01*
X005550Y005756D02*
X005550Y005455D01*
X005775Y005455D02*
X005325Y005455D01*
X005325Y005295D02*
X005325Y004995D01*
X005325Y005145D02*
X005775Y005145D01*
X005775Y005756D02*
X005325Y005756D01*
X005300Y002920D02*
X004800Y002920D01*
X004800Y000920D01*
X005300Y000920D01*
X005800Y001420D01*
X005800Y002420D01*
X005300Y002920D01*
X006475Y008945D02*
X006475Y009395D01*
X006700Y009395D01*
X006775Y009320D01*
X006775Y009170D01*
X006700Y009095D01*
X006475Y009095D01*
X006625Y009095D02*
X006775Y008945D01*
X006935Y008945D02*
X006935Y009020D01*
X007236Y009320D01*
X007236Y009395D01*
X006935Y009395D01*
X007010Y010145D02*
X006935Y010220D01*
X006935Y010295D01*
X007010Y010370D01*
X007161Y010370D01*
X007236Y010295D01*
X007236Y010220D01*
X007161Y010145D01*
X007010Y010145D01*
X007010Y010370D02*
X006935Y010445D01*
X006935Y010520D01*
X007010Y010595D01*
X007161Y010595D01*
X007236Y010520D01*
X007236Y010445D01*
X007161Y010370D01*
X006775Y010370D02*
X006700Y010295D01*
X006475Y010295D01*
X006475Y010145D02*
X006475Y010595D01*
X006700Y010595D01*
X006775Y010520D01*
X006775Y010370D01*
X006625Y010295D02*
X006775Y010145D01*
X006836Y011345D02*
X006535Y011345D01*
X006686Y011345D02*
X006686Y011795D01*
X006535Y011645D01*
X006375Y011570D02*
X006300Y011495D01*
X006075Y011495D01*
X006075Y011345D02*
X006075Y011795D01*
X006300Y011795D01*
X006375Y011720D01*
X006375Y011570D01*
X006225Y011495D02*
X006375Y011345D01*
X006996Y011420D02*
X007296Y011720D01*
X007296Y011420D01*
X007221Y011345D01*
X007071Y011345D01*
X006996Y011420D01*
X006996Y011720D01*
X007071Y011795D01*
X007221Y011795D01*
X007296Y011720D01*
X007061Y012445D02*
X007136Y012520D01*
X007136Y012595D01*
X007061Y012670D01*
X006835Y012670D01*
X006835Y012520D01*
X006910Y012445D01*
X007061Y012445D01*
X006835Y012670D02*
X006986Y012820D01*
X007136Y012895D01*
X006675Y012820D02*
X006675Y012670D01*
X006600Y012595D01*
X006375Y012595D01*
X006375Y012445D02*
X006375Y012895D01*
X006600Y012895D01*
X006675Y012820D01*
X006525Y012595D02*
X006675Y012445D01*
X006125Y014645D02*
X005675Y014645D01*
X005675Y014870D01*
X005750Y014945D01*
X005825Y014945D01*
X005900Y014870D01*
X005900Y014645D01*
X006125Y014645D02*
X006125Y014870D01*
X006050Y014945D01*
X005975Y014945D01*
X005900Y014870D01*
X006050Y015105D02*
X005675Y015105D01*
X005675Y015406D02*
X006050Y015406D01*
X006125Y015331D01*
X006125Y015180D01*
X006050Y015105D01*
X005675Y015566D02*
X005675Y015866D01*
X005675Y015716D02*
X006125Y015716D01*
X005675Y016026D02*
X005675Y016326D01*
X005675Y016176D02*
X006125Y016176D01*
X006050Y016487D02*
X005750Y016487D01*
X005675Y016562D01*
X005675Y016712D01*
X005750Y016787D01*
X006050Y016787D01*
X006125Y016712D01*
X006125Y016562D01*
X006050Y016487D01*
X006125Y016947D02*
X005675Y016947D01*
X006125Y017247D01*
X005675Y017247D01*
X005825Y019445D02*
X005825Y019670D01*
X005750Y019745D01*
X005600Y019745D01*
X005525Y019670D01*
X005525Y019445D01*
X005975Y019445D01*
X005825Y019595D02*
X005975Y019745D01*
X005900Y019905D02*
X005600Y019905D01*
X005525Y019980D01*
X005525Y020131D01*
X005600Y020206D01*
X005750Y020206D02*
X005750Y020056D01*
X005750Y020206D02*
X005900Y020206D01*
X005975Y020131D01*
X005975Y019980D01*
X005900Y019905D01*
X005975Y020366D02*
X005525Y020366D01*
X005525Y020591D01*
X005600Y020666D01*
X005675Y020666D01*
X005750Y020591D01*
X005750Y020366D01*
X005750Y020591D02*
X005825Y020666D01*
X005900Y020666D01*
X005975Y020591D01*
X005975Y020366D01*
X003527Y011171D02*
X003226Y011171D01*
X003151Y011096D01*
X003151Y010945D01*
X003226Y010870D01*
X003527Y010870D01*
X003602Y010945D01*
X003602Y011096D01*
X003527Y011171D01*
X003151Y010710D02*
X003151Y010410D01*
X003151Y010560D02*
X003602Y010560D01*
X003527Y010250D02*
X003226Y010250D01*
X003151Y010175D01*
X003151Y010025D01*
X003226Y009950D01*
X003527Y009950D01*
X003602Y010025D01*
X003602Y010175D01*
X003527Y010250D01*
X003602Y009790D02*
X003151Y009790D01*
X003377Y009790D02*
X003377Y009489D01*
X003377Y009329D02*
X003452Y009254D01*
X003452Y009029D01*
X003602Y009029D02*
X003151Y009029D01*
X003151Y009254D01*
X003226Y009329D01*
X003377Y009329D01*
X003602Y009489D02*
X003151Y009489D01*
D14*
X012535Y008897D02*
X012535Y008809D01*
X012623Y008720D01*
X012800Y008720D01*
X012889Y008632D01*
X012889Y008543D01*
X012800Y008455D01*
X012623Y008455D01*
X012535Y008543D01*
X012535Y008897D02*
X012623Y008985D01*
X012800Y008985D01*
X012889Y008897D01*
X013087Y008720D02*
X013176Y008809D01*
X013353Y008809D01*
X013441Y008720D01*
X013441Y008632D01*
X013087Y008632D01*
X013087Y008720D02*
X013087Y008543D01*
X013176Y008455D01*
X013353Y008455D01*
X013640Y008455D02*
X013640Y008809D01*
X013905Y008809D01*
X013994Y008720D01*
X013994Y008455D01*
X014192Y008455D02*
X014458Y008455D01*
X014546Y008543D01*
X014458Y008632D01*
X014281Y008632D01*
X014192Y008720D01*
X014281Y008809D01*
X014546Y008809D01*
X014745Y008720D02*
X014745Y008543D01*
X014833Y008455D01*
X015010Y008455D01*
X015099Y008543D01*
X015099Y008720D01*
X015010Y008809D01*
X014833Y008809D01*
X014745Y008720D01*
X015297Y008632D02*
X015474Y008809D01*
X015563Y008809D01*
X015297Y008809D02*
X015297Y008455D01*
X016310Y008543D02*
X016399Y008455D01*
X016575Y008455D01*
X016664Y008543D01*
X016664Y008632D01*
X016575Y008720D01*
X016399Y008720D01*
X016310Y008809D01*
X016310Y008897D01*
X016399Y008985D01*
X016575Y008985D01*
X016664Y008897D01*
X016863Y008985D02*
X016863Y008455D01*
X016863Y008720D02*
X016951Y008809D01*
X017128Y008809D01*
X017216Y008720D01*
X017216Y008455D01*
X017415Y008455D02*
X017592Y008455D01*
X017504Y008455D02*
X017504Y008809D01*
X017415Y008809D01*
X017504Y008985D02*
X017504Y009074D01*
X017783Y008720D02*
X017872Y008809D01*
X018049Y008809D01*
X018137Y008720D01*
X018137Y008632D01*
X017783Y008632D01*
X017783Y008720D02*
X017783Y008543D01*
X017872Y008455D01*
X018049Y008455D01*
X018336Y008455D02*
X018513Y008455D01*
X018424Y008455D02*
X018424Y008985D01*
X018336Y008985D01*
X018704Y008720D02*
X018793Y008809D01*
X019058Y008809D01*
X019058Y008985D02*
X019058Y008455D01*
X018793Y008455D01*
X018704Y008543D01*
X018704Y008720D01*
X019809Y008632D02*
X019986Y008455D01*
X020163Y008632D01*
X020163Y008985D01*
X020362Y008720D02*
X020715Y008720D01*
X020914Y008809D02*
X021091Y008985D01*
X021091Y008455D01*
X020914Y008455D02*
X021268Y008455D01*
X021467Y008455D02*
X021555Y008455D01*
X021555Y008543D01*
X021467Y008543D01*
X021467Y008455D01*
X021743Y008455D02*
X022096Y008809D01*
X022096Y008897D01*
X022008Y008985D01*
X021831Y008985D01*
X021743Y008897D01*
X021743Y008455D02*
X022096Y008455D01*
X019809Y008632D02*
X019809Y008985D01*
D15*
X018453Y007991D02*
X018453Y007350D01*
X018346Y007350D02*
X018560Y007350D01*
X018776Y007457D02*
X018776Y007670D01*
X018883Y007777D01*
X019096Y007777D01*
X019203Y007670D01*
X019203Y007457D01*
X019096Y007350D01*
X018883Y007350D01*
X018776Y007457D01*
X018453Y007991D02*
X018346Y007991D01*
X018129Y007670D02*
X018022Y007777D01*
X017808Y007777D01*
X017702Y007670D01*
X017702Y007457D01*
X017808Y007350D01*
X018022Y007350D01*
X018129Y007564D02*
X018129Y007670D01*
X018129Y007564D02*
X017702Y007564D01*
X017484Y007777D02*
X017271Y007350D01*
X017057Y007777D01*
X016840Y007670D02*
X016840Y007564D01*
X016413Y007564D01*
X016413Y007670D02*
X016413Y007457D01*
X016519Y007350D01*
X016733Y007350D01*
X016840Y007670D02*
X016733Y007777D01*
X016519Y007777D01*
X016413Y007670D01*
X016195Y007457D02*
X016088Y007350D01*
X015768Y007350D01*
X015768Y007991D01*
X016088Y007991D01*
X016195Y007884D01*
X016195Y007457D01*
X016244Y006891D02*
X016030Y006891D01*
X016137Y006891D02*
X016137Y006250D01*
X016030Y006250D02*
X016244Y006250D01*
X016460Y006250D02*
X016673Y006250D01*
X016566Y006250D02*
X016566Y006891D01*
X016460Y006891D02*
X016673Y006891D01*
X016889Y006891D02*
X017316Y006891D01*
X017103Y006891D02*
X017103Y006250D01*
X018178Y006250D02*
X018499Y006250D01*
X018606Y006357D01*
X018606Y006464D01*
X018499Y006570D01*
X018178Y006570D01*
X018178Y006250D02*
X018178Y006891D01*
X018499Y006891D01*
X018606Y006784D01*
X018606Y006677D01*
X018499Y006570D01*
X018823Y006570D02*
X018823Y006357D01*
X018930Y006250D01*
X019143Y006250D01*
X019250Y006357D01*
X019250Y006570D01*
X019143Y006677D01*
X018930Y006677D01*
X018823Y006570D01*
X019468Y006677D02*
X019468Y006250D01*
X019681Y006250D02*
X019681Y006570D01*
X019788Y006677D01*
X019895Y006570D01*
X019895Y006250D01*
X020112Y006250D02*
X020432Y006250D01*
X020539Y006357D01*
X020539Y006570D01*
X020432Y006677D01*
X020112Y006677D01*
X020112Y006891D02*
X020112Y006250D01*
X019681Y006570D02*
X019574Y006677D01*
X019468Y006677D01*
X019421Y007136D02*
X019421Y007777D01*
X019741Y007777D01*
X019848Y007670D01*
X019848Y007457D01*
X019741Y007350D01*
X019421Y007350D01*
X020065Y007350D02*
X020065Y007777D01*
X020172Y007777D01*
X020279Y007670D01*
X020385Y007777D01*
X020492Y007670D01*
X020492Y007350D01*
X020279Y007350D02*
X020279Y007670D01*
X020710Y007670D02*
X020710Y007457D01*
X020816Y007350D01*
X021030Y007350D01*
X021137Y007564D02*
X020710Y007564D01*
X020710Y007670D02*
X020816Y007777D01*
X021030Y007777D01*
X021137Y007670D01*
X021137Y007564D01*
X021354Y007777D02*
X021674Y007777D01*
X021781Y007670D01*
X021781Y007350D01*
X022105Y007457D02*
X022212Y007350D01*
X022105Y007457D02*
X022105Y007884D01*
X021999Y007777D02*
X022212Y007777D01*
X021354Y007777D02*
X021354Y007350D01*
X021401Y006677D02*
X021401Y006357D01*
X021508Y006250D01*
X021828Y006250D01*
X021828Y006143D02*
X021722Y006036D01*
X021615Y006036D01*
X021828Y006143D02*
X021828Y006677D01*
X021184Y006570D02*
X021184Y006250D01*
X020863Y006250D01*
X020757Y006357D01*
X020863Y006464D01*
X021184Y006464D01*
X021184Y006570D02*
X021077Y006677D01*
X020863Y006677D01*
X023073Y007350D02*
X023500Y007350D01*
X023718Y007457D02*
X023824Y007564D01*
X024145Y007564D01*
X024145Y007670D02*
X024145Y007350D01*
X023824Y007350D01*
X023718Y007457D01*
X023824Y007777D02*
X024038Y007777D01*
X024145Y007670D01*
X024362Y007777D02*
X024682Y007777D01*
X024789Y007670D01*
X024789Y007457D01*
X024682Y007350D01*
X024362Y007350D01*
X024362Y007991D01*
X025500Y007920D02*
X025500Y008720D01*
X025600Y008820D01*
X025500Y008920D01*
X025500Y009720D01*
X025600Y009820D01*
X025500Y009920D01*
X025500Y010720D01*
X025600Y010820D01*
X026400Y010820D01*
X026500Y010720D01*
X026500Y009920D01*
X026400Y009820D01*
X026500Y009720D01*
X026500Y008920D01*
X026400Y008820D01*
X026500Y008720D01*
X026500Y007920D01*
X026400Y007820D01*
X025600Y007820D01*
X025500Y007920D01*
X023700Y009060D02*
X023560Y008920D01*
X023380Y009040D01*
X023300Y009000D01*
X023160Y009340D01*
X023200Y009320D02*
X023350Y009520D01*
X023300Y009770D01*
X023100Y009870D01*
X022900Y009870D01*
X022750Y009720D01*
X022750Y009420D01*
X022900Y009320D01*
X022750Y009070D01*
X022700Y009070D01*
X022550Y008970D01*
X022450Y009070D01*
X022550Y009220D01*
X022450Y009470D01*
X022250Y009520D01*
X022250Y009670D01*
X022450Y009670D01*
X022550Y009920D01*
X022400Y010120D01*
X022550Y010220D01*
X022700Y010070D01*
X022900Y010170D01*
X022950Y010370D01*
X023100Y010370D01*
X023150Y010170D01*
X023350Y010070D01*
X023550Y010220D01*
X023650Y010120D01*
X023550Y009920D01*
X023650Y009670D01*
X023850Y009670D01*
X023850Y009520D01*
X023600Y009470D01*
X023550Y009220D01*
X023650Y009070D01*
X023550Y008970D01*
X023400Y009070D01*
X023300Y009020D01*
X023200Y009320D01*
X023207Y009329D02*
X023572Y009329D01*
X023584Y009388D02*
X023251Y009388D01*
X023295Y009446D02*
X023595Y009446D01*
X023650Y009440D02*
X023870Y009480D01*
X023870Y009680D01*
X023650Y009720D01*
X023623Y009739D02*
X023306Y009739D01*
X023318Y009680D02*
X023646Y009680D01*
X023599Y009797D02*
X023246Y009797D01*
X023129Y009856D02*
X023576Y009856D01*
X023560Y009910D02*
X023700Y010100D01*
X023560Y010240D01*
X023360Y010110D01*
X023376Y010090D02*
X023635Y010090D01*
X023622Y010148D02*
X023454Y010148D01*
X023532Y010207D02*
X023563Y010207D01*
X023606Y010031D02*
X022467Y010031D01*
X022511Y009973D02*
X023576Y009973D01*
X023552Y009914D02*
X022548Y009914D01*
X022510Y009910D02*
X022380Y010100D01*
X022520Y010240D01*
X022710Y010110D01*
X022739Y010090D02*
X023311Y010090D01*
X023194Y010148D02*
X022856Y010148D01*
X022890Y010180D02*
X022940Y010420D01*
X023130Y010420D01*
X023180Y010180D01*
X023141Y010207D02*
X022909Y010207D01*
X022924Y010265D02*
X023126Y010265D01*
X023112Y010324D02*
X022938Y010324D01*
X022680Y010090D02*
X022423Y010090D01*
X022442Y010148D02*
X022622Y010148D01*
X022563Y010207D02*
X022530Y010207D01*
X022524Y009856D02*
X022886Y009856D01*
X022827Y009797D02*
X022501Y009797D01*
X022477Y009739D02*
X022769Y009739D01*
X022750Y009680D02*
X022454Y009680D01*
X022430Y009720D02*
X022200Y009680D01*
X022200Y009480D01*
X022420Y009440D01*
X022460Y009446D02*
X022750Y009446D01*
X022750Y009505D02*
X022312Y009505D01*
X022250Y009563D02*
X022750Y009563D01*
X022750Y009622D02*
X022250Y009622D01*
X022483Y009388D02*
X022799Y009388D01*
X022886Y009329D02*
X022506Y009329D01*
X022530Y009271D02*
X022870Y009271D01*
X022835Y009212D02*
X022545Y009212D01*
X022500Y009240D02*
X022380Y009060D01*
X022520Y008920D01*
X022700Y009040D01*
X022770Y009000D01*
X022920Y009340D01*
X022800Y009154D02*
X022506Y009154D01*
X022467Y009095D02*
X022765Y009095D01*
X022650Y009037D02*
X022483Y009037D01*
X022542Y008978D02*
X022562Y008978D01*
X023236Y009212D02*
X023555Y009212D01*
X023570Y009240D02*
X023700Y009060D01*
X023633Y009095D02*
X023275Y009095D01*
X023294Y009037D02*
X023333Y009037D01*
X023450Y009037D02*
X023617Y009037D01*
X023558Y008978D02*
X023538Y008978D01*
X023594Y009154D02*
X023255Y009154D01*
X023216Y009271D02*
X023560Y009271D01*
X023773Y009505D02*
X023338Y009505D01*
X023341Y009563D02*
X023850Y009563D01*
X023850Y009622D02*
X023330Y009622D01*
X023652Y009720D02*
X023640Y009760D01*
X023625Y009799D01*
X023607Y009837D01*
X023587Y009873D01*
X023565Y009908D01*
X023160Y009340D02*
X023188Y009356D01*
X023215Y009375D01*
X023238Y009397D01*
X023259Y009422D01*
X023277Y009450D01*
X023292Y009479D01*
X023302Y009510D01*
X023310Y009541D01*
X023313Y009574D01*
X023312Y009606D01*
X023308Y009639D01*
X023299Y009670D01*
X023287Y009700D01*
X023272Y009729D01*
X023253Y009756D01*
X023231Y009780D01*
X023207Y009801D01*
X023180Y009820D01*
X023151Y009835D01*
X023120Y009846D01*
X023089Y009854D01*
X023056Y009858D01*
X023024Y009858D01*
X022991Y009854D01*
X022960Y009846D01*
X022929Y009835D01*
X022900Y009820D01*
X022873Y009801D01*
X022849Y009780D01*
X022827Y009756D01*
X022808Y009729D01*
X022793Y009700D01*
X022781Y009670D01*
X022772Y009639D01*
X022768Y009606D01*
X022767Y009574D01*
X022770Y009541D01*
X022778Y009510D01*
X022788Y009479D01*
X022803Y009450D01*
X022821Y009422D01*
X022842Y009397D01*
X022865Y009375D01*
X022892Y009356D01*
X022920Y009340D01*
X022712Y010106D02*
X022754Y010129D01*
X022797Y010148D01*
X022842Y010165D01*
X022888Y010177D01*
X022422Y009424D02*
X022437Y009377D01*
X022455Y009331D01*
X022477Y009287D01*
X022502Y009245D01*
X022428Y009722D02*
X022439Y009762D01*
X022453Y009801D01*
X022469Y009838D01*
X022488Y009875D01*
X022509Y009910D01*
X023649Y009441D02*
X023639Y009399D01*
X023626Y009358D01*
X023610Y009318D01*
X023591Y009279D01*
X023569Y009242D01*
X023359Y010110D02*
X023316Y010133D01*
X023272Y010153D01*
X023226Y010169D01*
X023180Y010181D01*
X023082Y011268D02*
X022142Y011268D01*
X022142Y017168D01*
X023082Y017168D01*
X025682Y017168D01*
X025762Y017168D01*
X025762Y011268D01*
X025682Y011268D01*
X023082Y011268D01*
X023082Y011898D01*
X023082Y012598D02*
X023082Y013868D01*
X023082Y014568D02*
X023082Y015839D01*
X023082Y016539D02*
X023082Y017168D01*
X022500Y017820D02*
X022350Y017820D01*
X022300Y017870D01*
X020400Y017870D01*
X020350Y017820D01*
X020200Y017820D01*
X020183Y017822D01*
X020166Y017826D01*
X020150Y017833D01*
X020136Y017843D01*
X020123Y017856D01*
X020113Y017870D01*
X020106Y017886D01*
X020102Y017903D01*
X020100Y017920D01*
X020100Y018620D01*
X020102Y018637D01*
X020106Y018654D01*
X020113Y018670D01*
X020123Y018684D01*
X020136Y018697D01*
X020150Y018707D01*
X020166Y018714D01*
X020183Y018718D01*
X020200Y018720D01*
X020350Y018720D01*
X020400Y018670D01*
X022300Y018670D01*
X022350Y018720D01*
X022500Y018720D01*
X022517Y018718D01*
X022534Y018714D01*
X022550Y018707D01*
X022564Y018697D01*
X022577Y018684D01*
X022587Y018670D01*
X022594Y018654D01*
X022598Y018637D01*
X022600Y018620D01*
X022600Y017920D01*
X022598Y017903D01*
X022594Y017886D01*
X022587Y017870D01*
X022577Y017856D01*
X022564Y017843D01*
X022550Y017833D01*
X022534Y017826D01*
X022517Y017822D01*
X022500Y017820D01*
X024962Y016189D02*
X024964Y016217D01*
X024970Y016244D01*
X024979Y016270D01*
X024992Y016295D01*
X025009Y016318D01*
X025028Y016338D01*
X025050Y016355D01*
X025074Y016369D01*
X025100Y016379D01*
X025127Y016386D01*
X025155Y016389D01*
X025183Y016388D01*
X025210Y016383D01*
X025237Y016374D01*
X025262Y016362D01*
X025285Y016347D01*
X025306Y016328D01*
X025324Y016307D01*
X025339Y016283D01*
X025350Y016257D01*
X025358Y016231D01*
X025362Y016203D01*
X025362Y016175D01*
X025358Y016147D01*
X025350Y016121D01*
X025339Y016095D01*
X025324Y016071D01*
X025306Y016050D01*
X025285Y016031D01*
X025262Y016016D01*
X025237Y016004D01*
X025210Y015995D01*
X025183Y015990D01*
X025155Y015989D01*
X025127Y015992D01*
X025100Y015999D01*
X025074Y016009D01*
X025050Y016023D01*
X025028Y016040D01*
X025009Y016060D01*
X024992Y016083D01*
X024979Y016108D01*
X024970Y016134D01*
X024964Y016161D01*
X024962Y016189D01*
X025682Y017168D02*
X025682Y011268D01*
X024962Y012249D02*
X024964Y012277D01*
X024970Y012304D01*
X024979Y012330D01*
X024992Y012355D01*
X025009Y012378D01*
X025028Y012398D01*
X025050Y012415D01*
X025074Y012429D01*
X025100Y012439D01*
X025127Y012446D01*
X025155Y012449D01*
X025183Y012448D01*
X025210Y012443D01*
X025237Y012434D01*
X025262Y012422D01*
X025285Y012407D01*
X025306Y012388D01*
X025324Y012367D01*
X025339Y012343D01*
X025350Y012317D01*
X025358Y012291D01*
X025362Y012263D01*
X025362Y012235D01*
X025358Y012207D01*
X025350Y012181D01*
X025339Y012155D01*
X025324Y012131D01*
X025306Y012110D01*
X025285Y012091D01*
X025262Y012076D01*
X025237Y012064D01*
X025210Y012055D01*
X025183Y012050D01*
X025155Y012049D01*
X025127Y012052D01*
X025100Y012059D01*
X025074Y012069D01*
X025050Y012083D01*
X025028Y012100D01*
X025009Y012120D01*
X024992Y012143D01*
X024979Y012168D01*
X024970Y012194D01*
X024964Y012221D01*
X024962Y012249D01*
X024962Y014219D02*
X024964Y014247D01*
X024970Y014274D01*
X024979Y014300D01*
X024992Y014325D01*
X025009Y014348D01*
X025028Y014368D01*
X025050Y014385D01*
X025074Y014399D01*
X025100Y014409D01*
X025127Y014416D01*
X025155Y014419D01*
X025183Y014418D01*
X025210Y014413D01*
X025237Y014404D01*
X025262Y014392D01*
X025285Y014377D01*
X025306Y014358D01*
X025324Y014337D01*
X025339Y014313D01*
X025350Y014287D01*
X025358Y014261D01*
X025362Y014233D01*
X025362Y014205D01*
X025358Y014177D01*
X025350Y014151D01*
X025339Y014125D01*
X025324Y014101D01*
X025306Y014080D01*
X025285Y014061D01*
X025262Y014046D01*
X025237Y014034D01*
X025210Y014025D01*
X025183Y014020D01*
X025155Y014019D01*
X025127Y014022D01*
X025100Y014029D01*
X025074Y014039D01*
X025050Y014053D01*
X025028Y014070D01*
X025009Y014090D01*
X024992Y014113D01*
X024979Y014138D01*
X024970Y014164D01*
X024964Y014191D01*
X024962Y014219D01*
X020050Y011870D02*
X020050Y010870D01*
X018450Y010870D01*
X018450Y011870D01*
X020050Y011870D01*
X019500Y011370D02*
X019250Y011370D01*
X019250Y011620D01*
X019250Y011370D02*
X019250Y011120D01*
X019250Y011370D02*
X018850Y011120D01*
X018850Y011620D01*
X019250Y011370D01*
X018650Y011370D01*
X014906Y007991D02*
X014906Y007350D01*
X014586Y007350D01*
X014479Y007457D01*
X014479Y007670D01*
X014586Y007777D01*
X014906Y007777D01*
X014261Y007670D02*
X014261Y007564D01*
X013834Y007564D01*
X013834Y007670D02*
X013834Y007457D01*
X013941Y007350D01*
X014155Y007350D01*
X014261Y007670D02*
X014155Y007777D01*
X013941Y007777D01*
X013834Y007670D01*
X013618Y007777D02*
X013405Y007777D01*
X013511Y007884D02*
X013511Y007457D01*
X013618Y007350D01*
X013187Y007350D02*
X012867Y007350D01*
X012760Y007457D01*
X012867Y007564D01*
X013187Y007564D01*
X013187Y007670D02*
X013187Y007350D01*
X013187Y007670D02*
X013080Y007777D01*
X012867Y007777D01*
X012543Y007777D02*
X012437Y007777D01*
X012223Y007564D01*
X012223Y007777D02*
X012223Y007350D01*
X012006Y007350D02*
X011685Y007350D01*
X011578Y007457D01*
X011578Y007670D01*
X011685Y007777D01*
X012006Y007777D01*
X012006Y007243D01*
X011899Y007136D01*
X011792Y007136D01*
X011361Y007564D02*
X010934Y007564D01*
X010934Y007670D02*
X010934Y007457D01*
X011041Y007350D01*
X011254Y007350D01*
X011361Y007564D02*
X011361Y007670D01*
X011254Y007777D01*
X011041Y007777D01*
X010934Y007670D01*
X010718Y007777D02*
X010504Y007777D01*
X010611Y007884D02*
X010611Y007457D01*
X010718Y007350D01*
X010287Y007350D02*
X010287Y007670D01*
X010180Y007777D01*
X009860Y007777D01*
X009860Y007350D01*
X009644Y007350D02*
X009430Y007350D01*
X009537Y007350D02*
X009537Y007991D01*
X009430Y007991D02*
X009644Y007991D01*
X008700Y008720D02*
X010600Y008720D01*
X010650Y008670D01*
X010800Y008670D01*
X010817Y008672D01*
X010834Y008676D01*
X010850Y008683D01*
X010864Y008693D01*
X010877Y008706D01*
X010887Y008720D01*
X010894Y008736D01*
X010898Y008753D01*
X010900Y008770D01*
X010900Y009470D01*
X010898Y009487D01*
X010894Y009504D01*
X010887Y009520D01*
X010877Y009534D01*
X010864Y009547D01*
X010850Y009557D01*
X010834Y009564D01*
X010817Y009568D01*
X010800Y009570D01*
X010650Y009570D01*
X010600Y009520D01*
X008700Y009520D01*
X008650Y009570D01*
X008500Y009570D01*
X008483Y009568D01*
X008466Y009564D01*
X008450Y009557D01*
X008436Y009547D01*
X008423Y009534D01*
X008413Y009520D01*
X008406Y009504D01*
X008402Y009487D01*
X008400Y009470D01*
X008400Y008770D01*
X008402Y008753D01*
X008406Y008736D01*
X008413Y008720D01*
X008423Y008706D01*
X008436Y008693D01*
X008450Y008683D01*
X008466Y008676D01*
X008483Y008672D01*
X008500Y008670D01*
X008650Y008670D01*
X008700Y008720D01*
X008650Y009870D02*
X008700Y009920D01*
X010600Y009920D01*
X010650Y009870D01*
X010800Y009870D01*
X010817Y009872D01*
X010834Y009876D01*
X010850Y009883D01*
X010864Y009893D01*
X010877Y009906D01*
X010887Y009920D01*
X010894Y009936D01*
X010898Y009953D01*
X010900Y009970D01*
X010900Y010670D01*
X010898Y010687D01*
X010894Y010704D01*
X010887Y010720D01*
X010877Y010734D01*
X010864Y010747D01*
X010850Y010757D01*
X010834Y010764D01*
X010817Y010768D01*
X010800Y010770D01*
X010650Y010770D01*
X010600Y010720D01*
X008700Y010720D01*
X008650Y010770D01*
X008500Y010770D01*
X008483Y010768D01*
X008466Y010764D01*
X008450Y010757D01*
X008436Y010747D01*
X008423Y010734D01*
X008413Y010720D01*
X008406Y010704D01*
X008402Y010687D01*
X008400Y010670D01*
X008400Y009970D01*
X008402Y009953D01*
X008406Y009936D01*
X008413Y009920D01*
X008423Y009906D01*
X008436Y009893D01*
X008450Y009883D01*
X008466Y009876D01*
X008483Y009872D01*
X008500Y009870D01*
X008650Y009870D01*
X008650Y011070D02*
X008700Y011120D01*
X010600Y011120D01*
X010650Y011070D01*
X010800Y011070D01*
X010817Y011072D01*
X010834Y011076D01*
X010850Y011083D01*
X010864Y011093D01*
X010877Y011106D01*
X010887Y011120D01*
X010894Y011136D01*
X010898Y011153D01*
X010900Y011170D01*
X010900Y011870D01*
X010898Y011887D01*
X010894Y011904D01*
X010887Y011920D01*
X010877Y011934D01*
X010864Y011947D01*
X010850Y011957D01*
X010834Y011964D01*
X010817Y011968D01*
X010800Y011970D01*
X010650Y011970D01*
X010600Y011920D01*
X008700Y011920D01*
X008650Y011970D01*
X008500Y011970D01*
X008483Y011968D01*
X008466Y011964D01*
X008450Y011957D01*
X008436Y011947D01*
X008423Y011934D01*
X008413Y011920D01*
X008406Y011904D01*
X008402Y011887D01*
X008400Y011870D01*
X008400Y011170D01*
X008402Y011153D01*
X008406Y011136D01*
X008413Y011120D01*
X008423Y011106D01*
X008436Y011093D01*
X008450Y011083D01*
X008466Y011076D01*
X008483Y011072D01*
X008500Y011070D01*
X008650Y011070D01*
X008650Y012270D02*
X008500Y012270D01*
X008483Y012272D01*
X008466Y012276D01*
X008450Y012283D01*
X008436Y012293D01*
X008423Y012306D01*
X008413Y012320D01*
X008406Y012336D01*
X008402Y012353D01*
X008400Y012370D01*
X008400Y013070D01*
X008402Y013087D01*
X008406Y013104D01*
X008413Y013120D01*
X008423Y013134D01*
X008436Y013147D01*
X008450Y013157D01*
X008466Y013164D01*
X008483Y013168D01*
X008500Y013170D01*
X008650Y013170D01*
X008700Y013120D01*
X010600Y013120D01*
X010650Y013170D01*
X010800Y013170D01*
X010817Y013168D01*
X010834Y013164D01*
X010850Y013157D01*
X010864Y013147D01*
X010877Y013134D01*
X010887Y013120D01*
X010894Y013104D01*
X010898Y013087D01*
X010900Y013070D01*
X010900Y012370D01*
X010898Y012353D01*
X010894Y012336D01*
X010887Y012320D01*
X010877Y012306D01*
X010864Y012293D01*
X010850Y012283D01*
X010834Y012276D01*
X010817Y012272D01*
X010800Y012270D01*
X010650Y012270D01*
X010600Y012320D01*
X008700Y012320D01*
X008650Y012270D01*
X008200Y014620D02*
X007600Y014620D01*
X007600Y014720D01*
X007500Y014720D01*
X008200Y014720D02*
X008200Y014620D01*
X008200Y014720D02*
X008300Y014720D01*
X009100Y015070D02*
X009100Y015420D01*
X009100Y016420D01*
X009100Y016770D01*
X008300Y017120D02*
X008200Y017120D01*
X008200Y017220D01*
X007600Y017220D01*
X007600Y017120D01*
X007500Y017120D01*
X006700Y016770D02*
X006700Y016420D01*
X006700Y015470D01*
X006700Y015070D01*
X007800Y015920D02*
X007802Y015940D01*
X007808Y015958D01*
X007817Y015976D01*
X007829Y015991D01*
X007844Y016003D01*
X007862Y016012D01*
X007880Y016018D01*
X007900Y016020D01*
X007920Y016018D01*
X007938Y016012D01*
X007956Y016003D01*
X007971Y015991D01*
X007983Y015976D01*
X007992Y015958D01*
X007998Y015940D01*
X008000Y015920D01*
X007998Y015900D01*
X007992Y015882D01*
X007983Y015864D01*
X007971Y015849D01*
X007956Y015837D01*
X007938Y015828D01*
X007920Y015822D01*
X007900Y015820D01*
X007880Y015822D01*
X007862Y015828D01*
X007844Y015837D01*
X007829Y015849D01*
X007817Y015864D01*
X007808Y015882D01*
X007802Y015900D01*
X007800Y015920D01*
X007200Y015920D02*
X007202Y015972D01*
X007208Y016024D01*
X007218Y016076D01*
X007231Y016126D01*
X007248Y016176D01*
X007269Y016224D01*
X007294Y016270D01*
X007322Y016314D01*
X007353Y016356D01*
X007387Y016396D01*
X007424Y016433D01*
X007464Y016467D01*
X007506Y016498D01*
X007550Y016526D01*
X007596Y016551D01*
X007644Y016572D01*
X007694Y016589D01*
X007744Y016602D01*
X007796Y016612D01*
X007848Y016618D01*
X007900Y016620D01*
X007952Y016618D01*
X008004Y016612D01*
X008056Y016602D01*
X008106Y016589D01*
X008156Y016572D01*
X008204Y016551D01*
X008250Y016526D01*
X008294Y016498D01*
X008336Y016467D01*
X008376Y016433D01*
X008413Y016396D01*
X008447Y016356D01*
X008478Y016314D01*
X008506Y016270D01*
X008531Y016224D01*
X008552Y016176D01*
X008569Y016126D01*
X008582Y016076D01*
X008592Y016024D01*
X008598Y015972D01*
X008600Y015920D01*
X008598Y015868D01*
X008592Y015816D01*
X008582Y015764D01*
X008569Y015714D01*
X008552Y015664D01*
X008531Y015616D01*
X008506Y015570D01*
X008478Y015526D01*
X008447Y015484D01*
X008413Y015444D01*
X008376Y015407D01*
X008336Y015373D01*
X008294Y015342D01*
X008250Y015314D01*
X008204Y015289D01*
X008156Y015268D01*
X008106Y015251D01*
X008056Y015238D01*
X008004Y015228D01*
X007952Y015222D01*
X007900Y015220D01*
X007848Y015222D01*
X007796Y015228D01*
X007744Y015238D01*
X007694Y015251D01*
X007644Y015268D01*
X007596Y015289D01*
X007550Y015314D01*
X007506Y015342D01*
X007464Y015373D01*
X007424Y015407D01*
X007387Y015444D01*
X007353Y015484D01*
X007322Y015526D01*
X007294Y015570D01*
X007269Y015616D01*
X007248Y015664D01*
X007231Y015714D01*
X007218Y015764D01*
X007208Y015816D01*
X007202Y015868D01*
X007200Y015920D01*
X010550Y016320D02*
X010550Y017020D01*
X010552Y017037D01*
X010556Y017054D01*
X010563Y017070D01*
X010573Y017084D01*
X010586Y017097D01*
X010600Y017107D01*
X010616Y017114D01*
X010633Y017118D01*
X010650Y017120D01*
X010800Y017120D01*
X010850Y017070D01*
X012750Y017070D01*
X012800Y017120D01*
X012950Y017120D01*
X012967Y017118D01*
X012984Y017114D01*
X013000Y017107D01*
X013014Y017097D01*
X013027Y017084D01*
X013037Y017070D01*
X013044Y017054D01*
X013048Y017037D01*
X013050Y017020D01*
X013050Y016320D01*
X013048Y016303D01*
X013044Y016286D01*
X013037Y016270D01*
X013027Y016256D01*
X013014Y016243D01*
X013000Y016233D01*
X012984Y016226D01*
X012967Y016222D01*
X012950Y016220D01*
X012800Y016220D01*
X012750Y016270D01*
X010850Y016270D01*
X010800Y016220D01*
X010650Y016220D01*
X010633Y016222D01*
X010616Y016226D01*
X010600Y016233D01*
X010586Y016243D01*
X010573Y016256D01*
X010563Y016270D01*
X010556Y016286D01*
X010552Y016303D01*
X010550Y016320D01*
X010650Y017270D02*
X010800Y017270D01*
X010850Y017320D01*
X012750Y017320D01*
X012800Y017270D01*
X012950Y017270D01*
X012967Y017272D01*
X012984Y017276D01*
X013000Y017283D01*
X013014Y017293D01*
X013027Y017306D01*
X013037Y017320D01*
X013044Y017336D01*
X013048Y017353D01*
X013050Y017370D01*
X013050Y018070D01*
X013048Y018087D01*
X013044Y018104D01*
X013037Y018120D01*
X013027Y018134D01*
X013014Y018147D01*
X013000Y018157D01*
X012984Y018164D01*
X012967Y018168D01*
X012950Y018170D01*
X012800Y018170D01*
X012750Y018120D01*
X010850Y018120D01*
X010800Y018170D01*
X010650Y018170D01*
X010633Y018168D01*
X010616Y018164D01*
X010600Y018157D01*
X010586Y018147D01*
X010573Y018134D01*
X010563Y018120D01*
X010556Y018104D01*
X010552Y018087D01*
X010550Y018070D01*
X010550Y017370D01*
X010552Y017353D01*
X010556Y017336D01*
X010563Y017320D01*
X010573Y017306D01*
X010586Y017293D01*
X010600Y017283D01*
X010616Y017276D01*
X010633Y017272D01*
X010650Y017270D01*
X010650Y018370D02*
X010800Y018370D01*
X010850Y018420D01*
X012750Y018420D01*
X012800Y018370D01*
X012950Y018370D01*
X012967Y018372D01*
X012984Y018376D01*
X013000Y018383D01*
X013014Y018393D01*
X013027Y018406D01*
X013037Y018420D01*
X013044Y018436D01*
X013048Y018453D01*
X013050Y018470D01*
X013050Y019170D01*
X013048Y019187D01*
X013044Y019204D01*
X013037Y019220D01*
X013027Y019234D01*
X013014Y019247D01*
X013000Y019257D01*
X012984Y019264D01*
X012967Y019268D01*
X012950Y019270D01*
X012800Y019270D01*
X012750Y019220D01*
X010850Y019220D01*
X010800Y019270D01*
X010650Y019270D01*
X010633Y019268D01*
X010616Y019264D01*
X010600Y019257D01*
X010586Y019247D01*
X010573Y019234D01*
X010563Y019220D01*
X010556Y019204D01*
X010552Y019187D01*
X010550Y019170D01*
X010550Y018470D01*
X010552Y018453D01*
X010556Y018436D01*
X010563Y018420D01*
X010573Y018406D01*
X010586Y018393D01*
X010600Y018383D01*
X010616Y018376D01*
X010633Y018372D01*
X010650Y018370D01*
X010550Y020020D02*
X010300Y020270D01*
X010050Y020020D01*
X009550Y020020D01*
X009300Y020270D01*
X009300Y020770D01*
X009550Y021020D01*
X010050Y021020D01*
X010300Y020770D01*
X010550Y021020D01*
X011050Y021020D01*
X011300Y020770D01*
X011550Y021020D01*
X012050Y021020D01*
X012300Y020770D01*
X012550Y021020D01*
X013050Y021020D01*
X013300Y020770D01*
X013550Y021020D01*
X014050Y021020D01*
X014300Y020770D01*
X014550Y021020D01*
X015050Y021020D01*
X015300Y020770D01*
X015550Y021020D01*
X016050Y021020D01*
X016300Y020770D01*
X016550Y021020D01*
X017050Y021020D01*
X017300Y020770D01*
X017300Y020270D01*
X017050Y020020D01*
X016550Y020020D01*
X016300Y020270D01*
X016050Y020020D01*
X015550Y020020D01*
X015300Y020270D01*
X015300Y020770D01*
X015300Y020270D02*
X015050Y020020D01*
X014550Y020020D01*
X014300Y020270D01*
X014050Y020020D01*
X013550Y020020D01*
X013300Y020270D01*
X013050Y020020D01*
X012550Y020020D01*
X012300Y020270D01*
X012300Y020770D01*
X012300Y020270D02*
X012050Y020020D01*
X011550Y020020D01*
X011300Y020270D01*
X011050Y020020D01*
X010550Y020020D01*
X010300Y020270D02*
X010300Y020770D01*
X011300Y020770D02*
X011300Y020270D01*
X013300Y020270D02*
X013300Y020770D01*
X014300Y020770D02*
X014300Y020270D01*
X016300Y020270D02*
X016300Y020770D01*
X017850Y020770D02*
X017850Y020270D01*
X018100Y020020D01*
X018600Y020020D01*
X018850Y020270D01*
X018850Y020770D01*
X018600Y021020D01*
X018100Y021020D01*
X017850Y020770D01*
X018850Y020770D02*
X019100Y021020D01*
X019600Y021020D01*
X019850Y020770D01*
X020100Y021020D01*
X020600Y021020D01*
X020850Y020770D01*
X021100Y021020D01*
X021600Y021020D01*
X021850Y020770D01*
X022100Y021020D01*
X022600Y021020D01*
X022850Y020770D01*
X023100Y021020D01*
X023600Y021020D01*
X023850Y020770D01*
X024100Y021020D01*
X024600Y021020D01*
X024850Y020770D01*
X025100Y021020D01*
X025600Y021020D01*
X025850Y020770D01*
X025850Y020270D01*
X025600Y020020D01*
X025100Y020020D01*
X024850Y020270D01*
X024600Y020020D01*
X024100Y020020D01*
X023850Y020270D01*
X023850Y020770D01*
X023850Y020270D02*
X023600Y020020D01*
X023100Y020020D01*
X022850Y020270D01*
X022600Y020020D01*
X022100Y020020D01*
X021850Y020270D01*
X021600Y020020D01*
X021100Y020020D01*
X020850Y020270D01*
X020850Y020770D01*
X020850Y020270D02*
X020600Y020020D01*
X020100Y020020D01*
X019850Y020270D01*
X019600Y020020D01*
X019100Y020020D01*
X018850Y020270D01*
X019850Y020270D02*
X019850Y020770D01*
X021850Y020770D02*
X021850Y020270D01*
X022850Y020270D02*
X022850Y020770D01*
X024850Y020770D02*
X024850Y020270D01*
X023073Y007991D02*
X023073Y007350D01*
X023150Y002020D02*
X023650Y002020D01*
X023900Y001770D01*
X024150Y002020D01*
X024650Y002020D01*
X024900Y001770D01*
X025150Y002020D01*
X025650Y002020D01*
X025900Y001770D01*
X025900Y001270D01*
X025650Y001020D01*
X025150Y001020D01*
X024900Y001270D01*
X024650Y001020D01*
X024150Y001020D01*
X023900Y001270D01*
X023900Y001770D01*
X023900Y001270D02*
X023650Y001020D01*
X023150Y001020D01*
X022900Y001270D01*
X022650Y001020D01*
X022150Y001020D01*
X021900Y001270D01*
X021650Y001020D01*
X021150Y001020D01*
X020900Y001270D01*
X020650Y001020D01*
X020150Y001020D01*
X019900Y001270D01*
X019900Y001770D01*
X020150Y002020D01*
X020650Y002020D01*
X020900Y001770D01*
X021150Y002020D01*
X021650Y002020D01*
X021900Y001770D01*
X022150Y002020D01*
X022650Y002020D01*
X022900Y001770D01*
X023150Y002020D01*
X022900Y001770D02*
X022900Y001270D01*
X021900Y001270D02*
X021900Y001770D01*
X020900Y001770D02*
X020900Y001270D01*
X018850Y001320D02*
X018600Y001070D01*
X018100Y001070D01*
X017850Y001320D01*
X017600Y001070D01*
X017100Y001070D01*
X016850Y001320D01*
X016850Y001820D01*
X017100Y002070D01*
X017600Y002070D01*
X017850Y001820D01*
X018100Y002070D01*
X018600Y002070D01*
X018850Y001820D01*
X018850Y001320D01*
X017850Y001320D02*
X017850Y001820D01*
X016850Y001820D02*
X016600Y002070D01*
X016100Y002070D01*
X015850Y001820D01*
X015600Y002070D01*
X015100Y002070D01*
X014850Y001820D01*
X014600Y002070D01*
X014100Y002070D01*
X013850Y001820D01*
X013600Y002070D01*
X013100Y002070D01*
X012850Y001820D01*
X012850Y001320D01*
X013100Y001070D01*
X013600Y001070D01*
X013850Y001320D01*
X013850Y001820D01*
X013850Y001320D02*
X014100Y001070D01*
X014600Y001070D01*
X014850Y001320D01*
X014850Y001820D01*
X014850Y001320D02*
X015100Y001070D01*
X015600Y001070D01*
X015850Y001320D01*
X015850Y001820D01*
X015850Y001320D02*
X016100Y001070D01*
X016600Y001070D01*
X016850Y001320D01*
X024900Y001270D02*
X024900Y001770D01*
X005050Y005670D02*
X004800Y005670D01*
X004550Y005670D01*
X004550Y006670D01*
X004800Y006670D01*
X005050Y006670D01*
X005050Y005670D01*
X004800Y005670D02*
X004800Y005470D01*
X004800Y006670D02*
X004800Y006870D01*
D16*
X009000Y015420D02*
X009100Y015420D01*
X009000Y015420D02*
X009000Y016420D01*
X009100Y016420D01*
X006800Y016420D02*
X006800Y015470D01*
X006700Y015470D01*
X006700Y016420D02*
X006800Y016420D01*
D17*
X010380Y016670D03*
X010380Y017720D03*
X010380Y018820D03*
X013220Y018820D03*
X013220Y017720D03*
X013220Y016670D03*
X011070Y012720D03*
X011070Y011520D03*
X011070Y010320D03*
X011070Y009120D03*
X008230Y009120D03*
X008230Y010320D03*
X008230Y011520D03*
X008230Y012720D03*
X019930Y018270D03*
X022770Y018270D03*
D18*
X008760Y020859D02*
X008631Y020794D01*
X008632Y020795D02*
X008601Y020851D01*
X008567Y020905D01*
X008529Y020958D01*
X008489Y021007D01*
X008445Y021054D01*
X008398Y021099D01*
X008349Y021140D01*
X008298Y021178D01*
X008244Y021213D01*
X008188Y021245D01*
X008131Y021273D01*
X008071Y021298D01*
X008011Y021319D01*
X007949Y021336D01*
X007886Y021349D01*
X007822Y021359D01*
X007758Y021364D01*
X007694Y021366D01*
X007630Y021364D01*
X007566Y021357D01*
X007503Y021347D01*
X007440Y021333D01*
X007379Y021315D01*
X007318Y021294D01*
X007259Y021269D01*
X007202Y021240D01*
X007146Y021207D01*
X007093Y021172D01*
X007042Y021133D01*
X006993Y021091D01*
X006947Y021046D01*
X006904Y020999D01*
X006864Y020948D01*
X006827Y020896D01*
X006793Y020841D01*
X006763Y020785D01*
X006736Y020726D01*
X006713Y020666D01*
X006694Y020605D01*
X006678Y020543D01*
X006666Y020480D01*
X006658Y020416D01*
X006654Y020352D01*
X006654Y020288D01*
X006658Y020224D01*
X006666Y020160D01*
X006678Y020097D01*
X006694Y020035D01*
X006713Y019974D01*
X006736Y019914D01*
X006763Y019855D01*
X006793Y019799D01*
X006827Y019744D01*
X006864Y019692D01*
X006904Y019641D01*
X006947Y019594D01*
X006993Y019549D01*
X007042Y019507D01*
X007093Y019468D01*
X007146Y019433D01*
X007202Y019400D01*
X007259Y019371D01*
X007318Y019346D01*
X007379Y019325D01*
X007440Y019307D01*
X007503Y019293D01*
X007566Y019283D01*
X007630Y019276D01*
X007694Y019274D01*
X007758Y019276D01*
X007822Y019281D01*
X007886Y019291D01*
X007949Y019304D01*
X008011Y019321D01*
X008071Y019342D01*
X008131Y019367D01*
X008188Y019395D01*
X008244Y019427D01*
X008298Y019462D01*
X008349Y019500D01*
X008398Y019541D01*
X008445Y019586D01*
X008489Y019633D01*
X008529Y019682D01*
X008567Y019735D01*
X008601Y019789D01*
X008632Y019845D01*
X008760Y019781D01*
X008761Y019781D01*
X008728Y019721D01*
X008692Y019663D01*
X008653Y019607D01*
X008610Y019553D01*
X008565Y019502D01*
X008516Y019454D01*
X008465Y019409D01*
X008411Y019366D01*
X008356Y019327D01*
X008297Y019291D01*
X008237Y019258D01*
X008176Y019229D01*
X008112Y019204D01*
X008047Y019182D01*
X007981Y019164D01*
X007915Y019150D01*
X007847Y019139D01*
X007779Y019133D01*
X007711Y019130D01*
X007642Y019131D01*
X007574Y019137D01*
X007506Y019146D01*
X007439Y019159D01*
X007373Y019176D01*
X007308Y019196D01*
X007244Y019221D01*
X007182Y019249D01*
X007121Y019280D01*
X007062Y019315D01*
X007006Y019354D01*
X006951Y019395D01*
X006900Y019439D01*
X006850Y019487D01*
X006804Y019537D01*
X006760Y019590D01*
X006720Y019645D01*
X006683Y019702D01*
X006649Y019762D01*
X006619Y019823D01*
X006592Y019886D01*
X006569Y019950D01*
X006550Y020016D01*
X006534Y020082D01*
X006522Y020150D01*
X006514Y020218D01*
X006510Y020286D01*
X006510Y020354D01*
X006514Y020422D01*
X006522Y020490D01*
X006534Y020558D01*
X006550Y020624D01*
X006569Y020690D01*
X006592Y020754D01*
X006619Y020817D01*
X006649Y020878D01*
X006683Y020938D01*
X006720Y020995D01*
X006760Y021050D01*
X006804Y021103D01*
X006850Y021153D01*
X006900Y021201D01*
X006951Y021245D01*
X007006Y021286D01*
X007062Y021325D01*
X007121Y021360D01*
X007182Y021391D01*
X007244Y021419D01*
X007308Y021444D01*
X007373Y021464D01*
X007439Y021481D01*
X007506Y021494D01*
X007574Y021503D01*
X007642Y021509D01*
X007711Y021510D01*
X007779Y021507D01*
X007847Y021501D01*
X007915Y021490D01*
X007981Y021476D01*
X008047Y021458D01*
X008112Y021436D01*
X008176Y021411D01*
X008237Y021382D01*
X008297Y021349D01*
X008356Y021313D01*
X008411Y021274D01*
X008465Y021231D01*
X008516Y021186D01*
X008565Y021138D01*
X008610Y021087D01*
X008653Y021033D01*
X008692Y020977D01*
X008728Y020919D01*
X008761Y020859D01*
X008748Y020853D01*
X008716Y020913D01*
X008679Y020971D01*
X008640Y021027D01*
X008597Y021080D01*
X008552Y021131D01*
X008503Y021179D01*
X008452Y021224D01*
X008398Y021266D01*
X008342Y021305D01*
X008284Y021341D01*
X008224Y021373D01*
X008162Y021402D01*
X008098Y021427D01*
X008033Y021448D01*
X007967Y021465D01*
X007900Y021479D01*
X007833Y021488D01*
X007765Y021494D01*
X007697Y021496D01*
X007628Y021494D01*
X007560Y021488D01*
X007493Y021478D01*
X007426Y021464D01*
X007360Y021446D01*
X007295Y021424D01*
X007232Y021399D01*
X007170Y021370D01*
X007110Y021337D01*
X007052Y021301D01*
X006996Y021262D01*
X006943Y021220D01*
X006892Y021174D01*
X006843Y021126D01*
X006798Y021075D01*
X006756Y021021D01*
X006717Y020965D01*
X006681Y020907D01*
X006649Y020847D01*
X006620Y020785D01*
X006595Y020721D01*
X006573Y020657D01*
X006556Y020591D01*
X006542Y020524D01*
X006532Y020456D01*
X006526Y020388D01*
X006524Y020320D01*
X006526Y020252D01*
X006532Y020184D01*
X006542Y020116D01*
X006556Y020049D01*
X006573Y019983D01*
X006595Y019919D01*
X006620Y019855D01*
X006649Y019793D01*
X006681Y019733D01*
X006717Y019675D01*
X006756Y019619D01*
X006798Y019565D01*
X006843Y019514D01*
X006892Y019466D01*
X006943Y019420D01*
X006996Y019378D01*
X007052Y019339D01*
X007110Y019303D01*
X007170Y019270D01*
X007232Y019241D01*
X007295Y019216D01*
X007360Y019194D01*
X007426Y019176D01*
X007493Y019162D01*
X007560Y019152D01*
X007628Y019146D01*
X007697Y019144D01*
X007765Y019146D01*
X007833Y019152D01*
X007900Y019161D01*
X007967Y019175D01*
X008033Y019192D01*
X008098Y019213D01*
X008162Y019238D01*
X008224Y019267D01*
X008284Y019299D01*
X008342Y019335D01*
X008398Y019374D01*
X008452Y019416D01*
X008503Y019461D01*
X008552Y019509D01*
X008597Y019560D01*
X008640Y019613D01*
X008679Y019669D01*
X008716Y019727D01*
X008748Y019787D01*
X008736Y019793D01*
X008703Y019734D01*
X008668Y019677D01*
X008629Y019622D01*
X008587Y019569D01*
X008542Y019519D01*
X008494Y019471D01*
X008443Y019427D01*
X008390Y019385D01*
X008335Y019347D01*
X008277Y019311D01*
X008217Y019280D01*
X008156Y019251D01*
X008093Y019227D01*
X008029Y019206D01*
X007964Y019188D01*
X007898Y019175D01*
X007831Y019165D01*
X007764Y019160D01*
X007697Y019158D01*
X007629Y019160D01*
X007562Y019166D01*
X007495Y019176D01*
X007429Y019190D01*
X007364Y019208D01*
X007300Y019229D01*
X007237Y019254D01*
X007176Y019283D01*
X007117Y019315D01*
X007060Y019350D01*
X007004Y019389D01*
X006952Y019431D01*
X006901Y019476D01*
X006854Y019524D01*
X006809Y019574D01*
X006767Y019627D01*
X006728Y019683D01*
X006693Y019740D01*
X006661Y019799D01*
X006633Y019861D01*
X006608Y019923D01*
X006587Y019987D01*
X006569Y020053D01*
X006556Y020119D01*
X006546Y020185D01*
X006540Y020253D01*
X006538Y020320D01*
X006540Y020387D01*
X006546Y020455D01*
X006556Y020521D01*
X006569Y020587D01*
X006587Y020653D01*
X006608Y020717D01*
X006633Y020779D01*
X006661Y020841D01*
X006693Y020900D01*
X006728Y020957D01*
X006767Y021013D01*
X006809Y021066D01*
X006854Y021116D01*
X006901Y021164D01*
X006952Y021209D01*
X007004Y021251D01*
X007060Y021290D01*
X007117Y021325D01*
X007176Y021357D01*
X007237Y021386D01*
X007300Y021411D01*
X007364Y021432D01*
X007429Y021450D01*
X007495Y021464D01*
X007562Y021474D01*
X007629Y021480D01*
X007697Y021482D01*
X007764Y021480D01*
X007831Y021475D01*
X007898Y021465D01*
X007964Y021452D01*
X008029Y021434D01*
X008093Y021413D01*
X008156Y021389D01*
X008217Y021360D01*
X008277Y021329D01*
X008335Y021293D01*
X008390Y021255D01*
X008443Y021213D01*
X008494Y021169D01*
X008542Y021121D01*
X008587Y021071D01*
X008629Y021018D01*
X008668Y020963D01*
X008703Y020906D01*
X008736Y020847D01*
X008723Y020841D01*
X008691Y020900D01*
X008655Y020957D01*
X008616Y021012D01*
X008574Y021064D01*
X008529Y021114D01*
X008481Y021162D01*
X008430Y021206D01*
X008377Y021247D01*
X008321Y021285D01*
X008264Y021320D01*
X008204Y021351D01*
X008143Y021379D01*
X008080Y021403D01*
X008015Y021424D01*
X007950Y021440D01*
X007884Y021453D01*
X007817Y021462D01*
X007750Y021467D01*
X007683Y021468D01*
X007615Y021465D01*
X007548Y021458D01*
X007482Y021447D01*
X007416Y021432D01*
X007351Y021414D01*
X007288Y021391D01*
X007226Y021365D01*
X007165Y021336D01*
X007106Y021303D01*
X007050Y021266D01*
X006995Y021226D01*
X006943Y021183D01*
X006894Y021137D01*
X006847Y021089D01*
X006804Y021037D01*
X006763Y020984D01*
X006726Y020928D01*
X006692Y020869D01*
X006661Y020809D01*
X006635Y020747D01*
X006611Y020684D01*
X006592Y020620D01*
X006576Y020554D01*
X006564Y020488D01*
X006556Y020421D01*
X006552Y020354D01*
X006552Y020286D01*
X006556Y020219D01*
X006564Y020152D01*
X006576Y020086D01*
X006592Y020020D01*
X006611Y019956D01*
X006635Y019893D01*
X006661Y019831D01*
X006692Y019771D01*
X006726Y019712D01*
X006763Y019656D01*
X006804Y019603D01*
X006847Y019551D01*
X006894Y019503D01*
X006943Y019457D01*
X006995Y019414D01*
X007050Y019374D01*
X007106Y019337D01*
X007165Y019304D01*
X007226Y019275D01*
X007288Y019249D01*
X007351Y019226D01*
X007416Y019208D01*
X007482Y019193D01*
X007548Y019182D01*
X007615Y019175D01*
X007683Y019172D01*
X007750Y019173D01*
X007817Y019178D01*
X007884Y019187D01*
X007950Y019200D01*
X008015Y019216D01*
X008080Y019237D01*
X008143Y019261D01*
X008204Y019289D01*
X008264Y019320D01*
X008321Y019355D01*
X008377Y019393D01*
X008430Y019434D01*
X008481Y019478D01*
X008529Y019526D01*
X008574Y019576D01*
X008616Y019628D01*
X008655Y019683D01*
X008691Y019740D01*
X008723Y019799D01*
X008711Y019806D01*
X008679Y019747D01*
X008643Y019691D01*
X008605Y019637D01*
X008563Y019585D01*
X008519Y019535D01*
X008471Y019489D01*
X008421Y019445D01*
X008369Y019404D01*
X008314Y019366D01*
X008257Y019332D01*
X008198Y019301D01*
X008137Y019274D01*
X008075Y019250D01*
X008012Y019230D01*
X007947Y019213D01*
X007882Y019201D01*
X007816Y019192D01*
X007749Y019187D01*
X007683Y019186D01*
X007616Y019189D01*
X007550Y019196D01*
X007484Y019207D01*
X007419Y019221D01*
X007355Y019240D01*
X007293Y019262D01*
X007231Y019287D01*
X007171Y019317D01*
X007114Y019349D01*
X007058Y019386D01*
X007004Y019425D01*
X006953Y019467D01*
X006904Y019512D01*
X006858Y019561D01*
X006815Y019611D01*
X006775Y019664D01*
X006738Y019720D01*
X006704Y019777D01*
X006674Y019837D01*
X006648Y019898D01*
X006625Y019960D01*
X006605Y020024D01*
X006590Y020089D01*
X006578Y020154D01*
X006570Y020220D01*
X006566Y020287D01*
X006566Y020353D01*
X006570Y020420D01*
X006578Y020486D01*
X006590Y020551D01*
X006605Y020616D01*
X006625Y020680D01*
X006648Y020742D01*
X006674Y020803D01*
X006704Y020863D01*
X006738Y020920D01*
X006775Y020976D01*
X006815Y021029D01*
X006858Y021079D01*
X006904Y021128D01*
X006953Y021173D01*
X007004Y021215D01*
X007058Y021254D01*
X007114Y021291D01*
X007171Y021323D01*
X007231Y021353D01*
X007293Y021378D01*
X007355Y021400D01*
X007419Y021419D01*
X007484Y021433D01*
X007550Y021444D01*
X007616Y021451D01*
X007683Y021454D01*
X007749Y021453D01*
X007816Y021448D01*
X007882Y021439D01*
X007947Y021427D01*
X008012Y021410D01*
X008075Y021390D01*
X008137Y021366D01*
X008198Y021339D01*
X008257Y021308D01*
X008314Y021274D01*
X008369Y021236D01*
X008421Y021195D01*
X008471Y021151D01*
X008519Y021105D01*
X008563Y021055D01*
X008605Y021003D01*
X008643Y020949D01*
X008679Y020893D01*
X008711Y020834D01*
X008698Y020828D01*
X008667Y020886D01*
X008632Y020941D01*
X008594Y020995D01*
X008553Y021046D01*
X008509Y021095D01*
X008462Y021141D01*
X008412Y021184D01*
X008360Y021225D01*
X008306Y021262D01*
X008250Y021296D01*
X008192Y021326D01*
X008132Y021353D01*
X008070Y021377D01*
X008008Y021397D01*
X007944Y021413D01*
X007879Y021426D01*
X007814Y021434D01*
X007749Y021439D01*
X007683Y021440D01*
X007617Y021437D01*
X007552Y021430D01*
X007487Y021420D01*
X007423Y021405D01*
X007360Y021387D01*
X007298Y021365D01*
X007237Y021340D01*
X007178Y021311D01*
X007121Y021279D01*
X007066Y021243D01*
X007012Y021204D01*
X006962Y021162D01*
X006914Y021118D01*
X006868Y021070D01*
X006826Y021020D01*
X006786Y020967D01*
X006750Y020913D01*
X006717Y020856D01*
X006687Y020797D01*
X006661Y020737D01*
X006638Y020675D01*
X006619Y020612D01*
X006604Y020548D01*
X006592Y020484D01*
X006584Y020418D01*
X006580Y020353D01*
X006580Y020287D01*
X006584Y020222D01*
X006592Y020156D01*
X006604Y020092D01*
X006619Y020028D01*
X006638Y019965D01*
X006661Y019903D01*
X006687Y019843D01*
X006717Y019784D01*
X006750Y019727D01*
X006786Y019673D01*
X006826Y019620D01*
X006868Y019570D01*
X006914Y019522D01*
X006962Y019478D01*
X007012Y019436D01*
X007066Y019397D01*
X007121Y019361D01*
X007178Y019329D01*
X007237Y019300D01*
X007298Y019275D01*
X007360Y019253D01*
X007423Y019235D01*
X007487Y019220D01*
X007552Y019210D01*
X007617Y019203D01*
X007683Y019200D01*
X007749Y019201D01*
X007814Y019206D01*
X007879Y019214D01*
X007944Y019227D01*
X008008Y019243D01*
X008070Y019263D01*
X008132Y019287D01*
X008192Y019314D01*
X008250Y019344D01*
X008306Y019378D01*
X008360Y019415D01*
X008412Y019456D01*
X008462Y019499D01*
X008509Y019545D01*
X008553Y019594D01*
X008594Y019645D01*
X008632Y019699D01*
X008667Y019754D01*
X008698Y019812D01*
X008686Y019818D01*
X008654Y019761D01*
X008619Y019705D01*
X008581Y019652D01*
X008540Y019601D01*
X008496Y019552D01*
X008449Y019506D01*
X008399Y019463D01*
X008347Y019423D01*
X008293Y019386D01*
X008236Y019353D01*
X008178Y019323D01*
X008118Y019296D01*
X008057Y019273D01*
X007994Y019254D01*
X007930Y019238D01*
X007866Y019226D01*
X007800Y019219D01*
X007735Y019215D01*
X007669Y019214D01*
X007604Y019218D01*
X007539Y019226D01*
X007474Y019237D01*
X007410Y019253D01*
X007347Y019272D01*
X007286Y019294D01*
X007226Y019321D01*
X007167Y019351D01*
X007111Y019384D01*
X007056Y019421D01*
X007004Y019460D01*
X006954Y019503D01*
X006907Y019549D01*
X006863Y019597D01*
X006821Y019648D01*
X006783Y019701D01*
X006748Y019757D01*
X006716Y019814D01*
X006688Y019874D01*
X006663Y019934D01*
X006642Y019997D01*
X006625Y020060D01*
X006611Y020124D01*
X006602Y020189D01*
X006596Y020254D01*
X006594Y020320D01*
X006596Y020386D01*
X006602Y020451D01*
X006611Y020516D01*
X006625Y020580D01*
X006642Y020643D01*
X006663Y020706D01*
X006688Y020766D01*
X006716Y020826D01*
X006748Y020883D01*
X006783Y020939D01*
X006821Y020992D01*
X006863Y021043D01*
X006907Y021091D01*
X006954Y021137D01*
X007004Y021180D01*
X007056Y021219D01*
X007111Y021256D01*
X007167Y021289D01*
X007226Y021319D01*
X007286Y021346D01*
X007347Y021368D01*
X007410Y021387D01*
X007474Y021403D01*
X007539Y021414D01*
X007604Y021422D01*
X007669Y021426D01*
X007735Y021425D01*
X007800Y021421D01*
X007866Y021414D01*
X007930Y021402D01*
X007994Y021386D01*
X008057Y021367D01*
X008118Y021344D01*
X008178Y021317D01*
X008236Y021287D01*
X008293Y021254D01*
X008347Y021217D01*
X008399Y021177D01*
X008449Y021134D01*
X008496Y021088D01*
X008540Y021039D01*
X008581Y020988D01*
X008619Y020935D01*
X008654Y020879D01*
X008686Y020822D01*
X008673Y020815D01*
X008642Y020873D01*
X008607Y020928D01*
X008569Y020982D01*
X008527Y021033D01*
X008483Y021081D01*
X008436Y021127D01*
X008386Y021169D01*
X008334Y021209D01*
X008280Y021245D01*
X008223Y021278D01*
X008165Y021308D01*
X008105Y021334D01*
X008043Y021357D01*
X007980Y021375D01*
X007917Y021390D01*
X007852Y021401D01*
X007787Y021409D01*
X007721Y021412D01*
X007656Y021411D01*
X007590Y021406D01*
X007526Y021398D01*
X007461Y021386D01*
X007398Y021369D01*
X007335Y021349D01*
X007274Y021326D01*
X007215Y021298D01*
X007157Y021267D01*
X007101Y021233D01*
X007047Y021196D01*
X006996Y021155D01*
X006947Y021111D01*
X006901Y021064D01*
X006858Y021015D01*
X006818Y020963D01*
X006781Y020909D01*
X006747Y020853D01*
X006717Y020795D01*
X006690Y020735D01*
X006667Y020674D01*
X006648Y020611D01*
X006632Y020548D01*
X006620Y020483D01*
X006612Y020418D01*
X006608Y020353D01*
X006608Y020287D01*
X006612Y020222D01*
X006620Y020157D01*
X006632Y020092D01*
X006648Y020029D01*
X006667Y019966D01*
X006690Y019905D01*
X006717Y019845D01*
X006747Y019787D01*
X006781Y019731D01*
X006818Y019677D01*
X006858Y019625D01*
X006901Y019576D01*
X006947Y019529D01*
X006996Y019485D01*
X007047Y019444D01*
X007101Y019407D01*
X007157Y019373D01*
X007215Y019342D01*
X007274Y019314D01*
X007335Y019291D01*
X007398Y019271D01*
X007461Y019254D01*
X007526Y019242D01*
X007590Y019234D01*
X007656Y019229D01*
X007721Y019228D01*
X007787Y019231D01*
X007852Y019239D01*
X007917Y019250D01*
X007980Y019265D01*
X008043Y019283D01*
X008105Y019306D01*
X008165Y019332D01*
X008223Y019362D01*
X008280Y019395D01*
X008334Y019431D01*
X008386Y019471D01*
X008436Y019513D01*
X008483Y019559D01*
X008527Y019607D01*
X008569Y019658D01*
X008607Y019712D01*
X008642Y019767D01*
X008673Y019825D01*
X008661Y019831D01*
X008630Y019774D01*
X008595Y019719D01*
X008557Y019667D01*
X008517Y019616D01*
X008473Y019569D01*
X008427Y019524D01*
X008378Y019482D01*
X008326Y019442D01*
X008272Y019406D01*
X008216Y019374D01*
X008159Y019344D01*
X008099Y019319D01*
X008039Y019297D01*
X007977Y019278D01*
X007914Y019263D01*
X007850Y019252D01*
X007786Y019245D01*
X007721Y019242D01*
X007656Y019243D01*
X007592Y019247D01*
X007528Y019256D01*
X007464Y019268D01*
X007402Y019284D01*
X007340Y019304D01*
X007280Y019327D01*
X007221Y019354D01*
X007164Y019385D01*
X007109Y019419D01*
X007056Y019456D01*
X007005Y019496D01*
X006957Y019539D01*
X006911Y019585D01*
X006869Y019634D01*
X006829Y019685D01*
X006792Y019738D01*
X006759Y019794D01*
X006729Y019851D01*
X006703Y019910D01*
X006680Y019971D01*
X006661Y020032D01*
X006646Y020095D01*
X006634Y020159D01*
X006626Y020223D01*
X006622Y020288D01*
X006622Y020352D01*
X006626Y020417D01*
X006634Y020481D01*
X006646Y020545D01*
X006661Y020608D01*
X006680Y020669D01*
X006703Y020730D01*
X006729Y020789D01*
X006759Y020846D01*
X006792Y020902D01*
X006829Y020955D01*
X006869Y021006D01*
X006911Y021055D01*
X006957Y021101D01*
X007005Y021144D01*
X007056Y021184D01*
X007109Y021221D01*
X007164Y021255D01*
X007221Y021286D01*
X007280Y021313D01*
X007340Y021336D01*
X007402Y021356D01*
X007464Y021372D01*
X007528Y021384D01*
X007592Y021393D01*
X007656Y021397D01*
X007721Y021398D01*
X007786Y021395D01*
X007850Y021388D01*
X007914Y021377D01*
X007977Y021362D01*
X008039Y021343D01*
X008099Y021321D01*
X008159Y021296D01*
X008216Y021266D01*
X008272Y021234D01*
X008326Y021198D01*
X008378Y021158D01*
X008427Y021116D01*
X008473Y021071D01*
X008517Y021024D01*
X008557Y020973D01*
X008595Y020921D01*
X008630Y020866D01*
X008661Y020809D01*
X008648Y020803D01*
X008617Y020860D01*
X008583Y020914D01*
X008545Y020967D01*
X008504Y021017D01*
X008460Y021064D01*
X008414Y021109D01*
X008365Y021151D01*
X008313Y021190D01*
X008259Y021225D01*
X008203Y021257D01*
X008146Y021286D01*
X008086Y021311D01*
X008025Y021333D01*
X007963Y021351D01*
X007900Y021365D01*
X007836Y021375D01*
X007772Y021382D01*
X007708Y021384D01*
X007643Y021382D01*
X007579Y021377D01*
X007515Y021368D01*
X007452Y021355D01*
X007389Y021338D01*
X007328Y021317D01*
X007268Y021293D01*
X007210Y021265D01*
X007154Y021233D01*
X007099Y021198D01*
X007047Y021160D01*
X006998Y021119D01*
X006950Y021075D01*
X006906Y021028D01*
X006864Y020979D01*
X006826Y020927D01*
X006791Y020873D01*
X006759Y020817D01*
X006731Y020759D01*
X006706Y020699D01*
X006685Y020638D01*
X006667Y020576D01*
X006654Y020513D01*
X006644Y020449D01*
X006638Y020385D01*
X006636Y020320D01*
X006638Y020255D01*
X006644Y020191D01*
X006654Y020127D01*
X006667Y020064D01*
X006685Y020002D01*
X006706Y019941D01*
X006731Y019881D01*
X006759Y019823D01*
X006791Y019767D01*
X006826Y019713D01*
X006864Y019661D01*
X006906Y019612D01*
X006950Y019565D01*
X006998Y019521D01*
X007047Y019480D01*
X007099Y019442D01*
X007154Y019407D01*
X007210Y019375D01*
X007268Y019347D01*
X007328Y019323D01*
X007389Y019302D01*
X007452Y019285D01*
X007515Y019272D01*
X007579Y019263D01*
X007643Y019258D01*
X007708Y019256D01*
X007772Y019258D01*
X007836Y019265D01*
X007900Y019275D01*
X007963Y019289D01*
X008025Y019307D01*
X008086Y019329D01*
X008146Y019354D01*
X008203Y019383D01*
X008259Y019415D01*
X008313Y019450D01*
X008365Y019489D01*
X008414Y019531D01*
X008460Y019576D01*
X008504Y019623D01*
X008545Y019673D01*
X008583Y019726D01*
X008617Y019780D01*
X008648Y019837D01*
X008636Y019843D01*
X008605Y019787D01*
X008570Y019732D01*
X008532Y019680D01*
X008492Y019630D01*
X008448Y019583D01*
X008401Y019538D01*
X008352Y019497D01*
X008300Y019458D01*
X008246Y019423D01*
X008190Y019391D01*
X008132Y019363D01*
X008073Y019338D01*
X008012Y019317D01*
X007950Y019300D01*
X007887Y019287D01*
X007823Y019277D01*
X007759Y019272D01*
X007694Y019270D01*
X007630Y019272D01*
X007566Y019279D01*
X007502Y019289D01*
X007439Y019303D01*
X007377Y019321D01*
X007317Y019342D01*
X007257Y019368D01*
X007200Y019397D01*
X007144Y019429D01*
X007091Y019465D01*
X007039Y019504D01*
X006990Y019546D01*
X006944Y019591D01*
X006901Y019639D01*
X006861Y019689D01*
X006824Y019742D01*
X006790Y019797D01*
X006759Y019853D01*
X006732Y019912D01*
X006709Y019972D01*
X006690Y020034D01*
X006674Y020096D01*
X006662Y020159D01*
X006654Y020223D01*
X006650Y020288D01*
X006650Y020352D01*
X006654Y020417D01*
X006662Y020481D01*
X006674Y020544D01*
X006690Y020606D01*
X006709Y020668D01*
X006732Y020728D01*
X006759Y020787D01*
X006790Y020843D01*
X006824Y020898D01*
X006861Y020951D01*
X006901Y021001D01*
X006944Y021049D01*
X006990Y021094D01*
X007039Y021136D01*
X007091Y021175D01*
X007144Y021211D01*
X007200Y021243D01*
X007257Y021272D01*
X007317Y021298D01*
X007377Y021319D01*
X007439Y021337D01*
X007502Y021351D01*
X007566Y021361D01*
X007630Y021368D01*
X007694Y021370D01*
X007759Y021368D01*
X007823Y021363D01*
X007887Y021353D01*
X007950Y021340D01*
X008012Y021323D01*
X008073Y021302D01*
X008132Y021277D01*
X008190Y021249D01*
X008246Y021217D01*
X008300Y021182D01*
X008352Y021143D01*
X008401Y021102D01*
X008448Y021057D01*
X008492Y021010D01*
X008532Y020960D01*
X008570Y020908D01*
X008605Y020853D01*
X008636Y020797D01*
D19*
X008700Y020820D02*
X008700Y019820D01*
X015085Y013920D02*
X015087Y013955D01*
X015093Y013990D01*
X015103Y014024D01*
X015116Y014057D01*
X015133Y014088D01*
X015154Y014116D01*
X015177Y014143D01*
X015204Y014166D01*
X015232Y014187D01*
X015263Y014204D01*
X015296Y014217D01*
X015330Y014227D01*
X015365Y014233D01*
X015400Y014235D01*
X015435Y014233D01*
X015470Y014227D01*
X015504Y014217D01*
X015537Y014204D01*
X015568Y014187D01*
X015596Y014166D01*
X015623Y014143D01*
X015646Y014116D01*
X015667Y014088D01*
X015684Y014057D01*
X015697Y014024D01*
X015707Y013990D01*
X015713Y013955D01*
X015715Y013920D01*
X015713Y013885D01*
X015707Y013850D01*
X015697Y013816D01*
X015684Y013783D01*
X015667Y013752D01*
X015646Y013724D01*
X015623Y013697D01*
X015596Y013674D01*
X015568Y013653D01*
X015537Y013636D01*
X015504Y013623D01*
X015470Y013613D01*
X015435Y013607D01*
X015400Y013605D01*
X015365Y013607D01*
X015330Y013613D01*
X015296Y013623D01*
X015263Y013636D01*
X015232Y013653D01*
X015204Y013674D01*
X015177Y013697D01*
X015154Y013724D01*
X015133Y013752D01*
X015116Y013783D01*
X015103Y013816D01*
X015093Y013850D01*
X015087Y013885D01*
X015085Y013920D01*
X012998Y013920D02*
X013000Y014018D01*
X013006Y014116D01*
X013016Y014213D01*
X013030Y014310D01*
X013048Y014407D01*
X013070Y014502D01*
X013095Y014597D01*
X013125Y014690D01*
X013158Y014782D01*
X013195Y014873D01*
X013236Y014962D01*
X013280Y015050D01*
X013328Y015135D01*
X013379Y015219D01*
X013434Y015300D01*
X013492Y015379D01*
X013553Y015456D01*
X013617Y015530D01*
X013684Y015601D01*
X013754Y015670D01*
X013827Y015735D01*
X013902Y015798D01*
X013980Y015857D01*
X014060Y015914D01*
X014143Y015967D01*
X014227Y016016D01*
X014314Y016062D01*
X014402Y016105D01*
X014492Y016144D01*
X014584Y016179D01*
X014676Y016210D01*
X014770Y016238D01*
X014866Y016262D01*
X014961Y016282D01*
X015058Y016298D01*
X015155Y016310D01*
X015253Y016318D01*
X015351Y016322D01*
X015449Y016322D01*
X015547Y016318D01*
X015645Y016310D01*
X015742Y016298D01*
X015839Y016282D01*
X015934Y016262D01*
X016030Y016238D01*
X016124Y016210D01*
X016216Y016179D01*
X016308Y016144D01*
X016398Y016105D01*
X016486Y016062D01*
X016573Y016016D01*
X016657Y015967D01*
X016740Y015914D01*
X016820Y015857D01*
X016898Y015798D01*
X016973Y015735D01*
X017046Y015670D01*
X017116Y015601D01*
X017183Y015530D01*
X017247Y015456D01*
X017308Y015379D01*
X017366Y015300D01*
X017421Y015219D01*
X017472Y015135D01*
X017520Y015050D01*
X017564Y014962D01*
X017605Y014873D01*
X017642Y014782D01*
X017675Y014690D01*
X017705Y014597D01*
X017730Y014502D01*
X017752Y014407D01*
X017770Y014310D01*
X017784Y014213D01*
X017794Y014116D01*
X017800Y014018D01*
X017802Y013920D01*
X017800Y013822D01*
X017794Y013724D01*
X017784Y013627D01*
X017770Y013530D01*
X017752Y013433D01*
X017730Y013338D01*
X017705Y013243D01*
X017675Y013150D01*
X017642Y013058D01*
X017605Y012967D01*
X017564Y012878D01*
X017520Y012790D01*
X017472Y012705D01*
X017421Y012621D01*
X017366Y012540D01*
X017308Y012461D01*
X017247Y012384D01*
X017183Y012310D01*
X017116Y012239D01*
X017046Y012170D01*
X016973Y012105D01*
X016898Y012042D01*
X016820Y011983D01*
X016740Y011926D01*
X016657Y011873D01*
X016573Y011824D01*
X016486Y011778D01*
X016398Y011735D01*
X016308Y011696D01*
X016216Y011661D01*
X016124Y011630D01*
X016030Y011602D01*
X015934Y011578D01*
X015839Y011558D01*
X015742Y011542D01*
X015645Y011530D01*
X015547Y011522D01*
X015449Y011518D01*
X015351Y011518D01*
X015253Y011522D01*
X015155Y011530D01*
X015058Y011542D01*
X014961Y011558D01*
X014866Y011578D01*
X014770Y011602D01*
X014676Y011630D01*
X014584Y011661D01*
X014492Y011696D01*
X014402Y011735D01*
X014314Y011778D01*
X014227Y011824D01*
X014143Y011873D01*
X014060Y011926D01*
X013980Y011983D01*
X013902Y012042D01*
X013827Y012105D01*
X013754Y012170D01*
X013684Y012239D01*
X013617Y012310D01*
X013553Y012384D01*
X013492Y012461D01*
X013434Y012540D01*
X013379Y012621D01*
X013328Y012705D01*
X013280Y012790D01*
X013236Y012878D01*
X013195Y012967D01*
X013158Y013058D01*
X013125Y013150D01*
X013095Y013243D01*
X013070Y013338D01*
X013048Y013433D01*
X013030Y013530D01*
X013016Y013627D01*
X013006Y013724D01*
X013000Y013822D01*
X012998Y013920D01*
X011390Y005876D02*
X007610Y005876D01*
X007610Y001349D01*
X011390Y001349D01*
X011390Y005876D01*
X008516Y003514D02*
X008518Y003576D01*
X008524Y003639D01*
X008534Y003700D01*
X008548Y003761D01*
X008565Y003821D01*
X008586Y003880D01*
X008612Y003937D01*
X008640Y003992D01*
X008672Y004046D01*
X008708Y004097D01*
X008746Y004147D01*
X008788Y004193D01*
X008832Y004237D01*
X008880Y004278D01*
X008929Y004316D01*
X008981Y004350D01*
X009035Y004381D01*
X009091Y004409D01*
X009149Y004433D01*
X009208Y004454D01*
X009268Y004470D01*
X009329Y004483D01*
X009391Y004492D01*
X009453Y004497D01*
X009516Y004498D01*
X009578Y004495D01*
X009640Y004488D01*
X009702Y004477D01*
X009762Y004462D01*
X009822Y004444D01*
X009880Y004422D01*
X009937Y004396D01*
X009992Y004366D01*
X010045Y004333D01*
X010096Y004297D01*
X010144Y004258D01*
X010190Y004215D01*
X010233Y004170D01*
X010273Y004122D01*
X010310Y004072D01*
X010344Y004019D01*
X010375Y003965D01*
X010401Y003909D01*
X010425Y003851D01*
X010444Y003791D01*
X010460Y003731D01*
X010472Y003669D01*
X010480Y003608D01*
X010484Y003545D01*
X010484Y003483D01*
X010480Y003420D01*
X010472Y003359D01*
X010460Y003297D01*
X010444Y003237D01*
X010425Y003177D01*
X010401Y003119D01*
X010375Y003063D01*
X010344Y003009D01*
X010310Y002956D01*
X010273Y002906D01*
X010233Y002858D01*
X010190Y002813D01*
X010144Y002770D01*
X010096Y002731D01*
X010045Y002695D01*
X009992Y002662D01*
X009937Y002632D01*
X009880Y002606D01*
X009822Y002584D01*
X009762Y002566D01*
X009702Y002551D01*
X009640Y002540D01*
X009578Y002533D01*
X009516Y002530D01*
X009453Y002531D01*
X009391Y002536D01*
X009329Y002545D01*
X009268Y002558D01*
X009208Y002574D01*
X009149Y002595D01*
X009091Y002619D01*
X009035Y002647D01*
X008981Y002678D01*
X008929Y002712D01*
X008880Y002750D01*
X008832Y002791D01*
X008788Y002835D01*
X008746Y002881D01*
X008708Y002931D01*
X008672Y002982D01*
X008640Y003036D01*
X008612Y003091D01*
X008586Y003148D01*
X008565Y003207D01*
X008548Y003267D01*
X008534Y003328D01*
X008524Y003389D01*
X008518Y003452D01*
X008516Y003514D01*
D20*
X008467Y020834D02*
X008429Y020809D01*
X008430Y020810D02*
X008396Y020857D01*
X008359Y020902D01*
X008319Y020944D01*
X008276Y020984D01*
X008231Y021020D01*
X008183Y021054D01*
X008134Y021084D01*
X008082Y021112D01*
X008029Y021135D01*
X007974Y021155D01*
X007918Y021171D01*
X007862Y021184D01*
X007804Y021193D01*
X007746Y021198D01*
X007688Y021199D01*
X007630Y021196D01*
X007572Y021190D01*
X007515Y021179D01*
X007458Y021165D01*
X007403Y021147D01*
X007349Y021126D01*
X007296Y021101D01*
X007245Y021072D01*
X007196Y021040D01*
X007150Y021005D01*
X007106Y020968D01*
X007064Y020927D01*
X007025Y020883D01*
X006989Y020837D01*
X006957Y020789D01*
X006927Y020739D01*
X006901Y020687D01*
X006879Y020633D01*
X006860Y020578D01*
X006845Y020522D01*
X006833Y020465D01*
X006825Y020407D01*
X006821Y020349D01*
X006821Y020291D01*
X006825Y020233D01*
X006833Y020175D01*
X006845Y020118D01*
X006860Y020062D01*
X006879Y020007D01*
X006901Y019953D01*
X006927Y019901D01*
X006957Y019851D01*
X006989Y019803D01*
X007025Y019757D01*
X007064Y019713D01*
X007106Y019672D01*
X007150Y019635D01*
X007196Y019600D01*
X007245Y019568D01*
X007296Y019539D01*
X007349Y019514D01*
X007403Y019493D01*
X007458Y019475D01*
X007515Y019461D01*
X007572Y019450D01*
X007630Y019444D01*
X007688Y019441D01*
X007746Y019442D01*
X007804Y019447D01*
X007862Y019456D01*
X007918Y019469D01*
X007974Y019485D01*
X008029Y019505D01*
X008082Y019528D01*
X008134Y019556D01*
X008183Y019586D01*
X008231Y019620D01*
X008276Y019656D01*
X008319Y019696D01*
X008359Y019738D01*
X008396Y019783D01*
X008430Y019830D01*
X008467Y019806D01*
X008467Y019805D01*
X008432Y019756D01*
X008394Y019710D01*
X008352Y019666D01*
X008308Y019624D01*
X008261Y019586D01*
X008212Y019551D01*
X008161Y019519D01*
X008108Y019491D01*
X008053Y019466D01*
X007996Y019445D01*
X007938Y019427D01*
X007879Y019414D01*
X007820Y019404D01*
X007759Y019398D01*
X007699Y019396D01*
X007639Y019398D01*
X007579Y019404D01*
X007519Y019414D01*
X007460Y019428D01*
X007402Y019445D01*
X007346Y019467D01*
X007291Y019492D01*
X007237Y019520D01*
X007186Y019552D01*
X007137Y019587D01*
X007090Y019626D01*
X007046Y019667D01*
X007005Y019711D01*
X006967Y019758D01*
X006932Y019807D01*
X006900Y019858D01*
X006871Y019912D01*
X006846Y019967D01*
X006825Y020023D01*
X006807Y020081D01*
X006794Y020140D01*
X006784Y020199D01*
X006778Y020260D01*
X006776Y020320D01*
X006778Y020380D01*
X006784Y020441D01*
X006794Y020500D01*
X006807Y020559D01*
X006825Y020617D01*
X006846Y020673D01*
X006871Y020728D01*
X006900Y020782D01*
X006932Y020833D01*
X006967Y020882D01*
X007005Y020929D01*
X007046Y020973D01*
X007090Y021014D01*
X007137Y021053D01*
X007186Y021088D01*
X007237Y021120D01*
X007291Y021148D01*
X007346Y021173D01*
X007402Y021195D01*
X007460Y021212D01*
X007519Y021226D01*
X007579Y021236D01*
X007639Y021242D01*
X007699Y021244D01*
X007759Y021242D01*
X007820Y021236D01*
X007879Y021226D01*
X007938Y021213D01*
X007996Y021195D01*
X008053Y021174D01*
X008108Y021149D01*
X008161Y021121D01*
X008212Y021089D01*
X008261Y021054D01*
X008308Y021016D01*
X008352Y020974D01*
X008394Y020930D01*
X008432Y020884D01*
X008467Y020835D01*
X008464Y020832D01*
X008429Y020881D01*
X008391Y020928D01*
X008350Y020972D01*
X008306Y021013D01*
X008259Y021051D01*
X008210Y021086D01*
X008159Y021117D01*
X008106Y021146D01*
X008051Y021170D01*
X007995Y021192D01*
X007937Y021209D01*
X007878Y021223D01*
X007819Y021232D01*
X007759Y021238D01*
X007699Y021240D01*
X007639Y021238D01*
X007579Y021232D01*
X007520Y021222D01*
X007461Y021208D01*
X007404Y021191D01*
X007347Y021170D01*
X007292Y021145D01*
X007239Y021116D01*
X007188Y021085D01*
X007140Y021050D01*
X007093Y021011D01*
X007049Y020970D01*
X007008Y020926D01*
X006970Y020880D01*
X006935Y020831D01*
X006903Y020780D01*
X006875Y020727D01*
X006850Y020672D01*
X006829Y020616D01*
X006811Y020558D01*
X006798Y020499D01*
X006788Y020440D01*
X006782Y020380D01*
X006780Y020320D01*
X006782Y020260D01*
X006788Y020200D01*
X006798Y020141D01*
X006811Y020082D01*
X006829Y020024D01*
X006850Y019968D01*
X006875Y019913D01*
X006903Y019860D01*
X006935Y019809D01*
X006970Y019760D01*
X007008Y019714D01*
X007049Y019670D01*
X007093Y019629D01*
X007140Y019590D01*
X007188Y019555D01*
X007239Y019524D01*
X007292Y019495D01*
X007347Y019470D01*
X007404Y019449D01*
X007461Y019432D01*
X007520Y019418D01*
X007579Y019408D01*
X007639Y019402D01*
X007699Y019400D01*
X007759Y019402D01*
X007819Y019408D01*
X007878Y019417D01*
X007937Y019431D01*
X007995Y019448D01*
X008051Y019470D01*
X008106Y019494D01*
X008159Y019523D01*
X008210Y019554D01*
X008259Y019589D01*
X008306Y019627D01*
X008350Y019668D01*
X008391Y019712D01*
X008429Y019759D01*
X008464Y019808D01*
X008461Y019810D01*
X008426Y019761D01*
X008388Y019715D01*
X008347Y019671D01*
X008303Y019630D01*
X008257Y019592D01*
X008208Y019558D01*
X008157Y019526D01*
X008104Y019498D01*
X008049Y019473D01*
X007993Y019452D01*
X007936Y019435D01*
X007878Y019421D01*
X007819Y019412D01*
X007759Y019406D01*
X007699Y019404D01*
X007639Y019406D01*
X007580Y019412D01*
X007520Y019422D01*
X007462Y019435D01*
X007405Y019453D01*
X007349Y019474D01*
X007294Y019499D01*
X007241Y019527D01*
X007191Y019559D01*
X007142Y019594D01*
X007096Y019632D01*
X007052Y019673D01*
X007011Y019716D01*
X006973Y019763D01*
X006938Y019811D01*
X006907Y019862D01*
X006878Y019915D01*
X006854Y019970D01*
X006833Y020026D01*
X006815Y020083D01*
X006802Y020141D01*
X006792Y020201D01*
X006786Y020260D01*
X006784Y020320D01*
X006786Y020380D01*
X006792Y020439D01*
X006802Y020499D01*
X006815Y020557D01*
X006833Y020614D01*
X006854Y020670D01*
X006878Y020725D01*
X006907Y020778D01*
X006938Y020829D01*
X006973Y020877D01*
X007011Y020924D01*
X007052Y020967D01*
X007096Y021008D01*
X007142Y021046D01*
X007191Y021081D01*
X007241Y021113D01*
X007294Y021141D01*
X007349Y021166D01*
X007405Y021187D01*
X007462Y021205D01*
X007520Y021218D01*
X007580Y021228D01*
X007639Y021234D01*
X007699Y021236D01*
X007759Y021234D01*
X007819Y021228D01*
X007878Y021219D01*
X007936Y021205D01*
X007993Y021188D01*
X008049Y021167D01*
X008104Y021142D01*
X008157Y021114D01*
X008208Y021082D01*
X008257Y021048D01*
X008303Y021010D01*
X008347Y020969D01*
X008388Y020925D01*
X008426Y020879D01*
X008461Y020830D01*
X008457Y020828D01*
X008423Y020876D01*
X008385Y020922D01*
X008344Y020966D01*
X008300Y021007D01*
X008254Y021044D01*
X008206Y021079D01*
X008155Y021110D01*
X008102Y021138D01*
X008048Y021163D01*
X007992Y021184D01*
X007935Y021201D01*
X007877Y021215D01*
X007818Y021224D01*
X007759Y021230D01*
X007699Y021232D01*
X007639Y021230D01*
X007580Y021224D01*
X007521Y021214D01*
X007463Y021201D01*
X007406Y021183D01*
X007350Y021162D01*
X007296Y021138D01*
X007243Y021109D01*
X007193Y021078D01*
X007144Y021043D01*
X007098Y021005D01*
X007055Y020965D01*
X007014Y020921D01*
X006976Y020875D01*
X006942Y020826D01*
X006910Y020776D01*
X006882Y020723D01*
X006857Y020669D01*
X006836Y020613D01*
X006819Y020556D01*
X006806Y020498D01*
X006796Y020439D01*
X006790Y020380D01*
X006788Y020320D01*
X006790Y020260D01*
X006796Y020201D01*
X006806Y020142D01*
X006819Y020084D01*
X006836Y020027D01*
X006857Y019971D01*
X006882Y019917D01*
X006910Y019864D01*
X006942Y019814D01*
X006976Y019765D01*
X007014Y019719D01*
X007055Y019675D01*
X007098Y019635D01*
X007144Y019597D01*
X007193Y019562D01*
X007243Y019531D01*
X007296Y019502D01*
X007350Y019478D01*
X007406Y019457D01*
X007463Y019439D01*
X007521Y019426D01*
X007580Y019416D01*
X007639Y019410D01*
X007699Y019408D01*
X007759Y019410D01*
X007818Y019416D01*
X007877Y019425D01*
X007935Y019439D01*
X007992Y019456D01*
X008048Y019477D01*
X008102Y019502D01*
X008155Y019530D01*
X008206Y019561D01*
X008254Y019596D01*
X008300Y019633D01*
X008344Y019674D01*
X008385Y019718D01*
X008423Y019764D01*
X008457Y019812D01*
X008454Y019814D01*
X008419Y019766D01*
X008382Y019720D01*
X008341Y019677D01*
X008298Y019636D01*
X008252Y019599D01*
X008203Y019564D01*
X008153Y019533D01*
X008100Y019505D01*
X008046Y019481D01*
X007991Y019460D01*
X007934Y019443D01*
X007876Y019429D01*
X007817Y019420D01*
X007758Y019414D01*
X007699Y019412D01*
X007640Y019414D01*
X007581Y019420D01*
X007522Y019430D01*
X007464Y019443D01*
X007407Y019460D01*
X007352Y019481D01*
X007298Y019506D01*
X007245Y019534D01*
X007195Y019565D01*
X007147Y019600D01*
X007101Y019638D01*
X007058Y019678D01*
X007017Y019722D01*
X006979Y019768D01*
X006945Y019816D01*
X006913Y019866D01*
X006886Y019919D01*
X006861Y019973D01*
X006840Y020028D01*
X006823Y020085D01*
X006809Y020143D01*
X006800Y020202D01*
X006794Y020261D01*
X006792Y020320D01*
X006794Y020379D01*
X006800Y020438D01*
X006809Y020497D01*
X006823Y020555D01*
X006840Y020612D01*
X006861Y020667D01*
X006886Y020721D01*
X006913Y020774D01*
X006945Y020824D01*
X006979Y020872D01*
X007017Y020918D01*
X007058Y020962D01*
X007101Y021002D01*
X007147Y021040D01*
X007195Y021075D01*
X007245Y021106D01*
X007298Y021134D01*
X007352Y021159D01*
X007407Y021180D01*
X007464Y021197D01*
X007522Y021210D01*
X007581Y021220D01*
X007640Y021226D01*
X007699Y021228D01*
X007758Y021226D01*
X007817Y021220D01*
X007876Y021211D01*
X007934Y021197D01*
X007991Y021180D01*
X008046Y021159D01*
X008100Y021135D01*
X008153Y021107D01*
X008203Y021076D01*
X008252Y021041D01*
X008298Y021004D01*
X008341Y020963D01*
X008382Y020920D01*
X008419Y020874D01*
X008454Y020826D01*
X008451Y020824D01*
X008416Y020872D01*
X008379Y020917D01*
X008338Y020960D01*
X008295Y021001D01*
X008249Y021038D01*
X008201Y021072D01*
X008151Y021104D01*
X008099Y021131D01*
X008045Y021156D01*
X007989Y021176D01*
X007933Y021193D01*
X007875Y021207D01*
X007817Y021216D01*
X007758Y021222D01*
X007699Y021224D01*
X007640Y021222D01*
X007581Y021216D01*
X007523Y021206D01*
X007465Y021193D01*
X007409Y021176D01*
X007353Y021155D01*
X007300Y021130D01*
X007247Y021103D01*
X007197Y021071D01*
X007149Y021037D01*
X007104Y020999D01*
X007060Y020959D01*
X007020Y020916D01*
X006983Y020870D01*
X006948Y020822D01*
X006917Y020772D01*
X006889Y020720D01*
X006865Y020666D01*
X006844Y020610D01*
X006827Y020554D01*
X006813Y020496D01*
X006804Y020438D01*
X006798Y020379D01*
X006796Y020320D01*
X006798Y020261D01*
X006804Y020202D01*
X006813Y020144D01*
X006827Y020086D01*
X006844Y020030D01*
X006865Y019974D01*
X006889Y019920D01*
X006917Y019868D01*
X006948Y019818D01*
X006983Y019770D01*
X007020Y019724D01*
X007060Y019681D01*
X007104Y019641D01*
X007149Y019603D01*
X007197Y019569D01*
X007247Y019537D01*
X007300Y019510D01*
X007353Y019485D01*
X007409Y019464D01*
X007465Y019447D01*
X007523Y019434D01*
X007581Y019424D01*
X007640Y019418D01*
X007699Y019416D01*
X007758Y019418D01*
X007817Y019424D01*
X007875Y019433D01*
X007933Y019447D01*
X007989Y019464D01*
X008045Y019484D01*
X008099Y019509D01*
X008151Y019536D01*
X008201Y019568D01*
X008249Y019602D01*
X008295Y019639D01*
X008338Y019680D01*
X008379Y019723D01*
X008416Y019768D01*
X008451Y019816D01*
X008447Y019819D01*
X008413Y019771D01*
X008376Y019725D01*
X008335Y019683D01*
X008292Y019642D01*
X008247Y019605D01*
X008199Y019571D01*
X008149Y019540D01*
X008097Y019512D01*
X008043Y019488D01*
X007988Y019467D01*
X007932Y019450D01*
X007875Y019437D01*
X007816Y019428D01*
X007758Y019422D01*
X007699Y019420D01*
X007640Y019422D01*
X007582Y019428D01*
X007524Y019437D01*
X007466Y019451D01*
X007410Y019468D01*
X007355Y019489D01*
X007301Y019513D01*
X007249Y019541D01*
X007199Y019572D01*
X007152Y019606D01*
X007106Y019644D01*
X007063Y019684D01*
X007023Y019727D01*
X006986Y019772D01*
X006951Y019820D01*
X006920Y019870D01*
X006893Y019922D01*
X006868Y019976D01*
X006848Y020031D01*
X006831Y020087D01*
X006817Y020145D01*
X006808Y020203D01*
X006802Y020261D01*
X006800Y020320D01*
X006802Y020379D01*
X006808Y020437D01*
X006817Y020495D01*
X006831Y020553D01*
X006848Y020609D01*
X006868Y020664D01*
X006893Y020718D01*
X006920Y020770D01*
X006951Y020820D01*
X006986Y020868D01*
X007023Y020913D01*
X007063Y020956D01*
X007106Y020996D01*
X007152Y021034D01*
X007199Y021068D01*
X007249Y021099D01*
X007301Y021127D01*
X007355Y021151D01*
X007410Y021172D01*
X007466Y021189D01*
X007524Y021203D01*
X007582Y021212D01*
X007640Y021218D01*
X007699Y021220D01*
X007758Y021218D01*
X007816Y021212D01*
X007875Y021203D01*
X007932Y021190D01*
X007988Y021173D01*
X008043Y021152D01*
X008097Y021128D01*
X008149Y021100D01*
X008199Y021069D01*
X008247Y021035D01*
X008292Y020998D01*
X008335Y020957D01*
X008376Y020915D01*
X008413Y020869D01*
X008447Y020821D01*
X008444Y020819D01*
X008410Y020867D01*
X008373Y020912D01*
X008333Y020955D01*
X008290Y020995D01*
X008244Y021032D01*
X008197Y021066D01*
X008147Y021097D01*
X008095Y021124D01*
X008042Y021148D01*
X007987Y021169D01*
X007931Y021186D01*
X007874Y021199D01*
X007816Y021208D01*
X007758Y021214D01*
X007699Y021216D01*
X007640Y021214D01*
X007582Y021208D01*
X007524Y021199D01*
X007467Y021185D01*
X007411Y021168D01*
X007356Y021148D01*
X007303Y021123D01*
X007251Y021096D01*
X007202Y021065D01*
X007154Y021031D01*
X007109Y020993D01*
X007066Y020953D01*
X007026Y020910D01*
X006989Y020865D01*
X006955Y020817D01*
X006924Y020768D01*
X006896Y020716D01*
X006872Y020663D01*
X006851Y020608D01*
X006834Y020552D01*
X006821Y020495D01*
X006812Y020437D01*
X006806Y020379D01*
X006804Y020320D01*
X006806Y020261D01*
X006812Y020203D01*
X006821Y020145D01*
X006834Y020088D01*
X006851Y020032D01*
X006872Y019977D01*
X006896Y019924D01*
X006924Y019872D01*
X006955Y019823D01*
X006989Y019775D01*
X007026Y019730D01*
X007066Y019687D01*
X007109Y019647D01*
X007154Y019609D01*
X007202Y019575D01*
X007251Y019544D01*
X007303Y019517D01*
X007356Y019492D01*
X007411Y019472D01*
X007467Y019455D01*
X007524Y019441D01*
X007582Y019432D01*
X007640Y019426D01*
X007699Y019424D01*
X007758Y019426D01*
X007816Y019432D01*
X007874Y019441D01*
X007931Y019454D01*
X007987Y019471D01*
X008042Y019492D01*
X008095Y019516D01*
X008147Y019543D01*
X008197Y019574D01*
X008244Y019608D01*
X008290Y019645D01*
X008333Y019685D01*
X008373Y019728D01*
X008410Y019773D01*
X008444Y019821D01*
X008441Y019823D01*
X008406Y019775D01*
X008369Y019730D01*
X008328Y019687D01*
X008285Y019646D01*
X008239Y019609D01*
X008191Y019575D01*
X008140Y019544D01*
X008088Y019517D01*
X008034Y019493D01*
X007978Y019473D01*
X007922Y019456D01*
X007864Y019443D01*
X007806Y019434D01*
X007747Y019429D01*
X007688Y019428D01*
X007629Y019431D01*
X007570Y019438D01*
X007512Y019448D01*
X007454Y019462D01*
X007398Y019481D01*
X007343Y019502D01*
X007290Y019528D01*
X007238Y019557D01*
X007189Y019589D01*
X007142Y019624D01*
X007097Y019663D01*
X007055Y019704D01*
X007015Y019748D01*
X006979Y019795D01*
X006946Y019844D01*
X006916Y019895D01*
X006889Y019948D01*
X006867Y020002D01*
X006847Y020058D01*
X006832Y020115D01*
X006820Y020173D01*
X006812Y020231D01*
X006808Y020290D01*
X006808Y020350D01*
X006812Y020409D01*
X006820Y020467D01*
X006832Y020525D01*
X006847Y020582D01*
X006867Y020638D01*
X006889Y020692D01*
X006916Y020745D01*
X006946Y020796D01*
X006979Y020845D01*
X007015Y020892D01*
X007055Y020936D01*
X007097Y020977D01*
X007142Y021016D01*
X007189Y021051D01*
X007238Y021083D01*
X007290Y021112D01*
X007343Y021138D01*
X007398Y021159D01*
X007454Y021178D01*
X007512Y021192D01*
X007570Y021202D01*
X007629Y021209D01*
X007688Y021212D01*
X007747Y021211D01*
X007806Y021206D01*
X007864Y021197D01*
X007922Y021184D01*
X007978Y021167D01*
X008034Y021147D01*
X008088Y021123D01*
X008140Y021096D01*
X008191Y021065D01*
X008239Y021031D01*
X008285Y020994D01*
X008328Y020953D01*
X008369Y020910D01*
X008406Y020865D01*
X008441Y020817D01*
X008437Y020815D01*
X008403Y020862D01*
X008366Y020908D01*
X008325Y020951D01*
X008282Y020991D01*
X008236Y021028D01*
X008188Y021062D01*
X008138Y021092D01*
X008086Y021120D01*
X008032Y021143D01*
X007977Y021164D01*
X007921Y021180D01*
X007863Y021193D01*
X007805Y021202D01*
X007747Y021207D01*
X007688Y021208D01*
X007629Y021205D01*
X007571Y021199D01*
X007513Y021188D01*
X007456Y021174D01*
X007400Y021156D01*
X007345Y021134D01*
X007292Y021109D01*
X007241Y021080D01*
X007191Y021048D01*
X007144Y021013D01*
X007100Y020974D01*
X007058Y020933D01*
X007018Y020889D01*
X006982Y020843D01*
X006949Y020794D01*
X006919Y020743D01*
X006893Y020691D01*
X006870Y020636D01*
X006851Y020581D01*
X006836Y020524D01*
X006824Y020466D01*
X006816Y020408D01*
X006812Y020349D01*
X006812Y020291D01*
X006816Y020232D01*
X006824Y020174D01*
X006836Y020116D01*
X006851Y020059D01*
X006870Y020004D01*
X006893Y019949D01*
X006919Y019897D01*
X006949Y019846D01*
X006982Y019797D01*
X007018Y019751D01*
X007058Y019707D01*
X007100Y019666D01*
X007144Y019627D01*
X007191Y019592D01*
X007241Y019560D01*
X007292Y019531D01*
X007345Y019506D01*
X007400Y019484D01*
X007456Y019466D01*
X007513Y019452D01*
X007571Y019441D01*
X007629Y019435D01*
X007688Y019432D01*
X007747Y019433D01*
X007805Y019438D01*
X007863Y019447D01*
X007921Y019460D01*
X007977Y019476D01*
X008032Y019497D01*
X008086Y019520D01*
X008138Y019548D01*
X008188Y019578D01*
X008236Y019612D01*
X008282Y019649D01*
X008325Y019689D01*
X008366Y019732D01*
X008403Y019778D01*
X008437Y019825D01*
X008434Y019828D01*
X008400Y019780D01*
X008363Y019735D01*
X008322Y019692D01*
X008280Y019652D01*
X008234Y019616D01*
X008186Y019582D01*
X008136Y019551D01*
X008084Y019524D01*
X008031Y019500D01*
X007976Y019480D01*
X007920Y019464D01*
X007863Y019451D01*
X007805Y019442D01*
X007746Y019437D01*
X007688Y019436D01*
X007629Y019439D01*
X007571Y019445D01*
X007513Y019456D01*
X007457Y019470D01*
X007401Y019488D01*
X007347Y019510D01*
X007294Y019535D01*
X007243Y019564D01*
X007193Y019595D01*
X007147Y019631D01*
X007102Y019669D01*
X007060Y019710D01*
X007021Y019753D01*
X006985Y019800D01*
X006953Y019848D01*
X006923Y019899D01*
X006897Y019951D01*
X006874Y020005D01*
X006855Y020060D01*
X006840Y020117D01*
X006828Y020174D01*
X006820Y020232D01*
X006816Y020291D01*
X006816Y020349D01*
X006820Y020408D01*
X006828Y020466D01*
X006840Y020523D01*
X006855Y020580D01*
X006874Y020635D01*
X006897Y020689D01*
X006923Y020741D01*
X006953Y020792D01*
X006985Y020840D01*
X007021Y020887D01*
X007060Y020930D01*
X007102Y020971D01*
X007147Y021009D01*
X007193Y021045D01*
X007243Y021076D01*
X007294Y021105D01*
X007347Y021130D01*
X007401Y021152D01*
X007457Y021170D01*
X007513Y021184D01*
X007571Y021195D01*
X007629Y021201D01*
X007688Y021204D01*
X007746Y021203D01*
X007805Y021198D01*
X007863Y021189D01*
X007920Y021176D01*
X007976Y021160D01*
X008031Y021140D01*
X008084Y021116D01*
X008136Y021089D01*
X008186Y021058D01*
X008234Y021024D01*
X008280Y020988D01*
X008322Y020948D01*
X008363Y020905D01*
X008400Y020860D01*
X008434Y020812D01*
X008431Y020810D01*
X008397Y020858D01*
X008360Y020902D01*
X008320Y020945D01*
X008277Y020985D01*
X008232Y021021D01*
X008184Y021055D01*
X008134Y021085D01*
X008083Y021112D01*
X008029Y021136D01*
X007975Y021156D01*
X007919Y021172D01*
X007862Y021185D01*
X007804Y021194D01*
X007746Y021199D01*
X007688Y021200D01*
X007630Y021197D01*
X007572Y021191D01*
X007514Y021180D01*
X007458Y021166D01*
X007402Y021148D01*
X007348Y021127D01*
X007295Y021102D01*
X007245Y021073D01*
X007196Y021041D01*
X007149Y021006D01*
X007105Y020968D01*
X007063Y020927D01*
X007024Y020884D01*
X006989Y020838D01*
X006956Y020790D01*
X006926Y020739D01*
X006900Y020687D01*
X006878Y020634D01*
X006859Y020578D01*
X006844Y020522D01*
X006832Y020465D01*
X006824Y020407D01*
X006820Y020349D01*
X006820Y020291D01*
X006824Y020233D01*
X006832Y020175D01*
X006844Y020118D01*
X006859Y020062D01*
X006878Y020006D01*
X006900Y019953D01*
X006926Y019901D01*
X006956Y019850D01*
X006989Y019802D01*
X007024Y019756D01*
X007063Y019713D01*
X007105Y019672D01*
X007149Y019634D01*
X007196Y019599D01*
X007245Y019567D01*
X007295Y019538D01*
X007348Y019513D01*
X007402Y019492D01*
X007458Y019474D01*
X007514Y019460D01*
X007572Y019449D01*
X007630Y019443D01*
X007688Y019440D01*
X007746Y019441D01*
X007804Y019446D01*
X007862Y019455D01*
X007919Y019468D01*
X007975Y019484D01*
X008029Y019504D01*
X008083Y019528D01*
X008134Y019555D01*
X008184Y019585D01*
X008232Y019619D01*
X008277Y019655D01*
X008320Y019695D01*
X008360Y019738D01*
X008397Y019782D01*
X008431Y019830D01*
D21*
X005195Y010906D02*
X005194Y010889D01*
X005189Y010872D01*
X005182Y010857D01*
X005172Y010843D01*
X005160Y010831D01*
X005146Y010821D01*
X005131Y010814D01*
X005114Y010809D01*
X005097Y010808D01*
X005097Y010807D02*
X004703Y010807D01*
X004685Y010805D01*
X004668Y010800D01*
X004651Y010792D01*
X004637Y010781D01*
X004625Y010768D01*
X004615Y010753D01*
X004609Y010736D01*
X004605Y010718D01*
X004605Y010700D01*
X004609Y010682D01*
X004615Y010665D01*
X004625Y010650D01*
X004637Y010637D01*
X004651Y010626D01*
X004668Y010618D01*
X004685Y010613D01*
X004703Y010611D01*
X005294Y010611D01*
X005294Y010610D02*
X005312Y010608D01*
X005329Y010603D01*
X005346Y010595D01*
X005360Y010584D01*
X005372Y010571D01*
X005382Y010556D01*
X005388Y010539D01*
X005392Y010521D01*
X005392Y010503D01*
X005388Y010485D01*
X005382Y010468D01*
X005372Y010453D01*
X005360Y010440D01*
X005346Y010429D01*
X005329Y010421D01*
X005312Y010416D01*
X005294Y010414D01*
X004703Y010414D01*
X004703Y010413D02*
X004685Y010411D01*
X004668Y010406D01*
X004651Y010398D01*
X004637Y010387D01*
X004625Y010374D01*
X004615Y010359D01*
X004609Y010342D01*
X004605Y010324D01*
X004605Y010306D01*
X004609Y010288D01*
X004615Y010271D01*
X004625Y010256D01*
X004637Y010243D01*
X004651Y010232D01*
X004668Y010224D01*
X004685Y010219D01*
X004703Y010217D01*
X004998Y010217D01*
X004998Y010216D02*
X005016Y010214D01*
X005033Y010209D01*
X005050Y010201D01*
X005064Y010190D01*
X005076Y010177D01*
X005086Y010162D01*
X005092Y010145D01*
X005096Y010127D01*
X005096Y010109D01*
X005092Y010091D01*
X005086Y010074D01*
X005076Y010059D01*
X005064Y010046D01*
X005050Y010035D01*
X005033Y010027D01*
X005016Y010022D01*
X004998Y010020D01*
X004802Y010020D01*
X004784Y010018D01*
X004767Y010013D01*
X004750Y010005D01*
X004736Y009994D01*
X004724Y009981D01*
X004714Y009966D01*
X004708Y009949D01*
X004704Y009931D01*
X004704Y009913D01*
X004708Y009895D01*
X004714Y009878D01*
X004724Y009863D01*
X004736Y009850D01*
X004750Y009839D01*
X004767Y009831D01*
X004784Y009826D01*
X004802Y009824D01*
X004802Y009823D02*
X004998Y009823D01*
X005016Y009821D01*
X005033Y009816D01*
X005050Y009808D01*
X005064Y009797D01*
X005076Y009784D01*
X005086Y009769D01*
X005092Y009752D01*
X005096Y009734D01*
X005096Y009716D01*
X005092Y009698D01*
X005086Y009681D01*
X005076Y009666D01*
X005064Y009653D01*
X005050Y009642D01*
X005033Y009634D01*
X005016Y009629D01*
X004998Y009627D01*
X004998Y009626D02*
X004506Y009626D01*
X004488Y009624D01*
X004471Y009619D01*
X004454Y009611D01*
X004440Y009600D01*
X004428Y009587D01*
X004418Y009572D01*
X004412Y009555D01*
X004408Y009537D01*
X004408Y009519D01*
X004412Y009501D01*
X004418Y009484D01*
X004428Y009469D01*
X004440Y009456D01*
X004454Y009445D01*
X004471Y009437D01*
X004488Y009432D01*
X004506Y009430D01*
X004506Y009429D02*
X005195Y009429D01*
X005213Y009427D01*
X005230Y009422D01*
X005247Y009414D01*
X005261Y009403D01*
X005273Y009390D01*
X005283Y009375D01*
X005289Y009358D01*
X005293Y009340D01*
X005293Y009322D01*
X005289Y009304D01*
X005283Y009287D01*
X005273Y009272D01*
X005261Y009259D01*
X005247Y009248D01*
X005230Y009240D01*
X005213Y009235D01*
X005195Y009233D01*
X004703Y009233D01*
X004703Y009232D02*
X004686Y009231D01*
X004669Y009226D01*
X004654Y009219D01*
X004640Y009209D01*
X004628Y009197D01*
X004618Y009183D01*
X004611Y009168D01*
X004606Y009151D01*
X004605Y009134D01*
X004580Y002587D02*
X004580Y002280D01*
X004120Y002280D01*
X004120Y001819D02*
X004580Y001819D01*
X004580Y002126D01*
X004580Y001666D02*
X004273Y001666D01*
X004120Y001512D01*
X004273Y001359D01*
X004580Y001359D01*
X004580Y001205D02*
X004120Y001205D01*
X004350Y001205D02*
X004350Y000898D01*
X004580Y000898D02*
X004120Y000898D01*
X004350Y001359D02*
X004350Y001666D01*
D22*
X003975Y010020D02*
X003977Y010080D01*
X003983Y010141D01*
X003993Y010200D01*
X004007Y010259D01*
X004024Y010317D01*
X004045Y010374D01*
X004070Y010429D01*
X004099Y010482D01*
X004131Y010534D01*
X004166Y010583D01*
X004205Y010630D01*
X004246Y010674D01*
X004290Y010715D01*
X004337Y010754D01*
X004386Y010789D01*
X004437Y010821D01*
X004491Y010850D01*
X004546Y010875D01*
X004603Y010896D01*
X004661Y010913D01*
X004720Y010927D01*
X004779Y010937D01*
X004840Y010943D01*
X004900Y010945D01*
X004960Y010943D01*
X005021Y010937D01*
X005080Y010927D01*
X005139Y010913D01*
X005197Y010896D01*
X005254Y010875D01*
X005309Y010850D01*
X005362Y010821D01*
X005414Y010789D01*
X005463Y010754D01*
X005510Y010715D01*
X005554Y010674D01*
X005595Y010630D01*
X005634Y010583D01*
X005669Y010534D01*
X005701Y010483D01*
X005730Y010429D01*
X005755Y010374D01*
X005776Y010317D01*
X005793Y010259D01*
X005807Y010200D01*
X005817Y010141D01*
X005823Y010080D01*
X005825Y010020D01*
X005823Y009960D01*
X005817Y009899D01*
X005807Y009840D01*
X005793Y009781D01*
X005776Y009723D01*
X005755Y009666D01*
X005730Y009611D01*
X005701Y009558D01*
X005669Y009506D01*
X005634Y009457D01*
X005595Y009410D01*
X005554Y009366D01*
X005510Y009325D01*
X005463Y009286D01*
X005414Y009251D01*
X005363Y009219D01*
X005309Y009190D01*
X005254Y009165D01*
X005197Y009144D01*
X005139Y009127D01*
X005080Y009113D01*
X005021Y009103D01*
X004960Y009097D01*
X004900Y009095D01*
X004840Y009097D01*
X004779Y009103D01*
X004720Y009113D01*
X004661Y009127D01*
X004603Y009144D01*
X004546Y009165D01*
X004491Y009190D01*
X004438Y009219D01*
X004386Y009251D01*
X004337Y009286D01*
X004290Y009325D01*
X004246Y009366D01*
X004205Y009410D01*
X004166Y009457D01*
X004131Y009506D01*
X004099Y009557D01*
X004070Y009611D01*
X004045Y009666D01*
X004024Y009723D01*
X004007Y009781D01*
X003993Y009840D01*
X003983Y009899D01*
X003977Y009960D01*
X003975Y010020D01*
X003798Y010020D02*
X003800Y010086D01*
X003806Y010152D01*
X003816Y010217D01*
X003829Y010281D01*
X003847Y010345D01*
X003868Y010407D01*
X003893Y010468D01*
X003922Y010528D01*
X003954Y010585D01*
X003989Y010641D01*
X004028Y010694D01*
X004070Y010745D01*
X004115Y010793D01*
X004163Y010839D01*
X004213Y010882D01*
X004266Y010921D01*
X004321Y010957D01*
X004378Y010990D01*
X004437Y011020D01*
X004497Y011046D01*
X004559Y011068D01*
X004623Y011087D01*
X004687Y011101D01*
X004752Y011112D01*
X004818Y011119D01*
X004884Y011122D01*
X004949Y011121D01*
X005015Y011116D01*
X005081Y011107D01*
X005145Y011094D01*
X005209Y011078D01*
X005272Y011057D01*
X005333Y011033D01*
X005393Y011006D01*
X005451Y010974D01*
X005507Y010940D01*
X005561Y010902D01*
X005613Y010861D01*
X005662Y010817D01*
X005708Y010770D01*
X005751Y010720D01*
X005792Y010668D01*
X005829Y010613D01*
X005862Y010557D01*
X005893Y010498D01*
X005920Y010438D01*
X005943Y010376D01*
X005962Y010313D01*
X005978Y010249D01*
X005990Y010184D01*
X005998Y010119D01*
X006002Y010053D01*
X006002Y009987D01*
X005998Y009921D01*
X005990Y009856D01*
X005978Y009791D01*
X005962Y009727D01*
X005943Y009664D01*
X005920Y009602D01*
X005893Y009542D01*
X005862Y009483D01*
X005829Y009427D01*
X005792Y009372D01*
X005751Y009320D01*
X005708Y009270D01*
X005662Y009223D01*
X005613Y009179D01*
X005561Y009138D01*
X005507Y009100D01*
X005451Y009066D01*
X005393Y009034D01*
X005333Y009007D01*
X005272Y008983D01*
X005209Y008962D01*
X005145Y008946D01*
X005081Y008933D01*
X005015Y008924D01*
X004949Y008919D01*
X004884Y008918D01*
X004818Y008921D01*
X004752Y008928D01*
X004687Y008939D01*
X004623Y008953D01*
X004559Y008972D01*
X004497Y008994D01*
X004437Y009020D01*
X004378Y009050D01*
X004321Y009083D01*
X004266Y009119D01*
X004213Y009158D01*
X004163Y009201D01*
X004115Y009247D01*
X004070Y009295D01*
X004028Y009346D01*
X003989Y009399D01*
X003954Y009455D01*
X003922Y009512D01*
X003893Y009572D01*
X003868Y009633D01*
X003847Y009695D01*
X003829Y009759D01*
X003816Y009823D01*
X003806Y009888D01*
X003800Y009954D01*
X003798Y010020D01*
D23*
X019800Y011370D03*
D24*
X020425Y011370D03*
X018075Y011370D03*
M02*
