%
M48
M72
T01C0.0197
T02C0.0236
T03C0.0315
T04C0.0320
T05C0.0360
T06C0.0400
T07C0.0433
T08C0.0440
T09C0.0470
T10C0.0787
%
T01
X5300Y1170
X5300Y1920
X5300Y2670
T02
X13000Y5120
X7900Y15920
T03
X8200Y20320
X7450Y20320
X6700Y20320
X8950Y20320
X15400Y14904
X15400Y12936
X19250Y12670
X21250Y12670
X21250Y15670
X21250Y16670
X19250Y16670
X19250Y15670
X5400Y10020
X4400Y10020
X16900Y3820
X23100Y3820
X26000Y4720
T04
X11650Y9120
X11650Y10320
X11650Y11520
X11650Y12720
X7650Y12720
X7650Y11520
X7650Y10320
X7650Y9120
X4800Y7170
X4800Y5170
X9800Y16670
X9800Y17720
X9800Y18820
X13800Y18820
X13800Y17720
X13800Y16670
X16500Y17120
X17000Y17870
X17500Y17120
X19350Y18270
X23350Y18270
T05
X26000Y10320
X26000Y9320
X26000Y8320
T06
X25400Y1520
X24400Y1520
X23400Y1520
X22400Y1520
X21400Y1520
X20400Y1520
X18350Y1570
X17350Y1570
X16350Y1570
X15350Y1570
X14350Y1570
X13350Y1570
X8790Y14640
X7010Y14640
X7010Y17200
X8790Y17200
X9800Y20520
X10800Y20520
X11800Y20520
X12800Y20520
X13800Y20520
X14800Y20520
X15800Y20520
X16800Y20520
X18350Y20520
X19350Y20520
X20350Y20520
X21350Y20520
X22350Y20520
X23350Y20520
X24350Y20520
X25350Y20520
T07
X10484Y6270
X9500Y6270
X8516Y6270
T08
X17250Y11370
X21250Y11370
T09
X23792Y12251
X23792Y14220
X23792Y16189
T10
X11272Y3514
X7728Y3514
M30
