%TF.GenerationSoftware,KiCad,Pcbnew,5.1.9-73d0e3b20d~88~ubuntu20.04.1*%
%TF.CreationDate,2021-04-10T10:54:25+05:30*%
%TF.ProjectId,shield-V1p2,73686965-6c64-42d5-9631-70322e6b6963,rev?*%
%TF.SameCoordinates,Original*%
%TF.FileFunction,Legend,Top*%
%TF.FilePolarity,Positive*%
%FSLAX46Y46*%
G04 Gerber Fmt 4.6, Leading zero omitted, Abs format (unit mm)*
G04 Created by KiCad (PCBNEW 5.1.9-73d0e3b20d~88~ubuntu20.04.1) date 2021-04-10 10:54:25*
%MOMM*%
%LPD*%
G01*
G04 APERTURE LIST*
%ADD10C,0.304800*%
%ADD11C,0.081280*%
%ADD12C,0.127000*%
%ADD13C,0.182880*%
%ADD14C,0.142240*%
%ADD15C,0.152400*%
%ADD16C,0.050800*%
%ADD17C,0.100000*%
%ADD18C,0.406400*%
%ADD19C,0.101600*%
%ADD20C,0.203200*%
%ADD21C,0.120650*%
%ADD22C,0.096520*%
%ADD23C,0.118872*%
G04 APERTURE END LIST*
D10*
X171040000Y-106349800D02*
G75*
G03*
X171040000Y-106349800I-567900J0D01*
G01*
D11*
X143063891Y-132003538D02*
X142742158Y-131543919D01*
X142512348Y-132003538D02*
X142512348Y-131038338D01*
X142880044Y-131038338D01*
X142971968Y-131084300D01*
X143017929Y-131130261D01*
X143063891Y-131222185D01*
X143063891Y-131360071D01*
X143017929Y-131451995D01*
X142971968Y-131497957D01*
X142880044Y-131543919D01*
X142512348Y-131543919D01*
X143431587Y-131957576D02*
X143569472Y-132003538D01*
X143799282Y-132003538D01*
X143891206Y-131957576D01*
X143937168Y-131911614D01*
X143983129Y-131819690D01*
X143983129Y-131727766D01*
X143937168Y-131635842D01*
X143891206Y-131589880D01*
X143799282Y-131543919D01*
X143615434Y-131497957D01*
X143523510Y-131451995D01*
X143477548Y-131406033D01*
X143431587Y-131314109D01*
X143431587Y-131222185D01*
X143477548Y-131130261D01*
X143523510Y-131084300D01*
X143615434Y-131038338D01*
X143845244Y-131038338D01*
X143983129Y-131084300D01*
X144258901Y-131038338D02*
X144810444Y-131038338D01*
X144534672Y-132003538D02*
X144534672Y-131038338D01*
X145707225Y-130982538D02*
X146304729Y-130982538D01*
X145982996Y-131350233D01*
X146120882Y-131350233D01*
X146212806Y-131396195D01*
X146258768Y-131442157D01*
X146304729Y-131534080D01*
X146304729Y-131763890D01*
X146258768Y-131855814D01*
X146212806Y-131901776D01*
X146120882Y-131947738D01*
X145845110Y-131947738D01*
X145753187Y-131901776D01*
X145707225Y-131855814D01*
X146626463Y-131304271D02*
X146856272Y-131947738D01*
X147086082Y-131304271D01*
X148798768Y-130982538D02*
X148339148Y-130982538D01*
X148293187Y-131442157D01*
X148339148Y-131396195D01*
X148431072Y-131350233D01*
X148660882Y-131350233D01*
X148752806Y-131396195D01*
X148798768Y-131442157D01*
X148844729Y-131534080D01*
X148844729Y-131763890D01*
X148798768Y-131855814D01*
X148752806Y-131901776D01*
X148660882Y-131947738D01*
X148431072Y-131947738D01*
X148339148Y-131901776D01*
X148293187Y-131855814D01*
X149166463Y-131304271D02*
X149396272Y-131947738D01*
X149626082Y-131304271D01*
X152176806Y-130992900D02*
X152084882Y-130946938D01*
X151946996Y-130946938D01*
X151809110Y-130992900D01*
X151717187Y-131084823D01*
X151671225Y-131176747D01*
X151625263Y-131360595D01*
X151625263Y-131498480D01*
X151671225Y-131682328D01*
X151717187Y-131774252D01*
X151809110Y-131866176D01*
X151946996Y-131912138D01*
X152038920Y-131912138D01*
X152176806Y-131866176D01*
X152222768Y-131820214D01*
X152222768Y-131498480D01*
X152038920Y-131498480D01*
X152636425Y-131268671D02*
X152636425Y-131912138D01*
X152636425Y-131360595D02*
X152682387Y-131314633D01*
X152774310Y-131268671D01*
X152912196Y-131268671D01*
X153004120Y-131314633D01*
X153050082Y-131406557D01*
X153050082Y-131912138D01*
X153923358Y-131912138D02*
X153923358Y-130946938D01*
X153923358Y-131866176D02*
X153831434Y-131912138D01*
X153647587Y-131912138D01*
X153555663Y-131866176D01*
X153509701Y-131820214D01*
X153463739Y-131728290D01*
X153463739Y-131452519D01*
X153509701Y-131360595D01*
X153555663Y-131314633D01*
X153647587Y-131268671D01*
X153831434Y-131268671D01*
X153923358Y-131314633D01*
X155696682Y-130982538D02*
X156018415Y-131947738D01*
X156340148Y-130982538D01*
X156661882Y-131947738D02*
X156661882Y-131304271D01*
X156661882Y-130982538D02*
X156615920Y-131028500D01*
X156661882Y-131074461D01*
X156707844Y-131028500D01*
X156661882Y-130982538D01*
X156661882Y-131074461D01*
X157121501Y-131304271D02*
X157121501Y-131947738D01*
X157121501Y-131396195D02*
X157167463Y-131350233D01*
X157259387Y-131304271D01*
X157397272Y-131304271D01*
X157489196Y-131350233D01*
X157535158Y-131442157D01*
X157535158Y-131947738D01*
X161775587Y-131073938D02*
X161867510Y-131073938D01*
X161959434Y-131119900D01*
X162005396Y-131165861D01*
X162051358Y-131257785D01*
X162097320Y-131441633D01*
X162097320Y-131671442D01*
X162051358Y-131855290D01*
X162005396Y-131947214D01*
X161959434Y-131993176D01*
X161867510Y-132039138D01*
X161775587Y-132039138D01*
X161683663Y-131993176D01*
X161637701Y-131947214D01*
X161591739Y-131855290D01*
X161545777Y-131671442D01*
X161545777Y-131441633D01*
X161591739Y-131257785D01*
X161637701Y-131165861D01*
X161683663Y-131119900D01*
X161775587Y-131073938D01*
X164637320Y-132039138D02*
X164085777Y-132039138D01*
X164361548Y-132039138D02*
X164361548Y-131073938D01*
X164269625Y-131211823D01*
X164177701Y-131303747D01*
X164085777Y-131349709D01*
X166625777Y-131165861D02*
X166671739Y-131119900D01*
X166763663Y-131073938D01*
X166993472Y-131073938D01*
X167085396Y-131119900D01*
X167131358Y-131165861D01*
X167177320Y-131257785D01*
X167177320Y-131349709D01*
X167131358Y-131487595D01*
X166579815Y-132039138D01*
X167177320Y-132039138D01*
X169119815Y-131073938D02*
X169717320Y-131073938D01*
X169395587Y-131441633D01*
X169533472Y-131441633D01*
X169625396Y-131487595D01*
X169671358Y-131533557D01*
X169717320Y-131625480D01*
X169717320Y-131855290D01*
X169671358Y-131947214D01*
X169625396Y-131993176D01*
X169533472Y-132039138D01*
X169257701Y-132039138D01*
X169165777Y-131993176D01*
X169119815Y-131947214D01*
X172165396Y-131395671D02*
X172165396Y-132039138D01*
X171935587Y-131027976D02*
X171705777Y-131717404D01*
X172303282Y-131717404D01*
X174624358Y-131073938D02*
X174164739Y-131073938D01*
X174118777Y-131533557D01*
X174164739Y-131487595D01*
X174256663Y-131441633D01*
X174486472Y-131441633D01*
X174578396Y-131487595D01*
X174624358Y-131533557D01*
X174670320Y-131625480D01*
X174670320Y-131855290D01*
X174624358Y-131947214D01*
X174578396Y-131993176D01*
X174486472Y-132039138D01*
X174256663Y-132039138D01*
X174164739Y-131993176D01*
X174118777Y-131947214D01*
X156348615Y-78150538D02*
X156992082Y-78150538D01*
X156578425Y-79115738D01*
X159267196Y-78150538D02*
X159083348Y-78150538D01*
X158991425Y-78196500D01*
X158945463Y-78242461D01*
X158853539Y-78380347D01*
X158807577Y-78564195D01*
X158807577Y-78931890D01*
X158853539Y-79023814D01*
X158899501Y-79069776D01*
X158991425Y-79115738D01*
X159175272Y-79115738D01*
X159267196Y-79069776D01*
X159313158Y-79023814D01*
X159359120Y-78931890D01*
X159359120Y-78702080D01*
X159313158Y-78610157D01*
X159267196Y-78564195D01*
X159175272Y-78518233D01*
X158991425Y-78518233D01*
X158899501Y-78564195D01*
X158853539Y-78610157D01*
X158807577Y-78702080D01*
X161980158Y-78150538D02*
X161520539Y-78150538D01*
X161474577Y-78610157D01*
X161520539Y-78564195D01*
X161612463Y-78518233D01*
X161842272Y-78518233D01*
X161934196Y-78564195D01*
X161980158Y-78610157D01*
X162026120Y-78702080D01*
X162026120Y-78931890D01*
X161980158Y-79023814D01*
X161934196Y-79069776D01*
X161842272Y-79115738D01*
X161612463Y-79115738D01*
X161520539Y-79069776D01*
X161474577Y-79023814D01*
X164321796Y-78497671D02*
X164321796Y-79141138D01*
X164091987Y-78129976D02*
X163862177Y-78819404D01*
X164459682Y-78819404D01*
X166229215Y-78201338D02*
X166826720Y-78201338D01*
X166504987Y-78569033D01*
X166642872Y-78569033D01*
X166734796Y-78614995D01*
X166780758Y-78660957D01*
X166826720Y-78752880D01*
X166826720Y-78982690D01*
X166780758Y-79074614D01*
X166734796Y-79120576D01*
X166642872Y-79166538D01*
X166367101Y-79166538D01*
X166275177Y-79120576D01*
X166229215Y-79074614D01*
X169018377Y-78242461D02*
X169064339Y-78196500D01*
X169156263Y-78150538D01*
X169386072Y-78150538D01*
X169477996Y-78196500D01*
X169523958Y-78242461D01*
X169569920Y-78334385D01*
X169569920Y-78426309D01*
X169523958Y-78564195D01*
X168972415Y-79115738D01*
X169569920Y-79115738D01*
X172186120Y-79090338D02*
X171634577Y-79090338D01*
X171910348Y-79090338D02*
X171910348Y-78125138D01*
X171818425Y-78263023D01*
X171726501Y-78354947D01*
X171634577Y-78400909D01*
X174353587Y-78125138D02*
X174445510Y-78125138D01*
X174537434Y-78171100D01*
X174583396Y-78217061D01*
X174629358Y-78308985D01*
X174675320Y-78492833D01*
X174675320Y-78722642D01*
X174629358Y-78906490D01*
X174583396Y-78998414D01*
X174537434Y-79044376D01*
X174445510Y-79090338D01*
X174353587Y-79090338D01*
X174261663Y-79044376D01*
X174215701Y-78998414D01*
X174169739Y-78906490D01*
X174123777Y-78722642D01*
X174123777Y-78492833D01*
X174169739Y-78308985D01*
X174215701Y-78217061D01*
X174261663Y-78171100D01*
X174353587Y-78125138D01*
D12*
X177030742Y-98229359D02*
X177088195Y-98286811D01*
X177145647Y-98459169D01*
X177145647Y-98574073D01*
X177088195Y-98746430D01*
X176973290Y-98861335D01*
X176858385Y-98918788D01*
X176628576Y-98976240D01*
X176456219Y-98976240D01*
X176226409Y-98918788D01*
X176111504Y-98861335D01*
X175996600Y-98746430D01*
X175939147Y-98574073D01*
X175939147Y-98459169D01*
X175996600Y-98286811D01*
X176054052Y-98229359D01*
X175939147Y-97482478D02*
X175939147Y-97252669D01*
X175996600Y-97137764D01*
X176111504Y-97022859D01*
X176341314Y-96965407D01*
X176743480Y-96965407D01*
X176973290Y-97022859D01*
X177088195Y-97137764D01*
X177145647Y-97252669D01*
X177145647Y-97482478D01*
X177088195Y-97597383D01*
X176973290Y-97712288D01*
X176743480Y-97769740D01*
X176341314Y-97769740D01*
X176111504Y-97712288D01*
X175996600Y-97597383D01*
X175939147Y-97482478D01*
X177145647Y-96448335D02*
X175939147Y-96448335D01*
X176800933Y-96046169D01*
X175939147Y-95644002D01*
X177145647Y-95644002D01*
X177145647Y-103236788D02*
X175939147Y-103236788D01*
X177145647Y-102547359D01*
X175939147Y-102547359D01*
X175939147Y-101743026D02*
X175939147Y-101513216D01*
X175996600Y-101398311D01*
X176111504Y-101283407D01*
X176341314Y-101225954D01*
X176743480Y-101225954D01*
X176973290Y-101283407D01*
X177088195Y-101398311D01*
X177145647Y-101513216D01*
X177145647Y-101743026D01*
X177088195Y-101857930D01*
X176973290Y-101972835D01*
X176743480Y-102030288D01*
X176341314Y-102030288D01*
X176111504Y-101972835D01*
X175996600Y-101857930D01*
X175939147Y-101743026D01*
X176637647Y-92822788D02*
X175431147Y-92822788D01*
X176637647Y-92133359D01*
X175431147Y-92133359D01*
X176522742Y-90869407D02*
X176580195Y-90926859D01*
X176637647Y-91099216D01*
X176637647Y-91214121D01*
X176580195Y-91386478D01*
X176465290Y-91501383D01*
X176350385Y-91558835D01*
X176120576Y-91616288D01*
X175948219Y-91616288D01*
X175718409Y-91558835D01*
X175603504Y-91501383D01*
X175488600Y-91386478D01*
X175431147Y-91214121D01*
X175431147Y-91099216D01*
X175488600Y-90926859D01*
X175546052Y-90869407D01*
D11*
X132643844Y-78768766D02*
X133103463Y-78768766D01*
X132551920Y-79044538D02*
X132873653Y-78079338D01*
X133195387Y-79044538D01*
X134068663Y-79044538D02*
X133746929Y-78584919D01*
X133517120Y-79044538D02*
X133517120Y-78079338D01*
X133884815Y-78079338D01*
X133976739Y-78125300D01*
X134022701Y-78171261D01*
X134068663Y-78263185D01*
X134068663Y-78401071D01*
X134022701Y-78492995D01*
X133976739Y-78538957D01*
X133884815Y-78584919D01*
X133517120Y-78584919D01*
X134850015Y-78998576D02*
X134758091Y-79044538D01*
X134574244Y-79044538D01*
X134482320Y-78998576D01*
X134436358Y-78906652D01*
X134436358Y-78538957D01*
X134482320Y-78447033D01*
X134574244Y-78401071D01*
X134758091Y-78401071D01*
X134850015Y-78447033D01*
X134895977Y-78538957D01*
X134895977Y-78630880D01*
X134436358Y-78722804D01*
X135171748Y-78401071D02*
X135539444Y-78401071D01*
X135309634Y-79044538D02*
X135309634Y-78217223D01*
X135355596Y-78125300D01*
X135447520Y-78079338D01*
X135539444Y-78079338D01*
X136738606Y-78472271D02*
X136738606Y-79253623D01*
X136692644Y-79345547D01*
X136646682Y-79391509D01*
X136554758Y-79437471D01*
X136416872Y-79437471D01*
X136324948Y-79391509D01*
X136738606Y-79069776D02*
X136646682Y-79115738D01*
X136462834Y-79115738D01*
X136370910Y-79069776D01*
X136324948Y-79023814D01*
X136278987Y-78931890D01*
X136278987Y-78656119D01*
X136324948Y-78564195D01*
X136370910Y-78518233D01*
X136462834Y-78472271D01*
X136646682Y-78472271D01*
X136738606Y-78518233D01*
X137198225Y-78472271D02*
X137198225Y-79115738D01*
X137198225Y-78564195D02*
X137244187Y-78518233D01*
X137336110Y-78472271D01*
X137473996Y-78472271D01*
X137565920Y-78518233D01*
X137611882Y-78610157D01*
X137611882Y-79115738D01*
X138485158Y-79115738D02*
X138485158Y-78150538D01*
X138485158Y-79069776D02*
X138393234Y-79115738D01*
X138209387Y-79115738D01*
X138117463Y-79069776D01*
X138071501Y-79023814D01*
X138025539Y-78931890D01*
X138025539Y-78656119D01*
X138071501Y-78564195D01*
X138117463Y-78518233D01*
X138209387Y-78472271D01*
X138393234Y-78472271D01*
X138485158Y-78518233D01*
X139694682Y-79115738D02*
X139143139Y-79115738D01*
X139418910Y-79115738D02*
X139418910Y-78150538D01*
X139326987Y-78288423D01*
X139235063Y-78380347D01*
X139143139Y-78426309D01*
X140016415Y-78150538D02*
X140613920Y-78150538D01*
X140292187Y-78518233D01*
X140430072Y-78518233D01*
X140521996Y-78564195D01*
X140567958Y-78610157D01*
X140613920Y-78702080D01*
X140613920Y-78931890D01*
X140567958Y-79023814D01*
X140521996Y-79069776D01*
X140430072Y-79115738D01*
X140154301Y-79115738D01*
X140062377Y-79069776D01*
X140016415Y-79023814D01*
X142183882Y-79115738D02*
X141632339Y-79115738D01*
X141908110Y-79115738D02*
X141908110Y-78150538D01*
X141816187Y-78288423D01*
X141724263Y-78380347D01*
X141632339Y-78426309D01*
X142551577Y-78242461D02*
X142597539Y-78196500D01*
X142689463Y-78150538D01*
X142919272Y-78150538D01*
X143011196Y-78196500D01*
X143057158Y-78242461D01*
X143103120Y-78334385D01*
X143103120Y-78426309D01*
X143057158Y-78564195D01*
X142505615Y-79115738D01*
X143103120Y-79115738D01*
X144901682Y-79115738D02*
X144350139Y-79115738D01*
X144625910Y-79115738D02*
X144625910Y-78150538D01*
X144533987Y-78288423D01*
X144442063Y-78380347D01*
X144350139Y-78426309D01*
X145820920Y-79115738D02*
X145269377Y-79115738D01*
X145545148Y-79115738D02*
X145545148Y-78150538D01*
X145453225Y-78288423D01*
X145361301Y-78380347D01*
X145269377Y-78426309D01*
X147365482Y-79115738D02*
X146813939Y-79115738D01*
X147089710Y-79115738D02*
X147089710Y-78150538D01*
X146997787Y-78288423D01*
X146905863Y-78380347D01*
X146813939Y-78426309D01*
X147962987Y-78150538D02*
X148054910Y-78150538D01*
X148146834Y-78196500D01*
X148192796Y-78242461D01*
X148238758Y-78334385D01*
X148284720Y-78518233D01*
X148284720Y-78748042D01*
X148238758Y-78931890D01*
X148192796Y-79023814D01*
X148146834Y-79069776D01*
X148054910Y-79115738D01*
X147962987Y-79115738D01*
X147871063Y-79069776D01*
X147825101Y-79023814D01*
X147779139Y-78931890D01*
X147733177Y-78748042D01*
X147733177Y-78518233D01*
X147779139Y-78334385D01*
X147825101Y-78242461D01*
X147871063Y-78196500D01*
X147962987Y-78150538D01*
X149907901Y-79115738D02*
X150091748Y-79115738D01*
X150183672Y-79069776D01*
X150229634Y-79023814D01*
X150321558Y-78885928D01*
X150367520Y-78702080D01*
X150367520Y-78334385D01*
X150321558Y-78242461D01*
X150275596Y-78196500D01*
X150183672Y-78150538D01*
X149999825Y-78150538D01*
X149907901Y-78196500D01*
X149861939Y-78242461D01*
X149815977Y-78334385D01*
X149815977Y-78564195D01*
X149861939Y-78656119D01*
X149907901Y-78702080D01*
X149999825Y-78748042D01*
X150183672Y-78748042D01*
X150275596Y-78702080D01*
X150321558Y-78656119D01*
X150367520Y-78564195D01*
X152514425Y-78564195D02*
X152422501Y-78518233D01*
X152376539Y-78472271D01*
X152330577Y-78380347D01*
X152330577Y-78334385D01*
X152376539Y-78242461D01*
X152422501Y-78196500D01*
X152514425Y-78150538D01*
X152698272Y-78150538D01*
X152790196Y-78196500D01*
X152836158Y-78242461D01*
X152882120Y-78334385D01*
X152882120Y-78380347D01*
X152836158Y-78472271D01*
X152790196Y-78518233D01*
X152698272Y-78564195D01*
X152514425Y-78564195D01*
X152422501Y-78610157D01*
X152376539Y-78656119D01*
X152330577Y-78748042D01*
X152330577Y-78931890D01*
X152376539Y-79023814D01*
X152422501Y-79069776D01*
X152514425Y-79115738D01*
X152698272Y-79115738D01*
X152790196Y-79069776D01*
X152836158Y-79023814D01*
X152882120Y-78931890D01*
X152882120Y-78748042D01*
X152836158Y-78656119D01*
X152790196Y-78610157D01*
X152698272Y-78564195D01*
D13*
X142037743Y-111596714D02*
X142244572Y-111665657D01*
X142589286Y-111665657D01*
X142727172Y-111596714D01*
X142796114Y-111527771D01*
X142865057Y-111389885D01*
X142865057Y-111252000D01*
X142796114Y-111114114D01*
X142727172Y-111045171D01*
X142589286Y-110976228D01*
X142313514Y-110907285D01*
X142175629Y-110838342D01*
X142106686Y-110769400D01*
X142037743Y-110631514D01*
X142037743Y-110493628D01*
X142106686Y-110355742D01*
X142175629Y-110286800D01*
X142313514Y-110217857D01*
X142658229Y-110217857D01*
X142865057Y-110286800D01*
X144037086Y-111596714D02*
X143899200Y-111665657D01*
X143623429Y-111665657D01*
X143485543Y-111596714D01*
X143416600Y-111458828D01*
X143416600Y-110907285D01*
X143485543Y-110769400D01*
X143623429Y-110700457D01*
X143899200Y-110700457D01*
X144037086Y-110769400D01*
X144106029Y-110907285D01*
X144106029Y-111045171D01*
X143416600Y-111183057D01*
X144726514Y-110700457D02*
X144726514Y-111665657D01*
X144726514Y-110838342D02*
X144795457Y-110769400D01*
X144933343Y-110700457D01*
X145140172Y-110700457D01*
X145278057Y-110769400D01*
X145347000Y-110907285D01*
X145347000Y-111665657D01*
X145967486Y-111596714D02*
X146105372Y-111665657D01*
X146381143Y-111665657D01*
X146519029Y-111596714D01*
X146587972Y-111458828D01*
X146587972Y-111389885D01*
X146519029Y-111252000D01*
X146381143Y-111183057D01*
X146174314Y-111183057D01*
X146036429Y-111114114D01*
X145967486Y-110976228D01*
X145967486Y-110907285D01*
X146036429Y-110769400D01*
X146174314Y-110700457D01*
X146381143Y-110700457D01*
X146519029Y-110769400D01*
X147415286Y-111665657D02*
X147277400Y-111596714D01*
X147208457Y-111527771D01*
X147139514Y-111389885D01*
X147139514Y-110976228D01*
X147208457Y-110838342D01*
X147277400Y-110769400D01*
X147415286Y-110700457D01*
X147622114Y-110700457D01*
X147760000Y-110769400D01*
X147828943Y-110838342D01*
X147897886Y-110976228D01*
X147897886Y-111389885D01*
X147828943Y-111527771D01*
X147760000Y-111596714D01*
X147622114Y-111665657D01*
X147415286Y-111665657D01*
X148518372Y-111665657D02*
X148518372Y-110700457D01*
X148518372Y-110976228D02*
X148587314Y-110838342D01*
X148656257Y-110769400D01*
X148794143Y-110700457D01*
X148932029Y-110700457D01*
X150448772Y-111596714D02*
X150655600Y-111665657D01*
X151000314Y-111665657D01*
X151138200Y-111596714D01*
X151207143Y-111527771D01*
X151276086Y-111389885D01*
X151276086Y-111252000D01*
X151207143Y-111114114D01*
X151138200Y-111045171D01*
X151000314Y-110976228D01*
X150724543Y-110907285D01*
X150586657Y-110838342D01*
X150517714Y-110769400D01*
X150448772Y-110631514D01*
X150448772Y-110493628D01*
X150517714Y-110355742D01*
X150586657Y-110286800D01*
X150724543Y-110217857D01*
X151069257Y-110217857D01*
X151276086Y-110286800D01*
X151896572Y-111665657D02*
X151896572Y-110217857D01*
X152517057Y-111665657D02*
X152517057Y-110907285D01*
X152448114Y-110769400D01*
X152310229Y-110700457D01*
X152103400Y-110700457D01*
X151965514Y-110769400D01*
X151896572Y-110838342D01*
X153206486Y-111665657D02*
X153206486Y-110700457D01*
X153206486Y-110217857D02*
X153137543Y-110286800D01*
X153206486Y-110355742D01*
X153275429Y-110286800D01*
X153206486Y-110217857D01*
X153206486Y-110355742D01*
X154447457Y-111596714D02*
X154309572Y-111665657D01*
X154033800Y-111665657D01*
X153895914Y-111596714D01*
X153826972Y-111458828D01*
X153826972Y-110907285D01*
X153895914Y-110769400D01*
X154033800Y-110700457D01*
X154309572Y-110700457D01*
X154447457Y-110769400D01*
X154516400Y-110907285D01*
X154516400Y-111045171D01*
X153826972Y-111183057D01*
X155343714Y-111665657D02*
X155205829Y-111596714D01*
X155136886Y-111458828D01*
X155136886Y-110217857D01*
X156515743Y-111665657D02*
X156515743Y-110217857D01*
X156515743Y-111596714D02*
X156377857Y-111665657D01*
X156102086Y-111665657D01*
X155964200Y-111596714D01*
X155895257Y-111527771D01*
X155826314Y-111389885D01*
X155826314Y-110976228D01*
X155895257Y-110838342D01*
X155964200Y-110769400D01*
X156102086Y-110700457D01*
X156377857Y-110700457D01*
X156515743Y-110769400D01*
X158101429Y-110217857D02*
X158584029Y-111665657D01*
X159066629Y-110217857D01*
X159549229Y-111114114D02*
X160652314Y-111114114D01*
X162100114Y-111665657D02*
X161272800Y-111665657D01*
X161686457Y-111665657D02*
X161686457Y-110217857D01*
X161548572Y-110424685D01*
X161410686Y-110562571D01*
X161272800Y-110631514D01*
X162720600Y-111527771D02*
X162789543Y-111596714D01*
X162720600Y-111665657D01*
X162651657Y-111596714D01*
X162720600Y-111527771D01*
X162720600Y-111665657D01*
X163341086Y-110355742D02*
X163410029Y-110286800D01*
X163547914Y-110217857D01*
X163892629Y-110217857D01*
X164030514Y-110286800D01*
X164099457Y-110355742D01*
X164168400Y-110493628D01*
X164168400Y-110631514D01*
X164099457Y-110838342D01*
X163272143Y-111665657D01*
X164168400Y-111665657D01*
D14*
X134263722Y-114448166D02*
X134263722Y-112759066D01*
X135068056Y-113322100D02*
X135068056Y-114448166D01*
X135068056Y-113482966D02*
X135148489Y-113402533D01*
X135309356Y-113322100D01*
X135550656Y-113322100D01*
X135711522Y-113402533D01*
X135791956Y-113563400D01*
X135791956Y-114448166D01*
X136354989Y-113322100D02*
X136998456Y-113322100D01*
X136596289Y-112759066D02*
X136596289Y-114206866D01*
X136676722Y-114367733D01*
X136837589Y-114448166D01*
X136998456Y-114448166D01*
X138204956Y-114367733D02*
X138044089Y-114448166D01*
X137722356Y-114448166D01*
X137561489Y-114367733D01*
X137481056Y-114206866D01*
X137481056Y-113563400D01*
X137561489Y-113402533D01*
X137722356Y-113322100D01*
X138044089Y-113322100D01*
X138204956Y-113402533D01*
X138285389Y-113563400D01*
X138285389Y-113724266D01*
X137481056Y-113885133D01*
X139733189Y-113322100D02*
X139733189Y-114689466D01*
X139652756Y-114850333D01*
X139572322Y-114930766D01*
X139411456Y-115011200D01*
X139170156Y-115011200D01*
X139009289Y-114930766D01*
X139733189Y-114367733D02*
X139572322Y-114448166D01*
X139250589Y-114448166D01*
X139089722Y-114367733D01*
X139009289Y-114287300D01*
X138928856Y-114126433D01*
X138928856Y-113643833D01*
X139009289Y-113482966D01*
X139089722Y-113402533D01*
X139250589Y-113322100D01*
X139572322Y-113322100D01*
X139733189Y-113402533D01*
X140537522Y-114448166D02*
X140537522Y-113322100D01*
X140537522Y-113643833D02*
X140617956Y-113482966D01*
X140698389Y-113402533D01*
X140859256Y-113322100D01*
X141020122Y-113322100D01*
X142307056Y-114448166D02*
X142307056Y-113563400D01*
X142226622Y-113402533D01*
X142065756Y-113322100D01*
X141744022Y-113322100D01*
X141583156Y-113402533D01*
X142307056Y-114367733D02*
X142146189Y-114448166D01*
X141744022Y-114448166D01*
X141583156Y-114367733D01*
X141502722Y-114206866D01*
X141502722Y-114046000D01*
X141583156Y-113885133D01*
X141744022Y-113804700D01*
X142146189Y-113804700D01*
X142307056Y-113724266D01*
X142870089Y-113322100D02*
X143513556Y-113322100D01*
X143111389Y-112759066D02*
X143111389Y-114206866D01*
X143191822Y-114367733D01*
X143352689Y-114448166D01*
X143513556Y-114448166D01*
X144720056Y-114367733D02*
X144559189Y-114448166D01*
X144237456Y-114448166D01*
X144076589Y-114367733D01*
X143996156Y-114206866D01*
X143996156Y-113563400D01*
X144076589Y-113402533D01*
X144237456Y-113322100D01*
X144559189Y-113322100D01*
X144720056Y-113402533D01*
X144800489Y-113563400D01*
X144800489Y-113724266D01*
X143996156Y-113885133D01*
X146248289Y-114448166D02*
X146248289Y-112759066D01*
X146248289Y-114367733D02*
X146087422Y-114448166D01*
X145765689Y-114448166D01*
X145604822Y-114367733D01*
X145524389Y-114287300D01*
X145443956Y-114126433D01*
X145443956Y-113643833D01*
X145524389Y-113482966D01*
X145604822Y-113402533D01*
X145765689Y-113322100D01*
X146087422Y-113322100D01*
X146248289Y-113402533D01*
X148339556Y-114448166D02*
X148339556Y-112759066D01*
X148741722Y-112759066D01*
X148983022Y-112839500D01*
X149143889Y-113000366D01*
X149224322Y-113161233D01*
X149304756Y-113482966D01*
X149304756Y-113724266D01*
X149224322Y-114046000D01*
X149143889Y-114206866D01*
X148983022Y-114367733D01*
X148741722Y-114448166D01*
X148339556Y-114448166D01*
X150672122Y-114367733D02*
X150511256Y-114448166D01*
X150189522Y-114448166D01*
X150028656Y-114367733D01*
X149948222Y-114206866D01*
X149948222Y-113563400D01*
X150028656Y-113402533D01*
X150189522Y-113322100D01*
X150511256Y-113322100D01*
X150672122Y-113402533D01*
X150752556Y-113563400D01*
X150752556Y-113724266D01*
X149948222Y-113885133D01*
X151315589Y-113322100D02*
X151717756Y-114448166D01*
X152119922Y-113322100D01*
X153406856Y-114367733D02*
X153245989Y-114448166D01*
X152924256Y-114448166D01*
X152763389Y-114367733D01*
X152682956Y-114206866D01*
X152682956Y-113563400D01*
X152763389Y-113402533D01*
X152924256Y-113322100D01*
X153245989Y-113322100D01*
X153406856Y-113402533D01*
X153487289Y-113563400D01*
X153487289Y-113724266D01*
X152682956Y-113885133D01*
X154452489Y-114448166D02*
X154291622Y-114367733D01*
X154211189Y-114206866D01*
X154211189Y-112759066D01*
X155337256Y-114448166D02*
X155176389Y-114367733D01*
X155095956Y-114287300D01*
X155015522Y-114126433D01*
X155015522Y-113643833D01*
X155095956Y-113482966D01*
X155176389Y-113402533D01*
X155337256Y-113322100D01*
X155578556Y-113322100D01*
X155739422Y-113402533D01*
X155819856Y-113482966D01*
X155900289Y-113643833D01*
X155900289Y-114126433D01*
X155819856Y-114287300D01*
X155739422Y-114367733D01*
X155578556Y-114448166D01*
X155337256Y-114448166D01*
X156624189Y-113322100D02*
X156624189Y-115011200D01*
X156624189Y-113402533D02*
X156785056Y-113322100D01*
X157106789Y-113322100D01*
X157267656Y-113402533D01*
X157348089Y-113482966D01*
X157428522Y-113643833D01*
X157428522Y-114126433D01*
X157348089Y-114287300D01*
X157267656Y-114367733D01*
X157106789Y-114448166D01*
X156785056Y-114448166D01*
X156624189Y-114367733D01*
X158152422Y-114448166D02*
X158152422Y-113322100D01*
X158152422Y-113482966D02*
X158232856Y-113402533D01*
X158393722Y-113322100D01*
X158635022Y-113322100D01*
X158795889Y-113402533D01*
X158876322Y-113563400D01*
X158876322Y-114448166D01*
X158876322Y-113563400D02*
X158956756Y-113402533D01*
X159117622Y-113322100D01*
X159358922Y-113322100D01*
X159519789Y-113402533D01*
X159600222Y-113563400D01*
X159600222Y-114448166D01*
X161048022Y-114367733D02*
X160887156Y-114448166D01*
X160565422Y-114448166D01*
X160404556Y-114367733D01*
X160324122Y-114206866D01*
X160324122Y-113563400D01*
X160404556Y-113402533D01*
X160565422Y-113322100D01*
X160887156Y-113322100D01*
X161048022Y-113402533D01*
X161128456Y-113563400D01*
X161128456Y-113724266D01*
X160324122Y-113885133D01*
X161852356Y-113322100D02*
X161852356Y-114448166D01*
X161852356Y-113482966D02*
X161932789Y-113402533D01*
X162093656Y-113322100D01*
X162334956Y-113322100D01*
X162495822Y-113402533D01*
X162576256Y-113563400D01*
X162576256Y-114448166D01*
X163139289Y-113322100D02*
X163782756Y-113322100D01*
X163380589Y-112759066D02*
X163380589Y-114206866D01*
X163461022Y-114367733D01*
X163621889Y-114448166D01*
X163782756Y-114448166D01*
X166437056Y-114448166D02*
X165632722Y-114448166D01*
X165632722Y-112759066D01*
X167723989Y-114448166D02*
X167723989Y-113563400D01*
X167643556Y-113402533D01*
X167482689Y-113322100D01*
X167160956Y-113322100D01*
X167000089Y-113402533D01*
X167723989Y-114367733D02*
X167563122Y-114448166D01*
X167160956Y-114448166D01*
X167000089Y-114367733D01*
X166919656Y-114206866D01*
X166919656Y-114046000D01*
X167000089Y-113885133D01*
X167160956Y-113804700D01*
X167563122Y-113804700D01*
X167723989Y-113724266D01*
X168528322Y-114448166D02*
X168528322Y-112759066D01*
X168528322Y-113402533D02*
X168689189Y-113322100D01*
X169010922Y-113322100D01*
X169171789Y-113402533D01*
X169252222Y-113482966D01*
X169332656Y-113643833D01*
X169332656Y-114126433D01*
X169252222Y-114287300D01*
X169171789Y-114367733D01*
X169010922Y-114448166D01*
X168689189Y-114448166D01*
X168528322Y-114367733D01*
X151027722Y-117242166D02*
X151027722Y-115553066D01*
X151832056Y-117242166D02*
X151832056Y-115553066D01*
X152395089Y-115553066D02*
X153360289Y-115553066D01*
X152877689Y-117242166D02*
X152877689Y-115553066D01*
X155773289Y-116357400D02*
X156014589Y-116437833D01*
X156095022Y-116518266D01*
X156175456Y-116679133D01*
X156175456Y-116920433D01*
X156095022Y-117081300D01*
X156014589Y-117161733D01*
X155853722Y-117242166D01*
X155210256Y-117242166D01*
X155210256Y-115553066D01*
X155773289Y-115553066D01*
X155934156Y-115633500D01*
X156014589Y-115713933D01*
X156095022Y-115874800D01*
X156095022Y-116035666D01*
X156014589Y-116196533D01*
X155934156Y-116276966D01*
X155773289Y-116357400D01*
X155210256Y-116357400D01*
X157140656Y-117242166D02*
X156979789Y-117161733D01*
X156899356Y-117081300D01*
X156818922Y-116920433D01*
X156818922Y-116437833D01*
X156899356Y-116276966D01*
X156979789Y-116196533D01*
X157140656Y-116116100D01*
X157381956Y-116116100D01*
X157542822Y-116196533D01*
X157623256Y-116276966D01*
X157703689Y-116437833D01*
X157703689Y-116920433D01*
X157623256Y-117081300D01*
X157542822Y-117161733D01*
X157381956Y-117242166D01*
X157140656Y-117242166D01*
X158427589Y-117242166D02*
X158427589Y-116116100D01*
X158427589Y-116276966D02*
X158508022Y-116196533D01*
X158668889Y-116116100D01*
X158910189Y-116116100D01*
X159071056Y-116196533D01*
X159151489Y-116357400D01*
X159151489Y-117242166D01*
X159151489Y-116357400D02*
X159231922Y-116196533D01*
X159392789Y-116116100D01*
X159634089Y-116116100D01*
X159794956Y-116196533D01*
X159875389Y-116357400D01*
X159875389Y-117242166D01*
X160679722Y-117242166D02*
X160679722Y-115553066D01*
X160679722Y-116196533D02*
X160840589Y-116116100D01*
X161162322Y-116116100D01*
X161323189Y-116196533D01*
X161403622Y-116276966D01*
X161484056Y-116437833D01*
X161484056Y-116920433D01*
X161403622Y-117081300D01*
X161323189Y-117161733D01*
X161162322Y-117242166D01*
X160840589Y-117242166D01*
X160679722Y-117161733D01*
X162931856Y-117242166D02*
X162931856Y-116357400D01*
X162851422Y-116196533D01*
X162690556Y-116116100D01*
X162368822Y-116116100D01*
X162207956Y-116196533D01*
X162931856Y-117161733D02*
X162770989Y-117242166D01*
X162368822Y-117242166D01*
X162207956Y-117161733D01*
X162127522Y-117000866D01*
X162127522Y-116840000D01*
X162207956Y-116679133D01*
X162368822Y-116598700D01*
X162770989Y-116598700D01*
X162931856Y-116518266D01*
X163575322Y-116116100D02*
X163977489Y-117242166D01*
X164379656Y-116116100D02*
X163977489Y-117242166D01*
X163816622Y-117644333D01*
X163736189Y-117724766D01*
X163575322Y-117805200D01*
D15*
%TO.C,JP1*%
X137960100Y-82270600D02*
X136690100Y-82270600D01*
X136690100Y-82270600D02*
X136055100Y-81635600D01*
X136055100Y-81635600D02*
X136055100Y-80365600D01*
X136055100Y-80365600D02*
X136690100Y-79730600D01*
X141135100Y-81635600D02*
X140500100Y-82270600D01*
X140500100Y-82270600D02*
X139230100Y-82270600D01*
X139230100Y-82270600D02*
X138595100Y-81635600D01*
X138595100Y-81635600D02*
X138595100Y-80365600D01*
X138595100Y-80365600D02*
X139230100Y-79730600D01*
X139230100Y-79730600D02*
X140500100Y-79730600D01*
X140500100Y-79730600D02*
X141135100Y-80365600D01*
X137960100Y-82270600D02*
X138595100Y-81635600D01*
X138595100Y-80365600D02*
X137960100Y-79730600D01*
X136690100Y-79730600D02*
X137960100Y-79730600D01*
X145580100Y-82270600D02*
X144310100Y-82270600D01*
X144310100Y-82270600D02*
X143675100Y-81635600D01*
X143675100Y-81635600D02*
X143675100Y-80365600D01*
X143675100Y-80365600D02*
X144310100Y-79730600D01*
X143675100Y-81635600D02*
X143040100Y-82270600D01*
X143040100Y-82270600D02*
X141770100Y-82270600D01*
X141770100Y-82270600D02*
X141135100Y-81635600D01*
X141135100Y-81635600D02*
X141135100Y-80365600D01*
X141135100Y-80365600D02*
X141770100Y-79730600D01*
X141770100Y-79730600D02*
X143040100Y-79730600D01*
X143040100Y-79730600D02*
X143675100Y-80365600D01*
X148755100Y-81635600D02*
X148120100Y-82270600D01*
X148120100Y-82270600D02*
X146850100Y-82270600D01*
X146850100Y-82270600D02*
X146215100Y-81635600D01*
X146215100Y-81635600D02*
X146215100Y-80365600D01*
X146215100Y-80365600D02*
X146850100Y-79730600D01*
X146850100Y-79730600D02*
X148120100Y-79730600D01*
X148120100Y-79730600D02*
X148755100Y-80365600D01*
X145580100Y-82270600D02*
X146215100Y-81635600D01*
X146215100Y-80365600D02*
X145580100Y-79730600D01*
X144310100Y-79730600D02*
X145580100Y-79730600D01*
X153200100Y-82270600D02*
X151930100Y-82270600D01*
X151930100Y-82270600D02*
X151295100Y-81635600D01*
X151295100Y-81635600D02*
X151295100Y-80365600D01*
X151295100Y-80365600D02*
X151930100Y-79730600D01*
X151295100Y-81635600D02*
X150660100Y-82270600D01*
X150660100Y-82270600D02*
X149390100Y-82270600D01*
X149390100Y-82270600D02*
X148755100Y-81635600D01*
X148755100Y-81635600D02*
X148755100Y-80365600D01*
X148755100Y-80365600D02*
X149390100Y-79730600D01*
X149390100Y-79730600D02*
X150660100Y-79730600D01*
X150660100Y-79730600D02*
X151295100Y-80365600D01*
X153835100Y-81635600D02*
X153835100Y-80365600D01*
X153200100Y-82270600D02*
X153835100Y-81635600D01*
X153835100Y-80365600D02*
X153200100Y-79730600D01*
X151930100Y-79730600D02*
X153200100Y-79730600D01*
X135420100Y-82270600D02*
X134150100Y-82270600D01*
X134150100Y-82270600D02*
X133515100Y-81635600D01*
X133515100Y-81635600D02*
X133515100Y-80365600D01*
X133515100Y-80365600D02*
X134150100Y-79730600D01*
X135420100Y-82270600D02*
X136055100Y-81635600D01*
X136055100Y-80365600D02*
X135420100Y-79730600D01*
X134150100Y-79730600D02*
X135420100Y-79730600D01*
%TO.C,JP2*%
X159677100Y-82270600D02*
X158407100Y-82270600D01*
X158407100Y-82270600D02*
X157772100Y-81635600D01*
X157772100Y-81635600D02*
X157772100Y-80365600D01*
X157772100Y-80365600D02*
X158407100Y-79730600D01*
X162852100Y-81635600D02*
X162217100Y-82270600D01*
X162217100Y-82270600D02*
X160947100Y-82270600D01*
X160947100Y-82270600D02*
X160312100Y-81635600D01*
X160312100Y-81635600D02*
X160312100Y-80365600D01*
X160312100Y-80365600D02*
X160947100Y-79730600D01*
X160947100Y-79730600D02*
X162217100Y-79730600D01*
X162217100Y-79730600D02*
X162852100Y-80365600D01*
X159677100Y-82270600D02*
X160312100Y-81635600D01*
X160312100Y-80365600D02*
X159677100Y-79730600D01*
X158407100Y-79730600D02*
X159677100Y-79730600D01*
X167297100Y-82270600D02*
X166027100Y-82270600D01*
X166027100Y-82270600D02*
X165392100Y-81635600D01*
X165392100Y-81635600D02*
X165392100Y-80365600D01*
X165392100Y-80365600D02*
X166027100Y-79730600D01*
X165392100Y-81635600D02*
X164757100Y-82270600D01*
X164757100Y-82270600D02*
X163487100Y-82270600D01*
X163487100Y-82270600D02*
X162852100Y-81635600D01*
X162852100Y-81635600D02*
X162852100Y-80365600D01*
X162852100Y-80365600D02*
X163487100Y-79730600D01*
X163487100Y-79730600D02*
X164757100Y-79730600D01*
X164757100Y-79730600D02*
X165392100Y-80365600D01*
X170472100Y-81635600D02*
X169837100Y-82270600D01*
X169837100Y-82270600D02*
X168567100Y-82270600D01*
X168567100Y-82270600D02*
X167932100Y-81635600D01*
X167932100Y-81635600D02*
X167932100Y-80365600D01*
X167932100Y-80365600D02*
X168567100Y-79730600D01*
X168567100Y-79730600D02*
X169837100Y-79730600D01*
X169837100Y-79730600D02*
X170472100Y-80365600D01*
X167297100Y-82270600D02*
X167932100Y-81635600D01*
X167932100Y-80365600D02*
X167297100Y-79730600D01*
X166027100Y-79730600D02*
X167297100Y-79730600D01*
X174917100Y-82270600D02*
X173647100Y-82270600D01*
X173647100Y-82270600D02*
X173012100Y-81635600D01*
X173012100Y-81635600D02*
X173012100Y-80365600D01*
X173012100Y-80365600D02*
X173647100Y-79730600D01*
X173012100Y-81635600D02*
X172377100Y-82270600D01*
X172377100Y-82270600D02*
X171107100Y-82270600D01*
X171107100Y-82270600D02*
X170472100Y-81635600D01*
X170472100Y-81635600D02*
X170472100Y-80365600D01*
X170472100Y-80365600D02*
X171107100Y-79730600D01*
X171107100Y-79730600D02*
X172377100Y-79730600D01*
X172377100Y-79730600D02*
X173012100Y-80365600D01*
X175552100Y-81635600D02*
X175552100Y-80365600D01*
X174917100Y-82270600D02*
X175552100Y-81635600D01*
X175552100Y-80365600D02*
X174917100Y-79730600D01*
X173647100Y-79730600D02*
X174917100Y-79730600D01*
X157137100Y-82270600D02*
X155867100Y-82270600D01*
X155867100Y-82270600D02*
X155232100Y-81635600D01*
X155232100Y-81635600D02*
X155232100Y-80365600D01*
X155232100Y-80365600D02*
X155867100Y-79730600D01*
X157137100Y-82270600D02*
X157772100Y-81635600D01*
X157772100Y-80365600D02*
X157137100Y-79730600D01*
X155867100Y-79730600D02*
X157137100Y-79730600D01*
%TO.C,JP3*%
X149517100Y-130403600D02*
X148247100Y-130403600D01*
X148247100Y-130403600D02*
X147612100Y-129768600D01*
X147612100Y-129768600D02*
X147612100Y-128498600D01*
X147612100Y-128498600D02*
X148247100Y-127863600D01*
X147612100Y-129768600D02*
X146977100Y-130403600D01*
X146977100Y-130403600D02*
X145707100Y-130403600D01*
X145707100Y-130403600D02*
X145072100Y-129768600D01*
X145072100Y-129768600D02*
X145072100Y-128498600D01*
X145072100Y-128498600D02*
X145707100Y-127863600D01*
X145707100Y-127863600D02*
X146977100Y-127863600D01*
X146977100Y-127863600D02*
X147612100Y-128498600D01*
X152692100Y-129768600D02*
X152057100Y-130403600D01*
X152057100Y-130403600D02*
X150787100Y-130403600D01*
X150787100Y-130403600D02*
X150152100Y-129768600D01*
X150152100Y-129768600D02*
X150152100Y-128498600D01*
X150152100Y-128498600D02*
X150787100Y-127863600D01*
X150787100Y-127863600D02*
X152057100Y-127863600D01*
X152057100Y-127863600D02*
X152692100Y-128498600D01*
X149517100Y-130403600D02*
X150152100Y-129768600D01*
X150152100Y-128498600D02*
X149517100Y-127863600D01*
X148247100Y-127863600D02*
X149517100Y-127863600D01*
X157137100Y-130403600D02*
X155867100Y-130403600D01*
X155867100Y-130403600D02*
X155232100Y-129768600D01*
X155232100Y-129768600D02*
X155232100Y-128498600D01*
X155232100Y-128498600D02*
X155867100Y-127863600D01*
X155232100Y-129768600D02*
X154597100Y-130403600D01*
X154597100Y-130403600D02*
X153327100Y-130403600D01*
X153327100Y-130403600D02*
X152692100Y-129768600D01*
X152692100Y-129768600D02*
X152692100Y-128498600D01*
X152692100Y-128498600D02*
X153327100Y-127863600D01*
X153327100Y-127863600D02*
X154597100Y-127863600D01*
X154597100Y-127863600D02*
X155232100Y-128498600D01*
X157772100Y-129768600D02*
X157772100Y-128498600D01*
X157137100Y-130403600D02*
X157772100Y-129768600D01*
X157772100Y-128498600D02*
X157137100Y-127863600D01*
X155867100Y-127863600D02*
X157137100Y-127863600D01*
X144437100Y-130403600D02*
X143167100Y-130403600D01*
X143167100Y-130403600D02*
X142532100Y-129768600D01*
X142532100Y-129768600D02*
X142532100Y-128498600D01*
X142532100Y-128498600D02*
X143167100Y-127863600D01*
X144437100Y-130403600D02*
X145072100Y-129768600D01*
X145072100Y-128498600D02*
X144437100Y-127863600D01*
X143167100Y-127863600D02*
X144437100Y-127863600D01*
%TO.C,JP4*%
X167424100Y-130530600D02*
X166154100Y-130530600D01*
X166154100Y-130530600D02*
X165519100Y-129895600D01*
X165519100Y-129895600D02*
X165519100Y-128625600D01*
X165519100Y-128625600D02*
X166154100Y-127990600D01*
X165519100Y-129895600D02*
X164884100Y-130530600D01*
X164884100Y-130530600D02*
X163614100Y-130530600D01*
X163614100Y-130530600D02*
X162979100Y-129895600D01*
X162979100Y-129895600D02*
X162979100Y-128625600D01*
X162979100Y-128625600D02*
X163614100Y-127990600D01*
X163614100Y-127990600D02*
X164884100Y-127990600D01*
X164884100Y-127990600D02*
X165519100Y-128625600D01*
X170599100Y-129895600D02*
X169964100Y-130530600D01*
X169964100Y-130530600D02*
X168694100Y-130530600D01*
X168694100Y-130530600D02*
X168059100Y-129895600D01*
X168059100Y-129895600D02*
X168059100Y-128625600D01*
X168059100Y-128625600D02*
X168694100Y-127990600D01*
X168694100Y-127990600D02*
X169964100Y-127990600D01*
X169964100Y-127990600D02*
X170599100Y-128625600D01*
X167424100Y-130530600D02*
X168059100Y-129895600D01*
X168059100Y-128625600D02*
X167424100Y-127990600D01*
X166154100Y-127990600D02*
X167424100Y-127990600D01*
X175044100Y-130530600D02*
X173774100Y-130530600D01*
X173774100Y-130530600D02*
X173139100Y-129895600D01*
X173139100Y-129895600D02*
X173139100Y-128625600D01*
X173139100Y-128625600D02*
X173774100Y-127990600D01*
X173139100Y-129895600D02*
X172504100Y-130530600D01*
X172504100Y-130530600D02*
X171234100Y-130530600D01*
X171234100Y-130530600D02*
X170599100Y-129895600D01*
X170599100Y-129895600D02*
X170599100Y-128625600D01*
X170599100Y-128625600D02*
X171234100Y-127990600D01*
X171234100Y-127990600D02*
X172504100Y-127990600D01*
X172504100Y-127990600D02*
X173139100Y-128625600D01*
X175679100Y-129895600D02*
X175679100Y-128625600D01*
X175044100Y-130530600D02*
X175679100Y-129895600D01*
X175679100Y-128625600D02*
X175044100Y-127990600D01*
X173774100Y-127990600D02*
X175044100Y-127990600D01*
X162344100Y-130530600D02*
X161074100Y-130530600D01*
X161074100Y-130530600D02*
X160439100Y-129895600D01*
X160439100Y-129895600D02*
X160439100Y-128625600D01*
X160439100Y-128625600D02*
X161074100Y-127990600D01*
X162344100Y-130530600D02*
X162979100Y-129895600D01*
X162979100Y-128625600D02*
X162344100Y-127990600D01*
X161074100Y-127990600D02*
X162344100Y-127990600D01*
%TO.C,BUTTON1*%
X129197100Y-95986600D02*
X129197100Y-95732600D01*
X129197100Y-95986600D02*
X130721100Y-95986600D01*
X130721100Y-95732600D02*
X130721100Y-95986600D01*
X130721100Y-89382600D02*
X130721100Y-89636600D01*
X130721100Y-89382600D02*
X129197100Y-89382600D01*
X129197100Y-89636600D02*
X129197100Y-89382600D01*
D16*
X133007100Y-91414600D02*
X132753100Y-91414600D01*
X132753100Y-93954600D02*
X132753100Y-91414600D01*
X132753100Y-93954600D02*
X133007100Y-93954600D01*
X127165100Y-93827600D02*
X127165100Y-91414600D01*
X127165100Y-93827600D02*
X126911100Y-93827600D01*
X127165100Y-91414600D02*
X126911100Y-91414600D01*
D15*
X126911100Y-90525600D02*
X126911100Y-91414600D01*
X133007100Y-94843600D02*
X133007100Y-93954600D01*
X133007100Y-93954600D02*
X133007100Y-91414600D01*
X133007100Y-91414600D02*
X133007100Y-90525600D01*
X126911100Y-91414600D02*
X126911100Y-93827600D01*
X126911100Y-93827600D02*
X126911100Y-94843600D01*
X129197100Y-95732600D02*
X128943100Y-95732600D01*
X130721100Y-95732600D02*
X130975100Y-95732600D01*
X129197100Y-89636600D02*
X128943100Y-89636600D01*
X130721100Y-89636600D02*
X130975100Y-89636600D01*
X131737100Y-92684600D02*
G75*
G03*
X131737100Y-92684600I-1778000J0D01*
G01*
X130213100Y-92684600D02*
G75*
G03*
X130213100Y-92684600I-254000J0D01*
G01*
%TO.C,R6*%
X137579100Y-99923600D02*
X137579100Y-101701600D01*
X137325100Y-101955600D02*
X136944100Y-101955600D01*
X136817100Y-101828600D02*
X136944100Y-101955600D01*
X137325100Y-99669600D02*
X136944100Y-99669600D01*
X136817100Y-99796600D02*
X136944100Y-99669600D01*
X131991100Y-101828600D02*
X131864100Y-101955600D01*
X131991100Y-101828600D02*
X136817100Y-101828600D01*
X131991100Y-99796600D02*
X131864100Y-99669600D01*
X131991100Y-99796600D02*
X136817100Y-99796600D01*
X131483100Y-101955600D02*
X131864100Y-101955600D01*
X131483100Y-99669600D02*
X131864100Y-99669600D01*
X131229100Y-99923600D02*
X131229100Y-101701600D01*
D17*
G36*
X131229100Y-100507800D02*
G01*
X130365500Y-100507800D01*
X130365500Y-101117400D01*
X131229100Y-101117400D01*
X131229100Y-100507800D01*
G37*
G36*
X138442700Y-100507800D02*
G01*
X137579100Y-100507800D01*
X137579100Y-101117400D01*
X138442700Y-101117400D01*
X138442700Y-100507800D01*
G37*
D15*
X131229100Y-101701600D02*
G75*
G03*
X131483100Y-101955600I254000J0D01*
G01*
X131229100Y-99923600D02*
G75*
G02*
X131483100Y-99669600I254000J0D01*
G01*
X137325100Y-99669600D02*
G75*
G02*
X137579100Y-99923600I0J-254000D01*
G01*
X137325100Y-101955600D02*
G75*
G03*
X137579100Y-101701600I0J254000D01*
G01*
D18*
%TO.C,RGB1*%
X131991100Y-80238600D02*
X131991100Y-82778600D01*
D12*
X131356099Y-80238599D02*
G75*
G03*
X131356100Y-82778600I-1905000J-1270001D01*
G01*
D18*
X131991099Y-80238599D02*
G75*
G03*
X131991100Y-82778600I-2540000J-1270001D01*
G01*
D15*
%TO.C,R1*%
X136690100Y-86207600D02*
X136690100Y-84429600D01*
X136944100Y-84175600D02*
X137325100Y-84175600D01*
X137452100Y-84302600D02*
X137325100Y-84175600D01*
X136944100Y-86461600D02*
X137325100Y-86461600D01*
X137452100Y-86334600D02*
X137325100Y-86461600D01*
X142278100Y-84302600D02*
X142405100Y-84175600D01*
X142278100Y-84302600D02*
X137452100Y-84302600D01*
X142278100Y-86334600D02*
X142405100Y-86461600D01*
X142278100Y-86334600D02*
X137452100Y-86334600D01*
X142786100Y-84175600D02*
X142405100Y-84175600D01*
X142786100Y-86461600D02*
X142405100Y-86461600D01*
X143040100Y-86207600D02*
X143040100Y-84429600D01*
D17*
G36*
X143040100Y-85623400D02*
G01*
X143903700Y-85623400D01*
X143903700Y-85013800D01*
X143040100Y-85013800D01*
X143040100Y-85623400D01*
G37*
G36*
X135826500Y-85623400D02*
G01*
X136690100Y-85623400D01*
X136690100Y-85013800D01*
X135826500Y-85013800D01*
X135826500Y-85623400D01*
G37*
D15*
X143040100Y-84429600D02*
G75*
G03*
X142786100Y-84175600I-254000J0D01*
G01*
X143040100Y-86207600D02*
G75*
G02*
X142786100Y-86461600I-254000J0D01*
G01*
X136944100Y-86461600D02*
G75*
G02*
X136690100Y-86207600I0J254000D01*
G01*
X136944100Y-84175600D02*
G75*
G03*
X136690100Y-84429600I0J-254000D01*
G01*
%TO.C,R2*%
X136690100Y-89001600D02*
X136690100Y-87223600D01*
X136944100Y-86969600D02*
X137325100Y-86969600D01*
X137452100Y-87096600D02*
X137325100Y-86969600D01*
X136944100Y-89255600D02*
X137325100Y-89255600D01*
X137452100Y-89128600D02*
X137325100Y-89255600D01*
X142278100Y-87096600D02*
X142405100Y-86969600D01*
X142278100Y-87096600D02*
X137452100Y-87096600D01*
X142278100Y-89128600D02*
X142405100Y-89255600D01*
X142278100Y-89128600D02*
X137452100Y-89128600D01*
X142786100Y-86969600D02*
X142405100Y-86969600D01*
X142786100Y-89255600D02*
X142405100Y-89255600D01*
X143040100Y-89001600D02*
X143040100Y-87223600D01*
D17*
G36*
X143040100Y-88417400D02*
G01*
X143903700Y-88417400D01*
X143903700Y-87807800D01*
X143040100Y-87807800D01*
X143040100Y-88417400D01*
G37*
G36*
X135826500Y-88417400D02*
G01*
X136690100Y-88417400D01*
X136690100Y-87807800D01*
X135826500Y-87807800D01*
X135826500Y-88417400D01*
G37*
D15*
X143040100Y-87223600D02*
G75*
G03*
X142786100Y-86969600I-254000J0D01*
G01*
X143040100Y-89001600D02*
G75*
G02*
X142786100Y-89255600I-254000J0D01*
G01*
X136944100Y-89255600D02*
G75*
G02*
X136690100Y-89001600I0J254000D01*
G01*
X136944100Y-86969600D02*
G75*
G03*
X136690100Y-87223600I0J-254000D01*
G01*
%TO.C,R3*%
X136690100Y-91668600D02*
X136690100Y-89890600D01*
X136944100Y-89636600D02*
X137325100Y-89636600D01*
X137452100Y-89763600D02*
X137325100Y-89636600D01*
X136944100Y-91922600D02*
X137325100Y-91922600D01*
X137452100Y-91795600D02*
X137325100Y-91922600D01*
X142278100Y-89763600D02*
X142405100Y-89636600D01*
X142278100Y-89763600D02*
X137452100Y-89763600D01*
X142278100Y-91795600D02*
X142405100Y-91922600D01*
X142278100Y-91795600D02*
X137452100Y-91795600D01*
X142786100Y-89636600D02*
X142405100Y-89636600D01*
X142786100Y-91922600D02*
X142405100Y-91922600D01*
X143040100Y-91668600D02*
X143040100Y-89890600D01*
D17*
G36*
X143040100Y-91084400D02*
G01*
X143903700Y-91084400D01*
X143903700Y-90474800D01*
X143040100Y-90474800D01*
X143040100Y-91084400D01*
G37*
G36*
X135826500Y-91084400D02*
G01*
X136690100Y-91084400D01*
X136690100Y-90474800D01*
X135826500Y-90474800D01*
X135826500Y-91084400D01*
G37*
D15*
X143040100Y-89890600D02*
G75*
G03*
X142786100Y-89636600I-254000J0D01*
G01*
X143040100Y-91668600D02*
G75*
G02*
X142786100Y-91922600I-254000J0D01*
G01*
X136944100Y-91922600D02*
G75*
G02*
X136690100Y-91668600I0J254000D01*
G01*
X136944100Y-89636600D02*
G75*
G03*
X136690100Y-89890600I0J-254000D01*
G01*
D18*
%TO.C,POT1*%
X138823100Y-129695600D02*
X129223100Y-129695600D01*
X129223100Y-129695600D02*
X129223100Y-118195600D01*
X129223100Y-118195600D02*
X138823100Y-118195600D01*
X138823100Y-118195600D02*
X138823100Y-129695600D01*
X136523100Y-124195600D02*
G75*
G03*
X136523100Y-124195600I-2500000J0D01*
G01*
D12*
%TO.C,HALL1*%
X122085100Y-130784600D02*
X122085100Y-125704600D01*
X122085100Y-125704600D02*
X123355100Y-125704600D01*
X123355100Y-125704600D02*
X124625100Y-126974600D01*
X124625100Y-126974600D02*
X124625100Y-129514600D01*
X124625100Y-129514600D02*
X123355100Y-130784600D01*
X123355100Y-130784600D02*
X122085100Y-130784600D01*
%TO.C,RELAY1*%
X165138100Y-89509600D02*
X165138100Y-102209600D01*
X165138100Y-102209600D02*
X157518100Y-102209600D01*
X157518100Y-102209600D02*
X157518100Y-89509600D01*
X157518100Y-89509600D02*
X165138100Y-89509600D01*
D15*
%TO.C,THERM1*%
X121450100Y-118719600D02*
X121450100Y-116179600D01*
X122720100Y-116179600D02*
X122720100Y-118719600D01*
X122085100Y-116179600D02*
X122085100Y-115671600D01*
X121450100Y-116179600D02*
X122085100Y-116179600D01*
X122085100Y-119227600D02*
X122085100Y-118719600D01*
X121450100Y-118719600D02*
X122085100Y-118719600D01*
X122085100Y-116179600D02*
X122720100Y-116179600D01*
X122085100Y-118719600D02*
X122720100Y-118719600D01*
%TO.C,R7*%
X131229100Y-110845600D02*
X131229100Y-109067600D01*
X131483100Y-108813600D02*
X131864100Y-108813600D01*
X131991100Y-108940600D02*
X131864100Y-108813600D01*
X131483100Y-111099600D02*
X131864100Y-111099600D01*
X131991100Y-110972600D02*
X131864100Y-111099600D01*
X136817100Y-108940600D02*
X136944100Y-108813600D01*
X136817100Y-108940600D02*
X131991100Y-108940600D01*
X136817100Y-110972600D02*
X136944100Y-111099600D01*
X136817100Y-110972600D02*
X131991100Y-110972600D01*
X137325100Y-108813600D02*
X136944100Y-108813600D01*
X137325100Y-111099600D02*
X136944100Y-111099600D01*
X137579100Y-110845600D02*
X137579100Y-109067600D01*
D17*
G36*
X137579100Y-110261400D02*
G01*
X138442700Y-110261400D01*
X138442700Y-109651800D01*
X137579100Y-109651800D01*
X137579100Y-110261400D01*
G37*
G36*
X130365500Y-110261400D02*
G01*
X131229100Y-110261400D01*
X131229100Y-109651800D01*
X130365500Y-109651800D01*
X130365500Y-110261400D01*
G37*
D15*
X137579100Y-109067600D02*
G75*
G03*
X137325100Y-108813600I-254000J0D01*
G01*
X137579100Y-110845600D02*
G75*
G02*
X137325100Y-111099600I-254000J0D01*
G01*
X131483100Y-111099600D02*
G75*
G02*
X131229100Y-110845600I0J254000D01*
G01*
X131483100Y-108813600D02*
G75*
G03*
X131229100Y-109067600I0J-254000D01*
G01*
D19*
%TO.C,PHOTO1*%
X121839100Y-106170600D02*
X123339100Y-106170600D01*
X123339100Y-106670600D02*
X121839100Y-106670600D01*
X121839100Y-107170600D02*
X122589100Y-107170600D01*
X122589100Y-107670600D02*
X122089100Y-107670600D01*
X122089100Y-108170600D02*
X122589100Y-108170600D01*
X122589100Y-108670600D02*
X121339100Y-108670600D01*
X121339100Y-109170600D02*
X123089100Y-109170600D01*
X123089100Y-109670600D02*
X121839100Y-109670600D01*
X121839100Y-105670600D02*
X122839100Y-105670600D01*
D20*
X125139100Y-107670600D02*
G75*
G03*
X125139100Y-107670600I-2800000J0D01*
G01*
X124689100Y-107670600D02*
G75*
G03*
X124689100Y-107670600I-2350000J0D01*
G01*
D19*
X123089100Y-105420600D02*
G75*
G02*
X122839100Y-105670600I-250000J0D01*
G01*
X121589100Y-109920600D02*
G75*
G02*
X121839100Y-109670600I250000J0D01*
G01*
X123089100Y-109670600D02*
G75*
G03*
X123089100Y-109170600I0J250000D01*
G01*
X121339100Y-109170600D02*
G75*
G02*
X121339100Y-108670600I0J250000D01*
G01*
X122589098Y-108670600D02*
G75*
G03*
X122589100Y-108170600I1J250000D01*
G01*
X122089102Y-108170600D02*
G75*
G02*
X122089100Y-107670600I-1J250000D01*
G01*
X122589098Y-107670600D02*
G75*
G03*
X122589100Y-107170600I1J250000D01*
G01*
X121839100Y-107170600D02*
G75*
G02*
X121839100Y-106670600I0J250000D01*
G01*
X123339100Y-106670600D02*
G75*
G03*
X123339100Y-106170600I0J250000D01*
G01*
X121839100Y-106170600D02*
G75*
G02*
X121839100Y-105670600I0J250000D01*
G01*
D15*
%TO.C,R8*%
X131229100Y-107797600D02*
X131229100Y-106019600D01*
X131483100Y-105765600D02*
X131864100Y-105765600D01*
X131991100Y-105892600D02*
X131864100Y-105765600D01*
X131483100Y-108051600D02*
X131864100Y-108051600D01*
X131991100Y-107924600D02*
X131864100Y-108051600D01*
X136817100Y-105892600D02*
X136944100Y-105765600D01*
X136817100Y-105892600D02*
X131991100Y-105892600D01*
X136817100Y-107924600D02*
X136944100Y-108051600D01*
X136817100Y-107924600D02*
X131991100Y-107924600D01*
X137325100Y-105765600D02*
X136944100Y-105765600D01*
X137325100Y-108051600D02*
X136944100Y-108051600D01*
X137579100Y-107797600D02*
X137579100Y-106019600D01*
D17*
G36*
X137579100Y-107213400D02*
G01*
X138442700Y-107213400D01*
X138442700Y-106603800D01*
X137579100Y-106603800D01*
X137579100Y-107213400D01*
G37*
G36*
X130365500Y-107213400D02*
G01*
X131229100Y-107213400D01*
X131229100Y-106603800D01*
X130365500Y-106603800D01*
X130365500Y-107213400D01*
G37*
D15*
X137579100Y-106019600D02*
G75*
G03*
X137325100Y-105765600I-254000J0D01*
G01*
X137579100Y-107797600D02*
G75*
G02*
X137325100Y-108051600I-254000J0D01*
G01*
X131483100Y-108051600D02*
G75*
G02*
X131229100Y-107797600I0J254000D01*
G01*
X131483100Y-105765600D02*
G75*
G03*
X131229100Y-106019600I0J-254000D01*
G01*
D12*
%TO.C,T1*%
X150978600Y-91287600D02*
X155167600Y-91287600D01*
X150418200Y-89890600D02*
X150819400Y-89890600D01*
X152786800Y-89890600D02*
X153359400Y-89890600D01*
X155326800Y-89890600D02*
X155728000Y-89890600D01*
X155167600Y-91287599D02*
G75*
G03*
X153859400Y-87088200I-2094500J1650985D01*
G01*
X152286801Y-87088101D02*
G75*
G03*
X150418200Y-89890600I786299J-2548480D01*
G01*
X150418200Y-89890600D02*
G75*
G03*
X150978500Y-91287600I2654900J253950D01*
G01*
D15*
%TO.C,D1*%
X156756100Y-102971600D02*
X160820100Y-102971600D01*
X156756100Y-102971600D02*
X156756100Y-105511600D01*
X160820100Y-105511600D02*
X156756100Y-105511600D01*
X160820100Y-105511600D02*
X160820100Y-102971600D01*
X159423100Y-104241600D02*
X158788100Y-104241600D01*
X157772100Y-104876600D02*
X157772100Y-103606600D01*
X157772100Y-103606600D02*
X158788100Y-104241600D01*
X158788100Y-104241600D02*
X157264100Y-104241600D01*
X158788100Y-104241600D02*
X157772100Y-104876600D01*
X158788100Y-104876600D02*
X158788100Y-104241600D01*
X158788100Y-104241600D02*
X158788100Y-103606600D01*
D17*
G36*
X160439100Y-102971600D02*
G01*
X159931100Y-102971600D01*
X159931100Y-105511600D01*
X160439100Y-105511600D01*
X160439100Y-102971600D01*
G37*
G36*
X156756100Y-103860600D02*
G01*
X154851100Y-103860600D01*
X154851100Y-104622600D01*
X156756100Y-104622600D01*
X156756100Y-103860600D01*
G37*
G36*
X162725100Y-103860600D02*
G01*
X160820100Y-103860600D01*
X160820100Y-104622600D01*
X162725100Y-104622600D01*
X162725100Y-103860600D01*
G37*
D15*
%TO.C,X1*%
X166134100Y-89513600D02*
X166134100Y-104499600D01*
X175329100Y-104499600D02*
X175126100Y-104499600D01*
X175329100Y-104499600D02*
X175329100Y-89513600D01*
X166134100Y-89513600D02*
X168522100Y-89513600D01*
X168522100Y-89513600D02*
X168522100Y-91113600D01*
X168522100Y-92891600D02*
X168522100Y-96117600D01*
X168522100Y-97895600D02*
X168522100Y-101121600D01*
X168522100Y-102899600D02*
X168522100Y-104499600D01*
X168522100Y-89513600D02*
X175126100Y-89513600D01*
X168522100Y-104499600D02*
X166134100Y-104499600D01*
X175126100Y-104499600D02*
X175126100Y-89513600D01*
X175126100Y-104499600D02*
X168522100Y-104499600D01*
X175126100Y-89513600D02*
X175329100Y-89513600D01*
X174312900Y-92002600D02*
G75*
G03*
X174312900Y-92002600I-508000J0D01*
G01*
X174312900Y-102010200D02*
G75*
G03*
X174312900Y-102010200I-508000J0D01*
G01*
X174312900Y-97006400D02*
G75*
G03*
X174312900Y-97006400I-508000J0D01*
G01*
%TO.C,R9*%
X167297100Y-85826600D02*
X167297100Y-87604600D01*
X167043100Y-87858600D02*
X166662100Y-87858600D01*
X166535100Y-87731600D02*
X166662100Y-87858600D01*
X167043100Y-85572600D02*
X166662100Y-85572600D01*
X166535100Y-85699600D02*
X166662100Y-85572600D01*
X161709100Y-87731600D02*
X161582100Y-87858600D01*
X161709100Y-87731600D02*
X166535100Y-87731600D01*
X161709100Y-85699600D02*
X161582100Y-85572600D01*
X161709100Y-85699600D02*
X166535100Y-85699600D01*
X161201100Y-87858600D02*
X161582100Y-87858600D01*
X161201100Y-85572600D02*
X161582100Y-85572600D01*
X160947100Y-85826600D02*
X160947100Y-87604600D01*
D17*
G36*
X160947100Y-86410800D02*
G01*
X160083500Y-86410800D01*
X160083500Y-87020400D01*
X160947100Y-87020400D01*
X160947100Y-86410800D01*
G37*
G36*
X168160700Y-86410800D02*
G01*
X167297100Y-86410800D01*
X167297100Y-87020400D01*
X168160700Y-87020400D01*
X168160700Y-86410800D01*
G37*
D15*
X160947100Y-87604600D02*
G75*
G03*
X161201100Y-87858600I254000J0D01*
G01*
X160947100Y-85826600D02*
G75*
G02*
X161201100Y-85572600I254000J0D01*
G01*
X167043100Y-85572600D02*
G75*
G02*
X167297100Y-85826600I0J-254000D01*
G01*
X167043100Y-87858600D02*
G75*
G03*
X167297100Y-87604600I0J254000D01*
G01*
%TO.C,R10*%
X131229100Y-104749600D02*
X131229100Y-102971600D01*
X131483100Y-102717600D02*
X131864100Y-102717600D01*
X131991100Y-102844600D02*
X131864100Y-102717600D01*
X131483100Y-105003600D02*
X131864100Y-105003600D01*
X131991100Y-104876600D02*
X131864100Y-105003600D01*
X136817100Y-102844600D02*
X136944100Y-102717600D01*
X136817100Y-102844600D02*
X131991100Y-102844600D01*
X136817100Y-104876600D02*
X136944100Y-105003600D01*
X136817100Y-104876600D02*
X131991100Y-104876600D01*
X137325100Y-102717600D02*
X136944100Y-102717600D01*
X137325100Y-105003600D02*
X136944100Y-105003600D01*
X137579100Y-104749600D02*
X137579100Y-102971600D01*
D17*
G36*
X137579100Y-104165400D02*
G01*
X138442700Y-104165400D01*
X138442700Y-103555800D01*
X137579100Y-103555800D01*
X137579100Y-104165400D01*
G37*
G36*
X130365500Y-104165400D02*
G01*
X131229100Y-104165400D01*
X131229100Y-103555800D01*
X130365500Y-103555800D01*
X130365500Y-104165400D01*
G37*
D15*
X137579100Y-102971600D02*
G75*
G03*
X137325100Y-102717600I-254000J0D01*
G01*
X137579100Y-104749600D02*
G75*
G02*
X137325100Y-105003600I-254000J0D01*
G01*
X131483100Y-105003600D02*
G75*
G02*
X131229100Y-104749600I0J254000D01*
G01*
X131483100Y-102717600D02*
G75*
G03*
X131229100Y-102971600I0J-254000D01*
G01*
%TO.C,U$1*%
X168109900Y-109397800D02*
X167728900Y-110261400D01*
X167728900Y-110261400D02*
X167551100Y-110159800D01*
X167551100Y-110159800D02*
X167093900Y-110464600D01*
X167093900Y-110464600D02*
X166738300Y-110109000D01*
X166738300Y-110109000D02*
X167043100Y-109651800D01*
X166839900Y-109143800D02*
X166281100Y-109042200D01*
X166281100Y-109042200D02*
X166281100Y-108534200D01*
X166281100Y-108534200D02*
X166865300Y-108432600D01*
X167068500Y-107950000D02*
X166738300Y-107467400D01*
X166738300Y-107467400D02*
X167093900Y-107111800D01*
X167093900Y-107111800D02*
X167576500Y-107442000D01*
X168033700Y-107264200D02*
X168160700Y-106654600D01*
X168160700Y-106654600D02*
X168643300Y-106654600D01*
X168643300Y-106654600D02*
X168770300Y-107264200D01*
X169227500Y-107442000D02*
X169735500Y-107111800D01*
X169735500Y-107111800D02*
X170091100Y-107467400D01*
X170091100Y-107467400D02*
X169735500Y-107950000D01*
X169964100Y-108432600D02*
X170522900Y-108534200D01*
X170522900Y-108534200D02*
X170522900Y-109042200D01*
X170522900Y-109042200D02*
X169964100Y-109143800D01*
X169760900Y-109651800D02*
X170091100Y-110109000D01*
X170091100Y-110109000D02*
X169735500Y-110464600D01*
X169735500Y-110464600D02*
X169278300Y-110159800D01*
X169278300Y-110159800D02*
X169075100Y-110261400D01*
X169075100Y-110261400D02*
X168719500Y-109397800D01*
D17*
G36*
X167678100Y-110083600D02*
G01*
X167551100Y-110083600D01*
X167170100Y-110337600D01*
X166916100Y-110083600D01*
X167170100Y-109702600D01*
X166916100Y-109067600D01*
X166408100Y-108940600D01*
X166408100Y-108559600D01*
X166916100Y-108559600D01*
X167170100Y-107924600D01*
X166789100Y-107416600D01*
X167170100Y-107162600D01*
X167551100Y-107543600D01*
X168059100Y-107289600D01*
X168186100Y-106781600D01*
X168567100Y-106781600D01*
X168694100Y-107289600D01*
X169202100Y-107543600D01*
X169710100Y-107162600D01*
X169964100Y-107416600D01*
X169710100Y-107924600D01*
X169964100Y-108559600D01*
X170472100Y-108559600D01*
X170472100Y-108940600D01*
X169837100Y-109067600D01*
X169710100Y-109702600D01*
X169964100Y-110083600D01*
X169710100Y-110337600D01*
X169329100Y-110083600D01*
X169075100Y-110210600D01*
X168821100Y-109448600D01*
X169202100Y-108940600D01*
X169075100Y-108305600D01*
X168567100Y-108051600D01*
X168059100Y-108051600D01*
X167678100Y-108432600D01*
X167678100Y-109194600D01*
X168059100Y-109448600D01*
X167678100Y-110083600D01*
G37*
D15*
X169758900Y-109646700D02*
G75*
G03*
X169961600Y-109141800I-1351301J835639D01*
G01*
X169968700Y-108430600D02*
G75*
G03*
X169748200Y-107954100I-1477500J-394444D01*
G01*
X169225500Y-107442000D02*
G75*
G03*
X168770300Y-107260600I-807188J-1363701D01*
G01*
X168030700Y-107271300D02*
G75*
G03*
X167582600Y-107452700I364720J-1545101D01*
G01*
X167067000Y-107950500D02*
G75*
G03*
X166860700Y-108427000I1340499J-863277D01*
G01*
X166846500Y-109184400D02*
G75*
G03*
X167049200Y-109639600I1507799J398690D01*
G01*
X168719500Y-109397800D02*
G75*
G03*
X168109900Y-109397800I-304800J622300D01*
G01*
D18*
%TO.C,PIEZO1*%
X155109100Y-97764600D02*
G75*
G03*
X155109100Y-97764600I-6100000J0D01*
G01*
X149809100Y-97764600D02*
G75*
G03*
X149809100Y-97764600I-800000J0D01*
G01*
D15*
%TO.C,SERVO1*%
X176949100Y-113258600D02*
X174917100Y-113258600D01*
X174663100Y-105892600D02*
X174663100Y-107924600D01*
X174917100Y-108178600D02*
X174663100Y-107924600D01*
X177203100Y-105892600D02*
X177203100Y-107924600D01*
X176949100Y-108178600D02*
X177203100Y-107924600D01*
X177203100Y-105892600D02*
X176949100Y-105638600D01*
X174663100Y-105892600D02*
X174917100Y-105638600D01*
X174917100Y-105638600D02*
X176949100Y-105638600D01*
X174663100Y-108432600D02*
X174917100Y-108178600D01*
X174663100Y-108432600D02*
X174663100Y-110464600D01*
X174917100Y-110718600D02*
X174663100Y-110464600D01*
X174663100Y-110972600D02*
X174917100Y-110718600D01*
X174917100Y-113258600D02*
X174663100Y-113004600D01*
X174663100Y-110972600D02*
X174663100Y-113004600D01*
X177203100Y-108432600D02*
X176949100Y-108178600D01*
X176949100Y-110718600D02*
X177203100Y-110464600D01*
X177203100Y-110972600D02*
X176949100Y-110718600D01*
X176949100Y-113258600D02*
X177203100Y-113004600D01*
X177203100Y-108432600D02*
X177203100Y-110464600D01*
X177203100Y-110972600D02*
X177203100Y-113004600D01*
%TO.C,BUTTON1*%
D21*
X124824671Y-95218748D02*
X124882123Y-95046391D01*
X124939576Y-94988939D01*
X125054480Y-94931487D01*
X125226838Y-94931487D01*
X125341742Y-94988939D01*
X125399195Y-95046391D01*
X125456647Y-95161296D01*
X125456647Y-95620915D01*
X124250147Y-95620915D01*
X124250147Y-95218748D01*
X124307600Y-95103844D01*
X124365052Y-95046391D01*
X124479957Y-94988939D01*
X124594861Y-94988939D01*
X124709766Y-95046391D01*
X124767219Y-95103844D01*
X124824671Y-95218748D01*
X124824671Y-95620915D01*
X124250147Y-94414415D02*
X125226838Y-94414415D01*
X125341742Y-94356963D01*
X125399195Y-94299510D01*
X125456647Y-94184606D01*
X125456647Y-93954796D01*
X125399195Y-93839891D01*
X125341742Y-93782439D01*
X125226838Y-93724987D01*
X124250147Y-93724987D01*
X124250147Y-93322820D02*
X124250147Y-92633391D01*
X125456647Y-92978106D02*
X124250147Y-92978106D01*
X124250147Y-92403582D02*
X124250147Y-91714153D01*
X125456647Y-92058867D02*
X124250147Y-92058867D01*
X124250147Y-91082177D02*
X124250147Y-90852367D01*
X124307600Y-90737463D01*
X124422504Y-90622558D01*
X124652314Y-90565106D01*
X125054480Y-90565106D01*
X125284290Y-90622558D01*
X125399195Y-90737463D01*
X125456647Y-90852367D01*
X125456647Y-91082177D01*
X125399195Y-91197082D01*
X125284290Y-91311987D01*
X125054480Y-91369439D01*
X124652314Y-91369439D01*
X124422504Y-91311987D01*
X124307600Y-91197082D01*
X124250147Y-91082177D01*
X125456647Y-90048034D02*
X124250147Y-90048034D01*
X125456647Y-89358606D01*
X124250147Y-89358606D01*
X125456647Y-88152106D02*
X125456647Y-88841534D01*
X125456647Y-88496820D02*
X124250147Y-88496820D01*
X124422504Y-88611725D01*
X124537409Y-88726629D01*
X124594861Y-88841534D01*
%TO.C,R6*%
X127077212Y-101517147D02*
X126675046Y-100942623D01*
X126387784Y-101517147D02*
X126387784Y-100310647D01*
X126847403Y-100310647D01*
X126962308Y-100368100D01*
X127019760Y-100425552D01*
X127077212Y-100540457D01*
X127077212Y-100712814D01*
X127019760Y-100827719D01*
X126962308Y-100885171D01*
X126847403Y-100942623D01*
X126387784Y-100942623D01*
X128111355Y-100310647D02*
X127881546Y-100310647D01*
X127766641Y-100368100D01*
X127709189Y-100425552D01*
X127594284Y-100597909D01*
X127536832Y-100827719D01*
X127536832Y-101287338D01*
X127594284Y-101402242D01*
X127651736Y-101459695D01*
X127766641Y-101517147D01*
X127996451Y-101517147D01*
X128111355Y-101459695D01*
X128168808Y-101402242D01*
X128226260Y-101287338D01*
X128226260Y-101000076D01*
X128168808Y-100885171D01*
X128111355Y-100827719D01*
X127996451Y-100770266D01*
X127766641Y-100770266D01*
X127651736Y-100827719D01*
X127594284Y-100885171D01*
X127536832Y-101000076D01*
%TO.C,RGB1*%
X125075647Y-82739487D02*
X124501123Y-83141653D01*
X125075647Y-83428915D02*
X123869147Y-83428915D01*
X123869147Y-82969296D01*
X123926600Y-82854391D01*
X123984052Y-82796939D01*
X124098957Y-82739487D01*
X124271314Y-82739487D01*
X124386219Y-82796939D01*
X124443671Y-82854391D01*
X124501123Y-82969296D01*
X124501123Y-83428915D01*
X123926600Y-81590439D02*
X123869147Y-81705344D01*
X123869147Y-81877701D01*
X123926600Y-82050058D01*
X124041504Y-82164963D01*
X124156409Y-82222415D01*
X124386219Y-82279867D01*
X124558576Y-82279867D01*
X124788385Y-82222415D01*
X124903290Y-82164963D01*
X125018195Y-82050058D01*
X125075647Y-81877701D01*
X125075647Y-81762796D01*
X125018195Y-81590439D01*
X124960742Y-81532987D01*
X124558576Y-81532987D01*
X124558576Y-81762796D01*
X124443671Y-80613748D02*
X124501123Y-80441391D01*
X124558576Y-80383939D01*
X124673480Y-80326487D01*
X124845838Y-80326487D01*
X124960742Y-80383939D01*
X125018195Y-80441391D01*
X125075647Y-80556296D01*
X125075647Y-81015915D01*
X123869147Y-81015915D01*
X123869147Y-80613748D01*
X123926600Y-80498844D01*
X123984052Y-80441391D01*
X124098957Y-80383939D01*
X124213861Y-80383939D01*
X124328766Y-80441391D01*
X124386219Y-80498844D01*
X124443671Y-80613748D01*
X124443671Y-81015915D01*
X125075647Y-79177439D02*
X125075647Y-79866867D01*
X125075647Y-79522153D02*
X123869147Y-79522153D01*
X124041504Y-79637058D01*
X124156409Y-79751963D01*
X124213861Y-79866867D01*
%TO.C,R1*%
X147016212Y-85515147D02*
X146614046Y-84940623D01*
X146326784Y-85515147D02*
X146326784Y-84308647D01*
X146786403Y-84308647D01*
X146901308Y-84366100D01*
X146958760Y-84423552D01*
X147016212Y-84538457D01*
X147016212Y-84710814D01*
X146958760Y-84825719D01*
X146901308Y-84883171D01*
X146786403Y-84940623D01*
X146326784Y-84940623D01*
X148165260Y-85515147D02*
X147475832Y-85515147D01*
X147820546Y-85515147D02*
X147820546Y-84308647D01*
X147705641Y-84481004D01*
X147590736Y-84595909D01*
X147475832Y-84653361D01*
%TO.C,R2*%
X147016212Y-88309147D02*
X146614046Y-87734623D01*
X146326784Y-88309147D02*
X146326784Y-87102647D01*
X146786403Y-87102647D01*
X146901308Y-87160100D01*
X146958760Y-87217552D01*
X147016212Y-87332457D01*
X147016212Y-87504814D01*
X146958760Y-87619719D01*
X146901308Y-87677171D01*
X146786403Y-87734623D01*
X146326784Y-87734623D01*
X147475832Y-87217552D02*
X147533284Y-87160100D01*
X147648189Y-87102647D01*
X147935451Y-87102647D01*
X148050355Y-87160100D01*
X148107808Y-87217552D01*
X148165260Y-87332457D01*
X148165260Y-87447361D01*
X148107808Y-87619719D01*
X147418379Y-88309147D01*
X148165260Y-88309147D01*
%TO.C,R3*%
X147016212Y-90976147D02*
X146614046Y-90401623D01*
X146326784Y-90976147D02*
X146326784Y-89769647D01*
X146786403Y-89769647D01*
X146901308Y-89827100D01*
X146958760Y-89884552D01*
X147016212Y-89999457D01*
X147016212Y-90171814D01*
X146958760Y-90286719D01*
X146901308Y-90344171D01*
X146786403Y-90401623D01*
X146326784Y-90401623D01*
X147418379Y-89769647D02*
X148165260Y-89769647D01*
X147763093Y-90229266D01*
X147935451Y-90229266D01*
X148050355Y-90286719D01*
X148107808Y-90344171D01*
X148165260Y-90459076D01*
X148165260Y-90746338D01*
X148107808Y-90861242D01*
X148050355Y-90918695D01*
X147935451Y-90976147D01*
X147590736Y-90976147D01*
X147475832Y-90918695D01*
X147418379Y-90861242D01*
%TO.C,POT1*%
X127332784Y-117590147D02*
X127332784Y-116383647D01*
X127792403Y-116383647D01*
X127907308Y-116441100D01*
X127964760Y-116498552D01*
X128022212Y-116613457D01*
X128022212Y-116785814D01*
X127964760Y-116900719D01*
X127907308Y-116958171D01*
X127792403Y-117015623D01*
X127332784Y-117015623D01*
X128769093Y-116383647D02*
X128998903Y-116383647D01*
X129113808Y-116441100D01*
X129228712Y-116556004D01*
X129286165Y-116785814D01*
X129286165Y-117187980D01*
X129228712Y-117417790D01*
X129113808Y-117532695D01*
X128998903Y-117590147D01*
X128769093Y-117590147D01*
X128654189Y-117532695D01*
X128539284Y-117417790D01*
X128481832Y-117187980D01*
X128481832Y-116785814D01*
X128539284Y-116556004D01*
X128654189Y-116441100D01*
X128769093Y-116383647D01*
X129630879Y-116383647D02*
X130320308Y-116383647D01*
X129975593Y-117590147D02*
X129975593Y-116383647D01*
X131354451Y-117590147D02*
X130665022Y-117590147D01*
X131009736Y-117590147D02*
X131009736Y-116383647D01*
X130894832Y-116556004D01*
X130779927Y-116670909D01*
X130665022Y-116728361D01*
%TO.C,HALL1*%
D22*
X120249647Y-125862600D02*
X119043147Y-125862600D01*
X119617671Y-125862600D02*
X119617671Y-125173171D01*
X120249647Y-125173171D02*
X119043147Y-125173171D01*
X119904933Y-124656100D02*
X119904933Y-124081576D01*
X120249647Y-124771004D02*
X119043147Y-124368838D01*
X120249647Y-123966671D01*
X120249647Y-122989981D02*
X120249647Y-123564504D01*
X119043147Y-123564504D01*
X120249647Y-122013290D02*
X120249647Y-122587814D01*
X119043147Y-122587814D01*
X120249647Y-120979147D02*
X120249647Y-121668576D01*
X120249647Y-121323862D02*
X119043147Y-121323862D01*
X119215504Y-121438766D01*
X119330409Y-121553671D01*
X119387861Y-121668576D01*
%TO.C,RELAY1*%
D21*
X155936647Y-92010487D02*
X155362123Y-92412653D01*
X155936647Y-92699915D02*
X154730147Y-92699915D01*
X154730147Y-92240296D01*
X154787600Y-92125391D01*
X154845052Y-92067939D01*
X154959957Y-92010487D01*
X155132314Y-92010487D01*
X155247219Y-92067939D01*
X155304671Y-92125391D01*
X155362123Y-92240296D01*
X155362123Y-92699915D01*
X155304671Y-91493415D02*
X155304671Y-91091248D01*
X155936647Y-90918891D02*
X155936647Y-91493415D01*
X154730147Y-91493415D01*
X154730147Y-90918891D01*
X155936647Y-89827296D02*
X155936647Y-90401820D01*
X154730147Y-90401820D01*
X155591933Y-89482582D02*
X155591933Y-88908058D01*
X155936647Y-89597487D02*
X154730147Y-89195320D01*
X155936647Y-88793153D01*
X155362123Y-88161177D02*
X155936647Y-88161177D01*
X154730147Y-88563344D02*
X155362123Y-88161177D01*
X154730147Y-87759010D01*
X155936647Y-86724867D02*
X155936647Y-87414296D01*
X155936647Y-87069582D02*
X154730147Y-87069582D01*
X154902504Y-87184487D01*
X155017409Y-87299391D01*
X155074861Y-87414296D01*
%TO.C,THERM1*%
X123361147Y-120304272D02*
X123361147Y-119614844D01*
X124567647Y-119959558D02*
X123361147Y-119959558D01*
X124567647Y-119212677D02*
X123361147Y-119212677D01*
X123935671Y-119212677D02*
X123935671Y-118523248D01*
X124567647Y-118523248D02*
X123361147Y-118523248D01*
X123935671Y-117948725D02*
X123935671Y-117546558D01*
X124567647Y-117374201D02*
X124567647Y-117948725D01*
X123361147Y-117948725D01*
X123361147Y-117374201D01*
X124567647Y-116167701D02*
X123993123Y-116569867D01*
X124567647Y-116857129D02*
X123361147Y-116857129D01*
X123361147Y-116397510D01*
X123418600Y-116282606D01*
X123476052Y-116225153D01*
X123590957Y-116167701D01*
X123763314Y-116167701D01*
X123878219Y-116225153D01*
X123935671Y-116282606D01*
X123993123Y-116397510D01*
X123993123Y-116857129D01*
X124567647Y-115650629D02*
X123361147Y-115650629D01*
X124222933Y-115248463D01*
X123361147Y-114846296D01*
X124567647Y-114846296D01*
X124567647Y-113639796D02*
X124567647Y-114329225D01*
X124567647Y-113984510D02*
X123361147Y-113984510D01*
X123533504Y-114099415D01*
X123648409Y-114214320D01*
X123705861Y-114329225D01*
%TO.C,R7*%
X127331212Y-110407147D02*
X126929046Y-109832623D01*
X126641784Y-110407147D02*
X126641784Y-109200647D01*
X127101403Y-109200647D01*
X127216308Y-109258100D01*
X127273760Y-109315552D01*
X127331212Y-109430457D01*
X127331212Y-109602814D01*
X127273760Y-109717719D01*
X127216308Y-109775171D01*
X127101403Y-109832623D01*
X126641784Y-109832623D01*
X127733379Y-109200647D02*
X128537712Y-109200647D01*
X128020641Y-110407147D01*
%TO.C,PHOTO1*%
X119957547Y-104409315D02*
X118751047Y-104409315D01*
X118751047Y-103949696D01*
X118808500Y-103834791D01*
X118865952Y-103777339D01*
X118980857Y-103719887D01*
X119153214Y-103719887D01*
X119268119Y-103777339D01*
X119325571Y-103834791D01*
X119383023Y-103949696D01*
X119383023Y-104409315D01*
X119957547Y-103202815D02*
X118751047Y-103202815D01*
X119325571Y-103202815D02*
X119325571Y-102513387D01*
X119957547Y-102513387D02*
X118751047Y-102513387D01*
X118751047Y-101709053D02*
X118751047Y-101479244D01*
X118808500Y-101364339D01*
X118923404Y-101249434D01*
X119153214Y-101191982D01*
X119555380Y-101191982D01*
X119785190Y-101249434D01*
X119900095Y-101364339D01*
X119957547Y-101479244D01*
X119957547Y-101709053D01*
X119900095Y-101823958D01*
X119785190Y-101938863D01*
X119555380Y-101996315D01*
X119153214Y-101996315D01*
X118923404Y-101938863D01*
X118808500Y-101823958D01*
X118751047Y-101709053D01*
X118751047Y-100847267D02*
X118751047Y-100157839D01*
X119957547Y-100502553D02*
X118751047Y-100502553D01*
X118751047Y-99525863D02*
X118751047Y-99296053D01*
X118808500Y-99181148D01*
X118923404Y-99066244D01*
X119153214Y-99008791D01*
X119555380Y-99008791D01*
X119785190Y-99066244D01*
X119900095Y-99181148D01*
X119957547Y-99296053D01*
X119957547Y-99525863D01*
X119900095Y-99640767D01*
X119785190Y-99755672D01*
X119555380Y-99813125D01*
X119153214Y-99813125D01*
X118923404Y-99755672D01*
X118808500Y-99640767D01*
X118751047Y-99525863D01*
X119957547Y-97859744D02*
X119957547Y-98549172D01*
X119957547Y-98204458D02*
X118751047Y-98204458D01*
X118923404Y-98319363D01*
X119038309Y-98434267D01*
X119095761Y-98549172D01*
%TO.C,R8*%
X127331212Y-107359147D02*
X126929046Y-106784623D01*
X126641784Y-107359147D02*
X126641784Y-106152647D01*
X127101403Y-106152647D01*
X127216308Y-106210100D01*
X127273760Y-106267552D01*
X127331212Y-106382457D01*
X127331212Y-106554814D01*
X127273760Y-106669719D01*
X127216308Y-106727171D01*
X127101403Y-106784623D01*
X126641784Y-106784623D01*
X128020641Y-106669719D02*
X127905736Y-106612266D01*
X127848284Y-106554814D01*
X127790832Y-106439909D01*
X127790832Y-106382457D01*
X127848284Y-106267552D01*
X127905736Y-106210100D01*
X128020641Y-106152647D01*
X128250451Y-106152647D01*
X128365355Y-106210100D01*
X128422808Y-106267552D01*
X128480260Y-106382457D01*
X128480260Y-106439909D01*
X128422808Y-106554814D01*
X128365355Y-106612266D01*
X128250451Y-106669719D01*
X128020641Y-106669719D01*
X127905736Y-106727171D01*
X127848284Y-106784623D01*
X127790832Y-106899528D01*
X127790832Y-107129338D01*
X127848284Y-107244242D01*
X127905736Y-107301695D01*
X128020641Y-107359147D01*
X128250451Y-107359147D01*
X128365355Y-107301695D01*
X128422808Y-107244242D01*
X128480260Y-107129338D01*
X128480260Y-106899528D01*
X128422808Y-106784623D01*
X128365355Y-106727171D01*
X128250451Y-106669719D01*
%TO.C,T1*%
X153647427Y-91547647D02*
X154336855Y-91547647D01*
X153992141Y-92754147D02*
X153992141Y-91547647D01*
X155370998Y-92754147D02*
X154681570Y-92754147D01*
X155026284Y-92754147D02*
X155026284Y-91547647D01*
X154911379Y-91720004D01*
X154796474Y-91834909D01*
X154681570Y-91892361D01*
%TO.C,D1*%
X156613784Y-101771147D02*
X156613784Y-100564647D01*
X156901046Y-100564647D01*
X157073403Y-100622100D01*
X157188308Y-100737004D01*
X157245760Y-100851909D01*
X157303212Y-101081719D01*
X157303212Y-101254076D01*
X157245760Y-101483885D01*
X157188308Y-101598790D01*
X157073403Y-101713695D01*
X156901046Y-101771147D01*
X156613784Y-101771147D01*
X158452260Y-101771147D02*
X157762832Y-101771147D01*
X158107546Y-101771147D02*
X158107546Y-100564647D01*
X157992641Y-100737004D01*
X157877736Y-100851909D01*
X157762832Y-100909361D01*
%TO.C,X1*%
X173292079Y-87960847D02*
X174096412Y-89167347D01*
X174096412Y-87960847D02*
X173292079Y-89167347D01*
X175188008Y-89167347D02*
X174498579Y-89167347D01*
X174843293Y-89167347D02*
X174843293Y-87960847D01*
X174728389Y-88133204D01*
X174613484Y-88248109D01*
X174498579Y-88305561D01*
%TO.C,R9*%
X159081212Y-86150147D02*
X158679046Y-85575623D01*
X158391784Y-86150147D02*
X158391784Y-84943647D01*
X158851403Y-84943647D01*
X158966308Y-85001100D01*
X159023760Y-85058552D01*
X159081212Y-85173457D01*
X159081212Y-85345814D01*
X159023760Y-85460719D01*
X158966308Y-85518171D01*
X158851403Y-85575623D01*
X158391784Y-85575623D01*
X159655736Y-86150147D02*
X159885546Y-86150147D01*
X160000451Y-86092695D01*
X160057903Y-86035242D01*
X160172808Y-85862885D01*
X160230260Y-85633076D01*
X160230260Y-85173457D01*
X160172808Y-85058552D01*
X160115355Y-85001100D01*
X160000451Y-84943647D01*
X159770641Y-84943647D01*
X159655736Y-85001100D01*
X159598284Y-85058552D01*
X159540832Y-85173457D01*
X159540832Y-85460719D01*
X159598284Y-85575623D01*
X159655736Y-85633076D01*
X159770641Y-85690528D01*
X160000451Y-85690528D01*
X160115355Y-85633076D01*
X160172808Y-85575623D01*
X160230260Y-85460719D01*
%TO.C,R10*%
X126315212Y-104311147D02*
X125913046Y-103736623D01*
X125625784Y-104311147D02*
X125625784Y-103104647D01*
X126085403Y-103104647D01*
X126200308Y-103162100D01*
X126257760Y-103219552D01*
X126315212Y-103334457D01*
X126315212Y-103506814D01*
X126257760Y-103621719D01*
X126200308Y-103679171D01*
X126085403Y-103736623D01*
X125625784Y-103736623D01*
X127464260Y-104311147D02*
X126774832Y-104311147D01*
X127119546Y-104311147D02*
X127119546Y-103104647D01*
X127004641Y-103277004D01*
X126889736Y-103391909D01*
X126774832Y-103449361D01*
X128211141Y-103104647D02*
X128326046Y-103104647D01*
X128440951Y-103162100D01*
X128498403Y-103219552D01*
X128555855Y-103334457D01*
X128613308Y-103564266D01*
X128613308Y-103851528D01*
X128555855Y-104081338D01*
X128498403Y-104196242D01*
X128440951Y-104253695D01*
X128326046Y-104311147D01*
X128211141Y-104311147D01*
X128096236Y-104253695D01*
X128038784Y-104196242D01*
X127981332Y-104081338D01*
X127923879Y-103851528D01*
X127923879Y-103564266D01*
X127981332Y-103334457D01*
X128038784Y-103219552D01*
X128096236Y-103162100D01*
X128211141Y-103104647D01*
%TO.C,PIEZO1*%
X146762784Y-94047147D02*
X146762784Y-92840647D01*
X147222403Y-92840647D01*
X147337308Y-92898100D01*
X147394760Y-92955552D01*
X147452212Y-93070457D01*
X147452212Y-93242814D01*
X147394760Y-93357719D01*
X147337308Y-93415171D01*
X147222403Y-93472623D01*
X146762784Y-93472623D01*
X147969284Y-94047147D02*
X147969284Y-92840647D01*
X148543808Y-93415171D02*
X148945974Y-93415171D01*
X149118332Y-94047147D02*
X148543808Y-94047147D01*
X148543808Y-92840647D01*
X149118332Y-92840647D01*
X149520498Y-92840647D02*
X150324832Y-92840647D01*
X149520498Y-94047147D01*
X150324832Y-94047147D01*
X151014260Y-92840647D02*
X151244070Y-92840647D01*
X151358974Y-92898100D01*
X151473879Y-93013004D01*
X151531332Y-93242814D01*
X151531332Y-93644980D01*
X151473879Y-93874790D01*
X151358974Y-93989695D01*
X151244070Y-94047147D01*
X151014260Y-94047147D01*
X150899355Y-93989695D01*
X150784451Y-93874790D01*
X150726998Y-93644980D01*
X150726998Y-93242814D01*
X150784451Y-93013004D01*
X150899355Y-92898100D01*
X151014260Y-92840647D01*
X152680379Y-94047147D02*
X151990951Y-94047147D01*
X152335665Y-94047147D02*
X152335665Y-92840647D01*
X152220760Y-93013004D01*
X152105855Y-93127909D01*
X151990951Y-93185361D01*
%TO.C,SERVO1*%
D12*
X174167195Y-112692240D02*
X174224647Y-112519883D01*
X174224647Y-112232621D01*
X174167195Y-112117716D01*
X174109742Y-112060264D01*
X173994838Y-112002811D01*
X173879933Y-112002811D01*
X173765028Y-112060264D01*
X173707576Y-112117716D01*
X173650123Y-112232621D01*
X173592671Y-112462430D01*
X173535219Y-112577335D01*
X173477766Y-112634788D01*
X173362861Y-112692240D01*
X173247957Y-112692240D01*
X173133052Y-112634788D01*
X173075600Y-112577335D01*
X173018147Y-112462430D01*
X173018147Y-112175169D01*
X173075600Y-112002811D01*
X173592671Y-111485740D02*
X173592671Y-111083573D01*
X174224647Y-110911216D02*
X174224647Y-111485740D01*
X173018147Y-111485740D01*
X173018147Y-110911216D01*
X174224647Y-109704716D02*
X173650123Y-110106883D01*
X174224647Y-110394145D02*
X173018147Y-110394145D01*
X173018147Y-109934526D01*
X173075600Y-109819621D01*
X173133052Y-109762169D01*
X173247957Y-109704716D01*
X173420314Y-109704716D01*
X173535219Y-109762169D01*
X173592671Y-109819621D01*
X173650123Y-109934526D01*
X173650123Y-110394145D01*
X173018147Y-109360002D02*
X174224647Y-108957835D01*
X173018147Y-108555669D01*
X173018147Y-107923692D02*
X173018147Y-107693883D01*
X173075600Y-107578978D01*
X173190504Y-107464073D01*
X173420314Y-107406621D01*
X173822480Y-107406621D01*
X174052290Y-107464073D01*
X174167195Y-107578978D01*
X174224647Y-107693883D01*
X174224647Y-107923692D01*
X174167195Y-108038597D01*
X174052290Y-108153502D01*
X173822480Y-108210954D01*
X173420314Y-108210954D01*
X173190504Y-108153502D01*
X173075600Y-108038597D01*
X173018147Y-107923692D01*
X174224647Y-106257573D02*
X174224647Y-106947002D01*
X174224647Y-106602288D02*
X173018147Y-106602288D01*
X173190504Y-106717192D01*
X173305409Y-106832097D01*
X173362861Y-106947002D01*
D23*
X177614217Y-106696894D02*
X177614217Y-106114327D01*
X177972720Y-106428017D01*
X177972720Y-106293578D01*
X178017532Y-106203953D01*
X178062345Y-106159140D01*
X178151971Y-106114327D01*
X178376035Y-106114327D01*
X178465661Y-106159140D01*
X178510474Y-106203953D01*
X178555287Y-106293578D01*
X178555287Y-106562456D01*
X178510474Y-106652081D01*
X178465661Y-106696894D01*
X177703842Y-109192081D02*
X177659030Y-109147268D01*
X177614217Y-109057643D01*
X177614217Y-108833578D01*
X177659030Y-108743953D01*
X177703842Y-108699140D01*
X177793468Y-108654327D01*
X177883094Y-108654327D01*
X178017532Y-108699140D01*
X178555287Y-109236894D01*
X178555287Y-108654327D01*
X178555287Y-111194327D02*
X178555287Y-111732081D01*
X178555287Y-111463204D02*
X177614217Y-111463204D01*
X177748655Y-111552830D01*
X177838281Y-111642456D01*
X177883094Y-111732081D01*
%TD*%
M02*
