M48
; DRILL file {KiCad 5.1.9-73d0e3b20d~88~ubuntu20.04.1} date Sat Apr 10 10:54:43 2021
; FORMAT={-:-/ absolute / inch / decimal}
; #@! TF.CreationDate,2021-04-10T10:54:43+05:30
; #@! TF.GenerationSoftware,Kicad,Pcbnew,5.1.9-73d0e3b20d~88~ubuntu20.04.1
; #@! TF.FileFunction,Plated,1,2,PTH
FMAT,2
INCH
T1C0.0197
T2C0.0236
T3C0.0315
T4C0.0320
T5C0.0360
T6C0.0400
T7C0.0433
T8C0.0440
T9C0.0470
T10C0.0787
%
G90
G05
T1
X4.8565Y-4.974
X4.8565Y-5.049
X4.8565Y-5.124
T2
X5.1165Y-3.649
X5.6265Y-4.729
T3
X4.7665Y-4.239
X4.8665Y-4.239
X4.9965Y-3.209
X5.0715Y-3.209
X5.1465Y-3.209
X5.2215Y-3.209
X5.8665Y-3.7506
X5.8665Y-3.9474
X6.0165Y-4.859
X6.2515Y-3.574
X6.2515Y-3.674
X6.2515Y-3.974
X6.4515Y-3.574
X6.4515Y-3.674
X6.4515Y-3.974
X6.6365Y-4.859
X6.9265Y-4.769
T4
X4.8065Y-4.524
X4.8065Y-4.724
X5.0915Y-3.969
X5.0915Y-4.089
X5.0915Y-4.209
X5.0915Y-4.329
X5.3065Y-3.359
X5.3065Y-3.469
X5.3065Y-3.574
X5.4915Y-3.969
X5.4915Y-4.089
X5.4915Y-4.209
X5.4915Y-4.329
X5.7065Y-3.359
X5.7065Y-3.469
X5.7065Y-3.574
X5.9765Y-3.529
X6.0265Y-3.454
X6.0765Y-3.529
X6.2615Y-3.414
X6.6615Y-3.414
T5
X6.9265Y-4.209
X6.9265Y-4.309
X6.9265Y-4.409
T6
X5.0275Y-3.521
X5.0275Y-3.777
X5.2055Y-3.521
X5.2055Y-3.777
X5.3065Y-3.189
X5.4065Y-3.189
X5.5065Y-3.189
X5.6065Y-3.189
X5.6615Y-5.084
X5.7065Y-3.189
X5.7615Y-5.084
X5.8065Y-3.189
X5.8615Y-5.084
X5.9065Y-3.189
X5.9615Y-5.084
X6.0065Y-3.189
X6.0615Y-5.084
X6.1615Y-3.189
X6.1615Y-5.084
X6.2615Y-3.189
X6.3615Y-3.189
X6.3665Y-5.089
X6.4615Y-3.189
X6.4665Y-5.089
X6.5615Y-3.189
X6.5665Y-5.089
X6.6615Y-3.189
X6.6665Y-5.089
X6.7615Y-3.189
X6.7665Y-5.089
X6.8615Y-3.189
X6.8665Y-5.089
T7
X5.1781Y-4.614
X5.2765Y-4.614
X5.3749Y-4.614
T8
X6.0515Y-4.104
X6.4515Y-4.104
T9
X6.7057Y-3.6221
X6.7057Y-3.819
X6.7057Y-4.0159
T10
X5.0993Y-4.8896
X5.4537Y-4.8896
T0
M30
