%TF.GenerationSoftware,KiCad,Pcbnew,5.1.9-73d0e3b20d~88~ubuntu20.04.1*%
%TF.CreationDate,2021-04-10T10:54:25+05:30*%
%TF.ProjectId,shield-V1p2,73686965-6c64-42d5-9631-70322e6b6963,rev?*%
%TF.SameCoordinates,Original*%
%TF.FileFunction,Copper,L1,Top*%
%TF.FilePolarity,Positive*%
%FSLAX46Y46*%
G04 Gerber Fmt 4.6, Leading zero omitted, Abs format (unit mm)*
G04 Created by KiCad (PCBNEW 5.1.9-73d0e3b20d~88~ubuntu20.04.1) date 2021-04-10 10:54:25*
%MOMM*%
%LPD*%
G01*
G04 APERTURE LIST*
%TA.AperFunction,NonConductor*%
%ADD10C,0.300000*%
%TD*%
%TA.AperFunction,NonConductor*%
%ADD11C,0.200000*%
%TD*%
%TA.AperFunction,ComponentPad*%
%ADD12O,1.524000X3.048000*%
%TD*%
%TA.AperFunction,ComponentPad*%
%ADD13C,1.320800*%
%TD*%
%TA.AperFunction,ComponentPad*%
%ADD14C,1.308000*%
%TD*%
%TA.AperFunction,ComponentPad*%
%ADD15R,1.308000X1.308000*%
%TD*%
%TA.AperFunction,ComponentPad*%
%ADD16R,3.810000X3.810000*%
%TD*%
%TA.AperFunction,ComponentPad*%
%ADD17C,1.930400*%
%TD*%
%TA.AperFunction,ComponentPad*%
%ADD18O,2.016000X1.008000*%
%TD*%
%TA.AperFunction,ComponentPad*%
%ADD19C,1.676400*%
%TD*%
%TA.AperFunction,ComponentPad*%
%ADD20C,1.400000*%
%TD*%
%TA.AperFunction,ComponentPad*%
%ADD21O,3.581400X1.790700*%
%TD*%
%TA.AperFunction,ComponentPad*%
%ADD22O,2.844800X1.422400*%
%TD*%
%TA.AperFunction,ViaPad*%
%ADD23C,1.104800*%
%TD*%
%TA.AperFunction,ViaPad*%
%ADD24C,0.904800*%
%TD*%
%TA.AperFunction,Conductor*%
%ADD25C,0.609600*%
%TD*%
%TA.AperFunction,Conductor*%
%ADD26C,0.406400*%
%TD*%
%TA.AperFunction,Conductor*%
%ADD27C,0.812800*%
%TD*%
G04 APERTURE END LIST*
D10*
X142995850Y-74689203D02*
X142710138Y-74688042D01*
X142566992Y-74758889D01*
X142495273Y-74830027D01*
X142351546Y-75043730D01*
X142278957Y-75329151D01*
X142276634Y-75900575D01*
X142347481Y-76043722D01*
X142418619Y-76115440D01*
X142561185Y-76187449D01*
X142846897Y-76188610D01*
X142990043Y-76117763D01*
X143061761Y-76046625D01*
X143133770Y-75904060D01*
X143135222Y-75546920D01*
X143064374Y-75403773D01*
X142993237Y-75332055D01*
X142850671Y-75260046D01*
X142564959Y-75258885D01*
X142421813Y-75329732D01*
X142350095Y-75400870D01*
X142278086Y-75543435D01*
X143709549Y-74834963D02*
X143781267Y-74763825D01*
X143924414Y-74692978D01*
X144281554Y-74694430D01*
X144424119Y-74766438D01*
X144495257Y-74838157D01*
X144566104Y-74981303D01*
X144565523Y-75124159D01*
X144493224Y-75338153D01*
X143632604Y-76191804D01*
X144561168Y-76195579D01*
X145204601Y-76055336D02*
X145275738Y-76127054D01*
X145204020Y-76198192D01*
X145132882Y-76126474D01*
X145204601Y-76055336D01*
X145204020Y-76198192D01*
X146565217Y-75203717D02*
X146561152Y-76203709D01*
X146210400Y-74630841D02*
X145848904Y-75700809D01*
X146777468Y-75704584D01*
X147564628Y-75350638D02*
X147422062Y-75278629D01*
X147350924Y-75206911D01*
X147280077Y-75063765D01*
X147280368Y-74992337D01*
X147352376Y-74849771D01*
X147424095Y-74778633D01*
X147567241Y-74707786D01*
X147852953Y-74708947D01*
X147995518Y-74780956D01*
X148066656Y-74852675D01*
X148137503Y-74995821D01*
X148137213Y-75067249D01*
X148065204Y-75209814D01*
X147993486Y-75280952D01*
X147850340Y-75351799D01*
X147564628Y-75350638D01*
X147421481Y-75421485D01*
X147349763Y-75492623D01*
X147277754Y-75635188D01*
X147276593Y-75920900D01*
X147347440Y-76064047D01*
X147418578Y-76135765D01*
X147561143Y-76207774D01*
X147846855Y-76208935D01*
X147990002Y-76138088D01*
X148061720Y-76066950D01*
X148133729Y-75924385D01*
X148134890Y-75638673D01*
X148064043Y-75495526D01*
X147992905Y-75423808D01*
X147850340Y-75351799D01*
X149495796Y-74715626D02*
X148781517Y-74712722D01*
X148707185Y-75426712D01*
X148778903Y-75355574D01*
X148922050Y-75284727D01*
X149279190Y-75286178D01*
X149421755Y-75358187D01*
X149492893Y-75429906D01*
X149563740Y-75573052D01*
X149562288Y-75930192D01*
X149490280Y-76072757D01*
X149418561Y-76143895D01*
X149275415Y-76214742D01*
X148918275Y-76213290D01*
X148775709Y-76141282D01*
X148704572Y-76069563D01*
X151346826Y-76223163D02*
X151350891Y-75223171D01*
X151350311Y-75366027D02*
X151422029Y-75294889D01*
X151565175Y-75224042D01*
X151779459Y-75224913D01*
X151922025Y-75296922D01*
X151992872Y-75440068D01*
X151989678Y-76225776D01*
X151992872Y-75440068D02*
X152064881Y-75297502D01*
X152208027Y-75226655D01*
X152422311Y-75227526D01*
X152564877Y-75299535D01*
X152635724Y-75442681D01*
X152632530Y-76228389D01*
X153346810Y-76231293D02*
X153350875Y-75231301D01*
X153350294Y-75374157D02*
X153422012Y-75303019D01*
X153565159Y-75232172D01*
X153779443Y-75233043D01*
X153922008Y-75305052D01*
X153992856Y-75448198D01*
X153989662Y-76233906D01*
X153992856Y-75448198D02*
X154064864Y-75305632D01*
X154208011Y-75234785D01*
X154422295Y-75235656D01*
X154564860Y-75307665D01*
X154635707Y-75450811D01*
X154632513Y-76236519D01*
D11*
X117258596Y-73406000D02*
X179742596Y-73660000D01*
X117259100Y-73282097D02*
X117256213Y-73992416D01*
X179743100Y-73536097D02*
X179740213Y-74246416D01*
X179742596Y-73660000D02*
X178613718Y-74241837D01*
X179742596Y-73660000D02*
X178618485Y-73069005D01*
X117258596Y-73406000D02*
X118382707Y-73996995D01*
X117258596Y-73406000D02*
X118387474Y-72824163D01*
D10*
X112486428Y-99448028D02*
X112486428Y-98733742D01*
X111772142Y-98662314D01*
X111843571Y-98733742D01*
X111915000Y-98876600D01*
X111915000Y-99233742D01*
X111843571Y-99376600D01*
X111772142Y-99448028D01*
X111629285Y-99519457D01*
X111272142Y-99519457D01*
X111129285Y-99448028D01*
X111057857Y-99376600D01*
X110986428Y-99233742D01*
X110986428Y-98876600D01*
X111057857Y-98733742D01*
X111129285Y-98662314D01*
X111986428Y-100805171D02*
X110986428Y-100805171D01*
X112557857Y-100448028D02*
X111486428Y-100090885D01*
X111486428Y-101019457D01*
X111129285Y-101590885D02*
X111057857Y-101662314D01*
X110986428Y-101590885D01*
X111057857Y-101519457D01*
X111129285Y-101590885D01*
X110986428Y-101590885D01*
X111843571Y-102519457D02*
X111915000Y-102376600D01*
X111986428Y-102305171D01*
X112129285Y-102233742D01*
X112200714Y-102233742D01*
X112343571Y-102305171D01*
X112415000Y-102376600D01*
X112486428Y-102519457D01*
X112486428Y-102805171D01*
X112415000Y-102948028D01*
X112343571Y-103019457D01*
X112200714Y-103090885D01*
X112129285Y-103090885D01*
X111986428Y-103019457D01*
X111915000Y-102948028D01*
X111843571Y-102805171D01*
X111843571Y-102519457D01*
X111772142Y-102376600D01*
X111700714Y-102305171D01*
X111557857Y-102233742D01*
X111272142Y-102233742D01*
X111129285Y-102305171D01*
X111057857Y-102376600D01*
X110986428Y-102519457D01*
X110986428Y-102805171D01*
X111057857Y-102948028D01*
X111129285Y-103019457D01*
X111272142Y-103090885D01*
X111557857Y-103090885D01*
X111700714Y-103019457D01*
X111772142Y-102948028D01*
X111843571Y-102805171D01*
X112486428Y-104376600D02*
X112486428Y-104090885D01*
X112415000Y-103948028D01*
X112343571Y-103876600D01*
X112129285Y-103733742D01*
X111843571Y-103662314D01*
X111272142Y-103662314D01*
X111129285Y-103733742D01*
X111057857Y-103805171D01*
X110986428Y-103948028D01*
X110986428Y-104233742D01*
X111057857Y-104376600D01*
X111129285Y-104448028D01*
X111272142Y-104519457D01*
X111629285Y-104519457D01*
X111772142Y-104448028D01*
X111843571Y-104376600D01*
X111915000Y-104233742D01*
X111915000Y-103948028D01*
X111843571Y-103805171D01*
X111772142Y-103733742D01*
X111629285Y-103662314D01*
X111986428Y-105805171D02*
X110986428Y-105805171D01*
X112557857Y-105448028D02*
X111486428Y-105090885D01*
X111486428Y-106019457D01*
X110986428Y-107733742D02*
X111986428Y-107733742D01*
X111843571Y-107733742D02*
X111915000Y-107805171D01*
X111986428Y-107948028D01*
X111986428Y-108162314D01*
X111915000Y-108305171D01*
X111772142Y-108376600D01*
X110986428Y-108376600D01*
X111772142Y-108376600D02*
X111915000Y-108448028D01*
X111986428Y-108590885D01*
X111986428Y-108805171D01*
X111915000Y-108948028D01*
X111772142Y-109019457D01*
X110986428Y-109019457D01*
X110986428Y-109733742D02*
X111986428Y-109733742D01*
X111843571Y-109733742D02*
X111915000Y-109805171D01*
X111986428Y-109948028D01*
X111986428Y-110162314D01*
X111915000Y-110305171D01*
X111772142Y-110376600D01*
X110986428Y-110376600D01*
X111772142Y-110376600D02*
X111915000Y-110448028D01*
X111986428Y-110590885D01*
X111986428Y-110805171D01*
X111915000Y-110948028D01*
X111772142Y-111019457D01*
X110986428Y-111019457D01*
D11*
X113665000Y-77444600D02*
X113665000Y-132308600D01*
X113665000Y-77444600D02*
X113078579Y-77444600D01*
X113665000Y-132308600D02*
X113078579Y-132308600D01*
X113665000Y-132308600D02*
X113078579Y-131182096D01*
X113665000Y-132308600D02*
X114251421Y-131182096D01*
X113665000Y-77444600D02*
X113078579Y-78571104D01*
X113665000Y-77444600D02*
X114251421Y-78571104D01*
D12*
%TO.P,JP1,8*%
%TO.N,Net-(JP1-Pad8)*%
X134785100Y-81000600D03*
%TO.P,JP1,7*%
%TO.N,GND*%
X137325100Y-81000600D03*
%TO.P,JP1,6*%
%TO.N,/IR1.1*%
X139865100Y-81000600D03*
%TO.P,JP1,5*%
%TO.N,Net-(BUTTON1-Pad1)*%
X142405100Y-81000600D03*
%TO.P,JP1,4*%
%TO.N,Net-(JP1-Pad4)*%
X144945100Y-81000600D03*
%TO.P,JP1,3*%
%TO.N,Net-(JP1-Pad3)*%
X147485100Y-81000600D03*
%TO.P,JP1,2*%
%TO.N,Net-(JP1-Pad2)*%
X150025100Y-81000600D03*
%TO.P,JP1,1*%
%TO.N,/IR1.2*%
X152565100Y-81000600D03*
%TD*%
%TO.P,JP2,8*%
%TO.N,/IR2.1*%
X156502100Y-81000600D03*
%TO.P,JP2,7*%
%TO.N,/IR2.2*%
X159042100Y-81000600D03*
%TO.P,JP2,6*%
%TO.N,Net-(JP2-Pad6)*%
X161582100Y-81000600D03*
%TO.P,JP2,5*%
%TO.N,Net-(JP2-Pad5)*%
X164122100Y-81000600D03*
%TO.P,JP2,4*%
%TO.N,Net-(JP2-Pad4)*%
X166662100Y-81000600D03*
%TO.P,JP2,3*%
%TO.N,Net-(JP2-Pad3)*%
X169202100Y-81000600D03*
%TO.P,JP2,2*%
%TO.N,Net-(JP2-Pad2)*%
X171742100Y-81000600D03*
%TO.P,JP2,1*%
%TO.N,Net-(JP2-Pad1)*%
X174282100Y-81000600D03*
%TD*%
%TO.P,JP3,6*%
%TO.N,Net-(JP3-Pad6)*%
X143802100Y-129133600D03*
%TO.P,JP3,5*%
%TO.N,+3V3*%
X146342100Y-129133600D03*
%TO.P,JP3,4*%
%TO.N,+5V*%
X148882100Y-129133600D03*
%TO.P,JP3,3*%
%TO.N,GND*%
X151422100Y-129133600D03*
%TO.P,JP3,2*%
X153962100Y-129133600D03*
%TO.P,JP3,1*%
%TO.N,V+*%
X156502100Y-129133600D03*
%TD*%
%TO.P,JP4,6*%
%TO.N,Net-(JP4-Pad6)*%
X161709100Y-129260600D03*
%TO.P,JP4,5*%
%TO.N,Net-(JP4-Pad5)*%
X164249100Y-129260600D03*
%TO.P,JP4,4*%
%TO.N,Net-(JP4-Pad4)*%
X166789100Y-129260600D03*
%TO.P,JP4,3*%
%TO.N,Net-(HALL1-PadOUT)*%
X169329100Y-129260600D03*
%TO.P,JP4,2*%
%TO.N,Net-(JP4-Pad2)*%
X171869100Y-129260600D03*
%TO.P,JP4,1*%
%TO.N,Net-(JP4-Pad1)*%
X174409100Y-129260600D03*
%TD*%
%TO.P,BUTTON1,4*%
%TO.N,+5V*%
X127698500Y-95935800D03*
%TO.P,BUTTON1,2*%
%TO.N,Net-(BUTTON1-Pad1)*%
X132219700Y-95935800D03*
%TO.P,BUTTON1,3*%
%TO.N,+5V*%
X127698500Y-89433400D03*
%TO.P,BUTTON1,1*%
%TO.N,Net-(BUTTON1-Pad1)*%
X132219700Y-89433400D03*
%TD*%
D13*
%TO.P,R6,2*%
%TO.N,Net-(BUTTON1-Pad1)*%
X129324100Y-100812600D03*
%TO.P,R6,1*%
%TO.N,GND*%
X139484100Y-100812600D03*
%TD*%
D14*
%TO.P,RGB1,4*%
%TO.N,Net-(R3-Pad1)*%
X126911100Y-81508600D03*
%TO.P,RGB1,1*%
%TO.N,Net-(R1-Pad1)*%
X132626100Y-81508600D03*
D15*
%TO.P,RGB1,2*%
%TO.N,GND*%
X130721100Y-81508600D03*
D14*
%TO.P,RGB1,3*%
%TO.N,Net-(R2-Pad1)*%
X128816100Y-81508600D03*
%TD*%
D13*
%TO.P,R1,2*%
%TO.N,Net-(JP1-Pad4)*%
X144945100Y-85318600D03*
%TO.P,R1,1*%
%TO.N,Net-(R1-Pad1)*%
X134785100Y-85318600D03*
%TD*%
%TO.P,R2,2*%
%TO.N,Net-(JP1-Pad3)*%
X144945100Y-88112600D03*
%TO.P,R2,1*%
%TO.N,Net-(R2-Pad1)*%
X134785100Y-88112600D03*
%TD*%
%TO.P,R3,2*%
%TO.N,Net-(JP1-Pad2)*%
X144945100Y-90779600D03*
%TO.P,R3,1*%
%TO.N,Net-(R3-Pad1)*%
X134785100Y-90779600D03*
%TD*%
D16*
%TO.P,POT1,P$5*%
%TO.N,N/C*%
X129523100Y-124195600D03*
%TO.P,POT1,P$4*%
X138523100Y-124195600D03*
D17*
%TO.P,POT1,1*%
%TO.N,GND*%
X136523100Y-117195600D03*
%TO.P,POT1,3*%
%TO.N,+5V*%
X131523100Y-117195600D03*
%TO.P,POT1,2*%
%TO.N,Net-(JP4-Pad4)*%
X134023100Y-117195600D03*
%TD*%
D18*
%TO.P,HALL1,V+*%
%TO.N,+5V*%
X123355100Y-130149600D03*
%TO.P,HALL1,OUT*%
%TO.N,Net-(HALL1-PadOUT)*%
X123355100Y-126339600D03*
%TO.P,HALL1,V-*%
%TO.N,GND*%
X123355100Y-128244600D03*
%TD*%
D19*
%TO.P,RELAY1,3*%
%TO.N,Net-(RELAY1-Pad3)*%
X163868100Y-100939600D03*
%TO.P,RELAY1,4*%
X158788100Y-100939600D03*
%TO.P,RELAY1,2*%
%TO.N,+5V*%
X163868100Y-93319600D03*
%TO.P,RELAY1,5*%
%TO.N,Net-(D1-PadA)*%
X158788100Y-93319600D03*
%TO.P,RELAY1,6*%
%TO.N,Net-(RELAY1-Pad6)*%
X158788100Y-90779600D03*
%TO.P,RELAY1,1*%
%TO.N,Net-(RELAY1-Pad1)*%
X163868100Y-90779600D03*
%TD*%
D13*
%TO.P,THERM1,2*%
%TO.N,Net-(JP4-Pad2)*%
X122085100Y-114909600D03*
%TO.P,THERM1,1*%
%TO.N,+5V*%
X122085100Y-119989600D03*
%TD*%
%TO.P,R7,2*%
%TO.N,GND*%
X139484100Y-109956600D03*
%TO.P,R7,1*%
%TO.N,Net-(JP4-Pad2)*%
X129324100Y-109956600D03*
%TD*%
D20*
%TO.P,PHOTO1,2*%
%TO.N,Net-(JP4-Pad1)*%
X123609100Y-107670600D03*
%TO.P,PHOTO1,1*%
%TO.N,+5V*%
X121069100Y-107670600D03*
%TD*%
D13*
%TO.P,R8,2*%
%TO.N,GND*%
X139484100Y-106908600D03*
%TO.P,R8,1*%
%TO.N,Net-(JP4-Pad1)*%
X129324100Y-106908600D03*
%TD*%
%TO.P,T1,3*%
%TO.N,GND*%
X151803100Y-89636600D03*
%TO.P,T1,2*%
%TO.N,Net-(R9-Pad2)*%
X153073100Y-87731600D03*
%TO.P,T1,1*%
%TO.N,Net-(D1-PadA)*%
X154343100Y-89636600D03*
%TD*%
D19*
%TO.P,D1,C*%
%TO.N,+5V*%
X163868100Y-104241600D03*
%TO.P,D1,A*%
%TO.N,Net-(D1-PadA)*%
X153708100Y-104241600D03*
%TD*%
D21*
%TO.P,X1,3*%
%TO.N,Net-(RELAY1-Pad1)*%
X170325100Y-102002600D03*
%TO.P,X1,2*%
%TO.N,Net-(RELAY1-Pad3)*%
X170325100Y-97002600D03*
%TO.P,X1,1*%
%TO.N,Net-(RELAY1-Pad6)*%
X170325100Y-92002600D03*
%TD*%
D13*
%TO.P,R9,2*%
%TO.N,Net-(R9-Pad2)*%
X159042100Y-86715600D03*
%TO.P,R9,1*%
%TO.N,Net-(JP2-Pad3)*%
X169202100Y-86715600D03*
%TD*%
%TO.P,R10,2*%
%TO.N,Net-(JP2-Pad4)*%
X139484100Y-103860600D03*
%TO.P,R10,1*%
%TO.N,Net-(PIEZO1-Pad1)*%
X129324100Y-103860600D03*
%TD*%
D17*
%TO.P,PIEZO1,2*%
%TO.N,GND*%
X149009100Y-100264600D03*
%TO.P,PIEZO1,1*%
%TO.N,Net-(PIEZO1-Pad1)*%
X149009100Y-95264600D03*
%TD*%
D22*
%TO.P,SERVO1,3*%
%TO.N,GND*%
X175933100Y-106908600D03*
%TO.P,SERVO1,2*%
%TO.N,+5V*%
X175933100Y-109448600D03*
%TO.P,SERVO1,1*%
%TO.N,Net-(JP2-Pad6)*%
X175933100Y-111988600D03*
%TD*%
D23*
%TO.N,GND*%
X175933100Y-121132600D03*
D24*
X142913100Y-120116600D03*
%TO.N,Net-(R3-Pad1)*%
X129959100Y-92684600D03*
D23*
%TO.N,Net-(HALL1-PadOUT)*%
X152819100Y-123418600D03*
X168567100Y-123418600D03*
%TD*%
D25*
%TO.N,GND*%
X151803100Y-89636600D02*
X152057100Y-89890600D01*
X152057100Y-89890600D02*
X152057100Y-99288600D01*
X152057100Y-99288600D02*
X151081100Y-100264600D01*
X151081100Y-100264600D02*
X149009100Y-100264600D01*
X136523100Y-117195600D02*
X138936100Y-114782600D01*
X138936100Y-114782600D02*
X142659100Y-114782600D01*
X142659100Y-114782600D02*
X151041100Y-114782600D01*
X151041100Y-114782600D02*
X155359100Y-119100600D01*
X155359100Y-119100600D02*
X155359100Y-125958600D01*
X155359100Y-125958600D02*
X153962100Y-127355600D01*
X153962100Y-127355600D02*
X153962100Y-129133600D01*
X175933100Y-106908600D02*
X172631100Y-106908600D01*
X172631100Y-106908600D02*
X172123100Y-107416600D01*
X172123100Y-107416600D02*
X172123100Y-114528600D01*
X172123100Y-114528600D02*
X175933100Y-118338600D01*
X175933100Y-118338600D02*
X175933100Y-121132600D01*
X142913100Y-120116600D02*
X142659100Y-119862600D01*
X142659100Y-119862600D02*
X142659100Y-114782600D01*
%TO.N,+5V*%
X127698500Y-95935800D02*
X127698500Y-89433400D01*
X127698500Y-95935800D02*
X127495300Y-95732600D01*
X127495300Y-95732600D02*
X122085100Y-95732600D01*
X122085100Y-95732600D02*
X121069100Y-96748600D01*
X121069100Y-96748600D02*
X121069100Y-107670600D01*
X121069100Y-107670600D02*
X120307100Y-108432600D01*
X120307100Y-108432600D02*
X120307100Y-119608600D01*
X120307100Y-119608600D02*
X120688100Y-119989600D01*
X120688100Y-119989600D02*
X122085100Y-119989600D01*
X122085100Y-119989600D02*
X125006100Y-117068600D01*
X125006100Y-117068600D02*
X130975100Y-117068600D01*
X130975100Y-117068600D02*
X131102100Y-117195600D01*
X131102100Y-117195600D02*
X131523100Y-117195600D01*
X122085100Y-119989600D02*
X121069100Y-121005600D01*
X121069100Y-121005600D02*
X121069100Y-129006600D01*
X121069100Y-129006600D02*
X122212100Y-130149600D01*
X122212100Y-130149600D02*
X123355100Y-130149600D01*
%TO.N,Net-(JP1-Pad4)*%
X144945100Y-81000600D02*
X144945100Y-85318600D01*
%TO.N,Net-(JP1-Pad3)*%
X144945100Y-88112600D02*
X147485100Y-85572600D01*
X147485100Y-85572600D02*
X147485100Y-81000600D01*
%TO.N,Net-(JP1-Pad2)*%
X144945100Y-90779600D02*
X150025100Y-85699600D01*
X150025100Y-85699600D02*
X150025100Y-81000600D01*
D26*
%TO.N,Net-(JP2-Pad6)*%
X161582100Y-81000600D02*
X161709100Y-81127600D01*
D25*
X177965100Y-92176600D02*
X177965100Y-110490000D01*
X174155100Y-88366600D02*
X177965100Y-92176600D01*
X163487100Y-88366600D02*
X174155100Y-88366600D01*
X161709100Y-86588600D02*
X163487100Y-88366600D01*
X161709100Y-81127600D02*
X161709100Y-86588600D01*
X177965100Y-110490000D02*
X177965100Y-111594900D01*
X177571400Y-111988600D02*
X175933100Y-111988600D01*
X177965100Y-111594900D02*
X177571400Y-111988600D01*
%TO.N,Net-(JP2-Pad3)*%
X169202100Y-86715600D02*
X169202100Y-81000600D01*
%TO.N,Net-(JP4-Pad4)*%
X134023100Y-114528600D02*
X135039100Y-113512600D01*
X135039100Y-113512600D02*
X156629100Y-113512600D01*
X156629100Y-113512600D02*
X166789100Y-123672600D01*
X166789100Y-123672600D02*
X166789100Y-129260600D01*
X134023100Y-114528600D02*
X134023100Y-117195600D01*
%TO.N,Net-(JP4-Pad2)*%
X171869100Y-123418600D02*
X171869100Y-129260600D01*
X156883100Y-108432600D02*
X171869100Y-123418600D01*
X130975100Y-108432600D02*
X156883100Y-108432600D01*
X129324100Y-109956600D02*
X130975100Y-108432600D01*
X129324100Y-109956600D02*
X128943100Y-110337600D01*
X128943100Y-110337600D02*
X128943100Y-113512600D01*
X128943100Y-113512600D02*
X127546100Y-114909600D01*
X127546100Y-114909600D02*
X122085100Y-114909600D01*
%TO.N,Net-(JP4-Pad1)*%
X129324100Y-106908600D02*
X130848100Y-105384600D01*
X130848100Y-105384600D02*
X140627100Y-105384600D01*
X140627100Y-105384600D02*
X142405100Y-107162600D01*
X142405100Y-107162600D02*
X158153100Y-107162600D01*
X174409100Y-123418600D02*
X174409100Y-129260600D01*
X129197100Y-106908600D02*
X129324100Y-106908600D01*
X158153100Y-107162600D02*
X174409100Y-123418600D01*
X129197100Y-106908600D02*
X128435100Y-107670600D01*
X128435100Y-107670600D02*
X123609100Y-107670600D01*
%TO.N,Net-(R3-Pad1)*%
X126911100Y-81508600D02*
X129959100Y-84556600D01*
X129959100Y-84556600D02*
X129959100Y-92684600D01*
%TO.N,Net-(R1-Pad1)*%
X132626100Y-81508600D02*
X133007100Y-81889600D01*
X133007100Y-81889600D02*
X133007100Y-84302600D01*
X133007100Y-84302600D02*
X134023100Y-85318600D01*
X134023100Y-85318600D02*
X134785100Y-85318600D01*
%TO.N,Net-(D1-PadA)*%
X154343100Y-93319600D02*
X154343100Y-89636600D01*
X153708100Y-93954600D02*
X154343100Y-93319600D01*
X153708100Y-104241600D02*
X153708100Y-93954600D01*
X154343100Y-93319600D02*
X158788100Y-93319600D01*
%TO.N,Net-(R9-Pad2)*%
X154216100Y-86715600D02*
X159042100Y-86715600D01*
X153073100Y-87731600D02*
X154216100Y-86715600D01*
%TO.N,Net-(BUTTON1-Pad1)*%
X141389100Y-84556600D02*
X142405100Y-83540600D01*
X142405100Y-83540600D02*
X142405100Y-81000600D01*
X129324100Y-100812600D02*
X132499100Y-100812600D01*
X132499100Y-100812600D02*
X137960100Y-95351600D01*
X137960100Y-95351600D02*
X141389100Y-91922600D01*
X141389100Y-91922600D02*
X141389100Y-84556600D01*
X132219700Y-89433400D02*
X132219700Y-95935800D01*
X132219700Y-95935800D02*
X132803900Y-95351600D01*
X132803900Y-95351600D02*
X137960100Y-95351600D01*
%TO.N,Net-(HALL1-PadOUT)*%
X123355100Y-126339600D02*
X123482100Y-126466600D01*
X123482100Y-126466600D02*
X125641100Y-126466600D01*
X125641100Y-126466600D02*
X127419100Y-128244600D01*
X127419100Y-128244600D02*
X140119100Y-128244600D01*
X140119100Y-128244600D02*
X144945100Y-123418600D01*
X144945100Y-123418600D02*
X152819100Y-123418600D01*
X168567100Y-123418600D02*
X169329100Y-124180600D01*
X169329100Y-124180600D02*
X169329100Y-129260600D01*
D27*
%TO.N,Net-(RELAY1-Pad3)*%
X158788100Y-100939600D02*
X163868100Y-100939600D01*
X163868100Y-100939600D02*
X166433500Y-100863400D01*
X166433500Y-100863400D02*
X170325100Y-97002600D01*
%TO.N,Net-(RELAY1-Pad6)*%
X160312100Y-90779600D02*
X158788100Y-90779600D01*
X161201100Y-91668600D02*
X160312100Y-90779600D01*
X161201100Y-94462600D02*
X161201100Y-91668600D01*
X162471100Y-95732600D02*
X161201100Y-94462600D01*
X162471100Y-95732600D02*
X166595100Y-95732600D01*
X166595100Y-95732600D02*
X170325100Y-92002600D01*
%TO.N,Net-(RELAY1-Pad1)*%
X165011100Y-89636600D02*
X163868100Y-90779600D01*
X171615100Y-89636600D02*
X165011100Y-89636600D01*
X173901100Y-91922600D02*
X171615100Y-89636600D01*
X173901100Y-100812600D02*
X173901100Y-91922600D01*
X172711100Y-102002600D02*
X173901100Y-100812600D01*
X170325100Y-102002600D02*
X172711100Y-102002600D01*
D25*
%TO.N,Net-(PIEZO1-Pad1)*%
X148969100Y-95264600D02*
X149009100Y-95264600D01*
X141897100Y-102336600D02*
X148969100Y-95264600D01*
X130848100Y-102336600D02*
X141897100Y-102336600D01*
X129324100Y-103860600D02*
X130848100Y-102336600D01*
%TD*%
M02*
