%TF.GenerationSoftware,KiCad,Pcbnew,5.1.9-73d0e3b20d~88~ubuntu20.04.1*%
%TF.CreationDate,2021-04-10T10:54:25+05:30*%
%TF.ProjectId,shield-V1p2,73686965-6c64-42d5-9631-70322e6b6963,rev?*%
%TF.SameCoordinates,Original*%
%TF.FileFunction,Copper,L2,Bot*%
%TF.FilePolarity,Positive*%
%FSLAX46Y46*%
G04 Gerber Fmt 4.6, Leading zero omitted, Abs format (unit mm)*
G04 Created by KiCad (PCBNEW 5.1.9-73d0e3b20d~88~ubuntu20.04.1) date 2021-04-10 10:54:25*
%MOMM*%
%LPD*%
G01*
G04 APERTURE LIST*
%TA.AperFunction,ComponentPad*%
%ADD10O,1.524000X3.048000*%
%TD*%
%TA.AperFunction,ComponentPad*%
%ADD11C,1.320800*%
%TD*%
%TA.AperFunction,ComponentPad*%
%ADD12C,1.308000*%
%TD*%
%TA.AperFunction,ComponentPad*%
%ADD13R,1.308000X1.308000*%
%TD*%
%TA.AperFunction,ComponentPad*%
%ADD14R,3.810000X3.810000*%
%TD*%
%TA.AperFunction,ComponentPad*%
%ADD15C,1.930400*%
%TD*%
%TA.AperFunction,ComponentPad*%
%ADD16O,2.016000X1.008000*%
%TD*%
%TA.AperFunction,ComponentPad*%
%ADD17C,1.676400*%
%TD*%
%TA.AperFunction,ComponentPad*%
%ADD18C,1.400000*%
%TD*%
%TA.AperFunction,ComponentPad*%
%ADD19O,3.581400X1.790700*%
%TD*%
%TA.AperFunction,ComponentPad*%
%ADD20O,2.844800X1.422400*%
%TD*%
%TA.AperFunction,ViaPad*%
%ADD21C,1.104800*%
%TD*%
%TA.AperFunction,ViaPad*%
%ADD22C,0.904800*%
%TD*%
%TA.AperFunction,Conductor*%
%ADD23C,0.609600*%
%TD*%
%TA.AperFunction,Conductor*%
%ADD24C,0.254000*%
%TD*%
%TA.AperFunction,Conductor*%
%ADD25C,0.406400*%
%TD*%
%TA.AperFunction,Conductor*%
%ADD26C,0.812800*%
%TD*%
%TA.AperFunction,Conductor*%
%ADD27C,0.250000*%
%TD*%
%TA.AperFunction,Conductor*%
%ADD28C,0.304800*%
%TD*%
%TA.AperFunction,Conductor*%
%ADD29C,0.100000*%
%TD*%
G04 APERTURE END LIST*
D10*
%TO.P,JP1,8*%
%TO.N,Net-(JP1-Pad8)*%
X134785100Y-81000600D03*
%TO.P,JP1,7*%
%TO.N,GND*%
X137325100Y-81000600D03*
%TO.P,JP1,6*%
%TO.N,/IR1.1*%
X139865100Y-81000600D03*
%TO.P,JP1,5*%
%TO.N,Net-(BUTTON1-Pad1)*%
X142405100Y-81000600D03*
%TO.P,JP1,4*%
%TO.N,Net-(JP1-Pad4)*%
X144945100Y-81000600D03*
%TO.P,JP1,3*%
%TO.N,Net-(JP1-Pad3)*%
X147485100Y-81000600D03*
%TO.P,JP1,2*%
%TO.N,Net-(JP1-Pad2)*%
X150025100Y-81000600D03*
%TO.P,JP1,1*%
%TO.N,/IR1.2*%
X152565100Y-81000600D03*
%TD*%
%TO.P,JP2,8*%
%TO.N,/IR2.1*%
X156502100Y-81000600D03*
%TO.P,JP2,7*%
%TO.N,/IR2.2*%
X159042100Y-81000600D03*
%TO.P,JP2,6*%
%TO.N,Net-(JP2-Pad6)*%
X161582100Y-81000600D03*
%TO.P,JP2,5*%
%TO.N,Net-(JP2-Pad5)*%
X164122100Y-81000600D03*
%TO.P,JP2,4*%
%TO.N,Net-(JP2-Pad4)*%
X166662100Y-81000600D03*
%TO.P,JP2,3*%
%TO.N,Net-(JP2-Pad3)*%
X169202100Y-81000600D03*
%TO.P,JP2,2*%
%TO.N,Net-(JP2-Pad2)*%
X171742100Y-81000600D03*
%TO.P,JP2,1*%
%TO.N,Net-(JP2-Pad1)*%
X174282100Y-81000600D03*
%TD*%
%TO.P,JP3,6*%
%TO.N,Net-(JP3-Pad6)*%
X143802100Y-129133600D03*
%TO.P,JP3,5*%
%TO.N,+3V3*%
X146342100Y-129133600D03*
%TO.P,JP3,4*%
%TO.N,+5V*%
X148882100Y-129133600D03*
%TO.P,JP3,3*%
%TO.N,GND*%
X151422100Y-129133600D03*
%TO.P,JP3,2*%
X153962100Y-129133600D03*
%TO.P,JP3,1*%
%TO.N,V+*%
X156502100Y-129133600D03*
%TD*%
%TO.P,JP4,6*%
%TO.N,Net-(JP4-Pad6)*%
X161709100Y-129260600D03*
%TO.P,JP4,5*%
%TO.N,Net-(JP4-Pad5)*%
X164249100Y-129260600D03*
%TO.P,JP4,4*%
%TO.N,Net-(JP4-Pad4)*%
X166789100Y-129260600D03*
%TO.P,JP4,3*%
%TO.N,Net-(HALL1-PadOUT)*%
X169329100Y-129260600D03*
%TO.P,JP4,2*%
%TO.N,Net-(JP4-Pad2)*%
X171869100Y-129260600D03*
%TO.P,JP4,1*%
%TO.N,Net-(JP4-Pad1)*%
X174409100Y-129260600D03*
%TD*%
%TO.P,BUTTON1,4*%
%TO.N,+5V*%
X127698500Y-95935800D03*
%TO.P,BUTTON1,2*%
%TO.N,Net-(BUTTON1-Pad1)*%
X132219700Y-95935800D03*
%TO.P,BUTTON1,3*%
%TO.N,+5V*%
X127698500Y-89433400D03*
%TO.P,BUTTON1,1*%
%TO.N,Net-(BUTTON1-Pad1)*%
X132219700Y-89433400D03*
%TD*%
D11*
%TO.P,R6,2*%
%TO.N,Net-(BUTTON1-Pad1)*%
X129324100Y-100812600D03*
%TO.P,R6,1*%
%TO.N,GND*%
X139484100Y-100812600D03*
%TD*%
D12*
%TO.P,RGB1,4*%
%TO.N,Net-(R3-Pad1)*%
X126911100Y-81508600D03*
%TO.P,RGB1,1*%
%TO.N,Net-(R1-Pad1)*%
X132626100Y-81508600D03*
D13*
%TO.P,RGB1,2*%
%TO.N,GND*%
X130721100Y-81508600D03*
D12*
%TO.P,RGB1,3*%
%TO.N,Net-(R2-Pad1)*%
X128816100Y-81508600D03*
%TD*%
D11*
%TO.P,R1,2*%
%TO.N,Net-(JP1-Pad4)*%
X144945100Y-85318600D03*
%TO.P,R1,1*%
%TO.N,Net-(R1-Pad1)*%
X134785100Y-85318600D03*
%TD*%
%TO.P,R2,2*%
%TO.N,Net-(JP1-Pad3)*%
X144945100Y-88112600D03*
%TO.P,R2,1*%
%TO.N,Net-(R2-Pad1)*%
X134785100Y-88112600D03*
%TD*%
%TO.P,R3,2*%
%TO.N,Net-(JP1-Pad2)*%
X144945100Y-90779600D03*
%TO.P,R3,1*%
%TO.N,Net-(R3-Pad1)*%
X134785100Y-90779600D03*
%TD*%
D14*
%TO.P,POT1,P$5*%
%TO.N,N/C*%
X129523100Y-124195600D03*
%TO.P,POT1,P$4*%
X138523100Y-124195600D03*
D15*
%TO.P,POT1,1*%
%TO.N,GND*%
X136523100Y-117195600D03*
%TO.P,POT1,3*%
%TO.N,+5V*%
X131523100Y-117195600D03*
%TO.P,POT1,2*%
%TO.N,Net-(JP4-Pad4)*%
X134023100Y-117195600D03*
%TD*%
D16*
%TO.P,HALL1,V+*%
%TO.N,+5V*%
X123355100Y-130149600D03*
%TO.P,HALL1,OUT*%
%TO.N,Net-(HALL1-PadOUT)*%
X123355100Y-126339600D03*
%TO.P,HALL1,V-*%
%TO.N,GND*%
X123355100Y-128244600D03*
%TD*%
D17*
%TO.P,RELAY1,3*%
%TO.N,Net-(RELAY1-Pad3)*%
X163868100Y-100939600D03*
%TO.P,RELAY1,4*%
X158788100Y-100939600D03*
%TO.P,RELAY1,2*%
%TO.N,+5V*%
X163868100Y-93319600D03*
%TO.P,RELAY1,5*%
%TO.N,Net-(D1-PadA)*%
X158788100Y-93319600D03*
%TO.P,RELAY1,6*%
%TO.N,Net-(RELAY1-Pad6)*%
X158788100Y-90779600D03*
%TO.P,RELAY1,1*%
%TO.N,Net-(RELAY1-Pad1)*%
X163868100Y-90779600D03*
%TD*%
D11*
%TO.P,THERM1,2*%
%TO.N,Net-(JP4-Pad2)*%
X122085100Y-114909600D03*
%TO.P,THERM1,1*%
%TO.N,+5V*%
X122085100Y-119989600D03*
%TD*%
%TO.P,R7,2*%
%TO.N,GND*%
X139484100Y-109956600D03*
%TO.P,R7,1*%
%TO.N,Net-(JP4-Pad2)*%
X129324100Y-109956600D03*
%TD*%
D18*
%TO.P,PHOTO1,2*%
%TO.N,Net-(JP4-Pad1)*%
X123609100Y-107670600D03*
%TO.P,PHOTO1,1*%
%TO.N,+5V*%
X121069100Y-107670600D03*
%TD*%
D11*
%TO.P,R8,2*%
%TO.N,GND*%
X139484100Y-106908600D03*
%TO.P,R8,1*%
%TO.N,Net-(JP4-Pad1)*%
X129324100Y-106908600D03*
%TD*%
%TO.P,T1,3*%
%TO.N,GND*%
X151803100Y-89636600D03*
%TO.P,T1,2*%
%TO.N,Net-(R9-Pad2)*%
X153073100Y-87731600D03*
%TO.P,T1,1*%
%TO.N,Net-(D1-PadA)*%
X154343100Y-89636600D03*
%TD*%
D17*
%TO.P,D1,C*%
%TO.N,+5V*%
X163868100Y-104241600D03*
%TO.P,D1,A*%
%TO.N,Net-(D1-PadA)*%
X153708100Y-104241600D03*
%TD*%
D19*
%TO.P,X1,3*%
%TO.N,Net-(RELAY1-Pad1)*%
X170325100Y-102002600D03*
%TO.P,X1,2*%
%TO.N,Net-(RELAY1-Pad3)*%
X170325100Y-97002600D03*
%TO.P,X1,1*%
%TO.N,Net-(RELAY1-Pad6)*%
X170325100Y-92002600D03*
%TD*%
D11*
%TO.P,R9,2*%
%TO.N,Net-(R9-Pad2)*%
X159042100Y-86715600D03*
%TO.P,R9,1*%
%TO.N,Net-(JP2-Pad3)*%
X169202100Y-86715600D03*
%TD*%
%TO.P,R10,2*%
%TO.N,Net-(JP2-Pad4)*%
X139484100Y-103860600D03*
%TO.P,R10,1*%
%TO.N,Net-(PIEZO1-Pad1)*%
X129324100Y-103860600D03*
%TD*%
D15*
%TO.P,PIEZO1,2*%
%TO.N,GND*%
X149009100Y-100264600D03*
%TO.P,PIEZO1,1*%
%TO.N,Net-(PIEZO1-Pad1)*%
X149009100Y-95264600D03*
%TD*%
D20*
%TO.P,SERVO1,3*%
%TO.N,GND*%
X175933100Y-106908600D03*
%TO.P,SERVO1,2*%
%TO.N,+5V*%
X175933100Y-109448600D03*
%TO.P,SERVO1,1*%
%TO.N,Net-(JP2-Pad6)*%
X175933100Y-111988600D03*
%TD*%
D21*
%TO.N,GND*%
X175933100Y-121132600D03*
D22*
X142913100Y-120116600D03*
%TO.N,Net-(R3-Pad1)*%
X129959100Y-92684600D03*
D21*
%TO.N,Net-(HALL1-PadOUT)*%
X152819100Y-123418600D03*
X168567100Y-123418600D03*
%TD*%
D23*
%TO.N,GND*%
X149009100Y-100264600D02*
X148461100Y-100812600D01*
X148461100Y-100812600D02*
X139484100Y-100812600D01*
X151422100Y-129133600D02*
X153962100Y-129133600D01*
D24*
X153962100Y-129133600D02*
X154089100Y-129006600D01*
D23*
X154089100Y-129006600D02*
X154089100Y-126974600D01*
X154089100Y-126974600D02*
X155105100Y-125958600D01*
X155105100Y-125958600D02*
X174917100Y-125958600D01*
X174917100Y-125958600D02*
X176087100Y-124788600D01*
X151803100Y-89636600D02*
X152057100Y-89890600D01*
X152057100Y-89890600D02*
X152057100Y-92176600D01*
X152057100Y-92176600D02*
X151041100Y-93192600D01*
X151041100Y-93192600D02*
X139611100Y-93192600D01*
X139611100Y-93192600D02*
X137325100Y-90906600D01*
X137325100Y-90906600D02*
X137325100Y-83540600D01*
X137325100Y-83540600D02*
X137325100Y-81000600D01*
X139484100Y-100812600D02*
X139357100Y-100812600D01*
X139357100Y-100812600D02*
X139103100Y-101066600D01*
X139103100Y-101066600D02*
X135547100Y-101066600D01*
X135547100Y-101066600D02*
X135039100Y-101574600D01*
X135039100Y-101574600D02*
X135039100Y-106400600D01*
X135039100Y-106400600D02*
X135547100Y-106908600D01*
X135547100Y-106908600D02*
X139484100Y-106908600D01*
X130721100Y-81508600D02*
X132753100Y-83540600D01*
X132753100Y-83540600D02*
X137325100Y-83540600D01*
D25*
X175933100Y-121132600D02*
X176087100Y-121286600D01*
D23*
X176087100Y-121286600D02*
X176087100Y-124788600D01*
X139484100Y-106908600D02*
X139484100Y-109956600D01*
X139484100Y-109956600D02*
X139611100Y-110083600D01*
X139611100Y-110083600D02*
X139611100Y-114274600D01*
X139611100Y-114274600D02*
X136690100Y-117195600D01*
X136690100Y-117195600D02*
X136523100Y-117195600D01*
X123355100Y-128244600D02*
X139865100Y-128244600D01*
X139865100Y-128244600D02*
X142913100Y-125196600D01*
X142913100Y-125196600D02*
X142913100Y-120116600D01*
D26*
%TO.N,+5V*%
X163868100Y-104241600D02*
X166281100Y-101828600D01*
X166281100Y-101828600D02*
X166281100Y-95732600D01*
X166281100Y-95732600D02*
X163868100Y-93319600D01*
D23*
X163995100Y-104368600D02*
X163868100Y-104241600D01*
D26*
X163995100Y-118338600D02*
X163995100Y-104368600D01*
D23*
X131523100Y-117195600D02*
X131483100Y-117235600D01*
D26*
X140119100Y-118338600D02*
X149009100Y-118338600D01*
X149009100Y-118338600D02*
X163995100Y-118338600D01*
D23*
X148882100Y-118465600D02*
X148882100Y-129133600D01*
D26*
X149009100Y-118338600D02*
X148882100Y-118465600D01*
X131483100Y-117235600D02*
X133348100Y-119100600D01*
X133348100Y-119100600D02*
X139357100Y-119100600D01*
X139357100Y-119100600D02*
X140119100Y-118338600D01*
D27*
X175933100Y-109448600D02*
X175031400Y-109448600D01*
D26*
X173355000Y-116662200D02*
X171678600Y-118338600D01*
X173355000Y-109855000D02*
X173355000Y-116662200D01*
X173761400Y-109448600D02*
X173355000Y-109855000D01*
X175933100Y-109448600D02*
X173761400Y-109448600D01*
X163995100Y-118338600D02*
X171678600Y-118338600D01*
D23*
%TO.N,Net-(JP2-Pad4)*%
X139484100Y-103860600D02*
X149771100Y-103860600D01*
X149771100Y-103860600D02*
X152311100Y-101320600D01*
X152311100Y-101320600D02*
X152311100Y-94208600D01*
X152311100Y-94208600D02*
X157899100Y-88620600D01*
X157899100Y-88620600D02*
X163995100Y-88620600D01*
X166662100Y-81000600D02*
X165773100Y-81889600D01*
X165773100Y-81889600D02*
X165773100Y-86842600D01*
X165773100Y-86842600D02*
X163995100Y-88620600D01*
%TO.N,Net-(R3-Pad1)*%
X129959100Y-92684600D02*
X130213100Y-92938600D01*
X130213100Y-92938600D02*
X134277100Y-92938600D01*
X134277100Y-92938600D02*
X134785100Y-92430600D01*
X134785100Y-92430600D02*
X134785100Y-90779600D01*
%TO.N,Net-(R2-Pad1)*%
X128816100Y-81508600D02*
X128689100Y-81381600D01*
X128689100Y-81381600D02*
X128689100Y-79984600D01*
X128689100Y-79984600D02*
X128181100Y-79476600D01*
X128181100Y-79476600D02*
X124625100Y-79476600D01*
X124625100Y-79476600D02*
X124371100Y-79730600D01*
X124371100Y-79730600D02*
X124371100Y-85572600D01*
X124371100Y-85572600D02*
X125387100Y-86588600D01*
X125387100Y-86588600D02*
X132753100Y-86588600D01*
X132753100Y-86588600D02*
X134277100Y-88112600D01*
X134277100Y-88112600D02*
X134785100Y-88112600D01*
%TO.N,Net-(HALL1-PadOUT)*%
X152819100Y-123418600D02*
X168567100Y-123418600D01*
%TD*%
D28*
%TO.N,GND*%
X179565700Y-77875280D02*
X179565699Y-132384476D01*
X117436501Y-132131920D01*
X117436501Y-128623805D01*
X121590918Y-128623805D01*
X121658329Y-128828228D01*
X121795108Y-129049712D01*
X121972468Y-129240256D01*
X122183593Y-129392537D01*
X122385998Y-129485002D01*
X122276425Y-129574925D01*
X122175354Y-129698081D01*
X122100251Y-129838588D01*
X122054003Y-129991048D01*
X122038387Y-130149600D01*
X122054003Y-130308152D01*
X122100251Y-130460612D01*
X122175354Y-130601119D01*
X122276425Y-130724275D01*
X122399581Y-130825346D01*
X122540088Y-130900449D01*
X122692548Y-130946697D01*
X122811371Y-130958400D01*
X123898829Y-130958400D01*
X124017652Y-130946697D01*
X124170112Y-130900449D01*
X124310619Y-130825346D01*
X124433775Y-130724275D01*
X124534846Y-130601119D01*
X124609949Y-130460612D01*
X124656197Y-130308152D01*
X124671813Y-130149600D01*
X124656197Y-129991048D01*
X124609949Y-129838588D01*
X124534846Y-129698081D01*
X124433775Y-129574925D01*
X124324202Y-129485002D01*
X124526607Y-129392537D01*
X124737732Y-129240256D01*
X124915092Y-129049712D01*
X125051871Y-128828228D01*
X125119282Y-128623805D01*
X124957871Y-128422000D01*
X123532500Y-128422000D01*
X123532500Y-128442000D01*
X123177700Y-128442000D01*
X123177700Y-128422000D01*
X121752329Y-128422000D01*
X121590918Y-128623805D01*
X117436501Y-128623805D01*
X117436501Y-128319198D01*
X142735300Y-128319198D01*
X142735300Y-129948001D01*
X142750736Y-130104728D01*
X142811737Y-130305821D01*
X142910797Y-130491150D01*
X143044109Y-130653591D01*
X143206550Y-130786903D01*
X143391878Y-130885963D01*
X143592971Y-130946964D01*
X143802100Y-130967561D01*
X144011228Y-130946964D01*
X144212321Y-130885963D01*
X144397650Y-130786903D01*
X144560091Y-130653591D01*
X144693403Y-130491150D01*
X144792463Y-130305822D01*
X144853464Y-130104729D01*
X144868900Y-129948002D01*
X144868900Y-128319198D01*
X145275300Y-128319198D01*
X145275300Y-129948001D01*
X145290736Y-130104728D01*
X145351737Y-130305821D01*
X145450797Y-130491150D01*
X145584109Y-130653591D01*
X145746550Y-130786903D01*
X145931878Y-130885963D01*
X146132971Y-130946964D01*
X146342100Y-130967561D01*
X146551228Y-130946964D01*
X146752321Y-130885963D01*
X146937650Y-130786903D01*
X147100091Y-130653591D01*
X147233403Y-130491150D01*
X147332463Y-130305822D01*
X147393464Y-130104729D01*
X147408900Y-129948002D01*
X147408900Y-128319198D01*
X147393464Y-128162471D01*
X147332463Y-127961378D01*
X147233403Y-127776050D01*
X147100091Y-127613609D01*
X146937650Y-127480297D01*
X146752322Y-127381237D01*
X146551229Y-127320236D01*
X146342100Y-127299639D01*
X146132972Y-127320236D01*
X145931879Y-127381237D01*
X145746551Y-127480297D01*
X145584110Y-127613609D01*
X145450798Y-127776050D01*
X145351738Y-127961378D01*
X145290736Y-128162471D01*
X145275300Y-128319198D01*
X144868900Y-128319198D01*
X144853464Y-128162471D01*
X144792463Y-127961378D01*
X144693403Y-127776050D01*
X144560091Y-127613609D01*
X144397650Y-127480297D01*
X144212322Y-127381237D01*
X144011229Y-127320236D01*
X143802100Y-127299639D01*
X143592972Y-127320236D01*
X143391879Y-127381237D01*
X143206551Y-127480297D01*
X143044110Y-127613609D01*
X142910798Y-127776050D01*
X142811738Y-127961378D01*
X142750736Y-128162471D01*
X142735300Y-128319198D01*
X117436501Y-128319198D01*
X117436501Y-127865395D01*
X121590918Y-127865395D01*
X121752329Y-128067200D01*
X123177700Y-128067200D01*
X123177700Y-128047200D01*
X123532500Y-128047200D01*
X123532500Y-128067200D01*
X124957871Y-128067200D01*
X125119282Y-127865395D01*
X125051871Y-127660972D01*
X124915092Y-127439488D01*
X124737732Y-127248944D01*
X124526607Y-127096663D01*
X124324202Y-127004198D01*
X124433775Y-126914275D01*
X124534846Y-126791119D01*
X124609949Y-126650612D01*
X124656197Y-126498152D01*
X124671813Y-126339600D01*
X124656197Y-126181048D01*
X124609949Y-126028588D01*
X124534846Y-125888081D01*
X124433775Y-125764925D01*
X124310619Y-125663854D01*
X124170112Y-125588751D01*
X124017652Y-125542503D01*
X123898829Y-125530800D01*
X122811371Y-125530800D01*
X122692548Y-125542503D01*
X122540088Y-125588751D01*
X122399581Y-125663854D01*
X122276425Y-125764925D01*
X122175354Y-125888081D01*
X122100251Y-126028588D01*
X122054003Y-126181048D01*
X122038387Y-126339600D01*
X122054003Y-126498152D01*
X122100251Y-126650612D01*
X122175354Y-126791119D01*
X122276425Y-126914275D01*
X122385998Y-127004198D01*
X122183593Y-127096663D01*
X121972468Y-127248944D01*
X121795108Y-127439488D01*
X121658329Y-127660972D01*
X121590918Y-127865395D01*
X117436501Y-127865395D01*
X117436501Y-122290600D01*
X127311826Y-122290600D01*
X127311826Y-126100600D01*
X127317711Y-126160351D01*
X127335140Y-126217806D01*
X127363442Y-126270757D01*
X127401532Y-126317168D01*
X127447943Y-126355258D01*
X127500894Y-126383560D01*
X127558349Y-126400989D01*
X127618100Y-126406874D01*
X131428100Y-126406874D01*
X131487851Y-126400989D01*
X131545306Y-126383560D01*
X131598257Y-126355258D01*
X131644668Y-126317168D01*
X131682758Y-126270757D01*
X131711060Y-126217806D01*
X131728489Y-126160351D01*
X131734374Y-126100600D01*
X131734374Y-122290600D01*
X136311826Y-122290600D01*
X136311826Y-126100600D01*
X136317711Y-126160351D01*
X136335140Y-126217806D01*
X136363442Y-126270757D01*
X136401532Y-126317168D01*
X136447943Y-126355258D01*
X136500894Y-126383560D01*
X136558349Y-126400989D01*
X136618100Y-126406874D01*
X140428100Y-126406874D01*
X140487851Y-126400989D01*
X140545306Y-126383560D01*
X140598257Y-126355258D01*
X140644668Y-126317168D01*
X140682758Y-126270757D01*
X140711060Y-126217806D01*
X140728489Y-126160351D01*
X140734374Y-126100600D01*
X140734374Y-122290600D01*
X140728489Y-122230849D01*
X140711060Y-122173394D01*
X140682758Y-122120443D01*
X140644668Y-122074032D01*
X140598257Y-122035942D01*
X140545306Y-122007640D01*
X140487851Y-121990211D01*
X140428100Y-121984326D01*
X136618100Y-121984326D01*
X136558349Y-121990211D01*
X136500894Y-122007640D01*
X136447943Y-122035942D01*
X136401532Y-122074032D01*
X136363442Y-122120443D01*
X136335140Y-122173394D01*
X136317711Y-122230849D01*
X136311826Y-122290600D01*
X131734374Y-122290600D01*
X131728489Y-122230849D01*
X131711060Y-122173394D01*
X131682758Y-122120443D01*
X131644668Y-122074032D01*
X131598257Y-122035942D01*
X131545306Y-122007640D01*
X131487851Y-121990211D01*
X131428100Y-121984326D01*
X127618100Y-121984326D01*
X127558349Y-121990211D01*
X127500894Y-122007640D01*
X127447943Y-122035942D01*
X127401532Y-122074032D01*
X127363442Y-122120443D01*
X127335140Y-122173394D01*
X127317711Y-122230849D01*
X127311826Y-122290600D01*
X117436501Y-122290600D01*
X117436501Y-119894536D01*
X121119900Y-119894536D01*
X121119900Y-120084664D01*
X121156992Y-120271138D01*
X121229751Y-120446794D01*
X121335380Y-120604879D01*
X121469821Y-120739320D01*
X121627906Y-120844949D01*
X121803562Y-120917708D01*
X121990036Y-120954800D01*
X122180164Y-120954800D01*
X122366638Y-120917708D01*
X122542294Y-120844949D01*
X122700379Y-120739320D01*
X122834820Y-120604879D01*
X122940449Y-120446794D01*
X123013208Y-120271138D01*
X123050300Y-120084664D01*
X123050300Y-119894536D01*
X123013208Y-119708062D01*
X122940449Y-119532406D01*
X122834820Y-119374321D01*
X122700379Y-119239880D01*
X122542294Y-119134251D01*
X122366638Y-119061492D01*
X122180164Y-119024400D01*
X121990036Y-119024400D01*
X121803562Y-119061492D01*
X121627906Y-119134251D01*
X121469821Y-119239880D01*
X121335380Y-119374321D01*
X121229751Y-119532406D01*
X121156992Y-119708062D01*
X121119900Y-119894536D01*
X117436501Y-119894536D01*
X117436501Y-117070516D01*
X130253100Y-117070516D01*
X130253100Y-117320684D01*
X130301905Y-117566045D01*
X130397641Y-117797171D01*
X130536627Y-118005178D01*
X130713522Y-118182073D01*
X130921529Y-118321059D01*
X131152655Y-118416795D01*
X131398016Y-118465600D01*
X131648184Y-118465600D01*
X131697502Y-118455790D01*
X132820507Y-119578796D01*
X132842773Y-119605927D01*
X132869904Y-119628193D01*
X132869908Y-119628197D01*
X132951067Y-119694802D01*
X133074619Y-119760842D01*
X133208680Y-119801509D01*
X133313164Y-119811800D01*
X133313173Y-119811800D01*
X133348099Y-119815240D01*
X133383025Y-119811800D01*
X139322174Y-119811800D01*
X139357100Y-119815240D01*
X139392026Y-119811800D01*
X139392036Y-119811800D01*
X139496520Y-119801509D01*
X139630581Y-119760842D01*
X139754133Y-119694802D01*
X139862427Y-119605927D01*
X139884701Y-119578786D01*
X140413688Y-119049800D01*
X148272500Y-119049800D01*
X148272501Y-127491828D01*
X148124110Y-127613609D01*
X147990798Y-127776050D01*
X147891738Y-127961378D01*
X147830736Y-128162471D01*
X147815300Y-128319198D01*
X147815300Y-129948001D01*
X147830736Y-130104728D01*
X147891737Y-130305821D01*
X147990797Y-130491150D01*
X148124109Y-130653591D01*
X148286550Y-130786903D01*
X148471878Y-130885963D01*
X148672971Y-130946964D01*
X148882100Y-130967561D01*
X149091228Y-130946964D01*
X149292321Y-130885963D01*
X149477650Y-130786903D01*
X149640091Y-130653591D01*
X149773403Y-130491150D01*
X149872463Y-130305822D01*
X149887346Y-130256761D01*
X149912953Y-130376663D01*
X150035802Y-130661839D01*
X150211925Y-130917569D01*
X150434554Y-131134026D01*
X150695134Y-131302891D01*
X151002225Y-131412564D01*
X151244700Y-131255074D01*
X151244700Y-129311000D01*
X151599500Y-129311000D01*
X151599500Y-131255074D01*
X151841975Y-131412564D01*
X152149066Y-131302891D01*
X152409646Y-131134026D01*
X152632275Y-130917569D01*
X152692100Y-130830703D01*
X152751925Y-130917569D01*
X152974554Y-131134026D01*
X153235134Y-131302891D01*
X153542225Y-131412564D01*
X153784700Y-131255074D01*
X153784700Y-129311000D01*
X151599500Y-129311000D01*
X151244700Y-129311000D01*
X151224700Y-129311000D01*
X151224700Y-128956200D01*
X151244700Y-128956200D01*
X151244700Y-127012126D01*
X151599500Y-127012126D01*
X151599500Y-128956200D01*
X153784700Y-128956200D01*
X153784700Y-127012126D01*
X154139500Y-127012126D01*
X154139500Y-128956200D01*
X154159500Y-128956200D01*
X154159500Y-129311000D01*
X154139500Y-129311000D01*
X154139500Y-131255074D01*
X154381975Y-131412564D01*
X154689066Y-131302891D01*
X154949646Y-131134026D01*
X155172275Y-130917569D01*
X155348398Y-130661839D01*
X155471247Y-130376663D01*
X155496855Y-130256761D01*
X155511737Y-130305821D01*
X155610797Y-130491150D01*
X155744109Y-130653591D01*
X155906550Y-130786903D01*
X156091878Y-130885963D01*
X156292971Y-130946964D01*
X156502100Y-130967561D01*
X156711228Y-130946964D01*
X156912321Y-130885963D01*
X157097650Y-130786903D01*
X157260091Y-130653591D01*
X157393403Y-130491150D01*
X157492463Y-130305822D01*
X157553464Y-130104729D01*
X157568900Y-129948002D01*
X157568900Y-128446198D01*
X160642300Y-128446198D01*
X160642300Y-130075001D01*
X160657736Y-130231728D01*
X160718737Y-130432821D01*
X160817797Y-130618150D01*
X160951109Y-130780591D01*
X161113550Y-130913903D01*
X161298878Y-131012963D01*
X161499971Y-131073964D01*
X161709100Y-131094561D01*
X161918228Y-131073964D01*
X162119321Y-131012963D01*
X162304650Y-130913903D01*
X162467091Y-130780591D01*
X162600403Y-130618150D01*
X162699463Y-130432822D01*
X162760464Y-130231729D01*
X162775900Y-130075002D01*
X162775900Y-128446198D01*
X163182300Y-128446198D01*
X163182300Y-130075001D01*
X163197736Y-130231728D01*
X163258737Y-130432821D01*
X163357797Y-130618150D01*
X163491109Y-130780591D01*
X163653550Y-130913903D01*
X163838878Y-131012963D01*
X164039971Y-131073964D01*
X164249100Y-131094561D01*
X164458228Y-131073964D01*
X164659321Y-131012963D01*
X164844650Y-130913903D01*
X165007091Y-130780591D01*
X165140403Y-130618150D01*
X165239463Y-130432822D01*
X165300464Y-130231729D01*
X165315900Y-130075002D01*
X165315900Y-128446198D01*
X165722300Y-128446198D01*
X165722300Y-130075001D01*
X165737736Y-130231728D01*
X165798737Y-130432821D01*
X165897797Y-130618150D01*
X166031109Y-130780591D01*
X166193550Y-130913903D01*
X166378878Y-131012963D01*
X166579971Y-131073964D01*
X166789100Y-131094561D01*
X166998228Y-131073964D01*
X167199321Y-131012963D01*
X167384650Y-130913903D01*
X167547091Y-130780591D01*
X167680403Y-130618150D01*
X167779463Y-130432822D01*
X167840464Y-130231729D01*
X167855900Y-130075002D01*
X167855900Y-128446198D01*
X168262300Y-128446198D01*
X168262300Y-130075001D01*
X168277736Y-130231728D01*
X168338737Y-130432821D01*
X168437797Y-130618150D01*
X168571109Y-130780591D01*
X168733550Y-130913903D01*
X168918878Y-131012963D01*
X169119971Y-131073964D01*
X169329100Y-131094561D01*
X169538228Y-131073964D01*
X169739321Y-131012963D01*
X169924650Y-130913903D01*
X170087091Y-130780591D01*
X170220403Y-130618150D01*
X170319463Y-130432822D01*
X170380464Y-130231729D01*
X170395900Y-130075002D01*
X170395900Y-128446198D01*
X170802300Y-128446198D01*
X170802300Y-130075001D01*
X170817736Y-130231728D01*
X170878737Y-130432821D01*
X170977797Y-130618150D01*
X171111109Y-130780591D01*
X171273550Y-130913903D01*
X171458878Y-131012963D01*
X171659971Y-131073964D01*
X171869100Y-131094561D01*
X172078228Y-131073964D01*
X172279321Y-131012963D01*
X172464650Y-130913903D01*
X172627091Y-130780591D01*
X172760403Y-130618150D01*
X172859463Y-130432822D01*
X172920464Y-130231729D01*
X172935900Y-130075002D01*
X172935900Y-128446198D01*
X173342300Y-128446198D01*
X173342300Y-130075001D01*
X173357736Y-130231728D01*
X173418737Y-130432821D01*
X173517797Y-130618150D01*
X173651109Y-130780591D01*
X173813550Y-130913903D01*
X173998878Y-131012963D01*
X174199971Y-131073964D01*
X174409100Y-131094561D01*
X174618228Y-131073964D01*
X174819321Y-131012963D01*
X175004650Y-130913903D01*
X175167091Y-130780591D01*
X175300403Y-130618150D01*
X175399463Y-130432822D01*
X175460464Y-130231729D01*
X175475900Y-130075002D01*
X175475900Y-128446198D01*
X175460464Y-128289471D01*
X175399463Y-128088378D01*
X175300403Y-127903050D01*
X175167091Y-127740609D01*
X175004650Y-127607297D01*
X174819322Y-127508237D01*
X174618229Y-127447236D01*
X174409100Y-127426639D01*
X174199972Y-127447236D01*
X173998879Y-127508237D01*
X173813551Y-127607297D01*
X173651110Y-127740609D01*
X173517798Y-127903050D01*
X173418738Y-128088378D01*
X173357736Y-128289471D01*
X173342300Y-128446198D01*
X172935900Y-128446198D01*
X172920464Y-128289471D01*
X172859463Y-128088378D01*
X172760403Y-127903050D01*
X172627091Y-127740609D01*
X172464650Y-127607297D01*
X172279322Y-127508237D01*
X172078229Y-127447236D01*
X171869100Y-127426639D01*
X171659972Y-127447236D01*
X171458879Y-127508237D01*
X171273551Y-127607297D01*
X171111110Y-127740609D01*
X170977798Y-127903050D01*
X170878738Y-128088378D01*
X170817736Y-128289471D01*
X170802300Y-128446198D01*
X170395900Y-128446198D01*
X170380464Y-128289471D01*
X170319463Y-128088378D01*
X170220403Y-127903050D01*
X170087091Y-127740609D01*
X169924650Y-127607297D01*
X169739322Y-127508237D01*
X169538229Y-127447236D01*
X169329100Y-127426639D01*
X169119972Y-127447236D01*
X168918879Y-127508237D01*
X168733551Y-127607297D01*
X168571110Y-127740609D01*
X168437798Y-127903050D01*
X168338738Y-128088378D01*
X168277736Y-128289471D01*
X168262300Y-128446198D01*
X167855900Y-128446198D01*
X167840464Y-128289471D01*
X167779463Y-128088378D01*
X167680403Y-127903050D01*
X167547091Y-127740609D01*
X167384650Y-127607297D01*
X167199322Y-127508237D01*
X166998229Y-127447236D01*
X166789100Y-127426639D01*
X166579972Y-127447236D01*
X166378879Y-127508237D01*
X166193551Y-127607297D01*
X166031110Y-127740609D01*
X165897798Y-127903050D01*
X165798738Y-128088378D01*
X165737736Y-128289471D01*
X165722300Y-128446198D01*
X165315900Y-128446198D01*
X165300464Y-128289471D01*
X165239463Y-128088378D01*
X165140403Y-127903050D01*
X165007091Y-127740609D01*
X164844650Y-127607297D01*
X164659322Y-127508237D01*
X164458229Y-127447236D01*
X164249100Y-127426639D01*
X164039972Y-127447236D01*
X163838879Y-127508237D01*
X163653551Y-127607297D01*
X163491110Y-127740609D01*
X163357798Y-127903050D01*
X163258738Y-128088378D01*
X163197736Y-128289471D01*
X163182300Y-128446198D01*
X162775900Y-128446198D01*
X162760464Y-128289471D01*
X162699463Y-128088378D01*
X162600403Y-127903050D01*
X162467091Y-127740609D01*
X162304650Y-127607297D01*
X162119322Y-127508237D01*
X161918229Y-127447236D01*
X161709100Y-127426639D01*
X161499972Y-127447236D01*
X161298879Y-127508237D01*
X161113551Y-127607297D01*
X160951110Y-127740609D01*
X160817798Y-127903050D01*
X160718738Y-128088378D01*
X160657736Y-128289471D01*
X160642300Y-128446198D01*
X157568900Y-128446198D01*
X157568900Y-128319198D01*
X157553464Y-128162471D01*
X157492463Y-127961378D01*
X157393403Y-127776050D01*
X157260091Y-127613609D01*
X157097650Y-127480297D01*
X156912322Y-127381237D01*
X156711229Y-127320236D01*
X156502100Y-127299639D01*
X156292972Y-127320236D01*
X156091879Y-127381237D01*
X155906551Y-127480297D01*
X155744110Y-127613609D01*
X155610798Y-127776050D01*
X155511738Y-127961378D01*
X155496855Y-128010441D01*
X155471247Y-127890537D01*
X155348398Y-127605361D01*
X155172275Y-127349631D01*
X154949646Y-127133174D01*
X154689066Y-126964309D01*
X154381975Y-126854636D01*
X154139500Y-127012126D01*
X153784700Y-127012126D01*
X153542225Y-126854636D01*
X153235134Y-126964309D01*
X152974554Y-127133174D01*
X152751925Y-127349631D01*
X152692100Y-127436497D01*
X152632275Y-127349631D01*
X152409646Y-127133174D01*
X152149066Y-126964309D01*
X151841975Y-126854636D01*
X151599500Y-127012126D01*
X151244700Y-127012126D01*
X151002225Y-126854636D01*
X150695134Y-126964309D01*
X150434554Y-127133174D01*
X150211925Y-127349631D01*
X150035802Y-127605361D01*
X149912953Y-127890537D01*
X149887346Y-128010439D01*
X149872463Y-127961378D01*
X149773403Y-127776050D01*
X149640091Y-127613609D01*
X149491700Y-127491828D01*
X149491700Y-123334173D01*
X151961900Y-123334173D01*
X151961900Y-123503027D01*
X151994841Y-123668636D01*
X152059459Y-123824637D01*
X152153269Y-123965033D01*
X152272667Y-124084431D01*
X152413063Y-124178241D01*
X152569064Y-124242859D01*
X152734673Y-124275800D01*
X152903527Y-124275800D01*
X153069136Y-124242859D01*
X153225137Y-124178241D01*
X153365533Y-124084431D01*
X153421764Y-124028200D01*
X167964436Y-124028200D01*
X168020667Y-124084431D01*
X168161063Y-124178241D01*
X168317064Y-124242859D01*
X168482673Y-124275800D01*
X168651527Y-124275800D01*
X168817136Y-124242859D01*
X168973137Y-124178241D01*
X169113533Y-124084431D01*
X169232931Y-123965033D01*
X169326741Y-123824637D01*
X169391359Y-123668636D01*
X169424300Y-123503027D01*
X169424300Y-123334173D01*
X169391359Y-123168564D01*
X169326741Y-123012563D01*
X169232931Y-122872167D01*
X169113533Y-122752769D01*
X168973137Y-122658959D01*
X168817136Y-122594341D01*
X168651527Y-122561400D01*
X168482673Y-122561400D01*
X168317064Y-122594341D01*
X168161063Y-122658959D01*
X168020667Y-122752769D01*
X167964436Y-122809000D01*
X153421764Y-122809000D01*
X153365533Y-122752769D01*
X153225137Y-122658959D01*
X153069136Y-122594341D01*
X152903527Y-122561400D01*
X152734673Y-122561400D01*
X152569064Y-122594341D01*
X152413063Y-122658959D01*
X152272667Y-122752769D01*
X152153269Y-122872167D01*
X152059459Y-123012563D01*
X151994841Y-123168564D01*
X151961900Y-123334173D01*
X149491700Y-123334173D01*
X149491700Y-119049800D01*
X163960164Y-119049800D01*
X163995100Y-119053241D01*
X164030036Y-119049800D01*
X171643674Y-119049800D01*
X171678600Y-119053240D01*
X171713526Y-119049800D01*
X171713536Y-119049800D01*
X171818020Y-119039509D01*
X171952081Y-118998842D01*
X172075633Y-118932802D01*
X172183927Y-118843927D01*
X172206202Y-118816786D01*
X173833196Y-117189793D01*
X173860327Y-117167527D01*
X173882593Y-117140396D01*
X173882598Y-117140391D01*
X173949202Y-117059233D01*
X174015242Y-116935682D01*
X174055909Y-116801620D01*
X174066200Y-116697136D01*
X174066200Y-116697129D01*
X174069640Y-116662200D01*
X174066200Y-116627272D01*
X174066200Y-111988600D01*
X174200985Y-111988600D01*
X174220602Y-112187771D01*
X174278698Y-112379287D01*
X174373040Y-112555790D01*
X174500004Y-112710496D01*
X174654710Y-112837460D01*
X174831213Y-112931802D01*
X175022729Y-112989898D01*
X175171998Y-113004600D01*
X176694202Y-113004600D01*
X176843471Y-112989898D01*
X177034987Y-112931802D01*
X177211490Y-112837460D01*
X177366196Y-112710496D01*
X177493160Y-112555790D01*
X177587502Y-112379287D01*
X177645598Y-112187771D01*
X177665215Y-111988600D01*
X177645598Y-111789429D01*
X177587502Y-111597913D01*
X177493160Y-111421410D01*
X177366196Y-111266704D01*
X177211490Y-111139740D01*
X177034987Y-111045398D01*
X176843471Y-110987302D01*
X176694202Y-110972600D01*
X175171998Y-110972600D01*
X175022729Y-110987302D01*
X174831213Y-111045398D01*
X174654710Y-111139740D01*
X174500004Y-111266704D01*
X174373040Y-111421410D01*
X174278698Y-111597913D01*
X174220602Y-111789429D01*
X174200985Y-111988600D01*
X174066200Y-111988600D01*
X174066200Y-110159800D01*
X174491226Y-110159800D01*
X174500004Y-110170496D01*
X174654710Y-110297460D01*
X174831213Y-110391802D01*
X175022729Y-110449898D01*
X175171998Y-110464600D01*
X176694202Y-110464600D01*
X176843471Y-110449898D01*
X177034987Y-110391802D01*
X177211490Y-110297460D01*
X177366196Y-110170496D01*
X177493160Y-110015790D01*
X177587502Y-109839287D01*
X177645598Y-109647771D01*
X177665215Y-109448600D01*
X177645598Y-109249429D01*
X177587502Y-109057913D01*
X177493160Y-108881410D01*
X177366196Y-108726704D01*
X177211490Y-108599740D01*
X177034987Y-108505398D01*
X176843471Y-108447302D01*
X176694202Y-108432600D01*
X175171998Y-108432600D01*
X175022729Y-108447302D01*
X174831213Y-108505398D01*
X174654710Y-108599740D01*
X174500004Y-108726704D01*
X174491226Y-108737400D01*
X173796325Y-108737400D01*
X173761399Y-108733960D01*
X173726473Y-108737400D01*
X173726464Y-108737400D01*
X173621980Y-108747691D01*
X173487919Y-108788358D01*
X173364367Y-108854398D01*
X173256073Y-108943273D01*
X173233802Y-108970410D01*
X172876810Y-109327403D01*
X172849673Y-109349674D01*
X172760798Y-109457968D01*
X172694758Y-109581520D01*
X172654091Y-109715581D01*
X172643800Y-109820065D01*
X172643800Y-109820074D01*
X172640360Y-109855000D01*
X172643800Y-109889926D01*
X172643801Y-116367610D01*
X171384013Y-117627400D01*
X164706300Y-117627400D01*
X164706300Y-107320475D01*
X173755443Y-107320475D01*
X173856847Y-107607342D01*
X174019394Y-107860224D01*
X174228152Y-108076536D01*
X174475100Y-108247965D01*
X174750747Y-108367923D01*
X175044500Y-108431800D01*
X175755700Y-108431800D01*
X175755700Y-107086000D01*
X176110500Y-107086000D01*
X176110500Y-108431800D01*
X176821700Y-108431800D01*
X177115453Y-108367923D01*
X177391100Y-108247965D01*
X177638048Y-108076536D01*
X177846806Y-107860224D01*
X178009353Y-107607342D01*
X178110757Y-107320475D01*
X177952527Y-107086000D01*
X176110500Y-107086000D01*
X175755700Y-107086000D01*
X173913673Y-107086000D01*
X173755443Y-107320475D01*
X164706300Y-107320475D01*
X164706300Y-106496725D01*
X173755443Y-106496725D01*
X173913673Y-106731200D01*
X175755700Y-106731200D01*
X175755700Y-105385400D01*
X176110500Y-105385400D01*
X176110500Y-106731200D01*
X177952527Y-106731200D01*
X178110757Y-106496725D01*
X178009353Y-106209858D01*
X177846806Y-105956976D01*
X177638048Y-105740664D01*
X177391100Y-105569235D01*
X177115453Y-105449277D01*
X176821700Y-105385400D01*
X176110500Y-105385400D01*
X175755700Y-105385400D01*
X175044500Y-105385400D01*
X174750747Y-105449277D01*
X174475100Y-105569235D01*
X174228152Y-105740664D01*
X174019394Y-105956976D01*
X173856847Y-106209858D01*
X173755443Y-106496725D01*
X164706300Y-106496725D01*
X164706300Y-105019846D01*
X164755926Y-104970220D01*
X164881013Y-104783013D01*
X164967175Y-104575001D01*
X165011100Y-104354176D01*
X165011100Y-104129024D01*
X165007013Y-104108475D01*
X166759301Y-102356188D01*
X166786426Y-102333927D01*
X166808688Y-102306801D01*
X166808697Y-102306792D01*
X166875302Y-102225633D01*
X166926813Y-102129263D01*
X166941342Y-102102081D01*
X166971519Y-102002600D01*
X168223793Y-102002600D01*
X168246965Y-102237871D01*
X168315591Y-102464100D01*
X168427033Y-102672594D01*
X168577010Y-102855340D01*
X168759756Y-103005317D01*
X168968250Y-103116759D01*
X169194479Y-103185385D01*
X169370790Y-103202750D01*
X171279410Y-103202750D01*
X171455721Y-103185385D01*
X171681950Y-103116759D01*
X171890444Y-103005317D01*
X172073190Y-102855340D01*
X172223167Y-102672594D01*
X172334609Y-102464100D01*
X172403235Y-102237871D01*
X172426407Y-102002600D01*
X172403235Y-101767329D01*
X172334609Y-101541100D01*
X172223167Y-101332606D01*
X172073190Y-101149860D01*
X171890444Y-100999883D01*
X171681950Y-100888441D01*
X171455721Y-100819815D01*
X171279410Y-100802450D01*
X169370790Y-100802450D01*
X169194479Y-100819815D01*
X168968250Y-100888441D01*
X168759756Y-100999883D01*
X168577010Y-101149860D01*
X168427033Y-101332606D01*
X168315591Y-101541100D01*
X168246965Y-101767329D01*
X168223793Y-102002600D01*
X166971519Y-102002600D01*
X166982009Y-101968020D01*
X166992300Y-101863536D01*
X166992300Y-101863527D01*
X166995740Y-101828601D01*
X166992300Y-101793675D01*
X166992300Y-97002600D01*
X168223793Y-97002600D01*
X168246965Y-97237871D01*
X168315591Y-97464100D01*
X168427033Y-97672594D01*
X168577010Y-97855340D01*
X168759756Y-98005317D01*
X168968250Y-98116759D01*
X169194479Y-98185385D01*
X169370790Y-98202750D01*
X171279410Y-98202750D01*
X171455721Y-98185385D01*
X171681950Y-98116759D01*
X171890444Y-98005317D01*
X172073190Y-97855340D01*
X172223167Y-97672594D01*
X172334609Y-97464100D01*
X172403235Y-97237871D01*
X172426407Y-97002600D01*
X172403235Y-96767329D01*
X172334609Y-96541100D01*
X172223167Y-96332606D01*
X172073190Y-96149860D01*
X171890444Y-95999883D01*
X171681950Y-95888441D01*
X171455721Y-95819815D01*
X171279410Y-95802450D01*
X169370790Y-95802450D01*
X169194479Y-95819815D01*
X168968250Y-95888441D01*
X168759756Y-95999883D01*
X168577010Y-96149860D01*
X168427033Y-96332606D01*
X168315591Y-96541100D01*
X168246965Y-96767329D01*
X168223793Y-97002600D01*
X166992300Y-97002600D01*
X166992300Y-95767525D01*
X166995740Y-95732599D01*
X166992300Y-95697673D01*
X166992300Y-95697664D01*
X166982009Y-95593180D01*
X166941342Y-95459119D01*
X166875302Y-95335567D01*
X166808697Y-95254408D01*
X166808693Y-95254404D01*
X166786427Y-95227273D01*
X166759296Y-95205007D01*
X165007013Y-93452725D01*
X165011100Y-93432176D01*
X165011100Y-93207024D01*
X164967175Y-92986199D01*
X164881013Y-92778187D01*
X164755926Y-92590980D01*
X164596720Y-92431774D01*
X164409513Y-92306687D01*
X164201501Y-92220525D01*
X163980676Y-92176600D01*
X163755524Y-92176600D01*
X163534699Y-92220525D01*
X163326687Y-92306687D01*
X163139480Y-92431774D01*
X162980274Y-92590980D01*
X162855187Y-92778187D01*
X162769025Y-92986199D01*
X162725100Y-93207024D01*
X162725100Y-93432176D01*
X162769025Y-93653001D01*
X162855187Y-93861013D01*
X162980274Y-94048220D01*
X163139480Y-94207426D01*
X163326687Y-94332513D01*
X163534699Y-94418675D01*
X163755524Y-94462600D01*
X163980676Y-94462600D01*
X164001225Y-94458513D01*
X165569901Y-96027190D01*
X165569900Y-101534011D01*
X164001225Y-103102687D01*
X163980676Y-103098600D01*
X163755524Y-103098600D01*
X163534699Y-103142525D01*
X163326687Y-103228687D01*
X163139480Y-103353774D01*
X162980274Y-103512980D01*
X162855187Y-103700187D01*
X162769025Y-103908199D01*
X162725100Y-104129024D01*
X162725100Y-104354176D01*
X162769025Y-104575001D01*
X162855187Y-104783013D01*
X162980274Y-104970220D01*
X163139480Y-105129426D01*
X163283901Y-105225924D01*
X163283900Y-117627400D01*
X149044025Y-117627400D01*
X149009099Y-117623960D01*
X148974173Y-117627400D01*
X140154028Y-117627400D01*
X140119100Y-117623960D01*
X140084171Y-117627400D01*
X140084164Y-117627400D01*
X139979680Y-117637691D01*
X139845618Y-117678358D01*
X139722067Y-117744398D01*
X139640909Y-117811002D01*
X139640904Y-117811007D01*
X139613773Y-117833273D01*
X139591507Y-117860404D01*
X139062512Y-118389400D01*
X137853759Y-118389400D01*
X137910772Y-118332387D01*
X137760699Y-118182314D01*
X138064969Y-118096554D01*
X138211110Y-117778439D01*
X138292382Y-117437925D01*
X138305660Y-117088099D01*
X138250437Y-116742405D01*
X138128833Y-116414126D01*
X138064969Y-116294646D01*
X137760697Y-116208885D01*
X136773981Y-117195600D01*
X136788124Y-117209742D01*
X136537242Y-117460624D01*
X136523100Y-117446481D01*
X136508958Y-117460624D01*
X136258076Y-117209742D01*
X136272219Y-117195600D01*
X135285503Y-116208885D01*
X134981231Y-116294646D01*
X134961389Y-116337838D01*
X134832678Y-116209127D01*
X134624671Y-116070141D01*
X134393545Y-115974405D01*
X134311087Y-115958003D01*
X135536385Y-115958003D01*
X136523100Y-116944719D01*
X137509815Y-115958003D01*
X137424054Y-115653731D01*
X137105939Y-115507590D01*
X136765425Y-115426318D01*
X136415599Y-115413040D01*
X136069905Y-115468263D01*
X135741626Y-115589867D01*
X135622146Y-115653731D01*
X135536385Y-115958003D01*
X134311087Y-115958003D01*
X134148184Y-115925600D01*
X133898016Y-115925600D01*
X133652655Y-115974405D01*
X133421529Y-116070141D01*
X133213522Y-116209127D01*
X133036627Y-116386022D01*
X132897641Y-116594029D01*
X132801905Y-116825155D01*
X132773100Y-116969969D01*
X132744295Y-116825155D01*
X132648559Y-116594029D01*
X132509573Y-116386022D01*
X132332678Y-116209127D01*
X132124671Y-116070141D01*
X131893545Y-115974405D01*
X131648184Y-115925600D01*
X131398016Y-115925600D01*
X131152655Y-115974405D01*
X130921529Y-116070141D01*
X130713522Y-116209127D01*
X130536627Y-116386022D01*
X130397641Y-116594029D01*
X130301905Y-116825155D01*
X130253100Y-117070516D01*
X117436501Y-117070516D01*
X117436501Y-114814536D01*
X121119900Y-114814536D01*
X121119900Y-115004664D01*
X121156992Y-115191138D01*
X121229751Y-115366794D01*
X121335380Y-115524879D01*
X121469821Y-115659320D01*
X121627906Y-115764949D01*
X121803562Y-115837708D01*
X121990036Y-115874800D01*
X122180164Y-115874800D01*
X122366638Y-115837708D01*
X122542294Y-115764949D01*
X122700379Y-115659320D01*
X122834820Y-115524879D01*
X122940449Y-115366794D01*
X123013208Y-115191138D01*
X123050300Y-115004664D01*
X123050300Y-114814536D01*
X123013208Y-114628062D01*
X122940449Y-114452406D01*
X122834820Y-114294321D01*
X122700379Y-114159880D01*
X122542294Y-114054251D01*
X122366638Y-113981492D01*
X122180164Y-113944400D01*
X121990036Y-113944400D01*
X121803562Y-113981492D01*
X121627906Y-114054251D01*
X121469821Y-114159880D01*
X121335380Y-114294321D01*
X121229751Y-114452406D01*
X121156992Y-114628062D01*
X121119900Y-114814536D01*
X117436501Y-114814536D01*
X117436501Y-110975921D01*
X138715661Y-110975921D01*
X138764251Y-111249198D01*
X139030256Y-111364797D01*
X139313702Y-111426280D01*
X139603697Y-111431283D01*
X139889095Y-111379616D01*
X140158930Y-111273263D01*
X140203949Y-111249198D01*
X140252539Y-110975921D01*
X139484100Y-110207481D01*
X138715661Y-110975921D01*
X117436501Y-110975921D01*
X117436501Y-109861536D01*
X128358900Y-109861536D01*
X128358900Y-110051664D01*
X128395992Y-110238138D01*
X128468751Y-110413794D01*
X128574380Y-110571879D01*
X128708821Y-110706320D01*
X128866906Y-110811949D01*
X129042562Y-110884708D01*
X129229036Y-110921800D01*
X129419164Y-110921800D01*
X129605638Y-110884708D01*
X129781294Y-110811949D01*
X129939379Y-110706320D01*
X130073820Y-110571879D01*
X130179449Y-110413794D01*
X130252208Y-110238138D01*
X130284420Y-110076197D01*
X138009417Y-110076197D01*
X138061084Y-110361595D01*
X138167437Y-110631430D01*
X138191502Y-110676449D01*
X138464779Y-110725039D01*
X139233219Y-109956600D01*
X139734981Y-109956600D01*
X140503421Y-110725039D01*
X140776698Y-110676449D01*
X140892297Y-110410444D01*
X140953780Y-110126998D01*
X140958783Y-109837003D01*
X140907116Y-109551605D01*
X140800763Y-109281770D01*
X140776698Y-109236751D01*
X140503421Y-109188161D01*
X139734981Y-109956600D01*
X139233219Y-109956600D01*
X138464779Y-109188161D01*
X138191502Y-109236751D01*
X138075903Y-109502756D01*
X138014420Y-109786202D01*
X138009417Y-110076197D01*
X130284420Y-110076197D01*
X130289300Y-110051664D01*
X130289300Y-109861536D01*
X130252208Y-109675062D01*
X130179449Y-109499406D01*
X130073820Y-109341321D01*
X129939379Y-109206880D01*
X129781294Y-109101251D01*
X129605638Y-109028492D01*
X129419164Y-108991400D01*
X129229036Y-108991400D01*
X129042562Y-109028492D01*
X128866906Y-109101251D01*
X128708821Y-109206880D01*
X128574380Y-109341321D01*
X128468751Y-109499406D01*
X128395992Y-109675062D01*
X128358900Y-109861536D01*
X117436501Y-109861536D01*
X117436501Y-108937279D01*
X138715661Y-108937279D01*
X139484100Y-109705719D01*
X140252539Y-108937279D01*
X140203949Y-108664002D01*
X139937944Y-108548403D01*
X139654498Y-108486920D01*
X139364503Y-108481917D01*
X139079105Y-108533584D01*
X138809270Y-108639937D01*
X138764251Y-108664002D01*
X138715661Y-108937279D01*
X117436501Y-108937279D01*
X117436501Y-107571636D01*
X120064300Y-107571636D01*
X120064300Y-107769564D01*
X120102914Y-107963689D01*
X120178658Y-108146551D01*
X120288621Y-108311123D01*
X120428577Y-108451079D01*
X120593149Y-108561042D01*
X120776011Y-108636786D01*
X120970136Y-108675400D01*
X121168064Y-108675400D01*
X121362189Y-108636786D01*
X121545051Y-108561042D01*
X121709623Y-108451079D01*
X121849579Y-108311123D01*
X121959542Y-108146551D01*
X122035286Y-107963689D01*
X122073900Y-107769564D01*
X122073900Y-107571636D01*
X122604300Y-107571636D01*
X122604300Y-107769564D01*
X122642914Y-107963689D01*
X122718658Y-108146551D01*
X122828621Y-108311123D01*
X122968577Y-108451079D01*
X123133149Y-108561042D01*
X123316011Y-108636786D01*
X123510136Y-108675400D01*
X123708064Y-108675400D01*
X123902189Y-108636786D01*
X124085051Y-108561042D01*
X124249623Y-108451079D01*
X124389579Y-108311123D01*
X124499542Y-108146551D01*
X124575286Y-107963689D01*
X124582400Y-107927921D01*
X138715661Y-107927921D01*
X138764251Y-108201198D01*
X139030256Y-108316797D01*
X139313702Y-108378280D01*
X139603697Y-108383283D01*
X139889095Y-108331616D01*
X140158930Y-108225263D01*
X140203949Y-108201198D01*
X140252539Y-107927921D01*
X139484100Y-107159481D01*
X138715661Y-107927921D01*
X124582400Y-107927921D01*
X124613900Y-107769564D01*
X124613900Y-107571636D01*
X124575286Y-107377511D01*
X124499542Y-107194649D01*
X124389579Y-107030077D01*
X124249623Y-106890121D01*
X124135005Y-106813536D01*
X128358900Y-106813536D01*
X128358900Y-107003664D01*
X128395992Y-107190138D01*
X128468751Y-107365794D01*
X128574380Y-107523879D01*
X128708821Y-107658320D01*
X128866906Y-107763949D01*
X129042562Y-107836708D01*
X129229036Y-107873800D01*
X129419164Y-107873800D01*
X129605638Y-107836708D01*
X129781294Y-107763949D01*
X129939379Y-107658320D01*
X130073820Y-107523879D01*
X130179449Y-107365794D01*
X130252208Y-107190138D01*
X130284420Y-107028197D01*
X138009417Y-107028197D01*
X138061084Y-107313595D01*
X138167437Y-107583430D01*
X138191502Y-107628449D01*
X138464779Y-107677039D01*
X139233219Y-106908600D01*
X139734981Y-106908600D01*
X140503421Y-107677039D01*
X140776698Y-107628449D01*
X140892297Y-107362444D01*
X140953780Y-107078998D01*
X140958783Y-106789003D01*
X140907116Y-106503605D01*
X140800763Y-106233770D01*
X140776698Y-106188751D01*
X140503421Y-106140161D01*
X139734981Y-106908600D01*
X139233219Y-106908600D01*
X138464779Y-106140161D01*
X138191502Y-106188751D01*
X138075903Y-106454756D01*
X138014420Y-106738202D01*
X138009417Y-107028197D01*
X130284420Y-107028197D01*
X130289300Y-107003664D01*
X130289300Y-106813536D01*
X130252208Y-106627062D01*
X130179449Y-106451406D01*
X130073820Y-106293321D01*
X129939379Y-106158880D01*
X129781294Y-106053251D01*
X129605638Y-105980492D01*
X129419164Y-105943400D01*
X129229036Y-105943400D01*
X129042562Y-105980492D01*
X128866906Y-106053251D01*
X128708821Y-106158880D01*
X128574380Y-106293321D01*
X128468751Y-106451406D01*
X128395992Y-106627062D01*
X128358900Y-106813536D01*
X124135005Y-106813536D01*
X124085051Y-106780158D01*
X123902189Y-106704414D01*
X123708064Y-106665800D01*
X123510136Y-106665800D01*
X123316011Y-106704414D01*
X123133149Y-106780158D01*
X122968577Y-106890121D01*
X122828621Y-107030077D01*
X122718658Y-107194649D01*
X122642914Y-107377511D01*
X122604300Y-107571636D01*
X122073900Y-107571636D01*
X122035286Y-107377511D01*
X121959542Y-107194649D01*
X121849579Y-107030077D01*
X121709623Y-106890121D01*
X121545051Y-106780158D01*
X121362189Y-106704414D01*
X121168064Y-106665800D01*
X120970136Y-106665800D01*
X120776011Y-106704414D01*
X120593149Y-106780158D01*
X120428577Y-106890121D01*
X120288621Y-107030077D01*
X120178658Y-107194649D01*
X120102914Y-107377511D01*
X120064300Y-107571636D01*
X117436501Y-107571636D01*
X117436501Y-105889279D01*
X138715661Y-105889279D01*
X139484100Y-106657719D01*
X140252539Y-105889279D01*
X140203949Y-105616002D01*
X139937944Y-105500403D01*
X139654498Y-105438920D01*
X139364503Y-105433917D01*
X139079105Y-105485584D01*
X138809270Y-105591937D01*
X138764251Y-105616002D01*
X138715661Y-105889279D01*
X117436501Y-105889279D01*
X117436501Y-103765536D01*
X128358900Y-103765536D01*
X128358900Y-103955664D01*
X128395992Y-104142138D01*
X128468751Y-104317794D01*
X128574380Y-104475879D01*
X128708821Y-104610320D01*
X128866906Y-104715949D01*
X129042562Y-104788708D01*
X129229036Y-104825800D01*
X129419164Y-104825800D01*
X129605638Y-104788708D01*
X129781294Y-104715949D01*
X129939379Y-104610320D01*
X130073820Y-104475879D01*
X130179449Y-104317794D01*
X130252208Y-104142138D01*
X130289300Y-103955664D01*
X130289300Y-103765536D01*
X138518900Y-103765536D01*
X138518900Y-103955664D01*
X138555992Y-104142138D01*
X138628751Y-104317794D01*
X138734380Y-104475879D01*
X138868821Y-104610320D01*
X139026906Y-104715949D01*
X139202562Y-104788708D01*
X139389036Y-104825800D01*
X139579164Y-104825800D01*
X139765638Y-104788708D01*
X139941294Y-104715949D01*
X140099379Y-104610320D01*
X140233820Y-104475879D01*
X140237615Y-104470200D01*
X149741159Y-104470200D01*
X149771100Y-104473149D01*
X149801041Y-104470200D01*
X149890602Y-104461379D01*
X150005512Y-104426521D01*
X150111414Y-104369916D01*
X150204238Y-104293738D01*
X150223335Y-104270468D01*
X150364779Y-104129024D01*
X152565100Y-104129024D01*
X152565100Y-104354176D01*
X152609025Y-104575001D01*
X152695187Y-104783013D01*
X152820274Y-104970220D01*
X152979480Y-105129426D01*
X153166687Y-105254513D01*
X153374699Y-105340675D01*
X153595524Y-105384600D01*
X153820676Y-105384600D01*
X154041501Y-105340675D01*
X154249513Y-105254513D01*
X154436720Y-105129426D01*
X154595926Y-104970220D01*
X154721013Y-104783013D01*
X154807175Y-104575001D01*
X154851100Y-104354176D01*
X154851100Y-104129024D01*
X154807175Y-103908199D01*
X154721013Y-103700187D01*
X154595926Y-103512980D01*
X154436720Y-103353774D01*
X154249513Y-103228687D01*
X154041501Y-103142525D01*
X153820676Y-103098600D01*
X153595524Y-103098600D01*
X153374699Y-103142525D01*
X153166687Y-103228687D01*
X152979480Y-103353774D01*
X152820274Y-103512980D01*
X152695187Y-103700187D01*
X152609025Y-103908199D01*
X152565100Y-104129024D01*
X150364779Y-104129024D01*
X152720980Y-101772825D01*
X152744238Y-101753738D01*
X152820416Y-101660914D01*
X152877021Y-101555012D01*
X152911879Y-101440102D01*
X152920700Y-101350541D01*
X152920700Y-101350540D01*
X152923649Y-101320601D01*
X152920700Y-101290662D01*
X152920700Y-100827024D01*
X157645100Y-100827024D01*
X157645100Y-101052176D01*
X157689025Y-101273001D01*
X157775187Y-101481013D01*
X157900274Y-101668220D01*
X158059480Y-101827426D01*
X158246687Y-101952513D01*
X158454699Y-102038675D01*
X158675524Y-102082600D01*
X158900676Y-102082600D01*
X159121501Y-102038675D01*
X159329513Y-101952513D01*
X159516720Y-101827426D01*
X159675926Y-101668220D01*
X159801013Y-101481013D01*
X159887175Y-101273001D01*
X159931100Y-101052176D01*
X159931100Y-100827024D01*
X162725100Y-100827024D01*
X162725100Y-101052176D01*
X162769025Y-101273001D01*
X162855187Y-101481013D01*
X162980274Y-101668220D01*
X163139480Y-101827426D01*
X163326687Y-101952513D01*
X163534699Y-102038675D01*
X163755524Y-102082600D01*
X163980676Y-102082600D01*
X164201501Y-102038675D01*
X164409513Y-101952513D01*
X164596720Y-101827426D01*
X164755926Y-101668220D01*
X164881013Y-101481013D01*
X164967175Y-101273001D01*
X165011100Y-101052176D01*
X165011100Y-100827024D01*
X164967175Y-100606199D01*
X164881013Y-100398187D01*
X164755926Y-100210980D01*
X164596720Y-100051774D01*
X164409513Y-99926687D01*
X164201501Y-99840525D01*
X163980676Y-99796600D01*
X163755524Y-99796600D01*
X163534699Y-99840525D01*
X163326687Y-99926687D01*
X163139480Y-100051774D01*
X162980274Y-100210980D01*
X162855187Y-100398187D01*
X162769025Y-100606199D01*
X162725100Y-100827024D01*
X159931100Y-100827024D01*
X159887175Y-100606199D01*
X159801013Y-100398187D01*
X159675926Y-100210980D01*
X159516720Y-100051774D01*
X159329513Y-99926687D01*
X159121501Y-99840525D01*
X158900676Y-99796600D01*
X158675524Y-99796600D01*
X158454699Y-99840525D01*
X158246687Y-99926687D01*
X158059480Y-100051774D01*
X157900274Y-100210980D01*
X157775187Y-100398187D01*
X157689025Y-100606199D01*
X157645100Y-100827024D01*
X152920700Y-100827024D01*
X152920700Y-94461103D01*
X154174779Y-93207024D01*
X157645100Y-93207024D01*
X157645100Y-93432176D01*
X157689025Y-93653001D01*
X157775187Y-93861013D01*
X157900274Y-94048220D01*
X158059480Y-94207426D01*
X158246687Y-94332513D01*
X158454699Y-94418675D01*
X158675524Y-94462600D01*
X158900676Y-94462600D01*
X159121501Y-94418675D01*
X159329513Y-94332513D01*
X159516720Y-94207426D01*
X159675926Y-94048220D01*
X159801013Y-93861013D01*
X159887175Y-93653001D01*
X159931100Y-93432176D01*
X159931100Y-93207024D01*
X159887175Y-92986199D01*
X159801013Y-92778187D01*
X159675926Y-92590980D01*
X159516720Y-92431774D01*
X159329513Y-92306687D01*
X159121501Y-92220525D01*
X158900676Y-92176600D01*
X158675524Y-92176600D01*
X158454699Y-92220525D01*
X158246687Y-92306687D01*
X158059480Y-92431774D01*
X157900274Y-92590980D01*
X157775187Y-92778187D01*
X157689025Y-92986199D01*
X157645100Y-93207024D01*
X154174779Y-93207024D01*
X155379203Y-92002600D01*
X168223793Y-92002600D01*
X168246965Y-92237871D01*
X168315591Y-92464100D01*
X168427033Y-92672594D01*
X168577010Y-92855340D01*
X168759756Y-93005317D01*
X168968250Y-93116759D01*
X169194479Y-93185385D01*
X169370790Y-93202750D01*
X171279410Y-93202750D01*
X171455721Y-93185385D01*
X171681950Y-93116759D01*
X171890444Y-93005317D01*
X172073190Y-92855340D01*
X172223167Y-92672594D01*
X172334609Y-92464100D01*
X172403235Y-92237871D01*
X172426407Y-92002600D01*
X172403235Y-91767329D01*
X172334609Y-91541100D01*
X172223167Y-91332606D01*
X172073190Y-91149860D01*
X171890444Y-90999883D01*
X171681950Y-90888441D01*
X171455721Y-90819815D01*
X171279410Y-90802450D01*
X169370790Y-90802450D01*
X169194479Y-90819815D01*
X168968250Y-90888441D01*
X168759756Y-90999883D01*
X168577010Y-91149860D01*
X168427033Y-91332606D01*
X168315591Y-91541100D01*
X168246965Y-91767329D01*
X168223793Y-92002600D01*
X155379203Y-92002600D01*
X156714780Y-90667024D01*
X157645100Y-90667024D01*
X157645100Y-90892176D01*
X157689025Y-91113001D01*
X157775187Y-91321013D01*
X157900274Y-91508220D01*
X158059480Y-91667426D01*
X158246687Y-91792513D01*
X158454699Y-91878675D01*
X158675524Y-91922600D01*
X158900676Y-91922600D01*
X159121501Y-91878675D01*
X159329513Y-91792513D01*
X159516720Y-91667426D01*
X159675926Y-91508220D01*
X159801013Y-91321013D01*
X159887175Y-91113001D01*
X159931100Y-90892176D01*
X159931100Y-90667024D01*
X162725100Y-90667024D01*
X162725100Y-90892176D01*
X162769025Y-91113001D01*
X162855187Y-91321013D01*
X162980274Y-91508220D01*
X163139480Y-91667426D01*
X163326687Y-91792513D01*
X163534699Y-91878675D01*
X163755524Y-91922600D01*
X163980676Y-91922600D01*
X164201501Y-91878675D01*
X164409513Y-91792513D01*
X164596720Y-91667426D01*
X164755926Y-91508220D01*
X164881013Y-91321013D01*
X164967175Y-91113001D01*
X165011100Y-90892176D01*
X165011100Y-90667024D01*
X164967175Y-90446199D01*
X164881013Y-90238187D01*
X164755926Y-90050980D01*
X164596720Y-89891774D01*
X164409513Y-89766687D01*
X164201501Y-89680525D01*
X163980676Y-89636600D01*
X163755524Y-89636600D01*
X163534699Y-89680525D01*
X163326687Y-89766687D01*
X163139480Y-89891774D01*
X162980274Y-90050980D01*
X162855187Y-90238187D01*
X162769025Y-90446199D01*
X162725100Y-90667024D01*
X159931100Y-90667024D01*
X159887175Y-90446199D01*
X159801013Y-90238187D01*
X159675926Y-90050980D01*
X159516720Y-89891774D01*
X159329513Y-89766687D01*
X159121501Y-89680525D01*
X158900676Y-89636600D01*
X158675524Y-89636600D01*
X158454699Y-89680525D01*
X158246687Y-89766687D01*
X158059480Y-89891774D01*
X157900274Y-90050980D01*
X157775187Y-90238187D01*
X157689025Y-90446199D01*
X157645100Y-90667024D01*
X156714780Y-90667024D01*
X158151605Y-89230200D01*
X163965159Y-89230200D01*
X163995100Y-89233149D01*
X164025041Y-89230200D01*
X164114602Y-89221379D01*
X164229512Y-89186521D01*
X164335414Y-89129916D01*
X164428238Y-89053738D01*
X164447335Y-89030468D01*
X166182973Y-87294831D01*
X166206238Y-87275738D01*
X166282416Y-87182914D01*
X166327848Y-87097916D01*
X166339021Y-87077013D01*
X166373879Y-86962103D01*
X166385649Y-86842600D01*
X166382700Y-86812659D01*
X166382700Y-86620536D01*
X168236900Y-86620536D01*
X168236900Y-86810664D01*
X168273992Y-86997138D01*
X168346751Y-87172794D01*
X168452380Y-87330879D01*
X168586821Y-87465320D01*
X168744906Y-87570949D01*
X168920562Y-87643708D01*
X169107036Y-87680800D01*
X169297164Y-87680800D01*
X169483638Y-87643708D01*
X169659294Y-87570949D01*
X169817379Y-87465320D01*
X169951820Y-87330879D01*
X170057449Y-87172794D01*
X170130208Y-86997138D01*
X170167300Y-86810664D01*
X170167300Y-86620536D01*
X170130208Y-86434062D01*
X170057449Y-86258406D01*
X169951820Y-86100321D01*
X169817379Y-85965880D01*
X169659294Y-85860251D01*
X169483638Y-85787492D01*
X169297164Y-85750400D01*
X169107036Y-85750400D01*
X168920562Y-85787492D01*
X168744906Y-85860251D01*
X168586821Y-85965880D01*
X168452380Y-86100321D01*
X168346751Y-86258406D01*
X168273992Y-86434062D01*
X168236900Y-86620536D01*
X166382700Y-86620536D01*
X166382700Y-82792647D01*
X166452971Y-82813964D01*
X166662100Y-82834561D01*
X166871228Y-82813964D01*
X167072321Y-82752963D01*
X167257650Y-82653903D01*
X167420091Y-82520591D01*
X167553403Y-82358150D01*
X167652463Y-82172822D01*
X167713464Y-81971729D01*
X167728900Y-81815002D01*
X167728900Y-80186198D01*
X168135300Y-80186198D01*
X168135300Y-81815001D01*
X168150736Y-81971728D01*
X168211737Y-82172821D01*
X168310797Y-82358150D01*
X168444109Y-82520591D01*
X168606550Y-82653903D01*
X168791878Y-82752963D01*
X168992971Y-82813964D01*
X169202100Y-82834561D01*
X169411228Y-82813964D01*
X169612321Y-82752963D01*
X169797650Y-82653903D01*
X169960091Y-82520591D01*
X170093403Y-82358150D01*
X170192463Y-82172822D01*
X170253464Y-81971729D01*
X170268900Y-81815002D01*
X170268900Y-80186198D01*
X170675300Y-80186198D01*
X170675300Y-81815001D01*
X170690736Y-81971728D01*
X170751737Y-82172821D01*
X170850797Y-82358150D01*
X170984109Y-82520591D01*
X171146550Y-82653903D01*
X171331878Y-82752963D01*
X171532971Y-82813964D01*
X171742100Y-82834561D01*
X171951228Y-82813964D01*
X172152321Y-82752963D01*
X172337650Y-82653903D01*
X172500091Y-82520591D01*
X172633403Y-82358150D01*
X172732463Y-82172822D01*
X172793464Y-81971729D01*
X172808900Y-81815002D01*
X172808900Y-80186198D01*
X173215300Y-80186198D01*
X173215300Y-81815001D01*
X173230736Y-81971728D01*
X173291737Y-82172821D01*
X173390797Y-82358150D01*
X173524109Y-82520591D01*
X173686550Y-82653903D01*
X173871878Y-82752963D01*
X174072971Y-82813964D01*
X174282100Y-82834561D01*
X174491228Y-82813964D01*
X174692321Y-82752963D01*
X174877650Y-82653903D01*
X175040091Y-82520591D01*
X175173403Y-82358150D01*
X175272463Y-82172822D01*
X175333464Y-81971729D01*
X175348900Y-81815002D01*
X175348900Y-80186198D01*
X175333464Y-80029471D01*
X175272463Y-79828378D01*
X175173403Y-79643050D01*
X175040091Y-79480609D01*
X174877650Y-79347297D01*
X174692322Y-79248237D01*
X174491229Y-79187236D01*
X174282100Y-79166639D01*
X174072972Y-79187236D01*
X173871879Y-79248237D01*
X173686551Y-79347297D01*
X173524110Y-79480609D01*
X173390798Y-79643050D01*
X173291738Y-79828378D01*
X173230736Y-80029471D01*
X173215300Y-80186198D01*
X172808900Y-80186198D01*
X172793464Y-80029471D01*
X172732463Y-79828378D01*
X172633403Y-79643050D01*
X172500091Y-79480609D01*
X172337650Y-79347297D01*
X172152322Y-79248237D01*
X171951229Y-79187236D01*
X171742100Y-79166639D01*
X171532972Y-79187236D01*
X171331879Y-79248237D01*
X171146551Y-79347297D01*
X170984110Y-79480609D01*
X170850798Y-79643050D01*
X170751738Y-79828378D01*
X170690736Y-80029471D01*
X170675300Y-80186198D01*
X170268900Y-80186198D01*
X170253464Y-80029471D01*
X170192463Y-79828378D01*
X170093403Y-79643050D01*
X169960091Y-79480609D01*
X169797650Y-79347297D01*
X169612322Y-79248237D01*
X169411229Y-79187236D01*
X169202100Y-79166639D01*
X168992972Y-79187236D01*
X168791879Y-79248237D01*
X168606551Y-79347297D01*
X168444110Y-79480609D01*
X168310798Y-79643050D01*
X168211738Y-79828378D01*
X168150736Y-80029471D01*
X168135300Y-80186198D01*
X167728900Y-80186198D01*
X167713464Y-80029471D01*
X167652463Y-79828378D01*
X167553403Y-79643050D01*
X167420091Y-79480609D01*
X167257650Y-79347297D01*
X167072322Y-79248237D01*
X166871229Y-79187236D01*
X166662100Y-79166639D01*
X166452972Y-79187236D01*
X166251879Y-79248237D01*
X166066551Y-79347297D01*
X165904110Y-79480609D01*
X165770798Y-79643050D01*
X165671738Y-79828378D01*
X165610736Y-80029471D01*
X165595300Y-80186198D01*
X165595300Y-81205297D01*
X165363232Y-81437365D01*
X165339962Y-81456462D01*
X165263784Y-81549287D01*
X165207179Y-81655189D01*
X165188900Y-81715446D01*
X165188900Y-80186198D01*
X165173464Y-80029471D01*
X165112463Y-79828378D01*
X165013403Y-79643050D01*
X164880091Y-79480609D01*
X164717650Y-79347297D01*
X164532322Y-79248237D01*
X164331229Y-79187236D01*
X164122100Y-79166639D01*
X163912972Y-79187236D01*
X163711879Y-79248237D01*
X163526551Y-79347297D01*
X163364110Y-79480609D01*
X163230798Y-79643050D01*
X163131738Y-79828378D01*
X163070736Y-80029471D01*
X163055300Y-80186198D01*
X163055300Y-81815001D01*
X163070736Y-81971728D01*
X163131737Y-82172821D01*
X163230797Y-82358150D01*
X163364109Y-82520591D01*
X163526550Y-82653903D01*
X163711878Y-82752963D01*
X163912971Y-82813964D01*
X164122100Y-82834561D01*
X164331228Y-82813964D01*
X164532321Y-82752963D01*
X164717650Y-82653903D01*
X164880091Y-82520591D01*
X165013403Y-82358150D01*
X165112463Y-82172822D01*
X165163500Y-82004576D01*
X165163501Y-86590095D01*
X163742597Y-88011000D01*
X157929038Y-88011000D01*
X157899099Y-88008051D01*
X157869160Y-88011000D01*
X157869159Y-88011000D01*
X157779598Y-88019821D01*
X157664688Y-88054679D01*
X157558786Y-88111284D01*
X157465962Y-88187462D01*
X157446875Y-88210720D01*
X151901227Y-93756370D01*
X151877963Y-93775462D01*
X151807754Y-93861013D01*
X151801785Y-93868286D01*
X151745180Y-93974188D01*
X151710321Y-94089098D01*
X151698551Y-94208600D01*
X151701501Y-94238552D01*
X151701500Y-101068095D01*
X149518597Y-103251000D01*
X140237615Y-103251000D01*
X140233820Y-103245321D01*
X140099379Y-103110880D01*
X139941294Y-103005251D01*
X139765638Y-102932492D01*
X139579164Y-102895400D01*
X139389036Y-102895400D01*
X139202562Y-102932492D01*
X139026906Y-103005251D01*
X138868821Y-103110880D01*
X138734380Y-103245321D01*
X138628751Y-103403406D01*
X138555992Y-103579062D01*
X138518900Y-103765536D01*
X130289300Y-103765536D01*
X130252208Y-103579062D01*
X130179449Y-103403406D01*
X130073820Y-103245321D01*
X129939379Y-103110880D01*
X129781294Y-103005251D01*
X129605638Y-102932492D01*
X129419164Y-102895400D01*
X129229036Y-102895400D01*
X129042562Y-102932492D01*
X128866906Y-103005251D01*
X128708821Y-103110880D01*
X128574380Y-103245321D01*
X128468751Y-103403406D01*
X128395992Y-103579062D01*
X128358900Y-103765536D01*
X117436501Y-103765536D01*
X117436501Y-101831921D01*
X138715661Y-101831921D01*
X138764251Y-102105198D01*
X139030256Y-102220797D01*
X139313702Y-102282280D01*
X139603697Y-102287283D01*
X139889095Y-102235616D01*
X140158930Y-102129263D01*
X140203949Y-102105198D01*
X140252539Y-101831921D01*
X139484100Y-101063481D01*
X138715661Y-101831921D01*
X117436501Y-101831921D01*
X117436501Y-100717536D01*
X128358900Y-100717536D01*
X128358900Y-100907664D01*
X128395992Y-101094138D01*
X128468751Y-101269794D01*
X128574380Y-101427879D01*
X128708821Y-101562320D01*
X128866906Y-101667949D01*
X129042562Y-101740708D01*
X129229036Y-101777800D01*
X129419164Y-101777800D01*
X129605638Y-101740708D01*
X129781294Y-101667949D01*
X129939379Y-101562320D01*
X130073820Y-101427879D01*
X130179449Y-101269794D01*
X130252208Y-101094138D01*
X130284420Y-100932197D01*
X138009417Y-100932197D01*
X138061084Y-101217595D01*
X138167437Y-101487430D01*
X138191502Y-101532449D01*
X138464779Y-101581039D01*
X139233219Y-100812600D01*
X139734981Y-100812600D01*
X140503421Y-101581039D01*
X140776698Y-101532449D01*
X140789844Y-101502197D01*
X148022385Y-101502197D01*
X148108146Y-101806469D01*
X148426261Y-101952610D01*
X148766775Y-102033882D01*
X149116601Y-102047160D01*
X149462295Y-101991937D01*
X149790574Y-101870333D01*
X149910054Y-101806469D01*
X149995815Y-101502197D01*
X149009100Y-100515481D01*
X148022385Y-101502197D01*
X140789844Y-101502197D01*
X140892297Y-101266444D01*
X140953780Y-100982998D01*
X140958783Y-100693003D01*
X140907116Y-100407605D01*
X140893123Y-100372101D01*
X147226540Y-100372101D01*
X147281763Y-100717795D01*
X147403367Y-101046074D01*
X147467231Y-101165554D01*
X147771503Y-101251315D01*
X148758219Y-100264600D01*
X149259981Y-100264600D01*
X150246697Y-101251315D01*
X150550969Y-101165554D01*
X150697110Y-100847439D01*
X150778382Y-100506925D01*
X150791660Y-100157099D01*
X150736437Y-99811405D01*
X150614833Y-99483126D01*
X150550969Y-99363646D01*
X150246697Y-99277885D01*
X149259981Y-100264600D01*
X148758219Y-100264600D01*
X147771503Y-99277885D01*
X147467231Y-99363646D01*
X147321090Y-99681761D01*
X147239818Y-100022275D01*
X147226540Y-100372101D01*
X140893123Y-100372101D01*
X140800763Y-100137770D01*
X140776698Y-100092751D01*
X140503421Y-100044161D01*
X139734981Y-100812600D01*
X139233219Y-100812600D01*
X138464779Y-100044161D01*
X138191502Y-100092751D01*
X138075903Y-100358756D01*
X138014420Y-100642202D01*
X138009417Y-100932197D01*
X130284420Y-100932197D01*
X130289300Y-100907664D01*
X130289300Y-100717536D01*
X130252208Y-100531062D01*
X130179449Y-100355406D01*
X130073820Y-100197321D01*
X129939379Y-100062880D01*
X129781294Y-99957251D01*
X129605638Y-99884492D01*
X129419164Y-99847400D01*
X129229036Y-99847400D01*
X129042562Y-99884492D01*
X128866906Y-99957251D01*
X128708821Y-100062880D01*
X128574380Y-100197321D01*
X128468751Y-100355406D01*
X128395992Y-100531062D01*
X128358900Y-100717536D01*
X117436501Y-100717536D01*
X117436501Y-99793279D01*
X138715661Y-99793279D01*
X139484100Y-100561719D01*
X140252539Y-99793279D01*
X140203949Y-99520002D01*
X139937944Y-99404403D01*
X139654498Y-99342920D01*
X139364503Y-99337917D01*
X139079105Y-99389584D01*
X138809270Y-99495937D01*
X138764251Y-99520002D01*
X138715661Y-99793279D01*
X117436501Y-99793279D01*
X117436501Y-99027003D01*
X148022385Y-99027003D01*
X149009100Y-100013719D01*
X149995815Y-99027003D01*
X149910054Y-98722731D01*
X149591939Y-98576590D01*
X149251425Y-98495318D01*
X148901599Y-98482040D01*
X148555905Y-98537263D01*
X148227626Y-98658867D01*
X148108146Y-98722731D01*
X148022385Y-99027003D01*
X117436501Y-99027003D01*
X117436501Y-95121398D01*
X126631700Y-95121398D01*
X126631700Y-96750201D01*
X126647136Y-96906928D01*
X126708137Y-97108021D01*
X126807197Y-97293350D01*
X126940509Y-97455791D01*
X127102950Y-97589103D01*
X127288278Y-97688163D01*
X127489371Y-97749164D01*
X127698500Y-97769761D01*
X127907628Y-97749164D01*
X128108721Y-97688163D01*
X128294050Y-97589103D01*
X128456491Y-97455791D01*
X128589803Y-97293350D01*
X128688863Y-97108022D01*
X128749864Y-96906929D01*
X128765300Y-96750202D01*
X128765300Y-95121398D01*
X131152900Y-95121398D01*
X131152900Y-96750201D01*
X131168336Y-96906928D01*
X131229337Y-97108021D01*
X131328397Y-97293350D01*
X131461709Y-97455791D01*
X131624150Y-97589103D01*
X131809478Y-97688163D01*
X132010571Y-97749164D01*
X132219700Y-97769761D01*
X132428828Y-97749164D01*
X132629921Y-97688163D01*
X132815250Y-97589103D01*
X132977691Y-97455791D01*
X133111003Y-97293350D01*
X133210063Y-97108022D01*
X133271064Y-96906929D01*
X133286500Y-96750202D01*
X133286500Y-95139516D01*
X147739100Y-95139516D01*
X147739100Y-95389684D01*
X147787905Y-95635045D01*
X147883641Y-95866171D01*
X148022627Y-96074178D01*
X148199522Y-96251073D01*
X148407529Y-96390059D01*
X148638655Y-96485795D01*
X148884016Y-96534600D01*
X149134184Y-96534600D01*
X149379545Y-96485795D01*
X149610671Y-96390059D01*
X149818678Y-96251073D01*
X149995573Y-96074178D01*
X150134559Y-95866171D01*
X150230295Y-95635045D01*
X150279100Y-95389684D01*
X150279100Y-95139516D01*
X150230295Y-94894155D01*
X150134559Y-94663029D01*
X149995573Y-94455022D01*
X149818678Y-94278127D01*
X149610671Y-94139141D01*
X149379545Y-94043405D01*
X149134184Y-93994600D01*
X148884016Y-93994600D01*
X148638655Y-94043405D01*
X148407529Y-94139141D01*
X148199522Y-94278127D01*
X148022627Y-94455022D01*
X147883641Y-94663029D01*
X147787905Y-94894155D01*
X147739100Y-95139516D01*
X133286500Y-95139516D01*
X133286500Y-95121398D01*
X133271064Y-94964671D01*
X133210063Y-94763578D01*
X133111003Y-94578250D01*
X132977691Y-94415809D01*
X132815250Y-94282497D01*
X132629922Y-94183437D01*
X132428829Y-94122436D01*
X132219700Y-94101839D01*
X132010572Y-94122436D01*
X131809479Y-94183437D01*
X131624151Y-94282497D01*
X131461710Y-94415809D01*
X131328398Y-94578250D01*
X131229338Y-94763578D01*
X131168336Y-94964671D01*
X131152900Y-95121398D01*
X128765300Y-95121398D01*
X128749864Y-94964671D01*
X128688863Y-94763578D01*
X128589803Y-94578250D01*
X128456491Y-94415809D01*
X128294050Y-94282497D01*
X128108722Y-94183437D01*
X127907629Y-94122436D01*
X127698500Y-94101839D01*
X127489372Y-94122436D01*
X127288279Y-94183437D01*
X127102951Y-94282497D01*
X126940510Y-94415809D01*
X126807198Y-94578250D01*
X126708138Y-94763578D01*
X126647136Y-94964671D01*
X126631700Y-95121398D01*
X117436501Y-95121398D01*
X117436501Y-92610022D01*
X129201900Y-92610022D01*
X129201900Y-92759178D01*
X129230999Y-92905467D01*
X129288078Y-93043269D01*
X129370944Y-93167287D01*
X129476413Y-93272756D01*
X129600431Y-93355622D01*
X129738233Y-93412701D01*
X129859195Y-93436762D01*
X129872786Y-93447916D01*
X129978688Y-93504521D01*
X130093598Y-93539379D01*
X130183159Y-93548200D01*
X130183160Y-93548200D01*
X130213099Y-93551149D01*
X130243038Y-93548200D01*
X134247159Y-93548200D01*
X134277100Y-93551149D01*
X134307041Y-93548200D01*
X134396602Y-93539379D01*
X134511512Y-93504521D01*
X134617414Y-93447916D01*
X134710238Y-93371738D01*
X134729334Y-93348469D01*
X135194979Y-92882826D01*
X135218238Y-92863738D01*
X135294416Y-92770914D01*
X135351021Y-92665012D01*
X135385879Y-92550102D01*
X135394700Y-92460541D01*
X135394700Y-92460540D01*
X135397649Y-92430601D01*
X135394700Y-92400662D01*
X135394700Y-91533115D01*
X135400379Y-91529320D01*
X135534820Y-91394879D01*
X135640449Y-91236794D01*
X135713208Y-91061138D01*
X135750300Y-90874664D01*
X135750300Y-90684536D01*
X143979900Y-90684536D01*
X143979900Y-90874664D01*
X144016992Y-91061138D01*
X144089751Y-91236794D01*
X144195380Y-91394879D01*
X144329821Y-91529320D01*
X144487906Y-91634949D01*
X144663562Y-91707708D01*
X144850036Y-91744800D01*
X145040164Y-91744800D01*
X145226638Y-91707708D01*
X145402294Y-91634949D01*
X145560379Y-91529320D01*
X145694820Y-91394879D01*
X145800449Y-91236794D01*
X145873208Y-91061138D01*
X145910300Y-90874664D01*
X145910300Y-90684536D01*
X145904609Y-90655921D01*
X151034661Y-90655921D01*
X151083251Y-90929198D01*
X151349256Y-91044797D01*
X151632702Y-91106280D01*
X151922697Y-91111283D01*
X152208095Y-91059616D01*
X152477930Y-90953263D01*
X152522949Y-90929198D01*
X152571539Y-90655921D01*
X151803100Y-89887481D01*
X151034661Y-90655921D01*
X145904609Y-90655921D01*
X145873208Y-90498062D01*
X145800449Y-90322406D01*
X145694820Y-90164321D01*
X145560379Y-90029880D01*
X145402294Y-89924251D01*
X145226638Y-89851492D01*
X145040164Y-89814400D01*
X144850036Y-89814400D01*
X144663562Y-89851492D01*
X144487906Y-89924251D01*
X144329821Y-90029880D01*
X144195380Y-90164321D01*
X144089751Y-90322406D01*
X144016992Y-90498062D01*
X143979900Y-90684536D01*
X135750300Y-90684536D01*
X135713208Y-90498062D01*
X135640449Y-90322406D01*
X135534820Y-90164321D01*
X135400379Y-90029880D01*
X135242294Y-89924251D01*
X135066638Y-89851492D01*
X134880164Y-89814400D01*
X134690036Y-89814400D01*
X134503562Y-89851492D01*
X134327906Y-89924251D01*
X134169821Y-90029880D01*
X134035380Y-90164321D01*
X133929751Y-90322406D01*
X133856992Y-90498062D01*
X133819900Y-90684536D01*
X133819900Y-90874664D01*
X133856992Y-91061138D01*
X133929751Y-91236794D01*
X134035380Y-91394879D01*
X134169821Y-91529320D01*
X134175501Y-91533115D01*
X134175500Y-92178096D01*
X134024596Y-92329000D01*
X130631393Y-92329000D01*
X130630122Y-92325931D01*
X130547256Y-92201913D01*
X130441787Y-92096444D01*
X130317769Y-92013578D01*
X130179967Y-91956499D01*
X130033678Y-91927400D01*
X129884522Y-91927400D01*
X129738233Y-91956499D01*
X129600431Y-92013578D01*
X129476413Y-92096444D01*
X129370944Y-92201913D01*
X129288078Y-92325931D01*
X129230999Y-92463733D01*
X129201900Y-92610022D01*
X117436501Y-92610022D01*
X117436501Y-88618998D01*
X126631700Y-88618998D01*
X126631700Y-90247801D01*
X126647136Y-90404528D01*
X126708137Y-90605621D01*
X126807197Y-90790950D01*
X126940509Y-90953391D01*
X127102950Y-91086703D01*
X127288278Y-91185763D01*
X127489371Y-91246764D01*
X127698500Y-91267361D01*
X127907628Y-91246764D01*
X128108721Y-91185763D01*
X128294050Y-91086703D01*
X128456491Y-90953391D01*
X128589803Y-90790950D01*
X128688863Y-90605622D01*
X128749864Y-90404529D01*
X128765300Y-90247802D01*
X128765300Y-88618998D01*
X131152900Y-88618998D01*
X131152900Y-90247801D01*
X131168336Y-90404528D01*
X131229337Y-90605621D01*
X131328397Y-90790950D01*
X131461709Y-90953391D01*
X131624150Y-91086703D01*
X131809478Y-91185763D01*
X132010571Y-91246764D01*
X132219700Y-91267361D01*
X132428828Y-91246764D01*
X132629921Y-91185763D01*
X132815250Y-91086703D01*
X132977691Y-90953391D01*
X133111003Y-90790950D01*
X133210063Y-90605622D01*
X133271064Y-90404529D01*
X133286500Y-90247802D01*
X133286500Y-89756197D01*
X150328417Y-89756197D01*
X150380084Y-90041595D01*
X150486437Y-90311430D01*
X150510502Y-90356449D01*
X150783779Y-90405039D01*
X151552219Y-89636600D01*
X150783779Y-88868161D01*
X150510502Y-88916751D01*
X150394903Y-89182756D01*
X150333420Y-89466202D01*
X150328417Y-89756197D01*
X133286500Y-89756197D01*
X133286500Y-88618998D01*
X133271064Y-88462271D01*
X133210063Y-88261178D01*
X133111003Y-88075850D01*
X132977691Y-87913409D01*
X132815250Y-87780097D01*
X132629922Y-87681037D01*
X132428829Y-87620036D01*
X132219700Y-87599439D01*
X132010572Y-87620036D01*
X131809479Y-87681037D01*
X131624151Y-87780097D01*
X131461710Y-87913409D01*
X131328398Y-88075850D01*
X131229338Y-88261178D01*
X131168336Y-88462271D01*
X131152900Y-88618998D01*
X128765300Y-88618998D01*
X128749864Y-88462271D01*
X128688863Y-88261178D01*
X128589803Y-88075850D01*
X128456491Y-87913409D01*
X128294050Y-87780097D01*
X128108722Y-87681037D01*
X127907629Y-87620036D01*
X127698500Y-87599439D01*
X127489372Y-87620036D01*
X127288279Y-87681037D01*
X127102951Y-87780097D01*
X126940510Y-87913409D01*
X126807198Y-88075850D01*
X126708138Y-88261178D01*
X126647136Y-88462271D01*
X126631700Y-88618998D01*
X117436501Y-88618998D01*
X117436501Y-79730600D01*
X123758551Y-79730600D01*
X123761500Y-79760542D01*
X123761501Y-85542648D01*
X123758551Y-85572600D01*
X123770321Y-85692102D01*
X123805180Y-85807012D01*
X123861785Y-85912914D01*
X123937963Y-86005738D01*
X123961227Y-86024830D01*
X124934869Y-86998473D01*
X124953962Y-87021738D01*
X125046786Y-87097916D01*
X125152688Y-87154521D01*
X125232739Y-87178805D01*
X125267597Y-87189379D01*
X125387100Y-87201149D01*
X125417041Y-87198200D01*
X132500597Y-87198200D01*
X133824874Y-88522479D01*
X133843962Y-88545738D01*
X133936786Y-88621916D01*
X133980018Y-88645024D01*
X134035380Y-88727879D01*
X134169821Y-88862320D01*
X134327906Y-88967949D01*
X134503562Y-89040708D01*
X134690036Y-89077800D01*
X134880164Y-89077800D01*
X135066638Y-89040708D01*
X135242294Y-88967949D01*
X135400379Y-88862320D01*
X135534820Y-88727879D01*
X135640449Y-88569794D01*
X135713208Y-88394138D01*
X135750300Y-88207664D01*
X135750300Y-88017536D01*
X143979900Y-88017536D01*
X143979900Y-88207664D01*
X144016992Y-88394138D01*
X144089751Y-88569794D01*
X144195380Y-88727879D01*
X144329821Y-88862320D01*
X144487906Y-88967949D01*
X144663562Y-89040708D01*
X144850036Y-89077800D01*
X145040164Y-89077800D01*
X145226638Y-89040708D01*
X145402294Y-88967949D01*
X145560379Y-88862320D01*
X145694820Y-88727879D01*
X145768720Y-88617279D01*
X151034661Y-88617279D01*
X151803100Y-89385719D01*
X151817242Y-89371576D01*
X152068124Y-89622458D01*
X152053981Y-89636600D01*
X152822421Y-90405039D01*
X153095698Y-90356449D01*
X153211297Y-90090444D01*
X153272780Y-89806998D01*
X153277359Y-89541536D01*
X153377900Y-89541536D01*
X153377900Y-89731664D01*
X153414992Y-89918138D01*
X153487751Y-90093794D01*
X153593380Y-90251879D01*
X153727821Y-90386320D01*
X153885906Y-90491949D01*
X154061562Y-90564708D01*
X154248036Y-90601800D01*
X154438164Y-90601800D01*
X154624638Y-90564708D01*
X154800294Y-90491949D01*
X154958379Y-90386320D01*
X155092820Y-90251879D01*
X155198449Y-90093794D01*
X155271208Y-89918138D01*
X155308300Y-89731664D01*
X155308300Y-89541536D01*
X155271208Y-89355062D01*
X155198449Y-89179406D01*
X155092820Y-89021321D01*
X154958379Y-88886880D01*
X154800294Y-88781251D01*
X154624638Y-88708492D01*
X154438164Y-88671400D01*
X154248036Y-88671400D01*
X154061562Y-88708492D01*
X153885906Y-88781251D01*
X153727821Y-88886880D01*
X153593380Y-89021321D01*
X153487751Y-89179406D01*
X153414992Y-89355062D01*
X153377900Y-89541536D01*
X153277359Y-89541536D01*
X153277783Y-89517003D01*
X153226116Y-89231605D01*
X153119763Y-88961770D01*
X153095698Y-88916751D01*
X152822423Y-88868161D01*
X152974202Y-88716382D01*
X152948806Y-88690986D01*
X152978036Y-88696800D01*
X153168164Y-88696800D01*
X153354638Y-88659708D01*
X153530294Y-88586949D01*
X153688379Y-88481320D01*
X153822820Y-88346879D01*
X153928449Y-88188794D01*
X154001208Y-88013138D01*
X154038300Y-87826664D01*
X154038300Y-87636536D01*
X154001208Y-87450062D01*
X153928449Y-87274406D01*
X153822820Y-87116321D01*
X153688379Y-86981880D01*
X153530294Y-86876251D01*
X153354638Y-86803492D01*
X153168164Y-86766400D01*
X152978036Y-86766400D01*
X152791562Y-86803492D01*
X152615906Y-86876251D01*
X152457821Y-86981880D01*
X152323380Y-87116321D01*
X152217751Y-87274406D01*
X152144992Y-87450062D01*
X152107900Y-87636536D01*
X152107900Y-87826664D01*
X152144992Y-88013138D01*
X152217751Y-88188794D01*
X152242060Y-88225174D01*
X151973498Y-88166920D01*
X151683503Y-88161917D01*
X151398105Y-88213584D01*
X151128270Y-88319937D01*
X151083251Y-88344002D01*
X151034661Y-88617279D01*
X145768720Y-88617279D01*
X145800449Y-88569794D01*
X145873208Y-88394138D01*
X145910300Y-88207664D01*
X145910300Y-88017536D01*
X145873208Y-87831062D01*
X145800449Y-87655406D01*
X145694820Y-87497321D01*
X145560379Y-87362880D01*
X145402294Y-87257251D01*
X145226638Y-87184492D01*
X145040164Y-87147400D01*
X144850036Y-87147400D01*
X144663562Y-87184492D01*
X144487906Y-87257251D01*
X144329821Y-87362880D01*
X144195380Y-87497321D01*
X144089751Y-87655406D01*
X144016992Y-87831062D01*
X143979900Y-88017536D01*
X135750300Y-88017536D01*
X135713208Y-87831062D01*
X135640449Y-87655406D01*
X135534820Y-87497321D01*
X135400379Y-87362880D01*
X135242294Y-87257251D01*
X135066638Y-87184492D01*
X134880164Y-87147400D01*
X134690036Y-87147400D01*
X134503562Y-87184492D01*
X134327906Y-87257251D01*
X134301500Y-87274895D01*
X133647140Y-86620536D01*
X158076900Y-86620536D01*
X158076900Y-86810664D01*
X158113992Y-86997138D01*
X158186751Y-87172794D01*
X158292380Y-87330879D01*
X158426821Y-87465320D01*
X158584906Y-87570949D01*
X158760562Y-87643708D01*
X158947036Y-87680800D01*
X159137164Y-87680800D01*
X159323638Y-87643708D01*
X159499294Y-87570949D01*
X159657379Y-87465320D01*
X159791820Y-87330879D01*
X159897449Y-87172794D01*
X159970208Y-86997138D01*
X160007300Y-86810664D01*
X160007300Y-86620536D01*
X159970208Y-86434062D01*
X159897449Y-86258406D01*
X159791820Y-86100321D01*
X159657379Y-85965880D01*
X159499294Y-85860251D01*
X159323638Y-85787492D01*
X159137164Y-85750400D01*
X158947036Y-85750400D01*
X158760562Y-85787492D01*
X158584906Y-85860251D01*
X158426821Y-85965880D01*
X158292380Y-86100321D01*
X158186751Y-86258406D01*
X158113992Y-86434062D01*
X158076900Y-86620536D01*
X133647140Y-86620536D01*
X133205335Y-86178732D01*
X133186238Y-86155462D01*
X133093414Y-86079284D01*
X132987512Y-86022679D01*
X132872602Y-85987821D01*
X132783041Y-85979000D01*
X132753100Y-85976051D01*
X132723159Y-85979000D01*
X125639604Y-85979000D01*
X124980700Y-85320097D01*
X124980700Y-85223536D01*
X133819900Y-85223536D01*
X133819900Y-85413664D01*
X133856992Y-85600138D01*
X133929751Y-85775794D01*
X134035380Y-85933879D01*
X134169821Y-86068320D01*
X134327906Y-86173949D01*
X134503562Y-86246708D01*
X134690036Y-86283800D01*
X134880164Y-86283800D01*
X135066638Y-86246708D01*
X135242294Y-86173949D01*
X135400379Y-86068320D01*
X135534820Y-85933879D01*
X135640449Y-85775794D01*
X135713208Y-85600138D01*
X135750300Y-85413664D01*
X135750300Y-85223536D01*
X143979900Y-85223536D01*
X143979900Y-85413664D01*
X144016992Y-85600138D01*
X144089751Y-85775794D01*
X144195380Y-85933879D01*
X144329821Y-86068320D01*
X144487906Y-86173949D01*
X144663562Y-86246708D01*
X144850036Y-86283800D01*
X145040164Y-86283800D01*
X145226638Y-86246708D01*
X145402294Y-86173949D01*
X145560379Y-86068320D01*
X145694820Y-85933879D01*
X145800449Y-85775794D01*
X145873208Y-85600138D01*
X145910300Y-85413664D01*
X145910300Y-85223536D01*
X145873208Y-85037062D01*
X145800449Y-84861406D01*
X145694820Y-84703321D01*
X145560379Y-84568880D01*
X145402294Y-84463251D01*
X145226638Y-84390492D01*
X145040164Y-84353400D01*
X144850036Y-84353400D01*
X144663562Y-84390492D01*
X144487906Y-84463251D01*
X144329821Y-84568880D01*
X144195380Y-84703321D01*
X144089751Y-84861406D01*
X144016992Y-85037062D01*
X143979900Y-85223536D01*
X135750300Y-85223536D01*
X135713208Y-85037062D01*
X135640449Y-84861406D01*
X135534820Y-84703321D01*
X135400379Y-84568880D01*
X135242294Y-84463251D01*
X135066638Y-84390492D01*
X134880164Y-84353400D01*
X134690036Y-84353400D01*
X134503562Y-84390492D01*
X134327906Y-84463251D01*
X134169821Y-84568880D01*
X134035380Y-84703321D01*
X133929751Y-84861406D01*
X133856992Y-85037062D01*
X133819900Y-85223536D01*
X124980700Y-85223536D01*
X124980700Y-80086200D01*
X127928596Y-80086200D01*
X128079501Y-80237105D01*
X128079500Y-80889253D01*
X128071352Y-80897401D01*
X127966423Y-81054438D01*
X127894146Y-81228928D01*
X127863600Y-81382494D01*
X127833054Y-81228928D01*
X127760777Y-81054438D01*
X127655848Y-80897401D01*
X127522299Y-80763852D01*
X127365262Y-80658923D01*
X127190772Y-80586646D01*
X127005534Y-80549800D01*
X126816666Y-80549800D01*
X126631428Y-80586646D01*
X126456938Y-80658923D01*
X126299901Y-80763852D01*
X126166352Y-80897401D01*
X126061423Y-81054438D01*
X125989146Y-81228928D01*
X125952300Y-81414166D01*
X125952300Y-81603034D01*
X125989146Y-81788272D01*
X126061423Y-81962762D01*
X126166352Y-82119799D01*
X126299901Y-82253348D01*
X126456938Y-82358277D01*
X126631428Y-82430554D01*
X126816666Y-82467400D01*
X127005534Y-82467400D01*
X127190772Y-82430554D01*
X127365262Y-82358277D01*
X127522299Y-82253348D01*
X127655848Y-82119799D01*
X127760777Y-81962762D01*
X127833054Y-81788272D01*
X127863600Y-81634706D01*
X127894146Y-81788272D01*
X127966423Y-81962762D01*
X128071352Y-82119799D01*
X128204901Y-82253348D01*
X128361938Y-82358277D01*
X128536428Y-82430554D01*
X128721666Y-82467400D01*
X128910534Y-82467400D01*
X129095772Y-82430554D01*
X129270262Y-82358277D01*
X129276630Y-82354022D01*
X129313280Y-82474843D01*
X129388680Y-82615906D01*
X129490151Y-82739549D01*
X129613794Y-82841020D01*
X129754857Y-82916420D01*
X129907920Y-82962851D01*
X130067100Y-82978529D01*
X130340700Y-82974600D01*
X130543700Y-82771600D01*
X130543700Y-81686000D01*
X130523700Y-81686000D01*
X130523700Y-81331200D01*
X130543700Y-81331200D01*
X130543700Y-80245600D01*
X130898500Y-80245600D01*
X130898500Y-81331200D01*
X130918500Y-81331200D01*
X130918500Y-81686000D01*
X130898500Y-81686000D01*
X130898500Y-82771600D01*
X131101500Y-82974600D01*
X131375100Y-82978529D01*
X131534280Y-82962851D01*
X131687343Y-82916420D01*
X131828406Y-82841020D01*
X131952049Y-82739549D01*
X132053520Y-82615906D01*
X132128920Y-82474843D01*
X132165570Y-82354022D01*
X132171938Y-82358277D01*
X132346428Y-82430554D01*
X132531666Y-82467400D01*
X132720534Y-82467400D01*
X132905772Y-82430554D01*
X133080262Y-82358277D01*
X133237299Y-82253348D01*
X133370848Y-82119799D01*
X133475777Y-81962762D01*
X133548054Y-81788272D01*
X133584900Y-81603034D01*
X133584900Y-81414166D01*
X133548054Y-81228928D01*
X133475777Y-81054438D01*
X133370848Y-80897401D01*
X133237299Y-80763852D01*
X133080262Y-80658923D01*
X132905772Y-80586646D01*
X132720534Y-80549800D01*
X132531666Y-80549800D01*
X132346428Y-80586646D01*
X132171938Y-80658923D01*
X132165570Y-80663178D01*
X132128920Y-80542357D01*
X132053520Y-80401294D01*
X131952049Y-80277651D01*
X131840613Y-80186198D01*
X133718300Y-80186198D01*
X133718300Y-81815001D01*
X133733736Y-81971728D01*
X133794737Y-82172821D01*
X133893797Y-82358150D01*
X134027109Y-82520591D01*
X134189550Y-82653903D01*
X134374878Y-82752963D01*
X134575971Y-82813964D01*
X134785100Y-82834561D01*
X134994228Y-82813964D01*
X135195321Y-82752963D01*
X135380650Y-82653903D01*
X135543091Y-82520591D01*
X135676403Y-82358150D01*
X135775463Y-82172822D01*
X135790346Y-82123761D01*
X135815953Y-82243663D01*
X135938802Y-82528839D01*
X136114925Y-82784569D01*
X136337554Y-83001026D01*
X136598134Y-83169891D01*
X136905225Y-83279564D01*
X137147700Y-83122074D01*
X137147700Y-81178000D01*
X137127700Y-81178000D01*
X137127700Y-80823200D01*
X137147700Y-80823200D01*
X137147700Y-78879126D01*
X137502500Y-78879126D01*
X137502500Y-80823200D01*
X137522500Y-80823200D01*
X137522500Y-81178000D01*
X137502500Y-81178000D01*
X137502500Y-83122074D01*
X137744975Y-83279564D01*
X138052066Y-83169891D01*
X138312646Y-83001026D01*
X138535275Y-82784569D01*
X138711398Y-82528839D01*
X138834247Y-82243663D01*
X138859855Y-82123761D01*
X138874737Y-82172821D01*
X138973797Y-82358150D01*
X139107109Y-82520591D01*
X139269550Y-82653903D01*
X139454878Y-82752963D01*
X139655971Y-82813964D01*
X139865100Y-82834561D01*
X140074228Y-82813964D01*
X140275321Y-82752963D01*
X140460650Y-82653903D01*
X140623091Y-82520591D01*
X140756403Y-82358150D01*
X140855463Y-82172822D01*
X140916464Y-81971729D01*
X140931900Y-81815002D01*
X140931900Y-80186198D01*
X141338300Y-80186198D01*
X141338300Y-81815001D01*
X141353736Y-81971728D01*
X141414737Y-82172821D01*
X141513797Y-82358150D01*
X141647109Y-82520591D01*
X141809550Y-82653903D01*
X141994878Y-82752963D01*
X142195971Y-82813964D01*
X142405100Y-82834561D01*
X142614228Y-82813964D01*
X142815321Y-82752963D01*
X143000650Y-82653903D01*
X143163091Y-82520591D01*
X143296403Y-82358150D01*
X143395463Y-82172822D01*
X143456464Y-81971729D01*
X143471900Y-81815002D01*
X143471900Y-80186198D01*
X143878300Y-80186198D01*
X143878300Y-81815001D01*
X143893736Y-81971728D01*
X143954737Y-82172821D01*
X144053797Y-82358150D01*
X144187109Y-82520591D01*
X144349550Y-82653903D01*
X144534878Y-82752963D01*
X144735971Y-82813964D01*
X144945100Y-82834561D01*
X145154228Y-82813964D01*
X145355321Y-82752963D01*
X145540650Y-82653903D01*
X145703091Y-82520591D01*
X145836403Y-82358150D01*
X145935463Y-82172822D01*
X145996464Y-81971729D01*
X146011900Y-81815002D01*
X146011900Y-80186198D01*
X146418300Y-80186198D01*
X146418300Y-81815001D01*
X146433736Y-81971728D01*
X146494737Y-82172821D01*
X146593797Y-82358150D01*
X146727109Y-82520591D01*
X146889550Y-82653903D01*
X147074878Y-82752963D01*
X147275971Y-82813964D01*
X147485100Y-82834561D01*
X147694228Y-82813964D01*
X147895321Y-82752963D01*
X148080650Y-82653903D01*
X148243091Y-82520591D01*
X148376403Y-82358150D01*
X148475463Y-82172822D01*
X148536464Y-81971729D01*
X148551900Y-81815002D01*
X148551900Y-80186198D01*
X148958300Y-80186198D01*
X148958300Y-81815001D01*
X148973736Y-81971728D01*
X149034737Y-82172821D01*
X149133797Y-82358150D01*
X149267109Y-82520591D01*
X149429550Y-82653903D01*
X149614878Y-82752963D01*
X149815971Y-82813964D01*
X150025100Y-82834561D01*
X150234228Y-82813964D01*
X150435321Y-82752963D01*
X150620650Y-82653903D01*
X150783091Y-82520591D01*
X150916403Y-82358150D01*
X151015463Y-82172822D01*
X151076464Y-81971729D01*
X151091900Y-81815002D01*
X151091900Y-80186198D01*
X151498300Y-80186198D01*
X151498300Y-81815001D01*
X151513736Y-81971728D01*
X151574737Y-82172821D01*
X151673797Y-82358150D01*
X151807109Y-82520591D01*
X151969550Y-82653903D01*
X152154878Y-82752963D01*
X152355971Y-82813964D01*
X152565100Y-82834561D01*
X152774228Y-82813964D01*
X152975321Y-82752963D01*
X153160650Y-82653903D01*
X153323091Y-82520591D01*
X153456403Y-82358150D01*
X153555463Y-82172822D01*
X153616464Y-81971729D01*
X153631900Y-81815002D01*
X153631900Y-80186198D01*
X155435300Y-80186198D01*
X155435300Y-81815001D01*
X155450736Y-81971728D01*
X155511737Y-82172821D01*
X155610797Y-82358150D01*
X155744109Y-82520591D01*
X155906550Y-82653903D01*
X156091878Y-82752963D01*
X156292971Y-82813964D01*
X156502100Y-82834561D01*
X156711228Y-82813964D01*
X156912321Y-82752963D01*
X157097650Y-82653903D01*
X157260091Y-82520591D01*
X157393403Y-82358150D01*
X157492463Y-82172822D01*
X157553464Y-81971729D01*
X157568900Y-81815002D01*
X157568900Y-80186198D01*
X157975300Y-80186198D01*
X157975300Y-81815001D01*
X157990736Y-81971728D01*
X158051737Y-82172821D01*
X158150797Y-82358150D01*
X158284109Y-82520591D01*
X158446550Y-82653903D01*
X158631878Y-82752963D01*
X158832971Y-82813964D01*
X159042100Y-82834561D01*
X159251228Y-82813964D01*
X159452321Y-82752963D01*
X159637650Y-82653903D01*
X159800091Y-82520591D01*
X159933403Y-82358150D01*
X160032463Y-82172822D01*
X160093464Y-81971729D01*
X160108900Y-81815002D01*
X160108900Y-80186198D01*
X160515300Y-80186198D01*
X160515300Y-81815001D01*
X160530736Y-81971728D01*
X160591737Y-82172821D01*
X160690797Y-82358150D01*
X160824109Y-82520591D01*
X160986550Y-82653903D01*
X161171878Y-82752963D01*
X161372971Y-82813964D01*
X161582100Y-82834561D01*
X161791228Y-82813964D01*
X161992321Y-82752963D01*
X162177650Y-82653903D01*
X162340091Y-82520591D01*
X162473403Y-82358150D01*
X162572463Y-82172822D01*
X162633464Y-81971729D01*
X162648900Y-81815002D01*
X162648900Y-80186198D01*
X162633464Y-80029471D01*
X162572463Y-79828378D01*
X162473403Y-79643050D01*
X162340091Y-79480609D01*
X162177650Y-79347297D01*
X161992322Y-79248237D01*
X161791229Y-79187236D01*
X161582100Y-79166639D01*
X161372972Y-79187236D01*
X161171879Y-79248237D01*
X160986551Y-79347297D01*
X160824110Y-79480609D01*
X160690798Y-79643050D01*
X160591738Y-79828378D01*
X160530736Y-80029471D01*
X160515300Y-80186198D01*
X160108900Y-80186198D01*
X160093464Y-80029471D01*
X160032463Y-79828378D01*
X159933403Y-79643050D01*
X159800091Y-79480609D01*
X159637650Y-79347297D01*
X159452322Y-79248237D01*
X159251229Y-79187236D01*
X159042100Y-79166639D01*
X158832972Y-79187236D01*
X158631879Y-79248237D01*
X158446551Y-79347297D01*
X158284110Y-79480609D01*
X158150798Y-79643050D01*
X158051738Y-79828378D01*
X157990736Y-80029471D01*
X157975300Y-80186198D01*
X157568900Y-80186198D01*
X157553464Y-80029471D01*
X157492463Y-79828378D01*
X157393403Y-79643050D01*
X157260091Y-79480609D01*
X157097650Y-79347297D01*
X156912322Y-79248237D01*
X156711229Y-79187236D01*
X156502100Y-79166639D01*
X156292972Y-79187236D01*
X156091879Y-79248237D01*
X155906551Y-79347297D01*
X155744110Y-79480609D01*
X155610798Y-79643050D01*
X155511738Y-79828378D01*
X155450736Y-80029471D01*
X155435300Y-80186198D01*
X153631900Y-80186198D01*
X153616464Y-80029471D01*
X153555463Y-79828378D01*
X153456403Y-79643050D01*
X153323091Y-79480609D01*
X153160650Y-79347297D01*
X152975322Y-79248237D01*
X152774229Y-79187236D01*
X152565100Y-79166639D01*
X152355972Y-79187236D01*
X152154879Y-79248237D01*
X151969551Y-79347297D01*
X151807110Y-79480609D01*
X151673798Y-79643050D01*
X151574738Y-79828378D01*
X151513736Y-80029471D01*
X151498300Y-80186198D01*
X151091900Y-80186198D01*
X151076464Y-80029471D01*
X151015463Y-79828378D01*
X150916403Y-79643050D01*
X150783091Y-79480609D01*
X150620650Y-79347297D01*
X150435322Y-79248237D01*
X150234229Y-79187236D01*
X150025100Y-79166639D01*
X149815972Y-79187236D01*
X149614879Y-79248237D01*
X149429551Y-79347297D01*
X149267110Y-79480609D01*
X149133798Y-79643050D01*
X149034738Y-79828378D01*
X148973736Y-80029471D01*
X148958300Y-80186198D01*
X148551900Y-80186198D01*
X148536464Y-80029471D01*
X148475463Y-79828378D01*
X148376403Y-79643050D01*
X148243091Y-79480609D01*
X148080650Y-79347297D01*
X147895322Y-79248237D01*
X147694229Y-79187236D01*
X147485100Y-79166639D01*
X147275972Y-79187236D01*
X147074879Y-79248237D01*
X146889551Y-79347297D01*
X146727110Y-79480609D01*
X146593798Y-79643050D01*
X146494738Y-79828378D01*
X146433736Y-80029471D01*
X146418300Y-80186198D01*
X146011900Y-80186198D01*
X145996464Y-80029471D01*
X145935463Y-79828378D01*
X145836403Y-79643050D01*
X145703091Y-79480609D01*
X145540650Y-79347297D01*
X145355322Y-79248237D01*
X145154229Y-79187236D01*
X144945100Y-79166639D01*
X144735972Y-79187236D01*
X144534879Y-79248237D01*
X144349551Y-79347297D01*
X144187110Y-79480609D01*
X144053798Y-79643050D01*
X143954738Y-79828378D01*
X143893736Y-80029471D01*
X143878300Y-80186198D01*
X143471900Y-80186198D01*
X143456464Y-80029471D01*
X143395463Y-79828378D01*
X143296403Y-79643050D01*
X143163091Y-79480609D01*
X143000650Y-79347297D01*
X142815322Y-79248237D01*
X142614229Y-79187236D01*
X142405100Y-79166639D01*
X142195972Y-79187236D01*
X141994879Y-79248237D01*
X141809551Y-79347297D01*
X141647110Y-79480609D01*
X141513798Y-79643050D01*
X141414738Y-79828378D01*
X141353736Y-80029471D01*
X141338300Y-80186198D01*
X140931900Y-80186198D01*
X140916464Y-80029471D01*
X140855463Y-79828378D01*
X140756403Y-79643050D01*
X140623091Y-79480609D01*
X140460650Y-79347297D01*
X140275322Y-79248237D01*
X140074229Y-79187236D01*
X139865100Y-79166639D01*
X139655972Y-79187236D01*
X139454879Y-79248237D01*
X139269551Y-79347297D01*
X139107110Y-79480609D01*
X138973798Y-79643050D01*
X138874738Y-79828378D01*
X138859855Y-79877441D01*
X138834247Y-79757537D01*
X138711398Y-79472361D01*
X138535275Y-79216631D01*
X138312646Y-79000174D01*
X138052066Y-78831309D01*
X137744975Y-78721636D01*
X137502500Y-78879126D01*
X137147700Y-78879126D01*
X136905225Y-78721636D01*
X136598134Y-78831309D01*
X136337554Y-79000174D01*
X136114925Y-79216631D01*
X135938802Y-79472361D01*
X135815953Y-79757537D01*
X135790346Y-79877439D01*
X135775463Y-79828378D01*
X135676403Y-79643050D01*
X135543091Y-79480609D01*
X135380650Y-79347297D01*
X135195322Y-79248237D01*
X134994229Y-79187236D01*
X134785100Y-79166639D01*
X134575972Y-79187236D01*
X134374879Y-79248237D01*
X134189551Y-79347297D01*
X134027110Y-79480609D01*
X133893798Y-79643050D01*
X133794738Y-79828378D01*
X133733736Y-80029471D01*
X133718300Y-80186198D01*
X131840613Y-80186198D01*
X131828406Y-80176180D01*
X131687343Y-80100780D01*
X131534280Y-80054349D01*
X131375100Y-80038671D01*
X131101500Y-80042600D01*
X130898500Y-80245600D01*
X130543700Y-80245600D01*
X130340700Y-80042600D01*
X130067100Y-80038671D01*
X129907920Y-80054349D01*
X129754857Y-80100780D01*
X129613794Y-80176180D01*
X129490151Y-80277651D01*
X129388680Y-80401294D01*
X129313280Y-80542357D01*
X129298700Y-80590421D01*
X129298700Y-80014538D01*
X129301649Y-79984599D01*
X129298700Y-79954659D01*
X129289879Y-79865098D01*
X129255021Y-79750188D01*
X129198416Y-79644286D01*
X129122238Y-79551462D01*
X129098978Y-79532373D01*
X128633334Y-79066731D01*
X128614238Y-79043462D01*
X128521414Y-78967284D01*
X128415512Y-78910679D01*
X128300602Y-78875821D01*
X128211041Y-78867000D01*
X128181100Y-78864051D01*
X128151159Y-78867000D01*
X124655038Y-78867000D01*
X124625099Y-78864051D01*
X124595160Y-78867000D01*
X124595159Y-78867000D01*
X124505598Y-78875821D01*
X124390688Y-78910679D01*
X124284786Y-78967284D01*
X124191962Y-79043462D01*
X124172865Y-79066732D01*
X123961232Y-79278365D01*
X123937962Y-79297462D01*
X123861784Y-79390287D01*
X123805179Y-79496189D01*
X123788412Y-79551462D01*
X123770321Y-79611098D01*
X123758551Y-79730600D01*
X117436501Y-79730600D01*
X117436501Y-77622723D01*
X179565700Y-77875280D01*
%TA.AperFunction,Conductor*%
D29*
G36*
X179565700Y-77875280D02*
G01*
X179565699Y-132384476D01*
X117436501Y-132131920D01*
X117436501Y-128623805D01*
X121590918Y-128623805D01*
X121658329Y-128828228D01*
X121795108Y-129049712D01*
X121972468Y-129240256D01*
X122183593Y-129392537D01*
X122385998Y-129485002D01*
X122276425Y-129574925D01*
X122175354Y-129698081D01*
X122100251Y-129838588D01*
X122054003Y-129991048D01*
X122038387Y-130149600D01*
X122054003Y-130308152D01*
X122100251Y-130460612D01*
X122175354Y-130601119D01*
X122276425Y-130724275D01*
X122399581Y-130825346D01*
X122540088Y-130900449D01*
X122692548Y-130946697D01*
X122811371Y-130958400D01*
X123898829Y-130958400D01*
X124017652Y-130946697D01*
X124170112Y-130900449D01*
X124310619Y-130825346D01*
X124433775Y-130724275D01*
X124534846Y-130601119D01*
X124609949Y-130460612D01*
X124656197Y-130308152D01*
X124671813Y-130149600D01*
X124656197Y-129991048D01*
X124609949Y-129838588D01*
X124534846Y-129698081D01*
X124433775Y-129574925D01*
X124324202Y-129485002D01*
X124526607Y-129392537D01*
X124737732Y-129240256D01*
X124915092Y-129049712D01*
X125051871Y-128828228D01*
X125119282Y-128623805D01*
X124957871Y-128422000D01*
X123532500Y-128422000D01*
X123532500Y-128442000D01*
X123177700Y-128442000D01*
X123177700Y-128422000D01*
X121752329Y-128422000D01*
X121590918Y-128623805D01*
X117436501Y-128623805D01*
X117436501Y-128319198D01*
X142735300Y-128319198D01*
X142735300Y-129948001D01*
X142750736Y-130104728D01*
X142811737Y-130305821D01*
X142910797Y-130491150D01*
X143044109Y-130653591D01*
X143206550Y-130786903D01*
X143391878Y-130885963D01*
X143592971Y-130946964D01*
X143802100Y-130967561D01*
X144011228Y-130946964D01*
X144212321Y-130885963D01*
X144397650Y-130786903D01*
X144560091Y-130653591D01*
X144693403Y-130491150D01*
X144792463Y-130305822D01*
X144853464Y-130104729D01*
X144868900Y-129948002D01*
X144868900Y-128319198D01*
X145275300Y-128319198D01*
X145275300Y-129948001D01*
X145290736Y-130104728D01*
X145351737Y-130305821D01*
X145450797Y-130491150D01*
X145584109Y-130653591D01*
X145746550Y-130786903D01*
X145931878Y-130885963D01*
X146132971Y-130946964D01*
X146342100Y-130967561D01*
X146551228Y-130946964D01*
X146752321Y-130885963D01*
X146937650Y-130786903D01*
X147100091Y-130653591D01*
X147233403Y-130491150D01*
X147332463Y-130305822D01*
X147393464Y-130104729D01*
X147408900Y-129948002D01*
X147408900Y-128319198D01*
X147393464Y-128162471D01*
X147332463Y-127961378D01*
X147233403Y-127776050D01*
X147100091Y-127613609D01*
X146937650Y-127480297D01*
X146752322Y-127381237D01*
X146551229Y-127320236D01*
X146342100Y-127299639D01*
X146132972Y-127320236D01*
X145931879Y-127381237D01*
X145746551Y-127480297D01*
X145584110Y-127613609D01*
X145450798Y-127776050D01*
X145351738Y-127961378D01*
X145290736Y-128162471D01*
X145275300Y-128319198D01*
X144868900Y-128319198D01*
X144853464Y-128162471D01*
X144792463Y-127961378D01*
X144693403Y-127776050D01*
X144560091Y-127613609D01*
X144397650Y-127480297D01*
X144212322Y-127381237D01*
X144011229Y-127320236D01*
X143802100Y-127299639D01*
X143592972Y-127320236D01*
X143391879Y-127381237D01*
X143206551Y-127480297D01*
X143044110Y-127613609D01*
X142910798Y-127776050D01*
X142811738Y-127961378D01*
X142750736Y-128162471D01*
X142735300Y-128319198D01*
X117436501Y-128319198D01*
X117436501Y-127865395D01*
X121590918Y-127865395D01*
X121752329Y-128067200D01*
X123177700Y-128067200D01*
X123177700Y-128047200D01*
X123532500Y-128047200D01*
X123532500Y-128067200D01*
X124957871Y-128067200D01*
X125119282Y-127865395D01*
X125051871Y-127660972D01*
X124915092Y-127439488D01*
X124737732Y-127248944D01*
X124526607Y-127096663D01*
X124324202Y-127004198D01*
X124433775Y-126914275D01*
X124534846Y-126791119D01*
X124609949Y-126650612D01*
X124656197Y-126498152D01*
X124671813Y-126339600D01*
X124656197Y-126181048D01*
X124609949Y-126028588D01*
X124534846Y-125888081D01*
X124433775Y-125764925D01*
X124310619Y-125663854D01*
X124170112Y-125588751D01*
X124017652Y-125542503D01*
X123898829Y-125530800D01*
X122811371Y-125530800D01*
X122692548Y-125542503D01*
X122540088Y-125588751D01*
X122399581Y-125663854D01*
X122276425Y-125764925D01*
X122175354Y-125888081D01*
X122100251Y-126028588D01*
X122054003Y-126181048D01*
X122038387Y-126339600D01*
X122054003Y-126498152D01*
X122100251Y-126650612D01*
X122175354Y-126791119D01*
X122276425Y-126914275D01*
X122385998Y-127004198D01*
X122183593Y-127096663D01*
X121972468Y-127248944D01*
X121795108Y-127439488D01*
X121658329Y-127660972D01*
X121590918Y-127865395D01*
X117436501Y-127865395D01*
X117436501Y-122290600D01*
X127311826Y-122290600D01*
X127311826Y-126100600D01*
X127317711Y-126160351D01*
X127335140Y-126217806D01*
X127363442Y-126270757D01*
X127401532Y-126317168D01*
X127447943Y-126355258D01*
X127500894Y-126383560D01*
X127558349Y-126400989D01*
X127618100Y-126406874D01*
X131428100Y-126406874D01*
X131487851Y-126400989D01*
X131545306Y-126383560D01*
X131598257Y-126355258D01*
X131644668Y-126317168D01*
X131682758Y-126270757D01*
X131711060Y-126217806D01*
X131728489Y-126160351D01*
X131734374Y-126100600D01*
X131734374Y-122290600D01*
X136311826Y-122290600D01*
X136311826Y-126100600D01*
X136317711Y-126160351D01*
X136335140Y-126217806D01*
X136363442Y-126270757D01*
X136401532Y-126317168D01*
X136447943Y-126355258D01*
X136500894Y-126383560D01*
X136558349Y-126400989D01*
X136618100Y-126406874D01*
X140428100Y-126406874D01*
X140487851Y-126400989D01*
X140545306Y-126383560D01*
X140598257Y-126355258D01*
X140644668Y-126317168D01*
X140682758Y-126270757D01*
X140711060Y-126217806D01*
X140728489Y-126160351D01*
X140734374Y-126100600D01*
X140734374Y-122290600D01*
X140728489Y-122230849D01*
X140711060Y-122173394D01*
X140682758Y-122120443D01*
X140644668Y-122074032D01*
X140598257Y-122035942D01*
X140545306Y-122007640D01*
X140487851Y-121990211D01*
X140428100Y-121984326D01*
X136618100Y-121984326D01*
X136558349Y-121990211D01*
X136500894Y-122007640D01*
X136447943Y-122035942D01*
X136401532Y-122074032D01*
X136363442Y-122120443D01*
X136335140Y-122173394D01*
X136317711Y-122230849D01*
X136311826Y-122290600D01*
X131734374Y-122290600D01*
X131728489Y-122230849D01*
X131711060Y-122173394D01*
X131682758Y-122120443D01*
X131644668Y-122074032D01*
X131598257Y-122035942D01*
X131545306Y-122007640D01*
X131487851Y-121990211D01*
X131428100Y-121984326D01*
X127618100Y-121984326D01*
X127558349Y-121990211D01*
X127500894Y-122007640D01*
X127447943Y-122035942D01*
X127401532Y-122074032D01*
X127363442Y-122120443D01*
X127335140Y-122173394D01*
X127317711Y-122230849D01*
X127311826Y-122290600D01*
X117436501Y-122290600D01*
X117436501Y-119894536D01*
X121119900Y-119894536D01*
X121119900Y-120084664D01*
X121156992Y-120271138D01*
X121229751Y-120446794D01*
X121335380Y-120604879D01*
X121469821Y-120739320D01*
X121627906Y-120844949D01*
X121803562Y-120917708D01*
X121990036Y-120954800D01*
X122180164Y-120954800D01*
X122366638Y-120917708D01*
X122542294Y-120844949D01*
X122700379Y-120739320D01*
X122834820Y-120604879D01*
X122940449Y-120446794D01*
X123013208Y-120271138D01*
X123050300Y-120084664D01*
X123050300Y-119894536D01*
X123013208Y-119708062D01*
X122940449Y-119532406D01*
X122834820Y-119374321D01*
X122700379Y-119239880D01*
X122542294Y-119134251D01*
X122366638Y-119061492D01*
X122180164Y-119024400D01*
X121990036Y-119024400D01*
X121803562Y-119061492D01*
X121627906Y-119134251D01*
X121469821Y-119239880D01*
X121335380Y-119374321D01*
X121229751Y-119532406D01*
X121156992Y-119708062D01*
X121119900Y-119894536D01*
X117436501Y-119894536D01*
X117436501Y-117070516D01*
X130253100Y-117070516D01*
X130253100Y-117320684D01*
X130301905Y-117566045D01*
X130397641Y-117797171D01*
X130536627Y-118005178D01*
X130713522Y-118182073D01*
X130921529Y-118321059D01*
X131152655Y-118416795D01*
X131398016Y-118465600D01*
X131648184Y-118465600D01*
X131697502Y-118455790D01*
X132820507Y-119578796D01*
X132842773Y-119605927D01*
X132869904Y-119628193D01*
X132869908Y-119628197D01*
X132951067Y-119694802D01*
X133074619Y-119760842D01*
X133208680Y-119801509D01*
X133313164Y-119811800D01*
X133313173Y-119811800D01*
X133348099Y-119815240D01*
X133383025Y-119811800D01*
X139322174Y-119811800D01*
X139357100Y-119815240D01*
X139392026Y-119811800D01*
X139392036Y-119811800D01*
X139496520Y-119801509D01*
X139630581Y-119760842D01*
X139754133Y-119694802D01*
X139862427Y-119605927D01*
X139884701Y-119578786D01*
X140413688Y-119049800D01*
X148272500Y-119049800D01*
X148272501Y-127491828D01*
X148124110Y-127613609D01*
X147990798Y-127776050D01*
X147891738Y-127961378D01*
X147830736Y-128162471D01*
X147815300Y-128319198D01*
X147815300Y-129948001D01*
X147830736Y-130104728D01*
X147891737Y-130305821D01*
X147990797Y-130491150D01*
X148124109Y-130653591D01*
X148286550Y-130786903D01*
X148471878Y-130885963D01*
X148672971Y-130946964D01*
X148882100Y-130967561D01*
X149091228Y-130946964D01*
X149292321Y-130885963D01*
X149477650Y-130786903D01*
X149640091Y-130653591D01*
X149773403Y-130491150D01*
X149872463Y-130305822D01*
X149887346Y-130256761D01*
X149912953Y-130376663D01*
X150035802Y-130661839D01*
X150211925Y-130917569D01*
X150434554Y-131134026D01*
X150695134Y-131302891D01*
X151002225Y-131412564D01*
X151244700Y-131255074D01*
X151244700Y-129311000D01*
X151599500Y-129311000D01*
X151599500Y-131255074D01*
X151841975Y-131412564D01*
X152149066Y-131302891D01*
X152409646Y-131134026D01*
X152632275Y-130917569D01*
X152692100Y-130830703D01*
X152751925Y-130917569D01*
X152974554Y-131134026D01*
X153235134Y-131302891D01*
X153542225Y-131412564D01*
X153784700Y-131255074D01*
X153784700Y-129311000D01*
X151599500Y-129311000D01*
X151244700Y-129311000D01*
X151224700Y-129311000D01*
X151224700Y-128956200D01*
X151244700Y-128956200D01*
X151244700Y-127012126D01*
X151599500Y-127012126D01*
X151599500Y-128956200D01*
X153784700Y-128956200D01*
X153784700Y-127012126D01*
X154139500Y-127012126D01*
X154139500Y-128956200D01*
X154159500Y-128956200D01*
X154159500Y-129311000D01*
X154139500Y-129311000D01*
X154139500Y-131255074D01*
X154381975Y-131412564D01*
X154689066Y-131302891D01*
X154949646Y-131134026D01*
X155172275Y-130917569D01*
X155348398Y-130661839D01*
X155471247Y-130376663D01*
X155496855Y-130256761D01*
X155511737Y-130305821D01*
X155610797Y-130491150D01*
X155744109Y-130653591D01*
X155906550Y-130786903D01*
X156091878Y-130885963D01*
X156292971Y-130946964D01*
X156502100Y-130967561D01*
X156711228Y-130946964D01*
X156912321Y-130885963D01*
X157097650Y-130786903D01*
X157260091Y-130653591D01*
X157393403Y-130491150D01*
X157492463Y-130305822D01*
X157553464Y-130104729D01*
X157568900Y-129948002D01*
X157568900Y-128446198D01*
X160642300Y-128446198D01*
X160642300Y-130075001D01*
X160657736Y-130231728D01*
X160718737Y-130432821D01*
X160817797Y-130618150D01*
X160951109Y-130780591D01*
X161113550Y-130913903D01*
X161298878Y-131012963D01*
X161499971Y-131073964D01*
X161709100Y-131094561D01*
X161918228Y-131073964D01*
X162119321Y-131012963D01*
X162304650Y-130913903D01*
X162467091Y-130780591D01*
X162600403Y-130618150D01*
X162699463Y-130432822D01*
X162760464Y-130231729D01*
X162775900Y-130075002D01*
X162775900Y-128446198D01*
X163182300Y-128446198D01*
X163182300Y-130075001D01*
X163197736Y-130231728D01*
X163258737Y-130432821D01*
X163357797Y-130618150D01*
X163491109Y-130780591D01*
X163653550Y-130913903D01*
X163838878Y-131012963D01*
X164039971Y-131073964D01*
X164249100Y-131094561D01*
X164458228Y-131073964D01*
X164659321Y-131012963D01*
X164844650Y-130913903D01*
X165007091Y-130780591D01*
X165140403Y-130618150D01*
X165239463Y-130432822D01*
X165300464Y-130231729D01*
X165315900Y-130075002D01*
X165315900Y-128446198D01*
X165722300Y-128446198D01*
X165722300Y-130075001D01*
X165737736Y-130231728D01*
X165798737Y-130432821D01*
X165897797Y-130618150D01*
X166031109Y-130780591D01*
X166193550Y-130913903D01*
X166378878Y-131012963D01*
X166579971Y-131073964D01*
X166789100Y-131094561D01*
X166998228Y-131073964D01*
X167199321Y-131012963D01*
X167384650Y-130913903D01*
X167547091Y-130780591D01*
X167680403Y-130618150D01*
X167779463Y-130432822D01*
X167840464Y-130231729D01*
X167855900Y-130075002D01*
X167855900Y-128446198D01*
X168262300Y-128446198D01*
X168262300Y-130075001D01*
X168277736Y-130231728D01*
X168338737Y-130432821D01*
X168437797Y-130618150D01*
X168571109Y-130780591D01*
X168733550Y-130913903D01*
X168918878Y-131012963D01*
X169119971Y-131073964D01*
X169329100Y-131094561D01*
X169538228Y-131073964D01*
X169739321Y-131012963D01*
X169924650Y-130913903D01*
X170087091Y-130780591D01*
X170220403Y-130618150D01*
X170319463Y-130432822D01*
X170380464Y-130231729D01*
X170395900Y-130075002D01*
X170395900Y-128446198D01*
X170802300Y-128446198D01*
X170802300Y-130075001D01*
X170817736Y-130231728D01*
X170878737Y-130432821D01*
X170977797Y-130618150D01*
X171111109Y-130780591D01*
X171273550Y-130913903D01*
X171458878Y-131012963D01*
X171659971Y-131073964D01*
X171869100Y-131094561D01*
X172078228Y-131073964D01*
X172279321Y-131012963D01*
X172464650Y-130913903D01*
X172627091Y-130780591D01*
X172760403Y-130618150D01*
X172859463Y-130432822D01*
X172920464Y-130231729D01*
X172935900Y-130075002D01*
X172935900Y-128446198D01*
X173342300Y-128446198D01*
X173342300Y-130075001D01*
X173357736Y-130231728D01*
X173418737Y-130432821D01*
X173517797Y-130618150D01*
X173651109Y-130780591D01*
X173813550Y-130913903D01*
X173998878Y-131012963D01*
X174199971Y-131073964D01*
X174409100Y-131094561D01*
X174618228Y-131073964D01*
X174819321Y-131012963D01*
X175004650Y-130913903D01*
X175167091Y-130780591D01*
X175300403Y-130618150D01*
X175399463Y-130432822D01*
X175460464Y-130231729D01*
X175475900Y-130075002D01*
X175475900Y-128446198D01*
X175460464Y-128289471D01*
X175399463Y-128088378D01*
X175300403Y-127903050D01*
X175167091Y-127740609D01*
X175004650Y-127607297D01*
X174819322Y-127508237D01*
X174618229Y-127447236D01*
X174409100Y-127426639D01*
X174199972Y-127447236D01*
X173998879Y-127508237D01*
X173813551Y-127607297D01*
X173651110Y-127740609D01*
X173517798Y-127903050D01*
X173418738Y-128088378D01*
X173357736Y-128289471D01*
X173342300Y-128446198D01*
X172935900Y-128446198D01*
X172920464Y-128289471D01*
X172859463Y-128088378D01*
X172760403Y-127903050D01*
X172627091Y-127740609D01*
X172464650Y-127607297D01*
X172279322Y-127508237D01*
X172078229Y-127447236D01*
X171869100Y-127426639D01*
X171659972Y-127447236D01*
X171458879Y-127508237D01*
X171273551Y-127607297D01*
X171111110Y-127740609D01*
X170977798Y-127903050D01*
X170878738Y-128088378D01*
X170817736Y-128289471D01*
X170802300Y-128446198D01*
X170395900Y-128446198D01*
X170380464Y-128289471D01*
X170319463Y-128088378D01*
X170220403Y-127903050D01*
X170087091Y-127740609D01*
X169924650Y-127607297D01*
X169739322Y-127508237D01*
X169538229Y-127447236D01*
X169329100Y-127426639D01*
X169119972Y-127447236D01*
X168918879Y-127508237D01*
X168733551Y-127607297D01*
X168571110Y-127740609D01*
X168437798Y-127903050D01*
X168338738Y-128088378D01*
X168277736Y-128289471D01*
X168262300Y-128446198D01*
X167855900Y-128446198D01*
X167840464Y-128289471D01*
X167779463Y-128088378D01*
X167680403Y-127903050D01*
X167547091Y-127740609D01*
X167384650Y-127607297D01*
X167199322Y-127508237D01*
X166998229Y-127447236D01*
X166789100Y-127426639D01*
X166579972Y-127447236D01*
X166378879Y-127508237D01*
X166193551Y-127607297D01*
X166031110Y-127740609D01*
X165897798Y-127903050D01*
X165798738Y-128088378D01*
X165737736Y-128289471D01*
X165722300Y-128446198D01*
X165315900Y-128446198D01*
X165300464Y-128289471D01*
X165239463Y-128088378D01*
X165140403Y-127903050D01*
X165007091Y-127740609D01*
X164844650Y-127607297D01*
X164659322Y-127508237D01*
X164458229Y-127447236D01*
X164249100Y-127426639D01*
X164039972Y-127447236D01*
X163838879Y-127508237D01*
X163653551Y-127607297D01*
X163491110Y-127740609D01*
X163357798Y-127903050D01*
X163258738Y-128088378D01*
X163197736Y-128289471D01*
X163182300Y-128446198D01*
X162775900Y-128446198D01*
X162760464Y-128289471D01*
X162699463Y-128088378D01*
X162600403Y-127903050D01*
X162467091Y-127740609D01*
X162304650Y-127607297D01*
X162119322Y-127508237D01*
X161918229Y-127447236D01*
X161709100Y-127426639D01*
X161499972Y-127447236D01*
X161298879Y-127508237D01*
X161113551Y-127607297D01*
X160951110Y-127740609D01*
X160817798Y-127903050D01*
X160718738Y-128088378D01*
X160657736Y-128289471D01*
X160642300Y-128446198D01*
X157568900Y-128446198D01*
X157568900Y-128319198D01*
X157553464Y-128162471D01*
X157492463Y-127961378D01*
X157393403Y-127776050D01*
X157260091Y-127613609D01*
X157097650Y-127480297D01*
X156912322Y-127381237D01*
X156711229Y-127320236D01*
X156502100Y-127299639D01*
X156292972Y-127320236D01*
X156091879Y-127381237D01*
X155906551Y-127480297D01*
X155744110Y-127613609D01*
X155610798Y-127776050D01*
X155511738Y-127961378D01*
X155496855Y-128010441D01*
X155471247Y-127890537D01*
X155348398Y-127605361D01*
X155172275Y-127349631D01*
X154949646Y-127133174D01*
X154689066Y-126964309D01*
X154381975Y-126854636D01*
X154139500Y-127012126D01*
X153784700Y-127012126D01*
X153542225Y-126854636D01*
X153235134Y-126964309D01*
X152974554Y-127133174D01*
X152751925Y-127349631D01*
X152692100Y-127436497D01*
X152632275Y-127349631D01*
X152409646Y-127133174D01*
X152149066Y-126964309D01*
X151841975Y-126854636D01*
X151599500Y-127012126D01*
X151244700Y-127012126D01*
X151002225Y-126854636D01*
X150695134Y-126964309D01*
X150434554Y-127133174D01*
X150211925Y-127349631D01*
X150035802Y-127605361D01*
X149912953Y-127890537D01*
X149887346Y-128010439D01*
X149872463Y-127961378D01*
X149773403Y-127776050D01*
X149640091Y-127613609D01*
X149491700Y-127491828D01*
X149491700Y-123334173D01*
X151961900Y-123334173D01*
X151961900Y-123503027D01*
X151994841Y-123668636D01*
X152059459Y-123824637D01*
X152153269Y-123965033D01*
X152272667Y-124084431D01*
X152413063Y-124178241D01*
X152569064Y-124242859D01*
X152734673Y-124275800D01*
X152903527Y-124275800D01*
X153069136Y-124242859D01*
X153225137Y-124178241D01*
X153365533Y-124084431D01*
X153421764Y-124028200D01*
X167964436Y-124028200D01*
X168020667Y-124084431D01*
X168161063Y-124178241D01*
X168317064Y-124242859D01*
X168482673Y-124275800D01*
X168651527Y-124275800D01*
X168817136Y-124242859D01*
X168973137Y-124178241D01*
X169113533Y-124084431D01*
X169232931Y-123965033D01*
X169326741Y-123824637D01*
X169391359Y-123668636D01*
X169424300Y-123503027D01*
X169424300Y-123334173D01*
X169391359Y-123168564D01*
X169326741Y-123012563D01*
X169232931Y-122872167D01*
X169113533Y-122752769D01*
X168973137Y-122658959D01*
X168817136Y-122594341D01*
X168651527Y-122561400D01*
X168482673Y-122561400D01*
X168317064Y-122594341D01*
X168161063Y-122658959D01*
X168020667Y-122752769D01*
X167964436Y-122809000D01*
X153421764Y-122809000D01*
X153365533Y-122752769D01*
X153225137Y-122658959D01*
X153069136Y-122594341D01*
X152903527Y-122561400D01*
X152734673Y-122561400D01*
X152569064Y-122594341D01*
X152413063Y-122658959D01*
X152272667Y-122752769D01*
X152153269Y-122872167D01*
X152059459Y-123012563D01*
X151994841Y-123168564D01*
X151961900Y-123334173D01*
X149491700Y-123334173D01*
X149491700Y-119049800D01*
X163960164Y-119049800D01*
X163995100Y-119053241D01*
X164030036Y-119049800D01*
X171643674Y-119049800D01*
X171678600Y-119053240D01*
X171713526Y-119049800D01*
X171713536Y-119049800D01*
X171818020Y-119039509D01*
X171952081Y-118998842D01*
X172075633Y-118932802D01*
X172183927Y-118843927D01*
X172206202Y-118816786D01*
X173833196Y-117189793D01*
X173860327Y-117167527D01*
X173882593Y-117140396D01*
X173882598Y-117140391D01*
X173949202Y-117059233D01*
X174015242Y-116935682D01*
X174055909Y-116801620D01*
X174066200Y-116697136D01*
X174066200Y-116697129D01*
X174069640Y-116662200D01*
X174066200Y-116627272D01*
X174066200Y-111988600D01*
X174200985Y-111988600D01*
X174220602Y-112187771D01*
X174278698Y-112379287D01*
X174373040Y-112555790D01*
X174500004Y-112710496D01*
X174654710Y-112837460D01*
X174831213Y-112931802D01*
X175022729Y-112989898D01*
X175171998Y-113004600D01*
X176694202Y-113004600D01*
X176843471Y-112989898D01*
X177034987Y-112931802D01*
X177211490Y-112837460D01*
X177366196Y-112710496D01*
X177493160Y-112555790D01*
X177587502Y-112379287D01*
X177645598Y-112187771D01*
X177665215Y-111988600D01*
X177645598Y-111789429D01*
X177587502Y-111597913D01*
X177493160Y-111421410D01*
X177366196Y-111266704D01*
X177211490Y-111139740D01*
X177034987Y-111045398D01*
X176843471Y-110987302D01*
X176694202Y-110972600D01*
X175171998Y-110972600D01*
X175022729Y-110987302D01*
X174831213Y-111045398D01*
X174654710Y-111139740D01*
X174500004Y-111266704D01*
X174373040Y-111421410D01*
X174278698Y-111597913D01*
X174220602Y-111789429D01*
X174200985Y-111988600D01*
X174066200Y-111988600D01*
X174066200Y-110159800D01*
X174491226Y-110159800D01*
X174500004Y-110170496D01*
X174654710Y-110297460D01*
X174831213Y-110391802D01*
X175022729Y-110449898D01*
X175171998Y-110464600D01*
X176694202Y-110464600D01*
X176843471Y-110449898D01*
X177034987Y-110391802D01*
X177211490Y-110297460D01*
X177366196Y-110170496D01*
X177493160Y-110015790D01*
X177587502Y-109839287D01*
X177645598Y-109647771D01*
X177665215Y-109448600D01*
X177645598Y-109249429D01*
X177587502Y-109057913D01*
X177493160Y-108881410D01*
X177366196Y-108726704D01*
X177211490Y-108599740D01*
X177034987Y-108505398D01*
X176843471Y-108447302D01*
X176694202Y-108432600D01*
X175171998Y-108432600D01*
X175022729Y-108447302D01*
X174831213Y-108505398D01*
X174654710Y-108599740D01*
X174500004Y-108726704D01*
X174491226Y-108737400D01*
X173796325Y-108737400D01*
X173761399Y-108733960D01*
X173726473Y-108737400D01*
X173726464Y-108737400D01*
X173621980Y-108747691D01*
X173487919Y-108788358D01*
X173364367Y-108854398D01*
X173256073Y-108943273D01*
X173233802Y-108970410D01*
X172876810Y-109327403D01*
X172849673Y-109349674D01*
X172760798Y-109457968D01*
X172694758Y-109581520D01*
X172654091Y-109715581D01*
X172643800Y-109820065D01*
X172643800Y-109820074D01*
X172640360Y-109855000D01*
X172643800Y-109889926D01*
X172643801Y-116367610D01*
X171384013Y-117627400D01*
X164706300Y-117627400D01*
X164706300Y-107320475D01*
X173755443Y-107320475D01*
X173856847Y-107607342D01*
X174019394Y-107860224D01*
X174228152Y-108076536D01*
X174475100Y-108247965D01*
X174750747Y-108367923D01*
X175044500Y-108431800D01*
X175755700Y-108431800D01*
X175755700Y-107086000D01*
X176110500Y-107086000D01*
X176110500Y-108431800D01*
X176821700Y-108431800D01*
X177115453Y-108367923D01*
X177391100Y-108247965D01*
X177638048Y-108076536D01*
X177846806Y-107860224D01*
X178009353Y-107607342D01*
X178110757Y-107320475D01*
X177952527Y-107086000D01*
X176110500Y-107086000D01*
X175755700Y-107086000D01*
X173913673Y-107086000D01*
X173755443Y-107320475D01*
X164706300Y-107320475D01*
X164706300Y-106496725D01*
X173755443Y-106496725D01*
X173913673Y-106731200D01*
X175755700Y-106731200D01*
X175755700Y-105385400D01*
X176110500Y-105385400D01*
X176110500Y-106731200D01*
X177952527Y-106731200D01*
X178110757Y-106496725D01*
X178009353Y-106209858D01*
X177846806Y-105956976D01*
X177638048Y-105740664D01*
X177391100Y-105569235D01*
X177115453Y-105449277D01*
X176821700Y-105385400D01*
X176110500Y-105385400D01*
X175755700Y-105385400D01*
X175044500Y-105385400D01*
X174750747Y-105449277D01*
X174475100Y-105569235D01*
X174228152Y-105740664D01*
X174019394Y-105956976D01*
X173856847Y-106209858D01*
X173755443Y-106496725D01*
X164706300Y-106496725D01*
X164706300Y-105019846D01*
X164755926Y-104970220D01*
X164881013Y-104783013D01*
X164967175Y-104575001D01*
X165011100Y-104354176D01*
X165011100Y-104129024D01*
X165007013Y-104108475D01*
X166759301Y-102356188D01*
X166786426Y-102333927D01*
X166808688Y-102306801D01*
X166808697Y-102306792D01*
X166875302Y-102225633D01*
X166926813Y-102129263D01*
X166941342Y-102102081D01*
X166971519Y-102002600D01*
X168223793Y-102002600D01*
X168246965Y-102237871D01*
X168315591Y-102464100D01*
X168427033Y-102672594D01*
X168577010Y-102855340D01*
X168759756Y-103005317D01*
X168968250Y-103116759D01*
X169194479Y-103185385D01*
X169370790Y-103202750D01*
X171279410Y-103202750D01*
X171455721Y-103185385D01*
X171681950Y-103116759D01*
X171890444Y-103005317D01*
X172073190Y-102855340D01*
X172223167Y-102672594D01*
X172334609Y-102464100D01*
X172403235Y-102237871D01*
X172426407Y-102002600D01*
X172403235Y-101767329D01*
X172334609Y-101541100D01*
X172223167Y-101332606D01*
X172073190Y-101149860D01*
X171890444Y-100999883D01*
X171681950Y-100888441D01*
X171455721Y-100819815D01*
X171279410Y-100802450D01*
X169370790Y-100802450D01*
X169194479Y-100819815D01*
X168968250Y-100888441D01*
X168759756Y-100999883D01*
X168577010Y-101149860D01*
X168427033Y-101332606D01*
X168315591Y-101541100D01*
X168246965Y-101767329D01*
X168223793Y-102002600D01*
X166971519Y-102002600D01*
X166982009Y-101968020D01*
X166992300Y-101863536D01*
X166992300Y-101863527D01*
X166995740Y-101828601D01*
X166992300Y-101793675D01*
X166992300Y-97002600D01*
X168223793Y-97002600D01*
X168246965Y-97237871D01*
X168315591Y-97464100D01*
X168427033Y-97672594D01*
X168577010Y-97855340D01*
X168759756Y-98005317D01*
X168968250Y-98116759D01*
X169194479Y-98185385D01*
X169370790Y-98202750D01*
X171279410Y-98202750D01*
X171455721Y-98185385D01*
X171681950Y-98116759D01*
X171890444Y-98005317D01*
X172073190Y-97855340D01*
X172223167Y-97672594D01*
X172334609Y-97464100D01*
X172403235Y-97237871D01*
X172426407Y-97002600D01*
X172403235Y-96767329D01*
X172334609Y-96541100D01*
X172223167Y-96332606D01*
X172073190Y-96149860D01*
X171890444Y-95999883D01*
X171681950Y-95888441D01*
X171455721Y-95819815D01*
X171279410Y-95802450D01*
X169370790Y-95802450D01*
X169194479Y-95819815D01*
X168968250Y-95888441D01*
X168759756Y-95999883D01*
X168577010Y-96149860D01*
X168427033Y-96332606D01*
X168315591Y-96541100D01*
X168246965Y-96767329D01*
X168223793Y-97002600D01*
X166992300Y-97002600D01*
X166992300Y-95767525D01*
X166995740Y-95732599D01*
X166992300Y-95697673D01*
X166992300Y-95697664D01*
X166982009Y-95593180D01*
X166941342Y-95459119D01*
X166875302Y-95335567D01*
X166808697Y-95254408D01*
X166808693Y-95254404D01*
X166786427Y-95227273D01*
X166759296Y-95205007D01*
X165007013Y-93452725D01*
X165011100Y-93432176D01*
X165011100Y-93207024D01*
X164967175Y-92986199D01*
X164881013Y-92778187D01*
X164755926Y-92590980D01*
X164596720Y-92431774D01*
X164409513Y-92306687D01*
X164201501Y-92220525D01*
X163980676Y-92176600D01*
X163755524Y-92176600D01*
X163534699Y-92220525D01*
X163326687Y-92306687D01*
X163139480Y-92431774D01*
X162980274Y-92590980D01*
X162855187Y-92778187D01*
X162769025Y-92986199D01*
X162725100Y-93207024D01*
X162725100Y-93432176D01*
X162769025Y-93653001D01*
X162855187Y-93861013D01*
X162980274Y-94048220D01*
X163139480Y-94207426D01*
X163326687Y-94332513D01*
X163534699Y-94418675D01*
X163755524Y-94462600D01*
X163980676Y-94462600D01*
X164001225Y-94458513D01*
X165569901Y-96027190D01*
X165569900Y-101534011D01*
X164001225Y-103102687D01*
X163980676Y-103098600D01*
X163755524Y-103098600D01*
X163534699Y-103142525D01*
X163326687Y-103228687D01*
X163139480Y-103353774D01*
X162980274Y-103512980D01*
X162855187Y-103700187D01*
X162769025Y-103908199D01*
X162725100Y-104129024D01*
X162725100Y-104354176D01*
X162769025Y-104575001D01*
X162855187Y-104783013D01*
X162980274Y-104970220D01*
X163139480Y-105129426D01*
X163283901Y-105225924D01*
X163283900Y-117627400D01*
X149044025Y-117627400D01*
X149009099Y-117623960D01*
X148974173Y-117627400D01*
X140154028Y-117627400D01*
X140119100Y-117623960D01*
X140084171Y-117627400D01*
X140084164Y-117627400D01*
X139979680Y-117637691D01*
X139845618Y-117678358D01*
X139722067Y-117744398D01*
X139640909Y-117811002D01*
X139640904Y-117811007D01*
X139613773Y-117833273D01*
X139591507Y-117860404D01*
X139062512Y-118389400D01*
X137853759Y-118389400D01*
X137910772Y-118332387D01*
X137760699Y-118182314D01*
X138064969Y-118096554D01*
X138211110Y-117778439D01*
X138292382Y-117437925D01*
X138305660Y-117088099D01*
X138250437Y-116742405D01*
X138128833Y-116414126D01*
X138064969Y-116294646D01*
X137760697Y-116208885D01*
X136773981Y-117195600D01*
X136788124Y-117209742D01*
X136537242Y-117460624D01*
X136523100Y-117446481D01*
X136508958Y-117460624D01*
X136258076Y-117209742D01*
X136272219Y-117195600D01*
X135285503Y-116208885D01*
X134981231Y-116294646D01*
X134961389Y-116337838D01*
X134832678Y-116209127D01*
X134624671Y-116070141D01*
X134393545Y-115974405D01*
X134311087Y-115958003D01*
X135536385Y-115958003D01*
X136523100Y-116944719D01*
X137509815Y-115958003D01*
X137424054Y-115653731D01*
X137105939Y-115507590D01*
X136765425Y-115426318D01*
X136415599Y-115413040D01*
X136069905Y-115468263D01*
X135741626Y-115589867D01*
X135622146Y-115653731D01*
X135536385Y-115958003D01*
X134311087Y-115958003D01*
X134148184Y-115925600D01*
X133898016Y-115925600D01*
X133652655Y-115974405D01*
X133421529Y-116070141D01*
X133213522Y-116209127D01*
X133036627Y-116386022D01*
X132897641Y-116594029D01*
X132801905Y-116825155D01*
X132773100Y-116969969D01*
X132744295Y-116825155D01*
X132648559Y-116594029D01*
X132509573Y-116386022D01*
X132332678Y-116209127D01*
X132124671Y-116070141D01*
X131893545Y-115974405D01*
X131648184Y-115925600D01*
X131398016Y-115925600D01*
X131152655Y-115974405D01*
X130921529Y-116070141D01*
X130713522Y-116209127D01*
X130536627Y-116386022D01*
X130397641Y-116594029D01*
X130301905Y-116825155D01*
X130253100Y-117070516D01*
X117436501Y-117070516D01*
X117436501Y-114814536D01*
X121119900Y-114814536D01*
X121119900Y-115004664D01*
X121156992Y-115191138D01*
X121229751Y-115366794D01*
X121335380Y-115524879D01*
X121469821Y-115659320D01*
X121627906Y-115764949D01*
X121803562Y-115837708D01*
X121990036Y-115874800D01*
X122180164Y-115874800D01*
X122366638Y-115837708D01*
X122542294Y-115764949D01*
X122700379Y-115659320D01*
X122834820Y-115524879D01*
X122940449Y-115366794D01*
X123013208Y-115191138D01*
X123050300Y-115004664D01*
X123050300Y-114814536D01*
X123013208Y-114628062D01*
X122940449Y-114452406D01*
X122834820Y-114294321D01*
X122700379Y-114159880D01*
X122542294Y-114054251D01*
X122366638Y-113981492D01*
X122180164Y-113944400D01*
X121990036Y-113944400D01*
X121803562Y-113981492D01*
X121627906Y-114054251D01*
X121469821Y-114159880D01*
X121335380Y-114294321D01*
X121229751Y-114452406D01*
X121156992Y-114628062D01*
X121119900Y-114814536D01*
X117436501Y-114814536D01*
X117436501Y-110975921D01*
X138715661Y-110975921D01*
X138764251Y-111249198D01*
X139030256Y-111364797D01*
X139313702Y-111426280D01*
X139603697Y-111431283D01*
X139889095Y-111379616D01*
X140158930Y-111273263D01*
X140203949Y-111249198D01*
X140252539Y-110975921D01*
X139484100Y-110207481D01*
X138715661Y-110975921D01*
X117436501Y-110975921D01*
X117436501Y-109861536D01*
X128358900Y-109861536D01*
X128358900Y-110051664D01*
X128395992Y-110238138D01*
X128468751Y-110413794D01*
X128574380Y-110571879D01*
X128708821Y-110706320D01*
X128866906Y-110811949D01*
X129042562Y-110884708D01*
X129229036Y-110921800D01*
X129419164Y-110921800D01*
X129605638Y-110884708D01*
X129781294Y-110811949D01*
X129939379Y-110706320D01*
X130073820Y-110571879D01*
X130179449Y-110413794D01*
X130252208Y-110238138D01*
X130284420Y-110076197D01*
X138009417Y-110076197D01*
X138061084Y-110361595D01*
X138167437Y-110631430D01*
X138191502Y-110676449D01*
X138464779Y-110725039D01*
X139233219Y-109956600D01*
X139734981Y-109956600D01*
X140503421Y-110725039D01*
X140776698Y-110676449D01*
X140892297Y-110410444D01*
X140953780Y-110126998D01*
X140958783Y-109837003D01*
X140907116Y-109551605D01*
X140800763Y-109281770D01*
X140776698Y-109236751D01*
X140503421Y-109188161D01*
X139734981Y-109956600D01*
X139233219Y-109956600D01*
X138464779Y-109188161D01*
X138191502Y-109236751D01*
X138075903Y-109502756D01*
X138014420Y-109786202D01*
X138009417Y-110076197D01*
X130284420Y-110076197D01*
X130289300Y-110051664D01*
X130289300Y-109861536D01*
X130252208Y-109675062D01*
X130179449Y-109499406D01*
X130073820Y-109341321D01*
X129939379Y-109206880D01*
X129781294Y-109101251D01*
X129605638Y-109028492D01*
X129419164Y-108991400D01*
X129229036Y-108991400D01*
X129042562Y-109028492D01*
X128866906Y-109101251D01*
X128708821Y-109206880D01*
X128574380Y-109341321D01*
X128468751Y-109499406D01*
X128395992Y-109675062D01*
X128358900Y-109861536D01*
X117436501Y-109861536D01*
X117436501Y-108937279D01*
X138715661Y-108937279D01*
X139484100Y-109705719D01*
X140252539Y-108937279D01*
X140203949Y-108664002D01*
X139937944Y-108548403D01*
X139654498Y-108486920D01*
X139364503Y-108481917D01*
X139079105Y-108533584D01*
X138809270Y-108639937D01*
X138764251Y-108664002D01*
X138715661Y-108937279D01*
X117436501Y-108937279D01*
X117436501Y-107571636D01*
X120064300Y-107571636D01*
X120064300Y-107769564D01*
X120102914Y-107963689D01*
X120178658Y-108146551D01*
X120288621Y-108311123D01*
X120428577Y-108451079D01*
X120593149Y-108561042D01*
X120776011Y-108636786D01*
X120970136Y-108675400D01*
X121168064Y-108675400D01*
X121362189Y-108636786D01*
X121545051Y-108561042D01*
X121709623Y-108451079D01*
X121849579Y-108311123D01*
X121959542Y-108146551D01*
X122035286Y-107963689D01*
X122073900Y-107769564D01*
X122073900Y-107571636D01*
X122604300Y-107571636D01*
X122604300Y-107769564D01*
X122642914Y-107963689D01*
X122718658Y-108146551D01*
X122828621Y-108311123D01*
X122968577Y-108451079D01*
X123133149Y-108561042D01*
X123316011Y-108636786D01*
X123510136Y-108675400D01*
X123708064Y-108675400D01*
X123902189Y-108636786D01*
X124085051Y-108561042D01*
X124249623Y-108451079D01*
X124389579Y-108311123D01*
X124499542Y-108146551D01*
X124575286Y-107963689D01*
X124582400Y-107927921D01*
X138715661Y-107927921D01*
X138764251Y-108201198D01*
X139030256Y-108316797D01*
X139313702Y-108378280D01*
X139603697Y-108383283D01*
X139889095Y-108331616D01*
X140158930Y-108225263D01*
X140203949Y-108201198D01*
X140252539Y-107927921D01*
X139484100Y-107159481D01*
X138715661Y-107927921D01*
X124582400Y-107927921D01*
X124613900Y-107769564D01*
X124613900Y-107571636D01*
X124575286Y-107377511D01*
X124499542Y-107194649D01*
X124389579Y-107030077D01*
X124249623Y-106890121D01*
X124135005Y-106813536D01*
X128358900Y-106813536D01*
X128358900Y-107003664D01*
X128395992Y-107190138D01*
X128468751Y-107365794D01*
X128574380Y-107523879D01*
X128708821Y-107658320D01*
X128866906Y-107763949D01*
X129042562Y-107836708D01*
X129229036Y-107873800D01*
X129419164Y-107873800D01*
X129605638Y-107836708D01*
X129781294Y-107763949D01*
X129939379Y-107658320D01*
X130073820Y-107523879D01*
X130179449Y-107365794D01*
X130252208Y-107190138D01*
X130284420Y-107028197D01*
X138009417Y-107028197D01*
X138061084Y-107313595D01*
X138167437Y-107583430D01*
X138191502Y-107628449D01*
X138464779Y-107677039D01*
X139233219Y-106908600D01*
X139734981Y-106908600D01*
X140503421Y-107677039D01*
X140776698Y-107628449D01*
X140892297Y-107362444D01*
X140953780Y-107078998D01*
X140958783Y-106789003D01*
X140907116Y-106503605D01*
X140800763Y-106233770D01*
X140776698Y-106188751D01*
X140503421Y-106140161D01*
X139734981Y-106908600D01*
X139233219Y-106908600D01*
X138464779Y-106140161D01*
X138191502Y-106188751D01*
X138075903Y-106454756D01*
X138014420Y-106738202D01*
X138009417Y-107028197D01*
X130284420Y-107028197D01*
X130289300Y-107003664D01*
X130289300Y-106813536D01*
X130252208Y-106627062D01*
X130179449Y-106451406D01*
X130073820Y-106293321D01*
X129939379Y-106158880D01*
X129781294Y-106053251D01*
X129605638Y-105980492D01*
X129419164Y-105943400D01*
X129229036Y-105943400D01*
X129042562Y-105980492D01*
X128866906Y-106053251D01*
X128708821Y-106158880D01*
X128574380Y-106293321D01*
X128468751Y-106451406D01*
X128395992Y-106627062D01*
X128358900Y-106813536D01*
X124135005Y-106813536D01*
X124085051Y-106780158D01*
X123902189Y-106704414D01*
X123708064Y-106665800D01*
X123510136Y-106665800D01*
X123316011Y-106704414D01*
X123133149Y-106780158D01*
X122968577Y-106890121D01*
X122828621Y-107030077D01*
X122718658Y-107194649D01*
X122642914Y-107377511D01*
X122604300Y-107571636D01*
X122073900Y-107571636D01*
X122035286Y-107377511D01*
X121959542Y-107194649D01*
X121849579Y-107030077D01*
X121709623Y-106890121D01*
X121545051Y-106780158D01*
X121362189Y-106704414D01*
X121168064Y-106665800D01*
X120970136Y-106665800D01*
X120776011Y-106704414D01*
X120593149Y-106780158D01*
X120428577Y-106890121D01*
X120288621Y-107030077D01*
X120178658Y-107194649D01*
X120102914Y-107377511D01*
X120064300Y-107571636D01*
X117436501Y-107571636D01*
X117436501Y-105889279D01*
X138715661Y-105889279D01*
X139484100Y-106657719D01*
X140252539Y-105889279D01*
X140203949Y-105616002D01*
X139937944Y-105500403D01*
X139654498Y-105438920D01*
X139364503Y-105433917D01*
X139079105Y-105485584D01*
X138809270Y-105591937D01*
X138764251Y-105616002D01*
X138715661Y-105889279D01*
X117436501Y-105889279D01*
X117436501Y-103765536D01*
X128358900Y-103765536D01*
X128358900Y-103955664D01*
X128395992Y-104142138D01*
X128468751Y-104317794D01*
X128574380Y-104475879D01*
X128708821Y-104610320D01*
X128866906Y-104715949D01*
X129042562Y-104788708D01*
X129229036Y-104825800D01*
X129419164Y-104825800D01*
X129605638Y-104788708D01*
X129781294Y-104715949D01*
X129939379Y-104610320D01*
X130073820Y-104475879D01*
X130179449Y-104317794D01*
X130252208Y-104142138D01*
X130289300Y-103955664D01*
X130289300Y-103765536D01*
X138518900Y-103765536D01*
X138518900Y-103955664D01*
X138555992Y-104142138D01*
X138628751Y-104317794D01*
X138734380Y-104475879D01*
X138868821Y-104610320D01*
X139026906Y-104715949D01*
X139202562Y-104788708D01*
X139389036Y-104825800D01*
X139579164Y-104825800D01*
X139765638Y-104788708D01*
X139941294Y-104715949D01*
X140099379Y-104610320D01*
X140233820Y-104475879D01*
X140237615Y-104470200D01*
X149741159Y-104470200D01*
X149771100Y-104473149D01*
X149801041Y-104470200D01*
X149890602Y-104461379D01*
X150005512Y-104426521D01*
X150111414Y-104369916D01*
X150204238Y-104293738D01*
X150223335Y-104270468D01*
X150364779Y-104129024D01*
X152565100Y-104129024D01*
X152565100Y-104354176D01*
X152609025Y-104575001D01*
X152695187Y-104783013D01*
X152820274Y-104970220D01*
X152979480Y-105129426D01*
X153166687Y-105254513D01*
X153374699Y-105340675D01*
X153595524Y-105384600D01*
X153820676Y-105384600D01*
X154041501Y-105340675D01*
X154249513Y-105254513D01*
X154436720Y-105129426D01*
X154595926Y-104970220D01*
X154721013Y-104783013D01*
X154807175Y-104575001D01*
X154851100Y-104354176D01*
X154851100Y-104129024D01*
X154807175Y-103908199D01*
X154721013Y-103700187D01*
X154595926Y-103512980D01*
X154436720Y-103353774D01*
X154249513Y-103228687D01*
X154041501Y-103142525D01*
X153820676Y-103098600D01*
X153595524Y-103098600D01*
X153374699Y-103142525D01*
X153166687Y-103228687D01*
X152979480Y-103353774D01*
X152820274Y-103512980D01*
X152695187Y-103700187D01*
X152609025Y-103908199D01*
X152565100Y-104129024D01*
X150364779Y-104129024D01*
X152720980Y-101772825D01*
X152744238Y-101753738D01*
X152820416Y-101660914D01*
X152877021Y-101555012D01*
X152911879Y-101440102D01*
X152920700Y-101350541D01*
X152920700Y-101350540D01*
X152923649Y-101320601D01*
X152920700Y-101290662D01*
X152920700Y-100827024D01*
X157645100Y-100827024D01*
X157645100Y-101052176D01*
X157689025Y-101273001D01*
X157775187Y-101481013D01*
X157900274Y-101668220D01*
X158059480Y-101827426D01*
X158246687Y-101952513D01*
X158454699Y-102038675D01*
X158675524Y-102082600D01*
X158900676Y-102082600D01*
X159121501Y-102038675D01*
X159329513Y-101952513D01*
X159516720Y-101827426D01*
X159675926Y-101668220D01*
X159801013Y-101481013D01*
X159887175Y-101273001D01*
X159931100Y-101052176D01*
X159931100Y-100827024D01*
X162725100Y-100827024D01*
X162725100Y-101052176D01*
X162769025Y-101273001D01*
X162855187Y-101481013D01*
X162980274Y-101668220D01*
X163139480Y-101827426D01*
X163326687Y-101952513D01*
X163534699Y-102038675D01*
X163755524Y-102082600D01*
X163980676Y-102082600D01*
X164201501Y-102038675D01*
X164409513Y-101952513D01*
X164596720Y-101827426D01*
X164755926Y-101668220D01*
X164881013Y-101481013D01*
X164967175Y-101273001D01*
X165011100Y-101052176D01*
X165011100Y-100827024D01*
X164967175Y-100606199D01*
X164881013Y-100398187D01*
X164755926Y-100210980D01*
X164596720Y-100051774D01*
X164409513Y-99926687D01*
X164201501Y-99840525D01*
X163980676Y-99796600D01*
X163755524Y-99796600D01*
X163534699Y-99840525D01*
X163326687Y-99926687D01*
X163139480Y-100051774D01*
X162980274Y-100210980D01*
X162855187Y-100398187D01*
X162769025Y-100606199D01*
X162725100Y-100827024D01*
X159931100Y-100827024D01*
X159887175Y-100606199D01*
X159801013Y-100398187D01*
X159675926Y-100210980D01*
X159516720Y-100051774D01*
X159329513Y-99926687D01*
X159121501Y-99840525D01*
X158900676Y-99796600D01*
X158675524Y-99796600D01*
X158454699Y-99840525D01*
X158246687Y-99926687D01*
X158059480Y-100051774D01*
X157900274Y-100210980D01*
X157775187Y-100398187D01*
X157689025Y-100606199D01*
X157645100Y-100827024D01*
X152920700Y-100827024D01*
X152920700Y-94461103D01*
X154174779Y-93207024D01*
X157645100Y-93207024D01*
X157645100Y-93432176D01*
X157689025Y-93653001D01*
X157775187Y-93861013D01*
X157900274Y-94048220D01*
X158059480Y-94207426D01*
X158246687Y-94332513D01*
X158454699Y-94418675D01*
X158675524Y-94462600D01*
X158900676Y-94462600D01*
X159121501Y-94418675D01*
X159329513Y-94332513D01*
X159516720Y-94207426D01*
X159675926Y-94048220D01*
X159801013Y-93861013D01*
X159887175Y-93653001D01*
X159931100Y-93432176D01*
X159931100Y-93207024D01*
X159887175Y-92986199D01*
X159801013Y-92778187D01*
X159675926Y-92590980D01*
X159516720Y-92431774D01*
X159329513Y-92306687D01*
X159121501Y-92220525D01*
X158900676Y-92176600D01*
X158675524Y-92176600D01*
X158454699Y-92220525D01*
X158246687Y-92306687D01*
X158059480Y-92431774D01*
X157900274Y-92590980D01*
X157775187Y-92778187D01*
X157689025Y-92986199D01*
X157645100Y-93207024D01*
X154174779Y-93207024D01*
X155379203Y-92002600D01*
X168223793Y-92002600D01*
X168246965Y-92237871D01*
X168315591Y-92464100D01*
X168427033Y-92672594D01*
X168577010Y-92855340D01*
X168759756Y-93005317D01*
X168968250Y-93116759D01*
X169194479Y-93185385D01*
X169370790Y-93202750D01*
X171279410Y-93202750D01*
X171455721Y-93185385D01*
X171681950Y-93116759D01*
X171890444Y-93005317D01*
X172073190Y-92855340D01*
X172223167Y-92672594D01*
X172334609Y-92464100D01*
X172403235Y-92237871D01*
X172426407Y-92002600D01*
X172403235Y-91767329D01*
X172334609Y-91541100D01*
X172223167Y-91332606D01*
X172073190Y-91149860D01*
X171890444Y-90999883D01*
X171681950Y-90888441D01*
X171455721Y-90819815D01*
X171279410Y-90802450D01*
X169370790Y-90802450D01*
X169194479Y-90819815D01*
X168968250Y-90888441D01*
X168759756Y-90999883D01*
X168577010Y-91149860D01*
X168427033Y-91332606D01*
X168315591Y-91541100D01*
X168246965Y-91767329D01*
X168223793Y-92002600D01*
X155379203Y-92002600D01*
X156714780Y-90667024D01*
X157645100Y-90667024D01*
X157645100Y-90892176D01*
X157689025Y-91113001D01*
X157775187Y-91321013D01*
X157900274Y-91508220D01*
X158059480Y-91667426D01*
X158246687Y-91792513D01*
X158454699Y-91878675D01*
X158675524Y-91922600D01*
X158900676Y-91922600D01*
X159121501Y-91878675D01*
X159329513Y-91792513D01*
X159516720Y-91667426D01*
X159675926Y-91508220D01*
X159801013Y-91321013D01*
X159887175Y-91113001D01*
X159931100Y-90892176D01*
X159931100Y-90667024D01*
X162725100Y-90667024D01*
X162725100Y-90892176D01*
X162769025Y-91113001D01*
X162855187Y-91321013D01*
X162980274Y-91508220D01*
X163139480Y-91667426D01*
X163326687Y-91792513D01*
X163534699Y-91878675D01*
X163755524Y-91922600D01*
X163980676Y-91922600D01*
X164201501Y-91878675D01*
X164409513Y-91792513D01*
X164596720Y-91667426D01*
X164755926Y-91508220D01*
X164881013Y-91321013D01*
X164967175Y-91113001D01*
X165011100Y-90892176D01*
X165011100Y-90667024D01*
X164967175Y-90446199D01*
X164881013Y-90238187D01*
X164755926Y-90050980D01*
X164596720Y-89891774D01*
X164409513Y-89766687D01*
X164201501Y-89680525D01*
X163980676Y-89636600D01*
X163755524Y-89636600D01*
X163534699Y-89680525D01*
X163326687Y-89766687D01*
X163139480Y-89891774D01*
X162980274Y-90050980D01*
X162855187Y-90238187D01*
X162769025Y-90446199D01*
X162725100Y-90667024D01*
X159931100Y-90667024D01*
X159887175Y-90446199D01*
X159801013Y-90238187D01*
X159675926Y-90050980D01*
X159516720Y-89891774D01*
X159329513Y-89766687D01*
X159121501Y-89680525D01*
X158900676Y-89636600D01*
X158675524Y-89636600D01*
X158454699Y-89680525D01*
X158246687Y-89766687D01*
X158059480Y-89891774D01*
X157900274Y-90050980D01*
X157775187Y-90238187D01*
X157689025Y-90446199D01*
X157645100Y-90667024D01*
X156714780Y-90667024D01*
X158151605Y-89230200D01*
X163965159Y-89230200D01*
X163995100Y-89233149D01*
X164025041Y-89230200D01*
X164114602Y-89221379D01*
X164229512Y-89186521D01*
X164335414Y-89129916D01*
X164428238Y-89053738D01*
X164447335Y-89030468D01*
X166182973Y-87294831D01*
X166206238Y-87275738D01*
X166282416Y-87182914D01*
X166327848Y-87097916D01*
X166339021Y-87077013D01*
X166373879Y-86962103D01*
X166385649Y-86842600D01*
X166382700Y-86812659D01*
X166382700Y-86620536D01*
X168236900Y-86620536D01*
X168236900Y-86810664D01*
X168273992Y-86997138D01*
X168346751Y-87172794D01*
X168452380Y-87330879D01*
X168586821Y-87465320D01*
X168744906Y-87570949D01*
X168920562Y-87643708D01*
X169107036Y-87680800D01*
X169297164Y-87680800D01*
X169483638Y-87643708D01*
X169659294Y-87570949D01*
X169817379Y-87465320D01*
X169951820Y-87330879D01*
X170057449Y-87172794D01*
X170130208Y-86997138D01*
X170167300Y-86810664D01*
X170167300Y-86620536D01*
X170130208Y-86434062D01*
X170057449Y-86258406D01*
X169951820Y-86100321D01*
X169817379Y-85965880D01*
X169659294Y-85860251D01*
X169483638Y-85787492D01*
X169297164Y-85750400D01*
X169107036Y-85750400D01*
X168920562Y-85787492D01*
X168744906Y-85860251D01*
X168586821Y-85965880D01*
X168452380Y-86100321D01*
X168346751Y-86258406D01*
X168273992Y-86434062D01*
X168236900Y-86620536D01*
X166382700Y-86620536D01*
X166382700Y-82792647D01*
X166452971Y-82813964D01*
X166662100Y-82834561D01*
X166871228Y-82813964D01*
X167072321Y-82752963D01*
X167257650Y-82653903D01*
X167420091Y-82520591D01*
X167553403Y-82358150D01*
X167652463Y-82172822D01*
X167713464Y-81971729D01*
X167728900Y-81815002D01*
X167728900Y-80186198D01*
X168135300Y-80186198D01*
X168135300Y-81815001D01*
X168150736Y-81971728D01*
X168211737Y-82172821D01*
X168310797Y-82358150D01*
X168444109Y-82520591D01*
X168606550Y-82653903D01*
X168791878Y-82752963D01*
X168992971Y-82813964D01*
X169202100Y-82834561D01*
X169411228Y-82813964D01*
X169612321Y-82752963D01*
X169797650Y-82653903D01*
X169960091Y-82520591D01*
X170093403Y-82358150D01*
X170192463Y-82172822D01*
X170253464Y-81971729D01*
X170268900Y-81815002D01*
X170268900Y-80186198D01*
X170675300Y-80186198D01*
X170675300Y-81815001D01*
X170690736Y-81971728D01*
X170751737Y-82172821D01*
X170850797Y-82358150D01*
X170984109Y-82520591D01*
X171146550Y-82653903D01*
X171331878Y-82752963D01*
X171532971Y-82813964D01*
X171742100Y-82834561D01*
X171951228Y-82813964D01*
X172152321Y-82752963D01*
X172337650Y-82653903D01*
X172500091Y-82520591D01*
X172633403Y-82358150D01*
X172732463Y-82172822D01*
X172793464Y-81971729D01*
X172808900Y-81815002D01*
X172808900Y-80186198D01*
X173215300Y-80186198D01*
X173215300Y-81815001D01*
X173230736Y-81971728D01*
X173291737Y-82172821D01*
X173390797Y-82358150D01*
X173524109Y-82520591D01*
X173686550Y-82653903D01*
X173871878Y-82752963D01*
X174072971Y-82813964D01*
X174282100Y-82834561D01*
X174491228Y-82813964D01*
X174692321Y-82752963D01*
X174877650Y-82653903D01*
X175040091Y-82520591D01*
X175173403Y-82358150D01*
X175272463Y-82172822D01*
X175333464Y-81971729D01*
X175348900Y-81815002D01*
X175348900Y-80186198D01*
X175333464Y-80029471D01*
X175272463Y-79828378D01*
X175173403Y-79643050D01*
X175040091Y-79480609D01*
X174877650Y-79347297D01*
X174692322Y-79248237D01*
X174491229Y-79187236D01*
X174282100Y-79166639D01*
X174072972Y-79187236D01*
X173871879Y-79248237D01*
X173686551Y-79347297D01*
X173524110Y-79480609D01*
X173390798Y-79643050D01*
X173291738Y-79828378D01*
X173230736Y-80029471D01*
X173215300Y-80186198D01*
X172808900Y-80186198D01*
X172793464Y-80029471D01*
X172732463Y-79828378D01*
X172633403Y-79643050D01*
X172500091Y-79480609D01*
X172337650Y-79347297D01*
X172152322Y-79248237D01*
X171951229Y-79187236D01*
X171742100Y-79166639D01*
X171532972Y-79187236D01*
X171331879Y-79248237D01*
X171146551Y-79347297D01*
X170984110Y-79480609D01*
X170850798Y-79643050D01*
X170751738Y-79828378D01*
X170690736Y-80029471D01*
X170675300Y-80186198D01*
X170268900Y-80186198D01*
X170253464Y-80029471D01*
X170192463Y-79828378D01*
X170093403Y-79643050D01*
X169960091Y-79480609D01*
X169797650Y-79347297D01*
X169612322Y-79248237D01*
X169411229Y-79187236D01*
X169202100Y-79166639D01*
X168992972Y-79187236D01*
X168791879Y-79248237D01*
X168606551Y-79347297D01*
X168444110Y-79480609D01*
X168310798Y-79643050D01*
X168211738Y-79828378D01*
X168150736Y-80029471D01*
X168135300Y-80186198D01*
X167728900Y-80186198D01*
X167713464Y-80029471D01*
X167652463Y-79828378D01*
X167553403Y-79643050D01*
X167420091Y-79480609D01*
X167257650Y-79347297D01*
X167072322Y-79248237D01*
X166871229Y-79187236D01*
X166662100Y-79166639D01*
X166452972Y-79187236D01*
X166251879Y-79248237D01*
X166066551Y-79347297D01*
X165904110Y-79480609D01*
X165770798Y-79643050D01*
X165671738Y-79828378D01*
X165610736Y-80029471D01*
X165595300Y-80186198D01*
X165595300Y-81205297D01*
X165363232Y-81437365D01*
X165339962Y-81456462D01*
X165263784Y-81549287D01*
X165207179Y-81655189D01*
X165188900Y-81715446D01*
X165188900Y-80186198D01*
X165173464Y-80029471D01*
X165112463Y-79828378D01*
X165013403Y-79643050D01*
X164880091Y-79480609D01*
X164717650Y-79347297D01*
X164532322Y-79248237D01*
X164331229Y-79187236D01*
X164122100Y-79166639D01*
X163912972Y-79187236D01*
X163711879Y-79248237D01*
X163526551Y-79347297D01*
X163364110Y-79480609D01*
X163230798Y-79643050D01*
X163131738Y-79828378D01*
X163070736Y-80029471D01*
X163055300Y-80186198D01*
X163055300Y-81815001D01*
X163070736Y-81971728D01*
X163131737Y-82172821D01*
X163230797Y-82358150D01*
X163364109Y-82520591D01*
X163526550Y-82653903D01*
X163711878Y-82752963D01*
X163912971Y-82813964D01*
X164122100Y-82834561D01*
X164331228Y-82813964D01*
X164532321Y-82752963D01*
X164717650Y-82653903D01*
X164880091Y-82520591D01*
X165013403Y-82358150D01*
X165112463Y-82172822D01*
X165163500Y-82004576D01*
X165163501Y-86590095D01*
X163742597Y-88011000D01*
X157929038Y-88011000D01*
X157899099Y-88008051D01*
X157869160Y-88011000D01*
X157869159Y-88011000D01*
X157779598Y-88019821D01*
X157664688Y-88054679D01*
X157558786Y-88111284D01*
X157465962Y-88187462D01*
X157446875Y-88210720D01*
X151901227Y-93756370D01*
X151877963Y-93775462D01*
X151807754Y-93861013D01*
X151801785Y-93868286D01*
X151745180Y-93974188D01*
X151710321Y-94089098D01*
X151698551Y-94208600D01*
X151701501Y-94238552D01*
X151701500Y-101068095D01*
X149518597Y-103251000D01*
X140237615Y-103251000D01*
X140233820Y-103245321D01*
X140099379Y-103110880D01*
X139941294Y-103005251D01*
X139765638Y-102932492D01*
X139579164Y-102895400D01*
X139389036Y-102895400D01*
X139202562Y-102932492D01*
X139026906Y-103005251D01*
X138868821Y-103110880D01*
X138734380Y-103245321D01*
X138628751Y-103403406D01*
X138555992Y-103579062D01*
X138518900Y-103765536D01*
X130289300Y-103765536D01*
X130252208Y-103579062D01*
X130179449Y-103403406D01*
X130073820Y-103245321D01*
X129939379Y-103110880D01*
X129781294Y-103005251D01*
X129605638Y-102932492D01*
X129419164Y-102895400D01*
X129229036Y-102895400D01*
X129042562Y-102932492D01*
X128866906Y-103005251D01*
X128708821Y-103110880D01*
X128574380Y-103245321D01*
X128468751Y-103403406D01*
X128395992Y-103579062D01*
X128358900Y-103765536D01*
X117436501Y-103765536D01*
X117436501Y-101831921D01*
X138715661Y-101831921D01*
X138764251Y-102105198D01*
X139030256Y-102220797D01*
X139313702Y-102282280D01*
X139603697Y-102287283D01*
X139889095Y-102235616D01*
X140158930Y-102129263D01*
X140203949Y-102105198D01*
X140252539Y-101831921D01*
X139484100Y-101063481D01*
X138715661Y-101831921D01*
X117436501Y-101831921D01*
X117436501Y-100717536D01*
X128358900Y-100717536D01*
X128358900Y-100907664D01*
X128395992Y-101094138D01*
X128468751Y-101269794D01*
X128574380Y-101427879D01*
X128708821Y-101562320D01*
X128866906Y-101667949D01*
X129042562Y-101740708D01*
X129229036Y-101777800D01*
X129419164Y-101777800D01*
X129605638Y-101740708D01*
X129781294Y-101667949D01*
X129939379Y-101562320D01*
X130073820Y-101427879D01*
X130179449Y-101269794D01*
X130252208Y-101094138D01*
X130284420Y-100932197D01*
X138009417Y-100932197D01*
X138061084Y-101217595D01*
X138167437Y-101487430D01*
X138191502Y-101532449D01*
X138464779Y-101581039D01*
X139233219Y-100812600D01*
X139734981Y-100812600D01*
X140503421Y-101581039D01*
X140776698Y-101532449D01*
X140789844Y-101502197D01*
X148022385Y-101502197D01*
X148108146Y-101806469D01*
X148426261Y-101952610D01*
X148766775Y-102033882D01*
X149116601Y-102047160D01*
X149462295Y-101991937D01*
X149790574Y-101870333D01*
X149910054Y-101806469D01*
X149995815Y-101502197D01*
X149009100Y-100515481D01*
X148022385Y-101502197D01*
X140789844Y-101502197D01*
X140892297Y-101266444D01*
X140953780Y-100982998D01*
X140958783Y-100693003D01*
X140907116Y-100407605D01*
X140893123Y-100372101D01*
X147226540Y-100372101D01*
X147281763Y-100717795D01*
X147403367Y-101046074D01*
X147467231Y-101165554D01*
X147771503Y-101251315D01*
X148758219Y-100264600D01*
X149259981Y-100264600D01*
X150246697Y-101251315D01*
X150550969Y-101165554D01*
X150697110Y-100847439D01*
X150778382Y-100506925D01*
X150791660Y-100157099D01*
X150736437Y-99811405D01*
X150614833Y-99483126D01*
X150550969Y-99363646D01*
X150246697Y-99277885D01*
X149259981Y-100264600D01*
X148758219Y-100264600D01*
X147771503Y-99277885D01*
X147467231Y-99363646D01*
X147321090Y-99681761D01*
X147239818Y-100022275D01*
X147226540Y-100372101D01*
X140893123Y-100372101D01*
X140800763Y-100137770D01*
X140776698Y-100092751D01*
X140503421Y-100044161D01*
X139734981Y-100812600D01*
X139233219Y-100812600D01*
X138464779Y-100044161D01*
X138191502Y-100092751D01*
X138075903Y-100358756D01*
X138014420Y-100642202D01*
X138009417Y-100932197D01*
X130284420Y-100932197D01*
X130289300Y-100907664D01*
X130289300Y-100717536D01*
X130252208Y-100531062D01*
X130179449Y-100355406D01*
X130073820Y-100197321D01*
X129939379Y-100062880D01*
X129781294Y-99957251D01*
X129605638Y-99884492D01*
X129419164Y-99847400D01*
X129229036Y-99847400D01*
X129042562Y-99884492D01*
X128866906Y-99957251D01*
X128708821Y-100062880D01*
X128574380Y-100197321D01*
X128468751Y-100355406D01*
X128395992Y-100531062D01*
X128358900Y-100717536D01*
X117436501Y-100717536D01*
X117436501Y-99793279D01*
X138715661Y-99793279D01*
X139484100Y-100561719D01*
X140252539Y-99793279D01*
X140203949Y-99520002D01*
X139937944Y-99404403D01*
X139654498Y-99342920D01*
X139364503Y-99337917D01*
X139079105Y-99389584D01*
X138809270Y-99495937D01*
X138764251Y-99520002D01*
X138715661Y-99793279D01*
X117436501Y-99793279D01*
X117436501Y-99027003D01*
X148022385Y-99027003D01*
X149009100Y-100013719D01*
X149995815Y-99027003D01*
X149910054Y-98722731D01*
X149591939Y-98576590D01*
X149251425Y-98495318D01*
X148901599Y-98482040D01*
X148555905Y-98537263D01*
X148227626Y-98658867D01*
X148108146Y-98722731D01*
X148022385Y-99027003D01*
X117436501Y-99027003D01*
X117436501Y-95121398D01*
X126631700Y-95121398D01*
X126631700Y-96750201D01*
X126647136Y-96906928D01*
X126708137Y-97108021D01*
X126807197Y-97293350D01*
X126940509Y-97455791D01*
X127102950Y-97589103D01*
X127288278Y-97688163D01*
X127489371Y-97749164D01*
X127698500Y-97769761D01*
X127907628Y-97749164D01*
X128108721Y-97688163D01*
X128294050Y-97589103D01*
X128456491Y-97455791D01*
X128589803Y-97293350D01*
X128688863Y-97108022D01*
X128749864Y-96906929D01*
X128765300Y-96750202D01*
X128765300Y-95121398D01*
X131152900Y-95121398D01*
X131152900Y-96750201D01*
X131168336Y-96906928D01*
X131229337Y-97108021D01*
X131328397Y-97293350D01*
X131461709Y-97455791D01*
X131624150Y-97589103D01*
X131809478Y-97688163D01*
X132010571Y-97749164D01*
X132219700Y-97769761D01*
X132428828Y-97749164D01*
X132629921Y-97688163D01*
X132815250Y-97589103D01*
X132977691Y-97455791D01*
X133111003Y-97293350D01*
X133210063Y-97108022D01*
X133271064Y-96906929D01*
X133286500Y-96750202D01*
X133286500Y-95139516D01*
X147739100Y-95139516D01*
X147739100Y-95389684D01*
X147787905Y-95635045D01*
X147883641Y-95866171D01*
X148022627Y-96074178D01*
X148199522Y-96251073D01*
X148407529Y-96390059D01*
X148638655Y-96485795D01*
X148884016Y-96534600D01*
X149134184Y-96534600D01*
X149379545Y-96485795D01*
X149610671Y-96390059D01*
X149818678Y-96251073D01*
X149995573Y-96074178D01*
X150134559Y-95866171D01*
X150230295Y-95635045D01*
X150279100Y-95389684D01*
X150279100Y-95139516D01*
X150230295Y-94894155D01*
X150134559Y-94663029D01*
X149995573Y-94455022D01*
X149818678Y-94278127D01*
X149610671Y-94139141D01*
X149379545Y-94043405D01*
X149134184Y-93994600D01*
X148884016Y-93994600D01*
X148638655Y-94043405D01*
X148407529Y-94139141D01*
X148199522Y-94278127D01*
X148022627Y-94455022D01*
X147883641Y-94663029D01*
X147787905Y-94894155D01*
X147739100Y-95139516D01*
X133286500Y-95139516D01*
X133286500Y-95121398D01*
X133271064Y-94964671D01*
X133210063Y-94763578D01*
X133111003Y-94578250D01*
X132977691Y-94415809D01*
X132815250Y-94282497D01*
X132629922Y-94183437D01*
X132428829Y-94122436D01*
X132219700Y-94101839D01*
X132010572Y-94122436D01*
X131809479Y-94183437D01*
X131624151Y-94282497D01*
X131461710Y-94415809D01*
X131328398Y-94578250D01*
X131229338Y-94763578D01*
X131168336Y-94964671D01*
X131152900Y-95121398D01*
X128765300Y-95121398D01*
X128749864Y-94964671D01*
X128688863Y-94763578D01*
X128589803Y-94578250D01*
X128456491Y-94415809D01*
X128294050Y-94282497D01*
X128108722Y-94183437D01*
X127907629Y-94122436D01*
X127698500Y-94101839D01*
X127489372Y-94122436D01*
X127288279Y-94183437D01*
X127102951Y-94282497D01*
X126940510Y-94415809D01*
X126807198Y-94578250D01*
X126708138Y-94763578D01*
X126647136Y-94964671D01*
X126631700Y-95121398D01*
X117436501Y-95121398D01*
X117436501Y-92610022D01*
X129201900Y-92610022D01*
X129201900Y-92759178D01*
X129230999Y-92905467D01*
X129288078Y-93043269D01*
X129370944Y-93167287D01*
X129476413Y-93272756D01*
X129600431Y-93355622D01*
X129738233Y-93412701D01*
X129859195Y-93436762D01*
X129872786Y-93447916D01*
X129978688Y-93504521D01*
X130093598Y-93539379D01*
X130183159Y-93548200D01*
X130183160Y-93548200D01*
X130213099Y-93551149D01*
X130243038Y-93548200D01*
X134247159Y-93548200D01*
X134277100Y-93551149D01*
X134307041Y-93548200D01*
X134396602Y-93539379D01*
X134511512Y-93504521D01*
X134617414Y-93447916D01*
X134710238Y-93371738D01*
X134729334Y-93348469D01*
X135194979Y-92882826D01*
X135218238Y-92863738D01*
X135294416Y-92770914D01*
X135351021Y-92665012D01*
X135385879Y-92550102D01*
X135394700Y-92460541D01*
X135394700Y-92460540D01*
X135397649Y-92430601D01*
X135394700Y-92400662D01*
X135394700Y-91533115D01*
X135400379Y-91529320D01*
X135534820Y-91394879D01*
X135640449Y-91236794D01*
X135713208Y-91061138D01*
X135750300Y-90874664D01*
X135750300Y-90684536D01*
X143979900Y-90684536D01*
X143979900Y-90874664D01*
X144016992Y-91061138D01*
X144089751Y-91236794D01*
X144195380Y-91394879D01*
X144329821Y-91529320D01*
X144487906Y-91634949D01*
X144663562Y-91707708D01*
X144850036Y-91744800D01*
X145040164Y-91744800D01*
X145226638Y-91707708D01*
X145402294Y-91634949D01*
X145560379Y-91529320D01*
X145694820Y-91394879D01*
X145800449Y-91236794D01*
X145873208Y-91061138D01*
X145910300Y-90874664D01*
X145910300Y-90684536D01*
X145904609Y-90655921D01*
X151034661Y-90655921D01*
X151083251Y-90929198D01*
X151349256Y-91044797D01*
X151632702Y-91106280D01*
X151922697Y-91111283D01*
X152208095Y-91059616D01*
X152477930Y-90953263D01*
X152522949Y-90929198D01*
X152571539Y-90655921D01*
X151803100Y-89887481D01*
X151034661Y-90655921D01*
X145904609Y-90655921D01*
X145873208Y-90498062D01*
X145800449Y-90322406D01*
X145694820Y-90164321D01*
X145560379Y-90029880D01*
X145402294Y-89924251D01*
X145226638Y-89851492D01*
X145040164Y-89814400D01*
X144850036Y-89814400D01*
X144663562Y-89851492D01*
X144487906Y-89924251D01*
X144329821Y-90029880D01*
X144195380Y-90164321D01*
X144089751Y-90322406D01*
X144016992Y-90498062D01*
X143979900Y-90684536D01*
X135750300Y-90684536D01*
X135713208Y-90498062D01*
X135640449Y-90322406D01*
X135534820Y-90164321D01*
X135400379Y-90029880D01*
X135242294Y-89924251D01*
X135066638Y-89851492D01*
X134880164Y-89814400D01*
X134690036Y-89814400D01*
X134503562Y-89851492D01*
X134327906Y-89924251D01*
X134169821Y-90029880D01*
X134035380Y-90164321D01*
X133929751Y-90322406D01*
X133856992Y-90498062D01*
X133819900Y-90684536D01*
X133819900Y-90874664D01*
X133856992Y-91061138D01*
X133929751Y-91236794D01*
X134035380Y-91394879D01*
X134169821Y-91529320D01*
X134175501Y-91533115D01*
X134175500Y-92178096D01*
X134024596Y-92329000D01*
X130631393Y-92329000D01*
X130630122Y-92325931D01*
X130547256Y-92201913D01*
X130441787Y-92096444D01*
X130317769Y-92013578D01*
X130179967Y-91956499D01*
X130033678Y-91927400D01*
X129884522Y-91927400D01*
X129738233Y-91956499D01*
X129600431Y-92013578D01*
X129476413Y-92096444D01*
X129370944Y-92201913D01*
X129288078Y-92325931D01*
X129230999Y-92463733D01*
X129201900Y-92610022D01*
X117436501Y-92610022D01*
X117436501Y-88618998D01*
X126631700Y-88618998D01*
X126631700Y-90247801D01*
X126647136Y-90404528D01*
X126708137Y-90605621D01*
X126807197Y-90790950D01*
X126940509Y-90953391D01*
X127102950Y-91086703D01*
X127288278Y-91185763D01*
X127489371Y-91246764D01*
X127698500Y-91267361D01*
X127907628Y-91246764D01*
X128108721Y-91185763D01*
X128294050Y-91086703D01*
X128456491Y-90953391D01*
X128589803Y-90790950D01*
X128688863Y-90605622D01*
X128749864Y-90404529D01*
X128765300Y-90247802D01*
X128765300Y-88618998D01*
X131152900Y-88618998D01*
X131152900Y-90247801D01*
X131168336Y-90404528D01*
X131229337Y-90605621D01*
X131328397Y-90790950D01*
X131461709Y-90953391D01*
X131624150Y-91086703D01*
X131809478Y-91185763D01*
X132010571Y-91246764D01*
X132219700Y-91267361D01*
X132428828Y-91246764D01*
X132629921Y-91185763D01*
X132815250Y-91086703D01*
X132977691Y-90953391D01*
X133111003Y-90790950D01*
X133210063Y-90605622D01*
X133271064Y-90404529D01*
X133286500Y-90247802D01*
X133286500Y-89756197D01*
X150328417Y-89756197D01*
X150380084Y-90041595D01*
X150486437Y-90311430D01*
X150510502Y-90356449D01*
X150783779Y-90405039D01*
X151552219Y-89636600D01*
X150783779Y-88868161D01*
X150510502Y-88916751D01*
X150394903Y-89182756D01*
X150333420Y-89466202D01*
X150328417Y-89756197D01*
X133286500Y-89756197D01*
X133286500Y-88618998D01*
X133271064Y-88462271D01*
X133210063Y-88261178D01*
X133111003Y-88075850D01*
X132977691Y-87913409D01*
X132815250Y-87780097D01*
X132629922Y-87681037D01*
X132428829Y-87620036D01*
X132219700Y-87599439D01*
X132010572Y-87620036D01*
X131809479Y-87681037D01*
X131624151Y-87780097D01*
X131461710Y-87913409D01*
X131328398Y-88075850D01*
X131229338Y-88261178D01*
X131168336Y-88462271D01*
X131152900Y-88618998D01*
X128765300Y-88618998D01*
X128749864Y-88462271D01*
X128688863Y-88261178D01*
X128589803Y-88075850D01*
X128456491Y-87913409D01*
X128294050Y-87780097D01*
X128108722Y-87681037D01*
X127907629Y-87620036D01*
X127698500Y-87599439D01*
X127489372Y-87620036D01*
X127288279Y-87681037D01*
X127102951Y-87780097D01*
X126940510Y-87913409D01*
X126807198Y-88075850D01*
X126708138Y-88261178D01*
X126647136Y-88462271D01*
X126631700Y-88618998D01*
X117436501Y-88618998D01*
X117436501Y-79730600D01*
X123758551Y-79730600D01*
X123761500Y-79760542D01*
X123761501Y-85542648D01*
X123758551Y-85572600D01*
X123770321Y-85692102D01*
X123805180Y-85807012D01*
X123861785Y-85912914D01*
X123937963Y-86005738D01*
X123961227Y-86024830D01*
X124934869Y-86998473D01*
X124953962Y-87021738D01*
X125046786Y-87097916D01*
X125152688Y-87154521D01*
X125232739Y-87178805D01*
X125267597Y-87189379D01*
X125387100Y-87201149D01*
X125417041Y-87198200D01*
X132500597Y-87198200D01*
X133824874Y-88522479D01*
X133843962Y-88545738D01*
X133936786Y-88621916D01*
X133980018Y-88645024D01*
X134035380Y-88727879D01*
X134169821Y-88862320D01*
X134327906Y-88967949D01*
X134503562Y-89040708D01*
X134690036Y-89077800D01*
X134880164Y-89077800D01*
X135066638Y-89040708D01*
X135242294Y-88967949D01*
X135400379Y-88862320D01*
X135534820Y-88727879D01*
X135640449Y-88569794D01*
X135713208Y-88394138D01*
X135750300Y-88207664D01*
X135750300Y-88017536D01*
X143979900Y-88017536D01*
X143979900Y-88207664D01*
X144016992Y-88394138D01*
X144089751Y-88569794D01*
X144195380Y-88727879D01*
X144329821Y-88862320D01*
X144487906Y-88967949D01*
X144663562Y-89040708D01*
X144850036Y-89077800D01*
X145040164Y-89077800D01*
X145226638Y-89040708D01*
X145402294Y-88967949D01*
X145560379Y-88862320D01*
X145694820Y-88727879D01*
X145768720Y-88617279D01*
X151034661Y-88617279D01*
X151803100Y-89385719D01*
X151817242Y-89371576D01*
X152068124Y-89622458D01*
X152053981Y-89636600D01*
X152822421Y-90405039D01*
X153095698Y-90356449D01*
X153211297Y-90090444D01*
X153272780Y-89806998D01*
X153277359Y-89541536D01*
X153377900Y-89541536D01*
X153377900Y-89731664D01*
X153414992Y-89918138D01*
X153487751Y-90093794D01*
X153593380Y-90251879D01*
X153727821Y-90386320D01*
X153885906Y-90491949D01*
X154061562Y-90564708D01*
X154248036Y-90601800D01*
X154438164Y-90601800D01*
X154624638Y-90564708D01*
X154800294Y-90491949D01*
X154958379Y-90386320D01*
X155092820Y-90251879D01*
X155198449Y-90093794D01*
X155271208Y-89918138D01*
X155308300Y-89731664D01*
X155308300Y-89541536D01*
X155271208Y-89355062D01*
X155198449Y-89179406D01*
X155092820Y-89021321D01*
X154958379Y-88886880D01*
X154800294Y-88781251D01*
X154624638Y-88708492D01*
X154438164Y-88671400D01*
X154248036Y-88671400D01*
X154061562Y-88708492D01*
X153885906Y-88781251D01*
X153727821Y-88886880D01*
X153593380Y-89021321D01*
X153487751Y-89179406D01*
X153414992Y-89355062D01*
X153377900Y-89541536D01*
X153277359Y-89541536D01*
X153277783Y-89517003D01*
X153226116Y-89231605D01*
X153119763Y-88961770D01*
X153095698Y-88916751D01*
X152822423Y-88868161D01*
X152974202Y-88716382D01*
X152948806Y-88690986D01*
X152978036Y-88696800D01*
X153168164Y-88696800D01*
X153354638Y-88659708D01*
X153530294Y-88586949D01*
X153688379Y-88481320D01*
X153822820Y-88346879D01*
X153928449Y-88188794D01*
X154001208Y-88013138D01*
X154038300Y-87826664D01*
X154038300Y-87636536D01*
X154001208Y-87450062D01*
X153928449Y-87274406D01*
X153822820Y-87116321D01*
X153688379Y-86981880D01*
X153530294Y-86876251D01*
X153354638Y-86803492D01*
X153168164Y-86766400D01*
X152978036Y-86766400D01*
X152791562Y-86803492D01*
X152615906Y-86876251D01*
X152457821Y-86981880D01*
X152323380Y-87116321D01*
X152217751Y-87274406D01*
X152144992Y-87450062D01*
X152107900Y-87636536D01*
X152107900Y-87826664D01*
X152144992Y-88013138D01*
X152217751Y-88188794D01*
X152242060Y-88225174D01*
X151973498Y-88166920D01*
X151683503Y-88161917D01*
X151398105Y-88213584D01*
X151128270Y-88319937D01*
X151083251Y-88344002D01*
X151034661Y-88617279D01*
X145768720Y-88617279D01*
X145800449Y-88569794D01*
X145873208Y-88394138D01*
X145910300Y-88207664D01*
X145910300Y-88017536D01*
X145873208Y-87831062D01*
X145800449Y-87655406D01*
X145694820Y-87497321D01*
X145560379Y-87362880D01*
X145402294Y-87257251D01*
X145226638Y-87184492D01*
X145040164Y-87147400D01*
X144850036Y-87147400D01*
X144663562Y-87184492D01*
X144487906Y-87257251D01*
X144329821Y-87362880D01*
X144195380Y-87497321D01*
X144089751Y-87655406D01*
X144016992Y-87831062D01*
X143979900Y-88017536D01*
X135750300Y-88017536D01*
X135713208Y-87831062D01*
X135640449Y-87655406D01*
X135534820Y-87497321D01*
X135400379Y-87362880D01*
X135242294Y-87257251D01*
X135066638Y-87184492D01*
X134880164Y-87147400D01*
X134690036Y-87147400D01*
X134503562Y-87184492D01*
X134327906Y-87257251D01*
X134301500Y-87274895D01*
X133647140Y-86620536D01*
X158076900Y-86620536D01*
X158076900Y-86810664D01*
X158113992Y-86997138D01*
X158186751Y-87172794D01*
X158292380Y-87330879D01*
X158426821Y-87465320D01*
X158584906Y-87570949D01*
X158760562Y-87643708D01*
X158947036Y-87680800D01*
X159137164Y-87680800D01*
X159323638Y-87643708D01*
X159499294Y-87570949D01*
X159657379Y-87465320D01*
X159791820Y-87330879D01*
X159897449Y-87172794D01*
X159970208Y-86997138D01*
X160007300Y-86810664D01*
X160007300Y-86620536D01*
X159970208Y-86434062D01*
X159897449Y-86258406D01*
X159791820Y-86100321D01*
X159657379Y-85965880D01*
X159499294Y-85860251D01*
X159323638Y-85787492D01*
X159137164Y-85750400D01*
X158947036Y-85750400D01*
X158760562Y-85787492D01*
X158584906Y-85860251D01*
X158426821Y-85965880D01*
X158292380Y-86100321D01*
X158186751Y-86258406D01*
X158113992Y-86434062D01*
X158076900Y-86620536D01*
X133647140Y-86620536D01*
X133205335Y-86178732D01*
X133186238Y-86155462D01*
X133093414Y-86079284D01*
X132987512Y-86022679D01*
X132872602Y-85987821D01*
X132783041Y-85979000D01*
X132753100Y-85976051D01*
X132723159Y-85979000D01*
X125639604Y-85979000D01*
X124980700Y-85320097D01*
X124980700Y-85223536D01*
X133819900Y-85223536D01*
X133819900Y-85413664D01*
X133856992Y-85600138D01*
X133929751Y-85775794D01*
X134035380Y-85933879D01*
X134169821Y-86068320D01*
X134327906Y-86173949D01*
X134503562Y-86246708D01*
X134690036Y-86283800D01*
X134880164Y-86283800D01*
X135066638Y-86246708D01*
X135242294Y-86173949D01*
X135400379Y-86068320D01*
X135534820Y-85933879D01*
X135640449Y-85775794D01*
X135713208Y-85600138D01*
X135750300Y-85413664D01*
X135750300Y-85223536D01*
X143979900Y-85223536D01*
X143979900Y-85413664D01*
X144016992Y-85600138D01*
X144089751Y-85775794D01*
X144195380Y-85933879D01*
X144329821Y-86068320D01*
X144487906Y-86173949D01*
X144663562Y-86246708D01*
X144850036Y-86283800D01*
X145040164Y-86283800D01*
X145226638Y-86246708D01*
X145402294Y-86173949D01*
X145560379Y-86068320D01*
X145694820Y-85933879D01*
X145800449Y-85775794D01*
X145873208Y-85600138D01*
X145910300Y-85413664D01*
X145910300Y-85223536D01*
X145873208Y-85037062D01*
X145800449Y-84861406D01*
X145694820Y-84703321D01*
X145560379Y-84568880D01*
X145402294Y-84463251D01*
X145226638Y-84390492D01*
X145040164Y-84353400D01*
X144850036Y-84353400D01*
X144663562Y-84390492D01*
X144487906Y-84463251D01*
X144329821Y-84568880D01*
X144195380Y-84703321D01*
X144089751Y-84861406D01*
X144016992Y-85037062D01*
X143979900Y-85223536D01*
X135750300Y-85223536D01*
X135713208Y-85037062D01*
X135640449Y-84861406D01*
X135534820Y-84703321D01*
X135400379Y-84568880D01*
X135242294Y-84463251D01*
X135066638Y-84390492D01*
X134880164Y-84353400D01*
X134690036Y-84353400D01*
X134503562Y-84390492D01*
X134327906Y-84463251D01*
X134169821Y-84568880D01*
X134035380Y-84703321D01*
X133929751Y-84861406D01*
X133856992Y-85037062D01*
X133819900Y-85223536D01*
X124980700Y-85223536D01*
X124980700Y-80086200D01*
X127928596Y-80086200D01*
X128079501Y-80237105D01*
X128079500Y-80889253D01*
X128071352Y-80897401D01*
X127966423Y-81054438D01*
X127894146Y-81228928D01*
X127863600Y-81382494D01*
X127833054Y-81228928D01*
X127760777Y-81054438D01*
X127655848Y-80897401D01*
X127522299Y-80763852D01*
X127365262Y-80658923D01*
X127190772Y-80586646D01*
X127005534Y-80549800D01*
X126816666Y-80549800D01*
X126631428Y-80586646D01*
X126456938Y-80658923D01*
X126299901Y-80763852D01*
X126166352Y-80897401D01*
X126061423Y-81054438D01*
X125989146Y-81228928D01*
X125952300Y-81414166D01*
X125952300Y-81603034D01*
X125989146Y-81788272D01*
X126061423Y-81962762D01*
X126166352Y-82119799D01*
X126299901Y-82253348D01*
X126456938Y-82358277D01*
X126631428Y-82430554D01*
X126816666Y-82467400D01*
X127005534Y-82467400D01*
X127190772Y-82430554D01*
X127365262Y-82358277D01*
X127522299Y-82253348D01*
X127655848Y-82119799D01*
X127760777Y-81962762D01*
X127833054Y-81788272D01*
X127863600Y-81634706D01*
X127894146Y-81788272D01*
X127966423Y-81962762D01*
X128071352Y-82119799D01*
X128204901Y-82253348D01*
X128361938Y-82358277D01*
X128536428Y-82430554D01*
X128721666Y-82467400D01*
X128910534Y-82467400D01*
X129095772Y-82430554D01*
X129270262Y-82358277D01*
X129276630Y-82354022D01*
X129313280Y-82474843D01*
X129388680Y-82615906D01*
X129490151Y-82739549D01*
X129613794Y-82841020D01*
X129754857Y-82916420D01*
X129907920Y-82962851D01*
X130067100Y-82978529D01*
X130340700Y-82974600D01*
X130543700Y-82771600D01*
X130543700Y-81686000D01*
X130523700Y-81686000D01*
X130523700Y-81331200D01*
X130543700Y-81331200D01*
X130543700Y-80245600D01*
X130898500Y-80245600D01*
X130898500Y-81331200D01*
X130918500Y-81331200D01*
X130918500Y-81686000D01*
X130898500Y-81686000D01*
X130898500Y-82771600D01*
X131101500Y-82974600D01*
X131375100Y-82978529D01*
X131534280Y-82962851D01*
X131687343Y-82916420D01*
X131828406Y-82841020D01*
X131952049Y-82739549D01*
X132053520Y-82615906D01*
X132128920Y-82474843D01*
X132165570Y-82354022D01*
X132171938Y-82358277D01*
X132346428Y-82430554D01*
X132531666Y-82467400D01*
X132720534Y-82467400D01*
X132905772Y-82430554D01*
X133080262Y-82358277D01*
X133237299Y-82253348D01*
X133370848Y-82119799D01*
X133475777Y-81962762D01*
X133548054Y-81788272D01*
X133584900Y-81603034D01*
X133584900Y-81414166D01*
X133548054Y-81228928D01*
X133475777Y-81054438D01*
X133370848Y-80897401D01*
X133237299Y-80763852D01*
X133080262Y-80658923D01*
X132905772Y-80586646D01*
X132720534Y-80549800D01*
X132531666Y-80549800D01*
X132346428Y-80586646D01*
X132171938Y-80658923D01*
X132165570Y-80663178D01*
X132128920Y-80542357D01*
X132053520Y-80401294D01*
X131952049Y-80277651D01*
X131840613Y-80186198D01*
X133718300Y-80186198D01*
X133718300Y-81815001D01*
X133733736Y-81971728D01*
X133794737Y-82172821D01*
X133893797Y-82358150D01*
X134027109Y-82520591D01*
X134189550Y-82653903D01*
X134374878Y-82752963D01*
X134575971Y-82813964D01*
X134785100Y-82834561D01*
X134994228Y-82813964D01*
X135195321Y-82752963D01*
X135380650Y-82653903D01*
X135543091Y-82520591D01*
X135676403Y-82358150D01*
X135775463Y-82172822D01*
X135790346Y-82123761D01*
X135815953Y-82243663D01*
X135938802Y-82528839D01*
X136114925Y-82784569D01*
X136337554Y-83001026D01*
X136598134Y-83169891D01*
X136905225Y-83279564D01*
X137147700Y-83122074D01*
X137147700Y-81178000D01*
X137127700Y-81178000D01*
X137127700Y-80823200D01*
X137147700Y-80823200D01*
X137147700Y-78879126D01*
X137502500Y-78879126D01*
X137502500Y-80823200D01*
X137522500Y-80823200D01*
X137522500Y-81178000D01*
X137502500Y-81178000D01*
X137502500Y-83122074D01*
X137744975Y-83279564D01*
X138052066Y-83169891D01*
X138312646Y-83001026D01*
X138535275Y-82784569D01*
X138711398Y-82528839D01*
X138834247Y-82243663D01*
X138859855Y-82123761D01*
X138874737Y-82172821D01*
X138973797Y-82358150D01*
X139107109Y-82520591D01*
X139269550Y-82653903D01*
X139454878Y-82752963D01*
X139655971Y-82813964D01*
X139865100Y-82834561D01*
X140074228Y-82813964D01*
X140275321Y-82752963D01*
X140460650Y-82653903D01*
X140623091Y-82520591D01*
X140756403Y-82358150D01*
X140855463Y-82172822D01*
X140916464Y-81971729D01*
X140931900Y-81815002D01*
X140931900Y-80186198D01*
X141338300Y-80186198D01*
X141338300Y-81815001D01*
X141353736Y-81971728D01*
X141414737Y-82172821D01*
X141513797Y-82358150D01*
X141647109Y-82520591D01*
X141809550Y-82653903D01*
X141994878Y-82752963D01*
X142195971Y-82813964D01*
X142405100Y-82834561D01*
X142614228Y-82813964D01*
X142815321Y-82752963D01*
X143000650Y-82653903D01*
X143163091Y-82520591D01*
X143296403Y-82358150D01*
X143395463Y-82172822D01*
X143456464Y-81971729D01*
X143471900Y-81815002D01*
X143471900Y-80186198D01*
X143878300Y-80186198D01*
X143878300Y-81815001D01*
X143893736Y-81971728D01*
X143954737Y-82172821D01*
X144053797Y-82358150D01*
X144187109Y-82520591D01*
X144349550Y-82653903D01*
X144534878Y-82752963D01*
X144735971Y-82813964D01*
X144945100Y-82834561D01*
X145154228Y-82813964D01*
X145355321Y-82752963D01*
X145540650Y-82653903D01*
X145703091Y-82520591D01*
X145836403Y-82358150D01*
X145935463Y-82172822D01*
X145996464Y-81971729D01*
X146011900Y-81815002D01*
X146011900Y-80186198D01*
X146418300Y-80186198D01*
X146418300Y-81815001D01*
X146433736Y-81971728D01*
X146494737Y-82172821D01*
X146593797Y-82358150D01*
X146727109Y-82520591D01*
X146889550Y-82653903D01*
X147074878Y-82752963D01*
X147275971Y-82813964D01*
X147485100Y-82834561D01*
X147694228Y-82813964D01*
X147895321Y-82752963D01*
X148080650Y-82653903D01*
X148243091Y-82520591D01*
X148376403Y-82358150D01*
X148475463Y-82172822D01*
X148536464Y-81971729D01*
X148551900Y-81815002D01*
X148551900Y-80186198D01*
X148958300Y-80186198D01*
X148958300Y-81815001D01*
X148973736Y-81971728D01*
X149034737Y-82172821D01*
X149133797Y-82358150D01*
X149267109Y-82520591D01*
X149429550Y-82653903D01*
X149614878Y-82752963D01*
X149815971Y-82813964D01*
X150025100Y-82834561D01*
X150234228Y-82813964D01*
X150435321Y-82752963D01*
X150620650Y-82653903D01*
X150783091Y-82520591D01*
X150916403Y-82358150D01*
X151015463Y-82172822D01*
X151076464Y-81971729D01*
X151091900Y-81815002D01*
X151091900Y-80186198D01*
X151498300Y-80186198D01*
X151498300Y-81815001D01*
X151513736Y-81971728D01*
X151574737Y-82172821D01*
X151673797Y-82358150D01*
X151807109Y-82520591D01*
X151969550Y-82653903D01*
X152154878Y-82752963D01*
X152355971Y-82813964D01*
X152565100Y-82834561D01*
X152774228Y-82813964D01*
X152975321Y-82752963D01*
X153160650Y-82653903D01*
X153323091Y-82520591D01*
X153456403Y-82358150D01*
X153555463Y-82172822D01*
X153616464Y-81971729D01*
X153631900Y-81815002D01*
X153631900Y-80186198D01*
X155435300Y-80186198D01*
X155435300Y-81815001D01*
X155450736Y-81971728D01*
X155511737Y-82172821D01*
X155610797Y-82358150D01*
X155744109Y-82520591D01*
X155906550Y-82653903D01*
X156091878Y-82752963D01*
X156292971Y-82813964D01*
X156502100Y-82834561D01*
X156711228Y-82813964D01*
X156912321Y-82752963D01*
X157097650Y-82653903D01*
X157260091Y-82520591D01*
X157393403Y-82358150D01*
X157492463Y-82172822D01*
X157553464Y-81971729D01*
X157568900Y-81815002D01*
X157568900Y-80186198D01*
X157975300Y-80186198D01*
X157975300Y-81815001D01*
X157990736Y-81971728D01*
X158051737Y-82172821D01*
X158150797Y-82358150D01*
X158284109Y-82520591D01*
X158446550Y-82653903D01*
X158631878Y-82752963D01*
X158832971Y-82813964D01*
X159042100Y-82834561D01*
X159251228Y-82813964D01*
X159452321Y-82752963D01*
X159637650Y-82653903D01*
X159800091Y-82520591D01*
X159933403Y-82358150D01*
X160032463Y-82172822D01*
X160093464Y-81971729D01*
X160108900Y-81815002D01*
X160108900Y-80186198D01*
X160515300Y-80186198D01*
X160515300Y-81815001D01*
X160530736Y-81971728D01*
X160591737Y-82172821D01*
X160690797Y-82358150D01*
X160824109Y-82520591D01*
X160986550Y-82653903D01*
X161171878Y-82752963D01*
X161372971Y-82813964D01*
X161582100Y-82834561D01*
X161791228Y-82813964D01*
X161992321Y-82752963D01*
X162177650Y-82653903D01*
X162340091Y-82520591D01*
X162473403Y-82358150D01*
X162572463Y-82172822D01*
X162633464Y-81971729D01*
X162648900Y-81815002D01*
X162648900Y-80186198D01*
X162633464Y-80029471D01*
X162572463Y-79828378D01*
X162473403Y-79643050D01*
X162340091Y-79480609D01*
X162177650Y-79347297D01*
X161992322Y-79248237D01*
X161791229Y-79187236D01*
X161582100Y-79166639D01*
X161372972Y-79187236D01*
X161171879Y-79248237D01*
X160986551Y-79347297D01*
X160824110Y-79480609D01*
X160690798Y-79643050D01*
X160591738Y-79828378D01*
X160530736Y-80029471D01*
X160515300Y-80186198D01*
X160108900Y-80186198D01*
X160093464Y-80029471D01*
X160032463Y-79828378D01*
X159933403Y-79643050D01*
X159800091Y-79480609D01*
X159637650Y-79347297D01*
X159452322Y-79248237D01*
X159251229Y-79187236D01*
X159042100Y-79166639D01*
X158832972Y-79187236D01*
X158631879Y-79248237D01*
X158446551Y-79347297D01*
X158284110Y-79480609D01*
X158150798Y-79643050D01*
X158051738Y-79828378D01*
X157990736Y-80029471D01*
X157975300Y-80186198D01*
X157568900Y-80186198D01*
X157553464Y-80029471D01*
X157492463Y-79828378D01*
X157393403Y-79643050D01*
X157260091Y-79480609D01*
X157097650Y-79347297D01*
X156912322Y-79248237D01*
X156711229Y-79187236D01*
X156502100Y-79166639D01*
X156292972Y-79187236D01*
X156091879Y-79248237D01*
X155906551Y-79347297D01*
X155744110Y-79480609D01*
X155610798Y-79643050D01*
X155511738Y-79828378D01*
X155450736Y-80029471D01*
X155435300Y-80186198D01*
X153631900Y-80186198D01*
X153616464Y-80029471D01*
X153555463Y-79828378D01*
X153456403Y-79643050D01*
X153323091Y-79480609D01*
X153160650Y-79347297D01*
X152975322Y-79248237D01*
X152774229Y-79187236D01*
X152565100Y-79166639D01*
X152355972Y-79187236D01*
X152154879Y-79248237D01*
X151969551Y-79347297D01*
X151807110Y-79480609D01*
X151673798Y-79643050D01*
X151574738Y-79828378D01*
X151513736Y-80029471D01*
X151498300Y-80186198D01*
X151091900Y-80186198D01*
X151076464Y-80029471D01*
X151015463Y-79828378D01*
X150916403Y-79643050D01*
X150783091Y-79480609D01*
X150620650Y-79347297D01*
X150435322Y-79248237D01*
X150234229Y-79187236D01*
X150025100Y-79166639D01*
X149815972Y-79187236D01*
X149614879Y-79248237D01*
X149429551Y-79347297D01*
X149267110Y-79480609D01*
X149133798Y-79643050D01*
X149034738Y-79828378D01*
X148973736Y-80029471D01*
X148958300Y-80186198D01*
X148551900Y-80186198D01*
X148536464Y-80029471D01*
X148475463Y-79828378D01*
X148376403Y-79643050D01*
X148243091Y-79480609D01*
X148080650Y-79347297D01*
X147895322Y-79248237D01*
X147694229Y-79187236D01*
X147485100Y-79166639D01*
X147275972Y-79187236D01*
X147074879Y-79248237D01*
X146889551Y-79347297D01*
X146727110Y-79480609D01*
X146593798Y-79643050D01*
X146494738Y-79828378D01*
X146433736Y-80029471D01*
X146418300Y-80186198D01*
X146011900Y-80186198D01*
X145996464Y-80029471D01*
X145935463Y-79828378D01*
X145836403Y-79643050D01*
X145703091Y-79480609D01*
X145540650Y-79347297D01*
X145355322Y-79248237D01*
X145154229Y-79187236D01*
X144945100Y-79166639D01*
X144735972Y-79187236D01*
X144534879Y-79248237D01*
X144349551Y-79347297D01*
X144187110Y-79480609D01*
X144053798Y-79643050D01*
X143954738Y-79828378D01*
X143893736Y-80029471D01*
X143878300Y-80186198D01*
X143471900Y-80186198D01*
X143456464Y-80029471D01*
X143395463Y-79828378D01*
X143296403Y-79643050D01*
X143163091Y-79480609D01*
X143000650Y-79347297D01*
X142815322Y-79248237D01*
X142614229Y-79187236D01*
X142405100Y-79166639D01*
X142195972Y-79187236D01*
X141994879Y-79248237D01*
X141809551Y-79347297D01*
X141647110Y-79480609D01*
X141513798Y-79643050D01*
X141414738Y-79828378D01*
X141353736Y-80029471D01*
X141338300Y-80186198D01*
X140931900Y-80186198D01*
X140916464Y-80029471D01*
X140855463Y-79828378D01*
X140756403Y-79643050D01*
X140623091Y-79480609D01*
X140460650Y-79347297D01*
X140275322Y-79248237D01*
X140074229Y-79187236D01*
X139865100Y-79166639D01*
X139655972Y-79187236D01*
X139454879Y-79248237D01*
X139269551Y-79347297D01*
X139107110Y-79480609D01*
X138973798Y-79643050D01*
X138874738Y-79828378D01*
X138859855Y-79877441D01*
X138834247Y-79757537D01*
X138711398Y-79472361D01*
X138535275Y-79216631D01*
X138312646Y-79000174D01*
X138052066Y-78831309D01*
X137744975Y-78721636D01*
X137502500Y-78879126D01*
X137147700Y-78879126D01*
X136905225Y-78721636D01*
X136598134Y-78831309D01*
X136337554Y-79000174D01*
X136114925Y-79216631D01*
X135938802Y-79472361D01*
X135815953Y-79757537D01*
X135790346Y-79877439D01*
X135775463Y-79828378D01*
X135676403Y-79643050D01*
X135543091Y-79480609D01*
X135380650Y-79347297D01*
X135195322Y-79248237D01*
X134994229Y-79187236D01*
X134785100Y-79166639D01*
X134575972Y-79187236D01*
X134374879Y-79248237D01*
X134189551Y-79347297D01*
X134027110Y-79480609D01*
X133893798Y-79643050D01*
X133794738Y-79828378D01*
X133733736Y-80029471D01*
X133718300Y-80186198D01*
X131840613Y-80186198D01*
X131828406Y-80176180D01*
X131687343Y-80100780D01*
X131534280Y-80054349D01*
X131375100Y-80038671D01*
X131101500Y-80042600D01*
X130898500Y-80245600D01*
X130543700Y-80245600D01*
X130340700Y-80042600D01*
X130067100Y-80038671D01*
X129907920Y-80054349D01*
X129754857Y-80100780D01*
X129613794Y-80176180D01*
X129490151Y-80277651D01*
X129388680Y-80401294D01*
X129313280Y-80542357D01*
X129298700Y-80590421D01*
X129298700Y-80014538D01*
X129301649Y-79984599D01*
X129298700Y-79954659D01*
X129289879Y-79865098D01*
X129255021Y-79750188D01*
X129198416Y-79644286D01*
X129122238Y-79551462D01*
X129098978Y-79532373D01*
X128633334Y-79066731D01*
X128614238Y-79043462D01*
X128521414Y-78967284D01*
X128415512Y-78910679D01*
X128300602Y-78875821D01*
X128211041Y-78867000D01*
X128181100Y-78864051D01*
X128151159Y-78867000D01*
X124655038Y-78867000D01*
X124625099Y-78864051D01*
X124595160Y-78867000D01*
X124595159Y-78867000D01*
X124505598Y-78875821D01*
X124390688Y-78910679D01*
X124284786Y-78967284D01*
X124191962Y-79043462D01*
X124172865Y-79066732D01*
X123961232Y-79278365D01*
X123937962Y-79297462D01*
X123861784Y-79390287D01*
X123805179Y-79496189D01*
X123788412Y-79551462D01*
X123770321Y-79611098D01*
X123758551Y-79730600D01*
X117436501Y-79730600D01*
X117436501Y-77622723D01*
X179565700Y-77875280D01*
G37*
%TD.AperFunction*%
%TD*%
M02*
